ISO-10303-21;
HEADER;
FILE_DESCRIPTION (( 'STEP AP203' ),
    '1' );
FILE_NAME ('MountingGauge.STEP',
    '2021-12-16T08:18:59',
    ( '' ),
    ( '' ),
    'SwSTEP 2.0',
    'SolidWorks 2020',
    '' );
FILE_SCHEMA (( 'CONFIG_CONTROL_DESIGN' ));
ENDSEC;

DATA;
#1 = CARTESIAN_POINT ( 'NONE',  ( 20.63000000000000256, 28.30000000000000071, -70.00000000000000000 ) ) ;
#2 = ORIENTED_EDGE ( 'NONE', *, *, #734, .T. ) ;
#3 = CLOSED_SHELL ( 'NONE', ( #855, #951, #826, #474, #344, #985, #291, #1015, #765, #621, #897, #803, #47, #536, #208, #222, #350, #1000, #299, #401, #878, #515, #743, #253, #142, #974, #181, #495, #500, #250, #113, #785 ) ) ;
#4 = AXIS2_PLACEMENT_3D ( 'NONE', #77, #400, #1053 ) ;
#5 = PLANE ( 'NONE',  #413 ) ;
#6 = AXIS2_PLACEMENT_3D ( 'NONE', #782, #210, #778 ) ;
#7 = VERTEX_POINT ( 'NONE', #405 ) ;
#8 = FACE_OUTER_BOUND ( 'NONE', #422, .T. ) ;
#9 = CARTESIAN_POINT ( 'NONE',  ( 35.13000000000001677, 28.30000000000000071, -40.00000000000000711 ) ) ;
#10 = VERTEX_POINT ( 'NONE', #419 ) ;
#11 = CARTESIAN_POINT ( 'NONE',  ( -3.000000000000000000, 2.999999999999999112, -70.00000000000000000 ) ) ;
#12 = DATE_AND_TIME ( #814, #152 ) ;
#13 = CARTESIAN_POINT ( 'NONE',  ( 20.63000000000000256, 28.30000000000000071, -40.00000000000000711 ) ) ;
#14 = CARTESIAN_POINT ( 'NONE',  ( 0.000000000000000000, 28.30000000000000071, 0.000000000000000000 ) ) ;
#15 = EDGE_CURVE ( 'NONE', #67, #146, #739, .T. ) ;
#16 = DIRECTION ( 'NONE',  ( 1.000000000000000000, 0.000000000000000000, -0.000000000000000000 ) ) ;
#17 = DIRECTION ( 'NONE',  ( -1.194713137725074903E-16, 1.000000000000000000, 0.000000000000000000 ) ) ;
#18 = ORIENTED_EDGE ( 'NONE', *, *, #127, .F. ) ;
#19 = EDGE_CURVE ( 'NONE', #821, #822, #978, .T. ) ;
#20 = AXIS2_PLACEMENT_3D ( 'NONE', #935, #640, #693 ) ;
#21 = VECTOR ( 'NONE', #709, 1000.000000000000000 ) ;
#22 = DIRECTION ( 'NONE',  ( 0.000000000000000000, -1.000000000000000000, 0.000000000000000000 ) ) ;
#23 = AXIS2_PLACEMENT_3D ( 'NONE', #745, #809, #649 ) ;
#24 = VECTOR ( 'NONE', #221, 1000.000000000000000 ) ;
#25 = ORIENTED_EDGE ( 'NONE', *, *, #547, .F. ) ;
#26 = CARTESIAN_POINT ( 'NONE',  ( 0.000000000000000000, 28.30000000000000071, -70.00000000000000000 ) ) ;
#27 = CARTESIAN_POINT ( 'NONE',  ( 12.12999999999999901, -1.663414684869459977E-15, -40.00000000000000711 ) ) ;
#28 = LINE ( 'NONE', #990, #537 ) ;
#29 = DIRECTION ( 'NONE',  ( -1.000000000000000000, -0.000000000000000000, -0.000000000000000000 ) ) ;
#30 = ORIENTED_EDGE ( 'NONE', *, *, #71, .F. ) ;
#31 = CARTESIAN_POINT ( 'NONE',  ( -3.584139413175223722E-16, 2.999999999999999112, -70.00000000000000000 ) ) ;
#32 = ORIENTED_EDGE ( 'NONE', *, *, #387, .T. ) ;
#33 = CARTESIAN_POINT ( 'NONE',  ( 0.000000000000000000, 2.999999999999993783, -70.00000000000000000 ) ) ;
#34 = VERTEX_POINT ( 'NONE', #890 ) ;
#35 = ORIENTED_EDGE ( 'NONE', *, *, #843, .T. ) ;
#36 = FACE_OUTER_BOUND ( 'NONE', #673, .T. ) ;
#37 = EDGE_CURVE ( 'NONE', #807, #859, #176, .T. ) ;
#38 = DIRECTION ( 'NONE',  ( 0.000000000000000000, 0.000000000000000000, -1.000000000000000000 ) ) ;
#39 = FACE_OUTER_BOUND ( 'NONE', #629, .T. ) ;
#40 = DIRECTION ( 'NONE',  ( -0.000000000000000000, -0.000000000000000000, -1.000000000000000000 ) ) ;
#41 = EDGE_LOOP ( 'NONE', ( #236, #631, #601, #659, #776, #999, #756, #251, #182, #681, #866, #876, #916, #650, #692, #35 ) ) ;
#42 = VECTOR ( 'NONE', #602, 1000.000000000000000 ) ;
#43 = CIRCLE ( 'NONE', #624, 8.500000000000000000 ) ;
#44 = VERTEX_POINT ( 'NONE', #272 ) ;
#45 = DIRECTION ( 'NONE',  ( 0.000000000000000000, 0.000000000000000000, -1.000000000000000000 ) ) ;
#46 = CYLINDRICAL_SURFACE ( 'NONE', #159, 8.500000000000000000 ) ;
#47 = ADVANCED_FACE ( 'NONE', ( #912 ), #800, .T. ) ;
#48 = ORIENTED_EDGE ( 'NONE', *, *, #189, .T. ) ;
#49 = DIRECTION ( 'NONE',  ( 0.000000000000000000, 0.000000000000000000, 1.000000000000000000 ) ) ;
#50 = CARTESIAN_POINT ( 'NONE',  ( 66.63000000000002387, 28.30000000000000071, -70.00000000000000000 ) ) ;
#51 = DIRECTION ( 'NONE',  ( 1.371322905910519167E-16, 1.000000000000000000, 0.000000000000000000 ) ) ;
#52 = EDGE_CURVE ( 'NONE', #994, #352, #861, .T. ) ;
#53 = ORIENTED_EDGE ( 'NONE', *, *, #316, .T. ) ;
#54 = PLANE ( 'NONE',  #20 ) ;
#55 = LINE ( 'NONE', #850, #42 ) ;
#56 = FACE_OUTER_BOUND ( 'NONE', #868, .T. ) ;
#57 = DIRECTION ( 'NONE',  ( 0.000000000000000000, 0.000000000000000000, -1.000000000000000000 ) ) ;
#58 = VECTOR ( 'NONE', #963, 1000.000000000000000 ) ;
#59 = EDGE_CURVE ( 'NONE', #821, #1014, #633, .T. ) ;
#60 = PLANE ( 'NONE',  #225 ) ;
#61 = LINE ( 'NONE', #388, #949 ) ;
#62 = SHAPE_DEFINITION_REPRESENTATION ( #564, #947 ) ;
#63 = ORIENTED_EDGE ( 'NONE', *, *, #335, .F. ) ;
#64 = EDGE_CURVE ( 'NONE', #975, #34, #373, .T. ) ;
#65 = CARTESIAN_POINT ( 'NONE',  ( -3.584139413175223722E-16, 2.999999999999999112, -40.00000000000000711 ) ) ;
#66 = LINE ( 'NONE', #971, #611 ) ;
#67 = VERTEX_POINT ( 'NONE', #238 ) ;
#68 = VECTOR ( 'NONE', #399, 1000.000000000000000 ) ;
#69 = CARTESIAN_POINT ( 'NONE',  ( 62.54000000000001336, 28.30000000000000071, -41.23350841189505189 ) ) ;
#70 = CIRCLE ( 'NONE', #390, 8.500000000000000000 ) ;
#71 = EDGE_CURVE ( 'NONE', #982, #328, #608, .T. ) ;
#72 = APPROVAL_PERSON_ORGANIZATION ( #319, #600, #412 ) ;
#73 = DIRECTION ( 'NONE',  ( -0.000000000000000000, 1.000000000000000000, -0.000000000000000000 ) ) ;
#74 = ORIENTED_EDGE ( 'NONE', *, *, #922, .T. ) ;
#75 = APPROVAL_STATUS ( 'not_yet_approved' ) ;
#76 = ORIENTED_EDGE ( 'NONE', *, *, #37, .T. ) ;
#77 = CARTESIAN_POINT ( 'NONE',  ( 35.13000000000001677, 28.30000000000000071, -48.50000000000000711 ) ) ;
#78 = EDGE_CURVE ( 'NONE', #10, #494, #1016, .T. ) ;
#79 = LINE ( 'NONE', #952, #258 ) ;
#80 = ORIENTED_EDGE ( 'NONE', *, *, #287, .F. ) ;
#81 = APPROVAL_ROLE ( '' ) ;
#82 = ORIENTED_EDGE ( 'NONE', *, *, #213, .T. ) ;
#83 = LINE ( 'NONE', #337, #1006 ) ;
#84 = ORIENTED_EDGE ( 'NONE', *, *, #59, .F. ) ;
#85 = PERSON_AND_ORGANIZATION_ROLE ( 'design_supplier' ) ;
#86 = CALENDAR_DATE ( 2021, 16, 12 ) ;
#87 = ORIENTED_EDGE ( 'NONE', *, *, #779, .F. ) ;
#88 = AXIS2_PLACEMENT_3D ( 'NONE', #658, #579, #180 ) ;
#89 = CIRCLE ( 'NONE', #223, 8.500000000000000000 ) ;
#90 = DIRECTION ( 'NONE',  ( 1.000000000000000000, -1.371322905910519167E-16, 0.000000000000000000 ) ) ;
#91 = CIRCLE ( 'NONE', #140, 8.500000000000000000 ) ;
#92 = CARTESIAN_POINT ( 'NONE',  ( 55.17000000000000881, 28.30000000000000071, 0.000000000000000000 ) ) ;
#93 = EDGE_LOOP ( 'NONE', ( #581, #202, #76, #297 ) ) ;
#94 = EDGE_CURVE ( 'NONE', #1020, #613, #894, .T. ) ;
#95 = ORIENTED_EDGE ( 'NONE', *, *, #706, .T. ) ;
#96 = DIRECTION ( 'NONE',  ( 0.000000000000000000, 0.000000000000000000, 1.000000000000000000 ) ) ;
#97 = ORIENTED_EDGE ( 'NONE', *, *, #943, .T. ) ;
#98 = APPROVAL_DATE_TIME ( #12, #893 ) ;
#99 = EDGE_CURVE ( 'NONE', #445, #566, #230, .T. ) ;
#100 = ORIENTED_EDGE ( 'NONE', *, *, #509, .F. ) ;
#101 = VERTEX_POINT ( 'NONE', #788 ) ;
#102 = CARTESIAN_POINT ( 'NONE',  ( 62.54000000000001336, 25.30000000000000426, -70.00100000000000477 ) ) ;
#103 = LINE ( 'NONE', #443, #612 ) ;
#104 = CALENDAR_DATE ( 2021, 16, 12 ) ;
#105 = CARTESIAN_POINT ( 'NONE',  ( 0.000000000000000000, 28.30000000000000071, -70.00000000000000000 ) ) ;
#106 = AXIS2_PLACEMENT_3D ( 'NONE', #497, #879, #827 ) ;
#107 = DIRECTION ( 'NONE',  ( 0.000000000000000000, 0.000000000000000000, -1.000000000000000000 ) ) ;
#108 = AXIS2_PLACEMENT_3D ( 'NONE', #363, #690, #217 ) ;
#109 = ORIENTED_EDGE ( 'NONE', *, *, #408, .F. ) ;
#110 = DIRECTION ( 'NONE',  ( 0.000000000000000000, -1.000000000000000000, 0.000000000000000000 ) ) ;
#111 = ORIENTED_EDGE ( 'NONE', *, *, #64, .F. ) ;
#112 = DIRECTION ( 'NONE',  ( -0.000000000000000000, -1.000000000000000000, -0.000000000000000000 ) ) ;
#113 = ADVANCED_FACE ( 'NONE', ( #161 ), #54, .F. ) ;
#114 = ORIENTED_EDGE ( 'NONE', *, *, #811, .T. ) ;
#115 = ORIENTED_EDGE ( 'NONE', *, *, #59, .T. ) ;
#116 = DIRECTION ( 'NONE',  ( -1.000000000000000000, 9.637352644315647012E-17, 0.000000000000000000 ) ) ;
#117 = DIRECTION ( 'NONE',  ( -1.000000000000000000, 0.000000000000000000, 0.000000000000000000 ) ) ;
#118 = ORIENTED_EDGE ( 'NONE', *, *, #820, .F. ) ;
#119 = DIRECTION ( 'NONE',  ( 1.000000000000000000, 1.194713137725074903E-16, 0.000000000000000000 ) ) ;
#120 = PRODUCT_RELATED_PRODUCT_CATEGORY ( 'detail', '', ( #1034 ) ) ;
#121 = CARTESIAN_POINT ( 'NONE',  ( 66.63000000000002387, 28.30000000000000071, -40.00000000000000711 ) ) ;
#122 = CARTESIAN_POINT ( 'NONE',  ( 62.54000000000001336, 25.30000000000000426, 0.000000000000000000 ) ) ;
#123 = ORIENTED_EDGE ( 'NONE', *, *, #370, .T. ) ;
#124 = AXIS2_PLACEMENT_3D ( 'NONE', #559, #865, #1023 ) ;
#125 = AXIS2_PLACEMENT_3D ( 'NONE', #904, #186, #351 ) ;
#126 = ORGANIZATION ( 'UNSPECIFIED', 'UNSPECIFIED', '' ) ;
#127 = EDGE_CURVE ( 'NONE', #902, #269, #66, .T. ) ;
#128 = CARTESIAN_POINT ( 'NONE',  ( 12.13000000000000256, 28.30000000000000071, -48.50000000000000711 ) ) ;
#129 = CARTESIAN_POINT ( 'NONE',  ( 3.629999999999996785, 2.999999999999999556, -70.00000000000000000 ) ) ;
#130 = CARTESIAN_POINT ( 'NONE',  ( 43.63000000000000256, 2.999999999999993783, -48.50000000000000711 ) ) ;
#131 = ORIENTED_EDGE ( 'NONE', *, *, #458, .F. ) ;
#132 = CARTESIAN_POINT ( 'NONE',  ( 63.12999999999998835, 0.000000000000000000, -48.00000000000000711 ) ) ;
#133 =( LENGTH_UNIT ( ) NAMED_UNIT ( * ) SI_UNIT ( .MILLI., .METRE. ) );
#134 = DIRECTION ( 'NONE',  ( 9.637352644315647012E-17, 1.000000000000000000, -0.000000000000000000 ) ) ;
#135 = CARTESIAN_POINT ( 'NONE',  ( 66.63000000000002387, 0.000000000000000000, -48.50000000000000711 ) ) ;
#136 = PLANE ( 'NONE',  #553 ) ;
#137 = EDGE_CURVE ( 'NONE', #44, #1020, #226, .T. ) ;
#138 = CIRCLE ( 'NONE', #730, 8.000000000000007105 ) ;
#139 =( NAMED_UNIT ( * ) PLANE_ANGLE_UNIT ( ) SI_UNIT ( $, .RADIAN. ) );
#140 = AXIS2_PLACEMENT_3D ( 'NONE', #852, #377, #841 ) ;
#141 = CARTESIAN_POINT ( 'NONE',  ( 58.13000000000002387, 2.999999999999993339, -48.50000000000000711 ) ) ;
#142 = ADVANCED_FACE ( 'NONE', ( #961 ), #246, .F. ) ;
#143 = ORIENTED_EDGE ( 'NONE', *, *, #851, .T. ) ;
#144 = CARTESIAN_POINT ( 'NONE',  ( 26.63000000000000966, -3.651832898439713880E-15, -70.00000000000000000 ) ) ;
#145 = DIRECTION ( 'NONE',  ( 0.000000000000000000, 0.000000000000000000, -1.000000000000000000 ) ) ;
#146 = VERTEX_POINT ( 'NONE', #623 ) ;
#147 = DIRECTION ( 'NONE',  ( -0.000000000000000000, -0.000000000000000000, 1.000000000000000000 ) ) ;
#148 = EDGE_CURVE ( 'NONE', #656, #915, #79, .T. ) ;
#149 = CARTESIAN_POINT ( 'NONE',  ( 66.63000000000002387, 2.999999999999992450, -70.00000000000000000 ) ) ;
#150 = CARTESIAN_POINT ( 'NONE',  ( 3.629999999999996341, -6.222377685568975367E-16, -70.00000000000000000 ) ) ;
#151 = EDGE_LOOP ( 'NONE', ( #583, #418, #114, #341, #911, #997 ) ) ;
#152 = LOCAL_TIME ( 9, 18, 59.00000000000000000, #175 ) ;
#153 = LINE ( 'NONE', #626, #300 ) ;
#154 = COORDINATED_UNIVERSAL_TIME_OFFSET ( 1, 0, .AHEAD. ) ;
#155 = VECTOR ( 'NONE', #1054, 1000.000000000000000 ) ;
#156 = EDGE_CURVE ( 'NONE', #485, #478, #545, .T. ) ;
#157 = EDGE_LOOP ( 'NONE', ( #1049, #53, #173, #672 ) ) ;
#158 = DIRECTION ( 'NONE',  ( -1.000000000000000000, 0.000000000000000000, 0.000000000000000000 ) ) ;
#159 = AXIS2_PLACEMENT_3D ( 'NONE', #603, #51, #358 ) ;
#160 = AXIS2_PLACEMENT_3D ( 'NONE', #854, #306, #371 ) ;
#161 = FACE_OUTER_BOUND ( 'NONE', #151, .T. ) ;
#162 = VERTEX_POINT ( 'NONE', #880 ) ;
#163 = PERSON_AND_ORGANIZATION ( #1027, #126 ) ;
#164 = DATE_AND_TIME ( #86, #261 ) ;
#165 = ORIENTED_EDGE ( 'NONE', *, *, #955, .F. ) ;
#166 = LINE ( 'NONE', #394, #918 ) ;
#167 = ORIENTED_EDGE ( 'NONE', *, *, #734, .F. ) ;
#168 = COORDINATED_UNIVERSAL_TIME_OFFSET ( 1, 0, .AHEAD. ) ;
#169 = ORIENTED_EDGE ( 'NONE', *, *, #1021, .F. ) ;
#170 = CARTESIAN_POINT ( 'NONE',  ( 26.63000000000000966, -3.651832898439713880E-15, -40.00000000000000711 ) ) ;
#171 = EDGE_CURVE ( 'NONE', #494, #584, #793, .T. ) ;
#172 = DIRECTION ( 'NONE',  ( 0.000000000000000000, -1.000000000000000000, 0.000000000000000000 ) ) ;
#173 = ORIENTED_EDGE ( 'NONE', *, *, #754, .T. ) ;
#174 = CARTESIAN_POINT ( 'NONE',  ( 3.629999999999996785, 2.999999999999999556, -40.00000000000000711 ) ) ;
#175 = COORDINATED_UNIVERSAL_TIME_OFFSET ( 1, 0, .AHEAD. ) ;
#176 = LINE ( 'NONE', #13, #378 ) ;
#177 = VECTOR ( 'NONE', #757, 1000.000000000000000 ) ;
#178 = CARTESIAN_POINT ( 'NONE',  ( 3.629999999999996785, 2.999999999999999556, -48.50000000000000711 ) ) ;
#179 = VECTOR ( 'NONE', #40, 1000.000000000000000 ) ;
#180 = DIRECTION ( 'NONE',  ( -0.000000000000000000, 0.000000000000000000, -1.000000000000000000 ) ) ;
#181 = ADVANCED_FACE ( 'NONE', ( #396 ), #716, .F. ) ;
#182 = ORIENTED_EDGE ( 'NONE', *, *, #867, .F. ) ;
#183 = ORIENTED_EDGE ( 'NONE', *, *, #1039, .F. ) ;
#184 = PLANE ( 'NONE',  #845 ) ;
#185 = CARTESIAN_POINT ( 'NONE',  ( 95.00000000000000000, 28.30000000000000071, -70.00000000000000000 ) ) ;
#186 = DIRECTION ( 'NONE',  ( 0.000000000000000000, 1.000000000000000000, 0.000000000000000000 ) ) ;
#187 = ORIENTED_EDGE ( 'NONE', *, *, #634, .F. ) ;
#188 = CARTESIAN_POINT ( 'NONE',  ( 3.630000000000001226, 28.30000000000000071, -40.00000000000000711 ) ) ;
#189 = EDGE_CURVE ( 'NONE', #560, #7, #402, .T. ) ;
#190 = CARTESIAN_POINT ( 'NONE',  ( 71.12999999999999545, 0.000000000000000000, -40.00000000000000711 ) ) ;
#191 = ORIENTED_EDGE ( 'NONE', *, *, #691, .F. ) ;
#192 = DIRECTION ( 'NONE',  ( 0.000000000000000000, 0.000000000000000000, 1.000000000000000000 ) ) ;
#193 = APPLICATION_CONTEXT ( 'configuration controlled 3d designs of mechanical parts and assemblies' ) ;
#194 = LINE ( 'NONE', #33, #507 ) ;
#195 = EDGE_CURVE ( 'NONE', #476, #10, #981, .T. ) ;
#196 = AXIS2_PLACEMENT_3D ( 'NONE', #369, #430, #671 ) ;
#197 = VERTEX_POINT ( 'NONE', #482 ) ;
#198 = ORIENTED_EDGE ( 'NONE', *, *, #862, .T. ) ;
#199 = LINE ( 'NONE', #834, #858 ) ;
#200 = CARTESIAN_POINT ( 'NONE',  ( 95.00000000000000000, 0.000000000000000000, 0.000000000000000000 ) ) ;
#201 = CC_DESIGN_PERSON_AND_ORGANIZATION_ASSIGNMENT ( #676, #85, ( #871 ) ) ;
#202 = ORIENTED_EDGE ( 'NONE', *, *, #361, .T. ) ;
#203 = ORIENTED_EDGE ( 'NONE', *, *, #329, .F. ) ;
#204 = DIRECTION ( 'NONE',  ( 0.000000000000000000, 0.000000000000000000, 1.000000000000000000 ) ) ;
#205 = FACE_OUTER_BOUND ( 'NONE', #1004, .T. ) ;
#206 = FACE_OUTER_BOUND ( 'NONE', #587, .T. ) ;
#207 = ORIENTED_EDGE ( 'NONE', *, *, #442, .F. ) ;
#208 = ADVANCED_FACE ( 'NONE', ( #741 ), #407, .F. ) ;
#209 = CARTESIAN_POINT ( 'NONE',  ( 43.63000000000000256, 28.30000000000000071, -70.00000000000000000 ) ) ;
#210 = DIRECTION ( 'NONE',  ( 0.000000000000000000, -1.000000000000000000, 0.000000000000000000 ) ) ;
#211 = EDGE_LOOP ( 'NONE', ( #111, #191, #483, #324 ) ) ;
#212 = VECTOR ( 'NONE', #266, 1000.000000000000000 ) ;
#213 = EDGE_CURVE ( 'NONE', #1014, #562, #576, .T. ) ;
#214 = CC_DESIGN_APPROVAL ( #600, ( #871 ) ) ;
#215 = DIRECTION ( 'NONE',  ( -0.000000000000000000, -0.000000000000000000, -1.000000000000000000 ) ) ;
#216 = CARTESIAN_POINT ( 'NONE',  ( -3.584139413175223722E-16, 2.999999999999999112, -40.00000000000000711 ) ) ;
#217 = DIRECTION ( 'NONE',  ( -0.000000000000000000, 0.000000000000000000, -1.000000000000000000 ) ) ;
#218 = EDGE_LOOP ( 'NONE', ( #758, #48, #384, #434 ) ) ;
#219 = EDGE_CURVE ( 'NONE', #505, #560, #1036, .T. ) ;
#220 = CARTESIAN_POINT ( 'NONE',  ( 20.63000000000000256, 28.30000000000000071, -48.50000000000000711 ) ) ;
#221 = DIRECTION ( 'NONE',  ( -0.000000000000000000, -1.000000000000000000, -0.000000000000000000 ) ) ;
#222 = ADVANCED_FACE ( 'NONE', ( #729 ), #427, .T. ) ;
#223 = AXIS2_PLACEMENT_3D ( 'NONE', #305, #930, #615 ) ;
#224 = ORIENTED_EDGE ( 'NONE', *, *, #148, .F. ) ;
#225 = AXIS2_PLACEMENT_3D ( 'NONE', #519, #839, #45 ) ;
#226 = LINE ( 'NONE', #293, #968 ) ;
#227 = VERTEX_POINT ( 'NONE', #92 ) ;
#228 = CARTESIAN_POINT ( 'NONE',  ( 0.000000000000000000, 28.30000000000000071, 0.000000000000000000 ) ) ;
#229 = DIRECTION ( 'NONE',  ( 0.000000000000000000, 0.000000000000000000, -1.000000000000000000 ) ) ;
#230 = LINE ( 'NONE', #389, #589 ) ;
#231 = EDGE_CURVE ( 'NONE', #340, #548, #70, .T. ) ;
#232 = EDGE_LOOP ( 'NONE', ( #554, #355, #948, #224 ) ) ;
#233 = MANIFOLD_SOLID_BREP ( 'Verrundung2', #3 ) ;
#234 = LINE ( 'NONE', #174, #794 ) ;
#235 = APPROVAL_STATUS ( 'not_yet_approved' ) ;
#236 = ORIENTED_EDGE ( 'NONE', *, *, #1009, .T. ) ;
#237 = CARTESIAN_POINT ( 'NONE',  ( 0.000000000000000000, 0.000000000000000000, -40.00000000000000711 ) ) ;
#238 = CARTESIAN_POINT ( 'NONE',  ( -3.000000000000000000, 0.000000000000000000, 0.000000000000000000 ) ) ;
#239 = EDGE_LOOP ( 'NONE', ( #183, #441, #833, #84, #977, #853 ) ) ;
#240 = CC_DESIGN_DATE_AND_TIME_ASSIGNMENT ( #567, #819, ( #349 ) ) ;
#241 = CARTESIAN_POINT ( 'NONE',  ( 20.62999999999999901, 2.999999999999996891, -40.00000000000000711 ) ) ;
#242 = VECTOR ( 'NONE', #29, 1000.000000000000000 ) ;
#243 = ORIENTED_EDGE ( 'NONE', *, *, #1047, .F. ) ;
#244 = CARTESIAN_POINT ( 'NONE',  ( 55.17000000000000881, 25.30000000000000426, -40.53203915672272473 ) ) ;
#245 = VECTOR ( 'NONE', #946, 1000.000000000000000 ) ;
#246 = CYLINDRICAL_SURFACE ( 'NONE', #124, 8.500000000000000000 ) ;
#247 = DESIGN_CONTEXT ( 'detailed design', #964, 'design' ) ;
#248 = ORIENTED_EDGE ( 'NONE', *, *, #1009, .F. ) ;
#249 = ORIENTED_EDGE ( 'NONE', *, *, #424, .F. ) ;
#250 = ADVANCED_FACE ( 'NONE', ( #986 ), #262, .F. ) ;
#251 = ORIENTED_EDGE ( 'NONE', *, *, #395, .T. ) ;
#252 = EDGE_LOOP ( 'NONE', ( #645, #359, #80, #248 ) ) ;
#253 = ADVANCED_FACE ( 'NONE', ( #663 ), #993, .T. ) ;
#254 = CARTESIAN_POINT ( 'NONE',  ( 55.17000000000000881, 25.30000000000000426, -70.00100000000000477 ) ) ;
#255 = ORIENTED_EDGE ( 'NONE', *, *, #698, .T. ) ;
#256 = LINE ( 'NONE', #188, #538 ) ;
#257 = CARTESIAN_POINT ( 'NONE',  ( 0.000000000000000000, 28.30000000000000071, -70.00000000000000000 ) ) ;
#258 = VECTOR ( 'NONE', #542, 1000.000000000000000 ) ;
#259 = VECTOR ( 'NONE', #856, 1000.000000000000000 ) ;
#260 = DIRECTION ( 'NONE',  ( 0.000000000000000000, -1.000000000000000000, 0.000000000000000000 ) ) ;
#261 = LOCAL_TIME ( 9, 18, 59.00000000000000000, #713 ) ;
#262 = CYLINDRICAL_SURFACE ( 'NONE', #125, 8.500000000000000000 ) ;
#263 = EDGE_CURVE ( 'NONE', #902, #478, #755, .T. ) ;
#264 = ORIENTED_EDGE ( 'NONE', *, *, #137, .T. ) ;
#265 = CARTESIAN_POINT ( 'NONE',  ( 62.54000000000001336, 28.30000000000000071, -70.00100000000000477 ) ) ;
#266 = DIRECTION ( 'NONE',  ( -1.000000000000000000, 9.637352644315647012E-17, 0.000000000000000000 ) ) ;
#267 = DIRECTION ( 'NONE',  ( -0.000000000000000000, 1.000000000000000000, -0.000000000000000000 ) ) ;
#268 = CARTESIAN_POINT ( 'NONE',  ( 0.000000000000000000, 0.000000000000000000, -40.00000000000000711 ) ) ;
#269 = VERTEX_POINT ( 'NONE', #816 ) ;
#270 = CARTESIAN_POINT ( 'NONE',  ( 58.13000000000002387, 25.30000000000000426, -48.50000000000000711 ) ) ;
#271 = EDGE_CURVE ( 'NONE', #485, #274, #570, .T. ) ;
#272 = CARTESIAN_POINT ( 'NONE',  ( 63.12999999999998835, 2.999999999999992895, -40.00000000000000711 ) ) ;
#273 = CARTESIAN_POINT ( 'NONE',  ( 0.000000000000000000, 2.999999999999996891, -40.00000000000000711 ) ) ;
#274 = VERTEX_POINT ( 'NONE', #493 ) ;
#275 = VERTEX_POINT ( 'NONE', #426 ) ;
#276 = LINE ( 'NONE', #906, #873 ) ;
#277 = EDGE_LOOP ( 'NONE', ( #423, #801, #198, #732 ) ) ;
#278 = CARTESIAN_POINT ( 'NONE',  ( 66.63000000000002387, 28.30000000000000071, -48.50000000000000711 ) ) ;
#279 = CARTESIAN_POINT ( 'NONE',  ( 95.00000000000000000, 28.30000000000000071, 0.000000000000000000 ) ) ;
#280 = VECTOR ( 'NONE', #73, 1000.000000000000000 ) ;
#281 = VECTOR ( 'NONE', #289, 1000.000000000000000 ) ;
#282 = VERTEX_POINT ( 'NONE', #992 ) ;
#283 = AXIS2_PLACEMENT_3D ( 'NONE', #26, #192, #588 ) ;
#284 = ORIENTED_EDGE ( 'NONE', *, *, #607, .F. ) ;
#285 = PLANE ( 'NONE',  #783 ) ;
#286 = DIRECTION ( 'NONE',  ( 0.000000000000000000, -1.000000000000000000, 0.000000000000000000 ) ) ;
#287 = EDGE_CURVE ( 'NONE', #859, #282, #565, .T. ) ;
#288 = VERTEX_POINT ( 'NONE', #578 ) ;
#289 = DIRECTION ( 'NONE',  ( -0.000000000000000000, -1.000000000000000000, -0.000000000000000000 ) ) ;
#290 = DIRECTION ( 'NONE',  ( 0.000000000000000000, 0.000000000000000000, -1.000000000000000000 ) ) ;
#291 = ADVANCED_FACE ( 'NONE', ( #744 ), #991, .F. ) ;
#292 = ORIENTED_EDGE ( 'NONE', *, *, #231, .F. ) ;
#293 = CARTESIAN_POINT ( 'NONE',  ( 63.12999999999998835, 0.000000000000000000, -40.00000000000000711 ) ) ;
#294 = DIRECTION ( 'NONE',  ( -1.714153632388149083E-16, -1.000000000000000000, 0.000000000000000000 ) ) ;
#295 = LINE ( 'NONE', #27, #792 ) ;
#296 = LINE ( 'NONE', #775, #245 ) ;
#297 = ORIENTED_EDGE ( 'NONE', *, *, #287, .T. ) ;
#298 = VECTOR ( 'NONE', #976, 1000.000000000000000 ) ;
#299 = ADVANCED_FACE ( 'NONE', ( #891 ), #5, .T. ) ;
#300 = VECTOR ( 'NONE', #392, 1000.000000000000000 ) ;
#301 = DIRECTION ( 'NONE',  ( 1.000000000000000000, -1.084202172485503448E-16, 0.000000000000000000 ) ) ;
#302 = CARTESIAN_POINT ( 'NONE',  ( 58.13000000000000966, 25.30000000000000426, -48.50000000000000711 ) ) ;
#303 = CARTESIAN_POINT ( 'NONE',  ( 0.000000000000000000, 28.30000000000000071, 0.000000000000000000 ) ) ;
#304 = EDGE_CURVE ( 'NONE', #34, #728, #552, .T. ) ;
#305 = CARTESIAN_POINT ( 'NONE',  ( 35.13000000000000256, 28.30000000000000071, -48.50000000000000711 ) ) ;
#306 = DIRECTION ( 'NONE',  ( 0.000000000000000000, -1.000000000000000000, 0.000000000000000000 ) ) ;
#307 = ORIENTED_EDGE ( 'NONE', *, *, #148, .T. ) ;
#308 = CARTESIAN_POINT ( 'NONE',  ( 49.63000000000000966, 2.999999999999993783, -70.00000000000000000 ) ) ;
#309 = CARTESIAN_POINT ( 'NONE',  ( 55.17000000000000881, 25.30000000000000426, 0.000000000000000000 ) ) ;
#310 = VECTOR ( 'NONE', #145, 1000.000000000000000 ) ;
#311 = AXIS2_PLACEMENT_3D ( 'NONE', #105, #96, #16 ) ;
#312 = ORIENTED_EDGE ( 'NONE', *, *, #304, .T. ) ;
#313 = CARTESIAN_POINT ( 'NONE',  ( 0.000000000000000000, 28.30000000000000071, -70.00000000000000000 ) ) ;
#314 = APPROVAL_DATE_TIME ( #164, #774 ) ;
#315 = DIRECTION ( 'NONE',  ( -9.637352644315647012E-17, -1.000000000000000000, 0.000000000000000000 ) ) ;
#316 = EDGE_CURVE ( 'NONE', #728, #737, #909, .T. ) ;
#317 = CARTESIAN_POINT ( 'NONE',  ( 71.12999999999999545, 0.000000000000000000, -40.00000000000000711 ) ) ;
#318 = ORIENTED_EDGE ( 'NONE', *, *, #94, .F. ) ;
#319 = PERSON_AND_ORGANIZATION ( #1027, #126 ) ;
#320 = ORIENTED_EDGE ( 'NONE', *, *, #263, .T. ) ;
#321 = CARTESIAN_POINT ( 'NONE',  ( 3.630000000000001226, 28.30000000000000071, -48.50000000000000711 ) ) ;
#322 = EDGE_CURVE ( 'NONE', #822, #562, #503, .T. ) ;
#323 = DIRECTION ( 'NONE',  ( 0.000000000000000000, -1.000000000000000000, 0.000000000000000000 ) ) ;
#324 = ORIENTED_EDGE ( 'NONE', *, *, #304, .F. ) ;
#325 = DIRECTION ( 'NONE',  ( 1.000000000000000000, -1.371322905910519414E-16, 0.000000000000000000 ) ) ;
#326 = ORIENTED_EDGE ( 'NONE', *, *, #843, .F. ) ;
#327 = LINE ( 'NONE', #416, #212 ) ;
#328 = VERTEX_POINT ( 'NONE', #481 ) ;
#329 = EDGE_CURVE ( 'NONE', #162, #67, #83, .T. ) ;
#330 = PERSON_AND_ORGANIZATION ( #1027, #126 ) ;
#331 = VECTOR ( 'NONE', #479, 1000.000000000000000 ) ;
#332 = DIRECTION ( 'NONE',  ( 1.000000000000000000, -9.637352644315647012E-17, 0.000000000000000000 ) ) ;
#333 = AXIS2_PLACEMENT_3D ( 'NONE', #683, #1013, #290 ) ;
#334 = ORIENTED_EDGE ( 'NONE', *, *, #156, .T. ) ;
#335 = EDGE_CURVE ( 'NONE', #328, #34, #622, .T. ) ;
#336 = ORIENTED_EDGE ( 'NONE', *, *, #811, .F. ) ;
#337 = CARTESIAN_POINT ( 'NONE',  ( -3.000000000000000000, 0.000000000000000000, 0.000000000000000000 ) ) ;
#338 = ORIENTED_EDGE ( 'NONE', *, *, #452, .T. ) ;
#339 = DIRECTION ( 'NONE',  ( -0.000000000000000000, -0.000000000000000000, 1.000000000000000000 ) ) ;
#340 = VERTEX_POINT ( 'NONE', #178 ) ;
#341 = ORIENTED_EDGE ( 'NONE', *, *, #127, .T. ) ;
#342 = CC_DESIGN_PERSON_AND_ORGANIZATION_ASSIGNMENT ( #796, #561, ( #349 ) ) ;
#343 = FACE_OUTER_BOUND ( 'NONE', #760, .T. ) ;
#344 = ADVANCED_FACE ( 'NONE', ( #492 ), #817, .F. ) ;
#345 = DIRECTION ( 'NONE',  ( 1.371322905910519167E-16, 1.000000000000000000, 0.000000000000000000 ) ) ;
#346 = DIRECTION ( 'NONE',  ( -1.000000000000000000, -1.020425574104004122E-16, 0.000000000000000000 ) ) ;
#347 = EDGE_LOOP ( 'NONE', ( #813, #255, #516, #539 ) ) ;
#348 = CIRCLE ( 'NONE', #592, 8.500000000000000000 ) ;
#349 = SECURITY_CLASSIFICATION ( '', '', #958 ) ;
#350 = ADVANCED_FACE ( 'NONE', ( #984 ), #432, .T. ) ;
#351 = DIRECTION ( 'NONE',  ( 0.000000000000000000, 0.000000000000000000, 1.000000000000000000 ) ) ;
#352 = VERTEX_POINT ( 'NONE', #185 ) ;
#353 = PLANE ( 'NONE',  #769 ) ;
#354 = PLANE ( 'NONE',  #575 ) ;
#355 = ORIENTED_EDGE ( 'NONE', *, *, #670, .T. ) ;
#356 = ORIENTED_EDGE ( 'NONE', *, *, #933, .F. ) ;
#357 = FACE_OUTER_BOUND ( 'NONE', #527, .T. ) ;
#358 = DIRECTION ( 'NONE',  ( -1.000000000000000000, 1.371322905910518674E-16, 0.000000000000000000 ) ) ;
#359 = ORIENTED_EDGE ( 'NONE', *, *, #509, .T. ) ;
#360 = CYLINDRICAL_SURFACE ( 'NONE', #614, 8.500000000000000000 ) ;
#361 = EDGE_CURVE ( 'NONE', #288, #807, #28, .T. ) ;
#362 = DIRECTION ( 'NONE',  ( 1.000000000000000000, -1.714153632388149083E-16, 0.000000000000000000 ) ) ;
#363 = CARTESIAN_POINT ( 'NONE',  ( 43.63000000000000256, 0.000000000000000000, -40.00000000000000711 ) ) ;
#364 = CARTESIAN_POINT ( 'NONE',  ( 71.12999999999999545, 2.999999999999992006, -40.00000000000000711 ) ) ;
#365 = VECTOR ( 'NONE', #647, 1000.000000000000000 ) ;
#366 = ORIENTED_EDGE ( 'NONE', *, *, #529, .T. ) ;
#367 =( GEOMETRIC_REPRESENTATION_CONTEXT ( 3 ) GLOBAL_UNCERTAINTY_ASSIGNED_CONTEXT ( ( #641 ) ) GLOBAL_UNIT_ASSIGNED_CONTEXT ( ( #133, #139, #368 ) ) REPRESENTATION_CONTEXT ( 'NONE', 'WORKASPACE' ) );
#368 =( NAMED_UNIT ( * ) SI_UNIT ( $, .STERADIAN. ) SOLID_ANGLE_UNIT ( ) );
#369 = CARTESIAN_POINT ( 'NONE',  ( 58.13000000000002387, 0.000000000000000000, -48.50000000000000711 ) ) ;
#370 = EDGE_CURVE ( 'NONE', #44, #197, #327, .T. ) ;
#371 = DIRECTION ( 'NONE',  ( 0.000000000000000000, 0.000000000000000000, -1.000000000000000000 ) ) ;
#372 = ORIENTED_EDGE ( 'NONE', *, *, #322, .F. ) ;
#373 = LINE ( 'NONE', #1055, #21 ) ;
#374 = FACE_OUTER_BOUND ( 'NONE', #277, .T. ) ;
#375 = ORIENTED_EDGE ( 'NONE', *, *, #529, .F. ) ;
#376 = EDGE_LOOP ( 'NONE', ( #815, #409, #95, #668, #312, #74 ) ) ;
#377 = DIRECTION ( 'NONE',  ( -0.000000000000000000, 1.000000000000000000, -0.000000000000000000 ) ) ;
#378 = VECTOR ( 'NONE', #490, 1000.000000000000000 ) ;
#379 = VECTOR ( 'NONE', #980, 1000.000000000000000 ) ;
#380 = EDGE_CURVE ( 'NONE', #613, #656, #582, .T. ) ;
#381 = LINE ( 'NONE', #687, #661 ) ;
#382 = FACE_OUTER_BOUND ( 'NONE', #824, .T. ) ;
#383 = LINE ( 'NONE', #257, #831 ) ;
#384 = ORIENTED_EDGE ( 'NONE', *, *, #933, .T. ) ;
#385 = CARTESIAN_POINT ( 'NONE',  ( 2.891205793294692624E-16, 2.999999999999998668, -40.00000000000000711 ) ) ;
#386 = ORIENTED_EDGE ( 'NONE', *, *, #380, .T. ) ;
#387 = EDGE_CURVE ( 'NONE', #328, #101, #577, .T. ) ;
#388 = CARTESIAN_POINT ( 'NONE',  ( 0.000000000000000000, 28.30000000000000071, -70.00000000000000000 ) ) ;
#389 = CARTESIAN_POINT ( 'NONE',  ( 66.63000000000002387, 2.999999999999992450, -40.00000000000000711 ) ) ;
#390 = AXIS2_PLACEMENT_3D ( 'NONE', #421, #17, #346 ) ;
#391 = ORIENTED_EDGE ( 'NONE', *, *, #335, .T. ) ;
#392 = DIRECTION ( 'NONE',  ( -0.000000000000000000, -0.000000000000000000, -1.000000000000000000 ) ) ;
#393 = AXIS2_PLACEMENT_3D ( 'NONE', #695, #286, #847 ) ;
#394 = CARTESIAN_POINT ( 'NONE',  ( 55.17000000000000881, 28.30000000000000071, 0.000000000000000000 ) ) ;
#395 = EDGE_CURVE ( 'NONE', #924, #227, #735, .T. ) ;
#396 = FACE_OUTER_BOUND ( 'NONE', #211, .T. ) ;
#397 = ORIENTED_EDGE ( 'NONE', *, *, #715, .F. ) ;
#398 = DIRECTION ( 'NONE',  ( -0.000000000000000000, -0.000000000000000000, -1.000000000000000000 ) ) ;
#399 = DIRECTION ( 'NONE',  ( -0.000000000000000000, -0.000000000000000000, -1.000000000000000000 ) ) ;
#400 = DIRECTION ( 'NONE',  ( 0.000000000000000000, -1.000000000000000000, 0.000000000000000000 ) ) ;
#401 = ADVANCED_FACE ( 'NONE', ( #343 ), #184, .T. ) ;
#402 = LINE ( 'NONE', #721, #1003 ) ;
#403 = ORIENTED_EDGE ( 'NONE', *, *, #231, .T. ) ;
#404 = DIRECTION ( 'NONE',  ( 1.000000000000000000, 0.000000000000000000, -0.000000000000000000 ) ) ;
#405 = CARTESIAN_POINT ( 'NONE',  ( 62.54000000000001336, 25.30000000000000426, -41.23350841189505189 ) ) ;
#406 = DIRECTION ( 'NONE',  ( -0.000000000000000000, 0.000000000000000000, 1.000000000000000000 ) ) ;
#407 = PLANE ( 'NONE',  #88 ) ;
#408 = EDGE_CURVE ( 'NONE', #352, #1042, #767, .T. ) ;
#409 = ORIENTED_EDGE ( 'NONE', *, *, #213, .F. ) ;
#411 = AXIS2_PLACEMENT_3D ( 'NONE', #1048, #323, #551 ) ;
#410 = LINE ( 'NONE', #241, #58 ) ;
#412 = APPROVAL_ROLE ( '' ) ;
#413 = AXIS2_PLACEMENT_3D ( 'NONE', #170, #90, #345 ) ;
#414 = ORIENTED_EDGE ( 'NONE', *, *, #522, .T. ) ;
#415 = AXIS2_PLACEMENT_3D ( 'NONE', #460, #586, #604 ) ;
#416 = CARTESIAN_POINT ( 'NONE',  ( 2.891205793294692624E-16, 2.999999999999998668, -40.00000000000000711 ) ) ;
#417 = DIRECTION ( 'NONE',  ( -0.000000000000000000, 1.000000000000000000, -0.000000000000000000 ) ) ;
#418 = ORIENTED_EDGE ( 'NONE', *, *, #437, .T. ) ;
#419 = CARTESIAN_POINT ( 'NONE',  ( 55.17000000000000881, 25.30000000000000426, 0.000000000000000000 ) ) ;
#420 = DIRECTION ( 'NONE',  ( 0.000000000000000000, 0.000000000000000000, -1.000000000000000000 ) ) ;
#421 = CARTESIAN_POINT ( 'NONE',  ( 12.12999999999999723, 3.000000000000000444, -48.50000000000000711 ) ) ;
#422 = EDGE_LOOP ( 'NONE', ( #905, #722, #996, #414 ) ) ;
#423 = ORIENTED_EDGE ( 'NONE', *, *, #928, .F. ) ;
#424 = EDGE_CURVE ( 'NONE', #34, #548, #844, .T. ) ;
#425 = DIRECTION ( 'NONE',  ( -1.371322905910519167E-16, -1.000000000000000000, 0.000000000000000000 ) ) ;
#426 = CARTESIAN_POINT ( 'NONE',  ( 43.63000000000000256, 2.999999999999993783, -70.00000000000000000 ) ) ;
#427 = PLANE ( 'NONE',  #23 ) ;
#428 = ORIENTED_EDGE ( 'NONE', *, *, #1047, .T. ) ;
#429 = DIRECTION ( 'NONE',  ( -0.000000000000000000, -0.000000000000000000, 1.000000000000000000 ) ) ;
#430 = DIRECTION ( 'NONE',  ( 0.000000000000000000, -1.000000000000000000, 0.000000000000000000 ) ) ;
#431 = CIRCLE ( 'NONE', #898, 8.500000000000000000 ) ;
#432 = PLANE ( 'NONE',  #896 ) ;
#433 = DIRECTION ( 'NONE',  ( -1.000000000000000000, 0.000000000000000000, -0.000000000000000000 ) ) ;
#434 = ORIENTED_EDGE ( 'NONE', *, *, #171, .T. ) ;
#435 = ORIENTED_EDGE ( 'NONE', *, *, #738, .F. ) ;
#436 = CARTESIAN_POINT ( 'NONE',  ( -3.000000000000000000, 28.30000000000000071, -70.00000000000000000 ) ) ;
#437 = EDGE_CURVE ( 'NONE', #924, #274, #931, .T. ) ;
#438 = ORIENTED_EDGE ( 'NONE', *, *, #670, .F. ) ;
#439 = DIRECTION ( 'NONE',  ( -1.000000000000000000, 0.000000000000000000, 0.000000000000000000 ) ) ;
#440 = FACE_OUTER_BOUND ( 'NONE', #252, .T. ) ;
#441 = ORIENTED_EDGE ( 'NONE', *, *, #450, .T. ) ;
#442 = EDGE_CURVE ( 'NONE', #269, #162, #1001, .T. ) ;
#443 = CARTESIAN_POINT ( 'NONE',  ( 43.63000000000000256, 0.000000000000000000, -70.00000000000000000 ) ) ;
#444 = VECTOR ( 'NONE', #1032, 1000.000000000000000 ) ;
#445 = VERTEX_POINT ( 'NONE', #938 ) ;
#446 = AXIS2_PLACEMENT_3D ( 'NONE', #718, #540, #860 ) ;
#447 = DIRECTION ( 'NONE',  ( 0.000000000000000000, -1.000000000000000000, -0.000000000000000000 ) ) ;
#448 = CARTESIAN_POINT ( 'NONE',  ( 3.629999999999995897, 2.999999999999999556, -48.50000000000000711 ) ) ;
#449 = CARTESIAN_POINT ( 'NONE',  ( 71.12999999999999545, 2.999999999999992006, -48.00000000000000711 ) ) ;
#450 = EDGE_CURVE ( 'NONE', #1041, #197, #666, .T. ) ;
#451 = DIRECTION ( 'NONE',  ( 0.000000000000000000, 0.000000000000000000, -1.000000000000000000 ) ) ;
#452 = EDGE_CURVE ( 'NONE', #562, #275, #194, .T. ) ;
#453 = DIRECTION ( 'NONE',  ( -0.000000000000000000, 1.000000000000000000, -0.000000000000000000 ) ) ;
#454 = CARTESIAN_POINT ( 'NONE',  ( 95.00000000000000000, 0.000000000000000000, -70.00000000000000000 ) ) ;
#455 = CC_DESIGN_DATE_AND_TIME_ASSIGNMENT ( #484, #630, ( #464 ) ) ;
#456 = AXIS2_PLACEMENT_3D ( 'NONE', #869, #229, #864 ) ;
#457 = VECTOR ( 'NONE', #429, 1000.000000000000000 ) ;
#458 = EDGE_CURVE ( 'NONE', #146, #804, #1008, .T. ) ;
#459 = ORIENTED_EDGE ( 'NONE', *, *, #738, .T. ) ;
#460 = CARTESIAN_POINT ( 'NONE',  ( 0.000000000000000000, 0.000000000000000000, 0.000000000000000000 ) ) ;
#461 = DIRECTION ( 'NONE',  ( 0.000000000000000000, -1.000000000000000000, 0.000000000000000000 ) ) ;
#462 = DIRECTION ( 'NONE',  ( 0.000000000000000000, -1.000000000000000000, 0.000000000000000000 ) ) ;
#463 = ORIENTED_EDGE ( 'NONE', *, *, #322, .T. ) ;
#464 = PRODUCT_DEFINITION ( 'UNKNOWN', '', #871, #247 ) ;
#465 = FACE_OUTER_BOUND ( 'NONE', #93, .T. ) ;
#466 = LINE ( 'NONE', #791, #489 ) ;
#467 = DIRECTION ( 'NONE',  ( -1.714153632388149083E-16, -1.000000000000000000, 0.000000000000000000 ) ) ;
#468 = VECTOR ( 'NONE', #506, 1000.000000000000000 ) ;
#469 = VERTEX_POINT ( 'NONE', #209 ) ;
#470 = APPLICATION_PROTOCOL_DEFINITION ( 'international standard', 'config_control_design', 1994, #193 ) ;
#471 = AXIS2_PLACEMENT_3D ( 'NONE', #303, #617, #945 ) ;
#472 = DIRECTION ( 'NONE',  ( 1.000000000000000000, 0.000000000000000000, 0.000000000000000000 ) ) ;
#473 = CARTESIAN_POINT ( 'NONE',  ( 71.12999999999999545, 0.000000000000000000, -70.00000000000000000 ) ) ;
#474 = ADVANCED_FACE ( 'NONE', ( #440 ), #354, .F. ) ;
#475 = DIRECTION ( 'NONE',  ( -1.000000000000000000, 0.000000000000000000, 0.000000000000000000 ) ) ;
#476 = VERTEX_POINT ( 'NONE', #502 ) ;
#477 = PERSON_AND_ORGANIZATION_ROLE ( 'design_owner' ) ;
#478 = VERTEX_POINT ( 'NONE', #129 ) ;
#479 = DIRECTION ( 'NONE',  ( 0.000000000000000000, 1.000000000000000000, 0.000000000000000000 ) ) ;
#480 = EDGE_CURVE ( 'NONE', #469, #275, #103, .T. ) ;
#481 = CARTESIAN_POINT ( 'NONE',  ( 26.63000000000000966, 2.999999999999996891, -48.50000000000000711 ) ) ;
#482 = CARTESIAN_POINT ( 'NONE',  ( 58.13000000000002387, 2.999999999999993339, -40.00000000000000711 ) ) ;
#483 = ORIENTED_EDGE ( 'NONE', *, *, #316, .F. ) ;
#484 = DATE_AND_TIME ( #1044, #508 ) ;
#485 = VERTEX_POINT ( 'NONE', #514 ) ;
#486 = CARTESIAN_POINT ( 'NONE',  ( 55.17000000000000881, 28.30000000000000071, -70.00100000000000477 ) ) ;
#487 = CC_DESIGN_PERSON_AND_ORGANIZATION_ASSIGNMENT ( #590, #513, ( #871 ) ) ;
#488 = ORIENTED_EDGE ( 'NONE', *, *, #370, .F. ) ;
#489 = VECTOR ( 'NONE', #720, 1000.000000000000000 ) ;
#490 = DIRECTION ( 'NONE',  ( -0.000000000000000000, -0.000000000000000000, -1.000000000000000000 ) ) ;
#491 = CIRCLE ( 'NONE', #333, 8.500000000000000000 ) ;
#492 = FACE_OUTER_BOUND ( 'NONE', #643, .T. ) ;
#493 = CARTESIAN_POINT ( 'NONE',  ( -3.000000000000000000, 28.30000000000000071, -70.00000000000000000 ) ) ;
#494 = VERTEX_POINT ( 'NONE', #122 ) ;
#495 = ADVANCED_FACE ( 'NONE', ( #682 ), #46, .F. ) ;
#496 = CARTESIAN_POINT ( 'NONE',  ( 26.63000000000001322, 28.30000000000000071, -48.50000000000000711 ) ) ;
#497 = CARTESIAN_POINT ( 'NONE',  ( 35.13000000000000966, 2.999999999999996891, -48.50000000000000711 ) ) ;
#498 = VERTEX_POINT ( 'NONE', #449 ) ;
#499 = DIRECTION ( 'NONE',  ( -0.000000000000000000, -0.000000000000000000, -1.000000000000000000 ) ) ;
#500 = ADVANCED_FACE ( 'NONE', ( #773 ), #995, .F. ) ;
#501 = DIRECTION ( 'NONE',  ( -1.000000000000000000, -0.000000000000000000, -0.000000000000000000 ) ) ;
#502 = CARTESIAN_POINT ( 'NONE',  ( 55.17000000000000881, 25.30000000000000426, -40.53203915672272473 ) ) ;
#503 = LINE ( 'NONE', #736, #379 ) ;
#504 = DIRECTION ( 'NONE',  ( -0.000000000000000000, -0.000000000000000000, -1.000000000000000000 ) ) ;
#505 = VERTEX_POINT ( 'NONE', #278 ) ;
#506 = DIRECTION ( 'NONE',  ( -1.000000000000000000, -0.000000000000000000, -0.000000000000000000 ) ) ;
#507 = VECTOR ( 'NONE', #920, 1000.000000000000000 ) ;
#508 = LOCAL_TIME ( 9, 18, 59.00000000000000000, #168 ) ;
#509 = EDGE_CURVE ( 'NONE', #101, #282, #1012, .T. ) ;
#510 = ORIENTED_EDGE ( 'NONE', *, *, #571, .F. ) ;
#511 = CARTESIAN_POINT ( 'NONE',  ( 71.12999999999999545, 2.999999999999992006, -70.00000000000000000 ) ) ;
#512 = CARTESIAN_POINT ( 'NONE',  ( 26.63000000000001322, 28.30000000000000071, -70.00000000000000000 ) ) ;
#513 = PERSON_AND_ORGANIZATION_ROLE ( 'creator' ) ;
#514 = CARTESIAN_POINT ( 'NONE',  ( 3.630000000000001226, 28.30000000000000071, -70.00000000000000000 ) ) ;
#515 = ADVANCED_FACE ( 'NONE', ( #374 ), #285, .T. ) ;
#516 = ORIENTED_EDGE ( 'NONE', *, *, #701, .T. ) ;
#517 = ORIENTED_EDGE ( 'NONE', *, *, #263, .F. ) ;
#518 = CARTESIAN_POINT ( 'NONE',  ( 63.12999999999998835, 2.999999999999992895, -48.00000000000000711 ) ) ;
#519 = CARTESIAN_POINT ( 'NONE',  ( 62.54000000000001336, 28.30000000000000071, -70.00100000000000477 ) ) ;
#520 = PLANE ( 'NONE',  #768 ) ;
#521 = ORIENTED_EDGE ( 'NONE', *, *, #943, .F. ) ;
#522 = EDGE_CURVE ( 'NONE', #994, #146, #752, .T. ) ;
#523 = CARTESIAN_POINT ( 'NONE',  ( 0.000000000000000000, 28.30000000000000071, -70.00000000000000000 ) ) ;
#524 = CC_DESIGN_APPROVAL ( #893, ( #349 ) ) ;
#525 = CYLINDRICAL_SURFACE ( 'NONE', #393, 8.000000000000000000 ) ;
#526 = VECTOR ( 'NONE', #117, 1000.000000000000000 ) ;
#527 = EDGE_LOOP ( 'NONE', ( #307, #899, #87, #109, #568, #957 ) ) ;
#528 = CIRCLE ( 'NONE', #812, 8.500000000000000000 ) ;
#529 = EDGE_CURVE ( 'NONE', #959, #548, #295, .T. ) ;
#530 = CARTESIAN_POINT ( 'NONE',  ( 95.00000000000000000, 28.30000000000000071, 0.000000000000000000 ) ) ;
#531 = CARTESIAN_POINT ( 'NONE',  ( 0.000000000000000000, 0.000000000000000000, -70.00000000000000000 ) ) ;
#532 = DIRECTION ( 'NONE',  ( -1.194713137725074903E-16, 1.000000000000000000, 0.000000000000000000 ) ) ;
#533 = CARTESIAN_POINT ( 'NONE',  ( 43.63000000000000256, 28.30000000000000071, -48.50000000000000711 ) ) ;
#534 = LINE ( 'NONE', #364, #784 ) ;
#535 = VECTOR ( 'NONE', #888, 1000.000000000000000 ) ;
#536 = ADVANCED_FACE ( 'NONE', ( #205 ), #520, .T. ) ;
#537 = VECTOR ( 'NONE', #569, 1000.000000000000000 ) ;
#538 = VECTOR ( 'NONE', #499, 1000.000000000000000 ) ;
#539 = ORIENTED_EDGE ( 'NONE', *, *, #779, .T. ) ;
#540 = DIRECTION ( 'NONE',  ( 0.000000000000000000, 0.000000000000000000, 1.000000000000000000 ) ) ;
#541 = EDGE_CURVE ( 'NONE', #476, #717, #966, .T. ) ;
#542 = DIRECTION ( 'NONE',  ( 0.000000000000000000, 1.000000000000000000, 0.000000000000000000 ) ) ;
#543 = ORIENTED_EDGE ( 'NONE', *, *, #450, .F. ) ;
#544 = CARTESIAN_POINT ( 'NONE',  ( 55.17000000000000881, 28.30000000000000071, -70.00100000000000477 ) ) ;
#545 = LINE ( 'NONE', #150, #746 ) ;
#546 = ORIENTED_EDGE ( 'NONE', *, *, #99, .T. ) ;
#547 = EDGE_CURVE ( 'NONE', #667, #101, #646, .T. ) ;
#548 = VERTEX_POINT ( 'NONE', #632 ) ;
#549 = CARTESIAN_POINT ( 'NONE',  ( 71.12999999999999545, 0.000000000000000000, -48.00000000000000711 ) ) ;
#550 = AXIS2_PLACEMENT_3D ( 'NONE', #317, #475, #49 ) ;
#551 = DIRECTION ( 'NONE',  ( 0.000000000000000000, 0.000000000000000000, -1.000000000000000000 ) ) ;
#552 = CIRCLE ( 'NONE', #810, 8.500000000000000000 ) ;
#553 = AXIS2_PLACEMENT_3D ( 'NONE', #216, #532, #605 ) ;
#554 = ORIENTED_EDGE ( 'NONE', *, *, #380, .F. ) ;
#555 = DIRECTION ( 'NONE',  ( -0.000000000000000000, 1.000000000000000000, -0.000000000000000000 ) ) ;
#556 = EDGE_CURVE ( 'NONE', #352, #804, #638, .T. ) ;
#557 = ORIENTED_EDGE ( 'NONE', *, *, #94, .T. ) ;
#558 = CARTESIAN_POINT ( 'NONE',  ( 35.13000000000000256, 2.999999999999993783, -48.50000000000000711 ) ) ;
#559 = CARTESIAN_POINT ( 'NONE',  ( 12.12999999999999901, -1.663414684869459977E-15, -48.50000000000000711 ) ) ;
#560 = VERTEX_POINT ( 'NONE', #69 ) ;
#561 = PERSON_AND_ORGANIZATION_ROLE ( 'classification_officer' ) ;
#562 = VERTEX_POINT ( 'NONE', #308 ) ;
#563 = CARTESIAN_POINT ( 'NONE',  ( 58.13000000000000966, 28.30000000000000071, -48.50000000000000711 ) ) ;
#564 = PRODUCT_DEFINITION_SHAPE ( 'NONE', 'NONE',  #464 ) ;
#565 = LINE ( 'NONE', #887, #1022 ) ;
#566 = VERTEX_POINT ( 'NONE', #149 ) ;
#567 = DATE_AND_TIME ( #901, #940 ) ;
#568 = ORIENTED_EDGE ( 'NONE', *, *, #556, .T. ) ;
#569 = DIRECTION ( 'NONE',  ( 1.371322905910519414E-16, 1.000000000000000000, -0.000000000000000000 ) ) ;
#570 = LINE ( 'NONE', #892, #242 ) ;
#571 = EDGE_CURVE ( 'NONE', #227, #10, #166, .T. ) ;
#572 = CARTESIAN_POINT ( 'NONE',  ( 49.63000000000000966, 2.999999999999993783, -40.00000000000000711 ) ) ;
#573 = ORIENTED_EDGE ( 'NONE', *, *, #15, .T. ) ;
#574 = VECTOR ( 'NONE', #686, 1000.000000000000000 ) ;
#575 = AXIS2_PLACEMENT_3D ( 'NONE', #523, #688, #840 ) ;
#576 = LINE ( 'NONE', #572, #675 ) ;
#577 = LINE ( 'NONE', #908, #696 ) ;
#578 = CARTESIAN_POINT ( 'NONE',  ( 20.62999999999999901, 2.999999999999996891, -48.50000000000000711 ) ) ;
#579 = DIRECTION ( 'NONE',  ( 1.000000000000000000, 0.000000000000000000, -0.000000000000000000 ) ) ;
#580 = CC_DESIGN_PERSON_AND_ORGANIZATION_ASSIGNMENT ( #330, #1051, ( #464 ) ) ;
#581 = ORIENTED_EDGE ( 'NONE', *, *, #851, .F. ) ;
#582 = LINE ( 'NONE', #190, #365 ) ;
#583 = ORIENTED_EDGE ( 'NONE', *, *, #886, .T. ) ;
#584 = VERTEX_POINT ( 'NONE', #799 ) ;
#585 = CARTESIAN_POINT ( 'NONE',  ( -3.000000000000000000, 0.000000000000000000, -40.00000000000000711 ) ) ;
#586 = DIRECTION ( 'NONE',  ( 0.000000000000000000, -1.000000000000000000, 0.000000000000000000 ) ) ;
#587 = EDGE_LOOP ( 'NONE', ( #463, #338, #771, #972 ) ) ;
#588 = DIRECTION ( 'NONE',  ( 1.000000000000000000, 0.000000000000000000, -0.000000000000000000 ) ) ;
#589 = VECTOR ( 'NONE', #215, 1000.000000000000000 ) ;
#590 = PERSON_AND_ORGANIZATION ( #1027, #126 ) ;
#591 = CARTESIAN_POINT ( 'NONE',  ( 0.000000000000000000, 2.999999999999996891, -70.00000000000000000 ) ) ;
#592 = AXIS2_PLACEMENT_3D ( 'NONE', #563, #461, #703 ) ;
#593 = EDGE_CURVE ( 'NONE', #717, #821, #348, .T. ) ;
#594 = VECTOR ( 'NONE', #147, 1000.000000000000000 ) ;
#595 = ORIENTED_EDGE ( 'NONE', *, *, #78, .F. ) ;
#596 = ORIENTED_EDGE ( 'NONE', *, *, #395, .F. ) ;
#597 = DIRECTION ( 'NONE',  ( -1.000000000000000000, 1.714153632388149329E-16, 0.000000000000000000 ) ) ;
#598 = CARTESIAN_POINT ( 'NONE',  ( 95.00000000000000000, 28.30000000000000071, 0.000000000000000000 ) ) ;
#599 = DIRECTION ( 'NONE',  ( -0.000000000000000000, -0.000000000000000000, -1.000000000000000000 ) ) ;
#600 = APPROVAL ( #806, 'UNSPECIFIED' ) ;
#601 = ORIENTED_EDGE ( 'NONE', *, *, #715, .T. ) ;
#602 = DIRECTION ( 'NONE',  ( 0.000000000000000000, 1.000000000000000000, 0.000000000000000000 ) ) ;
#603 = CARTESIAN_POINT ( 'NONE',  ( 35.13000000000000966, -4.817457368463655197E-15, -48.50000000000000711 ) ) ;
#604 = DIRECTION ( 'NONE',  ( 0.000000000000000000, -0.000000000000000000, -1.000000000000000000 ) ) ;
#605 = DIRECTION ( 'NONE',  ( -1.000000000000000000, -1.194713137725074903E-16, 0.000000000000000000 ) ) ;
#606 = ORIENTED_EDGE ( 'NONE', *, *, #698, .F. ) ;
#607 = EDGE_CURVE ( 'NONE', #269, #548, #787, .T. ) ;
#608 = LINE ( 'NONE', #956, #574 ) ;
#609 = FACE_OUTER_BOUND ( 'NONE', #218, .T. ) ;
#610 = CARTESIAN_POINT ( 'NONE',  ( 58.13000000000002387, 0.000000000000000000, -40.00000000000000711 ) ) ;
#611 = VECTOR ( 'NONE', #628, 1000.000000000000000 ) ;
#612 = VECTOR ( 'NONE', #832, 1000.000000000000000 ) ;
#613 = VERTEX_POINT ( 'NONE', #549 ) ;
#614 = AXIS2_PLACEMENT_3D ( 'NONE', #674, #1005, #597 ) ;
#615 = DIRECTION ( 'NONE',  ( 0.000000000000000000, 0.000000000000000000, -1.000000000000000000 ) ) ;
#616 = DIRECTION ( 'NONE',  ( 0.000000000000000000, -1.000000000000000000, 0.000000000000000000 ) ) ;
#617 = DIRECTION ( 'NONE',  ( 0.000000000000000000, -1.000000000000000000, 0.000000000000000000 ) ) ;
#618 = EDGE_CURVE ( 'NONE', #822, #469, #61, .T. ) ;
#619 = CARTESIAN_POINT ( 'NONE',  ( 55.17000000000000881, 28.30000000000000071, -40.53203915672272473 ) ) ;
#620 = ORIENTED_EDGE ( 'NONE', *, *, #652, .F. ) ;
#621 = ADVANCED_FACE ( 'NONE', ( #705 ), #1037, .F. ) ;
#622 = CIRCLE ( 'NONE', #106, 8.500000000000000000 ) ;
#623 = CARTESIAN_POINT ( 'NONE',  ( 95.00000000000000000, 0.000000000000000000, 0.000000000000000000 ) ) ;
#624 = AXIS2_PLACEMENT_3D ( 'NONE', #141, #134, #763 ) ;
#625 = ORIENTED_EDGE ( 'NONE', *, *, #541, .T. ) ;
#626 = CARTESIAN_POINT ( 'NONE',  ( 26.63000000000001322, 28.30000000000000071, -40.00000000000000711 ) ) ;
#627 = DIRECTION ( 'NONE',  ( -1.371322905910518921E-16, -1.000000000000000000, 0.000000000000000000 ) ) ;
#628 = DIRECTION ( 'NONE',  ( -0.000000000000000000, -2.457524924300477046E-16, 1.000000000000000000 ) ) ;
#629 = EDGE_LOOP ( 'NONE', ( #620, #557, #386, #881, #131, #637, #203 ) ) ;
#630 = DATE_TIME_ROLE ( 'creation_date' ) ;
#631 = ORIENTED_EDGE ( 'NONE', *, *, #37, .F. ) ;
#632 = CARTESIAN_POINT ( 'NONE',  ( 12.12999999999999901, 2.999999999999996891, -40.00000000000000711 ) ) ;
#633 = LINE ( 'NONE', #772, #934 ) ;
#634 = EDGE_CURVE ( 'NONE', #197, #34, #466, .T. ) ;
#635 = VERTEX_POINT ( 'NONE', #321 ) ;
#636 = APPLICATION_PROTOCOL_DEFINITION ( 'international standard', 'config_control_design', 1994, #964 ) ;
#637 = ORIENTED_EDGE ( 'NONE', *, *, #15, .F. ) ;
#638 = LINE ( 'NONE', #877, #298 ) ;
#639 = AXIS2_PLACEMENT_3D ( 'NONE', #132, #849, #451 ) ;
#640 = DIRECTION ( 'NONE',  ( 1.000000000000000000, 0.000000000000000000, 0.000000000000000000 ) ) ;
#641 = UNCERTAINTY_MEASURE_WITH_UNIT (LENGTH_MEASURE( 1.000000000000000082E-05 ), #133, 'distance_accuracy_value', 'NONE');
#642 = AXIS2_PLACEMENT_3D ( 'NONE', #270, #110, #669 ) ;
#643 = EDGE_LOOP ( 'NONE', ( #334, #517, #336, #953 ) ) ;
#644 = PLANE ( 'NONE',  #919 ) ;
#645 = ORIENTED_EDGE ( 'NONE', *, *, #547, .T. ) ;
#646 = LINE ( 'NONE', #144, #678 ) ;
#647 = DIRECTION ( 'NONE',  ( -0.000000000000000000, -0.000000000000000000, -1.000000000000000000 ) ) ;
#648 = COORDINATED_UNIVERSAL_TIME_OFFSET ( 1, 0, .AHEAD. ) ;
#649 = DIRECTION ( 'NONE',  ( -0.000000000000000000, 0.000000000000000000, -1.000000000000000000 ) ) ;
#650 = ORIENTED_EDGE ( 'NONE', *, *, #691, .T. ) ;
#651 = CARTESIAN_POINT ( 'NONE',  ( 0.000000000000000000, 0.000000000000000000, 0.000000000000000000 ) ) ;
#652 = EDGE_CURVE ( 'NONE', #1020, #162, #960, .T. ) ;
#653 = DIRECTION ( 'NONE',  ( -0.000000000000000000, -0.000000000000000000, 1.000000000000000000 ) ) ;
#654 = EDGE_LOOP ( 'NONE', ( #848, #1052, #1030, #1033, #428, #838 ) ) ;
#655 = CARTESIAN_POINT ( 'NONE',  ( -3.000000000000000000, 28.30000000000000071, 0.000000000000000000 ) ) ;
#656 = VERTEX_POINT ( 'NONE', #473 ) ;
#657 = CC_DESIGN_PERSON_AND_ORGANIZATION_ASSIGNMENT ( #797, #477, ( #1034 ) ) ;
#658 = CARTESIAN_POINT ( 'NONE',  ( 66.63000000000002387, 0.000000000000000000, -40.00000000000000711 ) ) ;
#659 = ORIENTED_EDGE ( 'NONE', *, *, #1021, .T. ) ;
#660 = VECTOR ( 'NONE', #267, 1000.000000000000000 ) ;
#661 = VECTOR ( 'NONE', #1017, 1000.000000000000000 ) ;
#662 = CARTESIAN_POINT ( 'NONE',  ( 43.63000000000000256, 0.000000000000000000, -48.50000000000000711 ) ) ;
#663 = FACE_OUTER_BOUND ( 'NONE', #685, .T. ) ;
#664 = EDGE_CURVE ( 'NONE', #975, #982, #1038, .T. ) ;
#665 = EDGE_LOOP ( 'NONE', ( #543, #521, #842, #1057, #606, #435 ) ) ;
#666 = LINE ( 'NONE', #610, #969 ) ;
#667 = VERTEX_POINT ( 'NONE', #512 ) ;
#668 = ORIENTED_EDGE ( 'NONE', *, *, #634, .T. ) ;
#669 = DIRECTION ( 'NONE',  ( 0.000000000000000000, 0.000000000000000000, -1.000000000000000000 ) ) ;
#670 = EDGE_CURVE ( 'NONE', #613, #498, #55, .T. ) ;
#671 = DIRECTION ( 'NONE',  ( 0.000000000000000000, 0.000000000000000000, -1.000000000000000000 ) ) ;
#672 = ORIENTED_EDGE ( 'NONE', *, *, #480, .T. ) ;
#673 = EDGE_LOOP ( 'NONE', ( #169, #366, #292, #789 ) ) ;
#674 = CARTESIAN_POINT ( 'NONE',  ( 12.12999999999999723, -2.079268356086824183E-15, -48.50000000000000711 ) ) ;
#675 = VECTOR ( 'NONE', #504, 1000.000000000000000 ) ;
#676 = PERSON_AND_ORGANIZATION ( #1027, #126 ) ;
#677 = DIRECTION ( 'NONE',  ( 1.714153632388149083E-16, 1.000000000000000000, 0.000000000000000000 ) ) ;
#678 = VECTOR ( 'NONE', #627, 1000.000000000000000 ) ;
#679 = CARTESIAN_POINT ( 'NONE',  ( 49.63000000000000966, 28.30000000000000071, -48.50000000000000711 ) ) ;
#680 = ORIENTED_EDGE ( 'NONE', *, *, #867, .T. ) ;
#681 = ORIENTED_EDGE ( 'NONE', *, *, #593, .T. ) ;
#682 = FACE_OUTER_BOUND ( 'NONE', #829, .T. ) ;
#683 = CARTESIAN_POINT ( 'NONE',  ( 12.12999999999999901, 2.999999999999996891, -48.50000000000000711 ) ) ;
#684 = EDGE_CURVE ( 'NONE', #498, #44, #138, .T. ) ;
#685 = EDGE_LOOP ( 'NONE', ( #488, #264, #747, #207, #923, #249, #187 ) ) ;
#686 = DIRECTION ( 'NONE',  ( -1.371322905910519167E-16, -1.000000000000000000, 0.000000000000000000 ) ) ;
#687 = CARTESIAN_POINT ( 'NONE',  ( 0.000000000000000000, 28.30000000000000071, 0.000000000000000000 ) ) ;
#688 = DIRECTION ( 'NONE',  ( 0.000000000000000000, 0.000000000000000000, 1.000000000000000000 ) ) ;
#689 = CARTESIAN_POINT ( 'NONE',  ( 43.63000000000000256, 28.30000000000000071, -40.00000000000000711 ) ) ;
#690 = DIRECTION ( 'NONE',  ( 1.000000000000000000, 0.000000000000000000, -0.000000000000000000 ) ) ;
#691 = EDGE_CURVE ( 'NONE', #737, #975, #89, .T. ) ;
#692 = ORIENTED_EDGE ( 'NONE', *, *, #664, .T. ) ;
#693 = DIRECTION ( 'NONE',  ( 0.000000000000000000, 0.000000000000000000, -1.000000000000000000 ) ) ;
#694 = DIRECTION ( 'NONE',  ( 0.000000000000000000, 0.000000000000000000, -1.000000000000000000 ) ) ;
#695 = CARTESIAN_POINT ( 'NONE',  ( 63.12999999999998835, 0.000000000000000000, -48.00000000000000711 ) ) ;
#696 = VECTOR ( 'NONE', #979, 1000.000000000000000 ) ;
#697 = VECTOR ( 'NONE', #294, 1000.000000000000000 ) ;
#698 = EDGE_CURVE ( 'NONE', #445, #505, #835, .T. ) ;
#699 = LINE ( 'NONE', #1029, #24 ) ;
#700 = ORIENTED_EDGE ( 'NONE', *, *, #137, .F. ) ;
#701 = EDGE_CURVE ( 'NONE', #505, #1042, #925, .T. ) ;
#702 = FACE_OUTER_BOUND ( 'NONE', #157, .T. ) ;
#703 = DIRECTION ( 'NONE',  ( 0.000000000000000000, 0.000000000000000000, -1.000000000000000000 ) ) ;
#704 = ORIENTED_EDGE ( 'NONE', *, *, #862, .F. ) ;
#705 = FACE_OUTER_BOUND ( 'NONE', #742, .T. ) ;
#706 = EDGE_CURVE ( 'NONE', #1014, #197, #91, .T. ) ;
#707 = AXIS2_PLACEMENT_3D ( 'NONE', #895, #172, #107 ) ;
#708 = VECTOR ( 'NONE', #453, 1000.000000000000000 ) ;
#709 = DIRECTION ( 'NONE',  ( 0.000000000000000000, -1.000000000000000000, 0.000000000000000000 ) ) ;
#710 = APPROVAL_PERSON_ORGANIZATION ( #724, #774, #1035 ) ;
#711 = ORIENTED_EDGE ( 'NONE', *, *, #1039, .T. ) ;
#712 = LINE ( 'NONE', #544, #594 ) ;
#713 = COORDINATED_UNIVERSAL_TIME_OFFSET ( 1, 0, .AHEAD. ) ;
#714 = DIRECTION ( 'NONE',  ( 0.000000000000000000, -1.000000000000000000, 0.000000000000000000 ) ) ;
#715 = EDGE_CURVE ( 'NONE', #807, #959, #1040, .T. ) ;
#716 = CYLINDRICAL_SURFACE ( 'NONE', #411, 8.500000000000000000 ) ;
#717 = VERTEX_POINT ( 'NONE', #619 ) ;
#718 = CARTESIAN_POINT ( 'NONE',  ( 0.000000000000000000, 0.000000000000000000, 0.000000000000000000 ) ) ;
#719 = ORIENTED_EDGE ( 'NONE', *, *, #361, .F. ) ;
#720 = DIRECTION ( 'NONE',  ( -1.000000000000000000, 0.000000000000000000, 0.000000000000000000 ) ) ;
#721 = CARTESIAN_POINT ( 'NONE',  ( 62.54000000000001336, 28.30000000000000071, -41.23350841189505189 ) ) ;
#722 = ORIENTED_EDGE ( 'NONE', *, *, #556, .F. ) ;
#723 = PLANE ( 'NONE',  #1007 ) ;
#724 = PERSON_AND_ORGANIZATION ( #1027, #126 ) ;
#725 = ORIENTED_EDGE ( 'NONE', *, *, #387, .F. ) ;
#726 = DIRECTION ( 'NONE',  ( -1.000000000000000000, 0.000000000000000000, -0.000000000000000000 ) ) ;
#727 = VECTOR ( 'NONE', #777, 1000.000000000000000 ) ;
#728 = VERTEX_POINT ( 'NONE', #130 ) ;
#729 = FACE_OUTER_BOUND ( 'NONE', #1045, .T. ) ;
#730 = AXIS2_PLACEMENT_3D ( 'NONE', #518, #936, #301 ) ;
#731 = CIRCLE ( 'NONE', #642, 8.500000000000000000 ) ;
#732 = ORIENTED_EDGE ( 'NONE', *, *, #156, .F. ) ;
#733 = PLANE ( 'NONE',  #950 ) ;
#734 = EDGE_CURVE ( 'NONE', #548, #288, #491, .T. ) ;
#735 = LINE ( 'NONE', #14, #155 ) ;
#736 = CARTESIAN_POINT ( 'NONE',  ( 49.63000000000000966, 0.000000000000000000, -70.00000000000000000 ) ) ;
#737 = VERTEX_POINT ( 'NONE', #533 ) ;
#738 = EDGE_CURVE ( 'NONE', #197, #445, #43, .T. ) ;
#739 = LINE ( 'NONE', #651, #764 ) ;
#740 = APPROVAL_DATE_TIME ( #837, #600 ) ;
#741 = FACE_OUTER_BOUND ( 'NONE', #347, .T. ) ;
#742 = EDGE_LOOP ( 'NONE', ( #595, #510, #596, #889, #573, #1011, #243, #962 ) ) ;
#743 = ADVANCED_FACE ( 'NONE', ( #382 ), #136, .F. ) ;
#744 = FACE_OUTER_BOUND ( 'NONE', #1002, .T. ) ;
#745 = CARTESIAN_POINT ( 'NONE',  ( 49.63000000000000966, 0.000000000000000000, -40.00000000000000711 ) ) ;
#746 = VECTOR ( 'NONE', #467, 1000.000000000000000 ) ;
#747 = ORIENTED_EDGE ( 'NONE', *, *, #652, .T. ) ;
#749 = VECTOR ( 'NONE', #825, 1000.000000000000000 ) ;
#748 = PLANE ( 'NONE',  #283 ) ;
#750 = VECTOR ( 'NONE', #119, 1000.000000000000000 ) ;
#751 = VECTOR ( 'NONE', #766, 1000.000000000000000 ) ;
#752 = LINE ( 'NONE', #598, #281 ) ;
#753 = CARTESIAN_POINT ( 'NONE',  ( 0.000000000000000000, 2.999999999999993783, -40.00000000000000711 ) ) ;
#754 = EDGE_CURVE ( 'NONE', #737, #469, #932, .T. ) ;
#755 = LINE ( 'NONE', #31, #750 ) ;
#756 = ORIENTED_EDGE ( 'NONE', *, *, #437, .F. ) ;
#757 = DIRECTION ( 'NONE',  ( -0.000000000000000000, -0.000000000000000000, -1.000000000000000000 ) ) ;
#758 = ORIENTED_EDGE ( 'NONE', *, *, #907, .F. ) ;
#759 = ORIENTED_EDGE ( 'NONE', *, *, #195, .T. ) ;
#760 = EDGE_LOOP ( 'NONE', ( #100, #725, #391, #863, #2, #143 ) ) ;
#761 = CARTESIAN_POINT ( 'NONE',  ( 12.13000000000000256, 28.30000000000000071, -40.00000000000000711 ) ) ;
#762 = CARTESIAN_POINT ( 'NONE',  ( 3.629999999999996341, -6.222377685568975367E-16, -40.00000000000000711 ) ) ;
#763 = DIRECTION ( 'NONE',  ( 1.000000000000000000, -1.020425574104004122E-16, 0.000000000000000000 ) ) ;
#764 = VECTOR ( 'NONE', #472, 1000.000000000000000 ) ;
#765 = ADVANCED_FACE ( 'NONE', ( #56 ), #1010, .F. ) ;
#766 = DIRECTION ( 'NONE',  ( -1.000000000000000000, -0.000000000000000000, -0.000000000000000000 ) ) ;
#767 = LINE ( 'NONE', #1018, #468 ) ;
#768 = AXIS2_PLACEMENT_3D ( 'NONE', #385, #315, #332 ) ;
#769 = AXIS2_PLACEMENT_3D ( 'NONE', #900, #439, #204 ) ;
#770 = PLANE ( 'NONE',  #415 ) ;
#771 = ORIENTED_EDGE ( 'NONE', *, *, #480, .F. ) ;
#772 = CARTESIAN_POINT ( 'NONE',  ( 49.63000000000000966, 2.999999999999993783, -48.50000000000000711 ) ) ;
#773 = FACE_OUTER_BOUND ( 'NONE', #665, .T. ) ;
#774 = APPROVAL ( #75, 'UNSPECIFIED' ) ;
#775 = CARTESIAN_POINT ( 'NONE',  ( 66.63000000000002387, 0.000000000000000000, -70.00000000000000000 ) ) ;
#776 = ORIENTED_EDGE ( 'NONE', *, *, #928, .T. ) ;
#777 = DIRECTION ( 'NONE',  ( 1.000000000000000000, 0.000000000000000000, 0.000000000000000000 ) ) ;
#778 = DIRECTION ( 'NONE',  ( 0.000000000000000000, -0.000000000000000000, -1.000000000000000000 ) ) ;
#779 = EDGE_CURVE ( 'NONE', #1042, #566, #296, .T. ) ;
#780 = CARTESIAN_POINT ( 'NONE',  ( 63.12999999999998835, 0.000000000000000000, -40.00000000000000711 ) ) ;
#781 = APPROVAL_PERSON_ORGANIZATION ( #163, #893, #81 ) ;
#782 = CARTESIAN_POINT ( 'NONE',  ( 55.17000000000000881, 25.30000000000000426, -70.00100000000000477 ) ) ;
#783 = AXIS2_PLACEMENT_3D ( 'NONE', #762, #362, #677 ) ;
#784 = VECTOR ( 'NONE', #599, 1000.000000000000000 ) ;
#785 = ADVANCED_FACE ( 'NONE', ( #1019 ), #525, .F. ) ;
#786 = ORIENTED_EDGE ( 'NONE', *, *, #684, .T. ) ;
#787 = LINE ( 'NONE', #65, #444 ) ;
#788 = CARTESIAN_POINT ( 'NONE',  ( 26.63000000000000966, 2.999999999999996891, -70.00000000000000000 ) ) ;
#789 = ORIENTED_EDGE ( 'NONE', *, *, #1031, .F. ) ;
#790 = CARTESIAN_POINT ( 'NONE',  ( 20.62999999999999901, -2.829039154893400900E-15, -40.00000000000000711 ) ) ;
#791 = CARTESIAN_POINT ( 'NONE',  ( 0.000000000000000000, 2.999999999999993783, -40.00000000000000711 ) ) ;
#792 = VECTOR ( 'NONE', #926, 1000.000000000000000 ) ;
#793 = LINE ( 'NONE', #872, #280 ) ;
#794 = VECTOR ( 'NONE', #398, 1000.000000000000000 ) ;
#795 = ORIENTED_EDGE ( 'NONE', *, *, #19, .F. ) ;
#796 = PERSON_AND_ORGANIZATION ( #1027, #126 ) ;
#797 = PERSON_AND_ORGANIZATION ( #1027, #126 ) ;
#798 = CARTESIAN_POINT ( 'NONE',  ( 49.63000000000000966, 28.30000000000000071, -40.00000000000000711 ) ) ;
#799 = CARTESIAN_POINT ( 'NONE',  ( 62.54000000000001336, 28.30000000000000071, 0.000000000000000000 ) ) ;
#800 = PLANE ( 'NONE',  #550 ) ;
#801 = ORIENTED_EDGE ( 'NONE', *, *, #1031, .T. ) ;
#802 = ORIENTED_EDGE ( 'NONE', *, *, #684, .F. ) ;
#803 = ADVANCED_FACE ( 'NONE', ( #1026 ), #941, .F. ) ;
#804 = VERTEX_POINT ( 'NONE', #454 ) ;
#805 = CARTESIAN_POINT ( 'NONE',  ( -3.000000000000000000, 28.30000000000000071, 0.000000000000000000 ) ) ;
#806 = APPROVAL_STATUS ( 'not_yet_approved' ) ;
#807 = VERTEX_POINT ( 'NONE', #220 ) ;
#808 = CC_DESIGN_SECURITY_CLASSIFICATION ( #349, ( #871 ) ) ;
#809 = DIRECTION ( 'NONE',  ( 1.000000000000000000, 0.000000000000000000, -0.000000000000000000 ) ) ;
#810 = AXIS2_PLACEMENT_3D ( 'NONE', #558, #417, #420 ) ;
#811 = EDGE_CURVE ( 'NONE', #274, #902, #699, .T. ) ;
#812 = AXIS2_PLACEMENT_3D ( 'NONE', #128, #937, #694 ) ;
#813 = ORIENTED_EDGE ( 'NONE', *, *, #99, .F. ) ;
#814 = CALENDAR_DATE ( 2021, 16, 12 ) ;
#815 = ORIENTED_EDGE ( 'NONE', *, *, #452, .F. ) ;
#816 = CARTESIAN_POINT ( 'NONE',  ( -3.000000000000000000, 2.999999999999992006, -40.00000000000000711 ) ) ;
#817 = PLANE ( 'NONE',  #311 ) ;
#818 = ORIENTED_EDGE ( 'NONE', *, *, #78, .T. ) ;
#819 = DATE_TIME_ROLE ( 'classification_date' ) ;
#820 = EDGE_CURVE ( 'NONE', #498, #915, #534, .T. ) ;
#821 = VERTEX_POINT ( 'NONE', #679 ) ;
#822 = VERTEX_POINT ( 'NONE', #927 ) ;
#823 = LINE ( 'NONE', #265, #970 ) ;
#824 = EDGE_LOOP ( 'NONE', ( #320, #704, #403, #284, #18 ) ) ;
#825 = DIRECTION ( 'NONE',  ( -1.000000000000000000, 0.000000000000000000, 0.000000000000000000 ) ) ;
#826 = ADVANCED_FACE ( 'NONE', ( #206 ), #723, .F. ) ;
#827 = DIRECTION ( 'NONE',  ( 0.000000000000000000, 0.000000000000000000, -1.000000000000000000 ) ) ;
#828 = DIRECTION ( 'NONE',  ( 0.000000000000000000, 0.000000000000000000, -1.000000000000000000 ) ) ;
#829 = EDGE_LOOP ( 'NONE', ( #884, #989, #63, #30 ) ) ;
#830 = VECTOR ( 'NONE', #112, 1000.000000000000000 ) ;
#831 = VECTOR ( 'NONE', #501, 1000.000000000000000 ) ;
#832 = DIRECTION ( 'NONE',  ( 0.000000000000000000, -1.000000000000000000, 0.000000000000000000 ) ) ;
#833 = ORIENTED_EDGE ( 'NONE', *, *, #706, .F. ) ;
#834 = CARTESIAN_POINT ( 'NONE',  ( 2.891205793294692624E-16, 2.999999999999998668, -70.00000000000000000 ) ) ;
#835 = LINE ( 'NONE', #135, #708 ) ;
#836 = DIRECTION ( 'NONE',  ( 0.000000000000000000, -1.000000000000000000, 0.000000000000000000 ) ) ;
#837 = DATE_AND_TIME ( #104, #1025 ) ;
#838 = ORIENTED_EDGE ( 'NONE', *, *, #52, .T. ) ;
#839 = DIRECTION ( 'NONE',  ( 1.000000000000000000, 0.000000000000000000, 0.000000000000000000 ) ) ;
#840 = DIRECTION ( 'NONE',  ( 1.000000000000000000, 0.000000000000000000, -0.000000000000000000 ) ) ;
#841 = DIRECTION ( 'NONE',  ( 0.000000000000000000, 0.000000000000000000, -1.000000000000000000 ) ) ;
#842 = ORIENTED_EDGE ( 'NONE', *, *, #189, .F. ) ;
#843 = EDGE_CURVE ( 'NONE', #982, #667, #153, .T. ) ;
#844 = LINE ( 'NONE', #273, #749 ) ;
#845 = AXIS2_PLACEMENT_3D ( 'NONE', #967, #885, #914 ) ;
#846 = CC_DESIGN_APPROVAL ( #774, ( #464 ) ) ;
#847 = DIRECTION ( 'NONE',  ( 0.000000000000000000, 0.000000000000000000, -1.000000000000000000 ) ) ;
#848 = ORIENTED_EDGE ( 'NONE', *, *, #408, .T. ) ;
#849 = DIRECTION ( 'NONE',  ( -0.000000000000000000, 1.000000000000000000, -0.000000000000000000 ) ) ;
#850 = CARTESIAN_POINT ( 'NONE',  ( 71.12999999999999545, 2.999999999999992006, -48.00000000000000711 ) ) ;
#851 = EDGE_CURVE ( 'NONE', #288, #282, #410, .T. ) ;
#852 = CARTESIAN_POINT ( 'NONE',  ( 58.13000000000000966, 2.999999999999993783, -48.50000000000000711 ) ) ;
#853 = ORIENTED_EDGE ( 'NONE', *, *, #541, .F. ) ;
#854 = CARTESIAN_POINT ( 'NONE',  ( 12.13000000000000256, 28.30000000000000071, -48.50000000000000711 ) ) ;
#855 = ADVANCED_FACE ( 'NONE', ( #1050 ), #733, .F. ) ;
#856 = DIRECTION ( 'NONE',  ( -0.000000000000000000, -0.000000000000000000, -1.000000000000000000 ) ) ;
#857 = AXIS2_PLACEMENT_3D ( 'NONE', #268, #828, #433 ) ;
#858 = VECTOR ( 'NONE', #116, 1000.000000000000000 ) ;
#859 = VERTEX_POINT ( 'NONE', #1 ) ;
#860 = DIRECTION ( 'NONE',  ( 1.000000000000000000, 0.000000000000000000, 0.000000000000000000 ) ) ;
#861 = LINE ( 'NONE', #530, #310 ) ;
#862 = EDGE_CURVE ( 'NONE', #340, #478, #234, .T. ) ;
#863 = ORIENTED_EDGE ( 'NONE', *, *, #424, .T. ) ;
#864 = DIRECTION ( 'NONE',  ( -1.000000000000000000, 0.000000000000000000, -0.000000000000000000 ) ) ;
#865 = DIRECTION ( 'NONE',  ( -1.371322905910519414E-16, -1.000000000000000000, 0.000000000000000000 ) ) ;
#866 = ORIENTED_EDGE ( 'NONE', *, *, #19, .T. ) ;
#867 = EDGE_CURVE ( 'NONE', #717, #227, #712, .T. ) ;
#868 = EDGE_LOOP ( 'NONE', ( #356, #97, #711, #759, #818 ) ) ;
#869 = CARTESIAN_POINT ( 'NONE',  ( 0.000000000000000000, 28.30000000000000071, 0.000000000000000000 ) ) ;
#870 = VECTOR ( 'NONE', #38, 1000.000000000000000 ) ;
#871 = PRODUCT_DEFINITION_FORMATION_WITH_SPECIFIED_SOURCE ( 'ANY', '', #1034, .NOT_KNOWN. ) ;
#872 = CARTESIAN_POINT ( 'NONE',  ( 62.54000000000001336, 28.30000000000000071, 0.000000000000000000 ) ) ;
#873 = VECTOR ( 'NONE', #917, 1000.000000000000000 ) ;
#874 = ORIENTED_EDGE ( 'NONE', *, *, #71, .T. ) ;
#875 = DIRECTION ( 'NONE',  ( 0.000000000000000000, -1.000000000000000000, 0.000000000000000000 ) ) ;
#876 = ORIENTED_EDGE ( 'NONE', *, *, #618, .T. ) ;
#877 = CARTESIAN_POINT ( 'NONE',  ( 95.00000000000000000, 28.30000000000000071, -70.00000000000000000 ) ) ;
#878 = ADVANCED_FACE ( 'NONE', ( #465 ), #644, .F. ) ;
#879 = DIRECTION ( 'NONE',  ( -0.000000000000000000, 1.000000000000000000, -0.000000000000000000 ) ) ;
#880 = CARTESIAN_POINT ( 'NONE',  ( -3.000000000000000000, 0.000000000000000000, -40.00000000000000711 ) ) ;
#881 = ORIENTED_EDGE ( 'NONE', *, *, #1056, .F. ) ;
#882 = LINE ( 'NONE', #805, #988 ) ;
#883 = MECHANICAL_CONTEXT ( 'NONE', #193, 'mechanical' ) ;
#884 = ORIENTED_EDGE ( 'NONE', *, *, #664, .F. ) ;
#885 = DIRECTION ( 'NONE',  ( 0.000000000000000000, -1.000000000000000000, 0.000000000000000000 ) ) ;
#886 = EDGE_CURVE ( 'NONE', #67, #924, #882, .T. ) ;
#887 = CARTESIAN_POINT ( 'NONE',  ( 20.62999999999999901, -2.829039154893400900E-15, -70.00000000000000000 ) ) ;
#888 = DIRECTION ( 'NONE',  ( -0.000000000000000000, -0.000000000000000000, 1.000000000000000000 ) ) ;
#889 = ORIENTED_EDGE ( 'NONE', *, *, #886, .F. ) ;
#890 = CARTESIAN_POINT ( 'NONE',  ( 35.13000000000000256, 2.999999999999993783, -40.00000000000000711 ) ) ;
#891 = FACE_OUTER_BOUND ( 'NONE', #965, .T. ) ;
#892 = CARTESIAN_POINT ( 'NONE',  ( 0.000000000000000000, 28.30000000000000071, -70.00000000000000000 ) ) ;
#893 = APPROVAL ( #235, 'UNSPECIFIED' ) ;
#894 = CIRCLE ( 'NONE', #639, 8.000000000000000000 ) ;
#895 = CARTESIAN_POINT ( 'NONE',  ( 58.13000000000002387, 28.30000000000000071, -48.50000000000000711 ) ) ;
#896 = AXIS2_PLACEMENT_3D ( 'NONE', #753, #260, #903 ) ;
#897 = ADVANCED_FACE ( 'NONE', ( #8 ), #353, .F. ) ;
#898 = AXIS2_PLACEMENT_3D ( 'NONE', #302, #616, #57 ) ;
#899 = ORIENTED_EDGE ( 'NONE', *, *, #955, .T. ) ;
#900 = CARTESIAN_POINT ( 'NONE',  ( 95.00000000000000000, 28.30000000000000071, 0.000000000000000000 ) ) ;
#901 = CALENDAR_DATE ( 2021, 16, 12 ) ;
#902 = VERTEX_POINT ( 'NONE', #11 ) ;
#903 = DIRECTION ( 'NONE',  ( 0.000000000000000000, -0.000000000000000000, -1.000000000000000000 ) ) ;
#904 = CARTESIAN_POINT ( 'NONE',  ( 58.13000000000000966, 0.000000000000000000, -48.50000000000000711 ) ) ;
#905 = ORIENTED_EDGE ( 'NONE', *, *, #458, .T. ) ;
#906 = CARTESIAN_POINT ( 'NONE',  ( 43.63000000000000256, 2.999999999999993783, -40.00000000000000711 ) ) ;
#907 = EDGE_CURVE ( 'NONE', #560, #584, #823, .T. ) ;
#908 = CARTESIAN_POINT ( 'NONE',  ( 26.63000000000000966, 2.999999999999996891, -40.00000000000000711 ) ) ;
#909 = LINE ( 'NONE', #662, #660 ) ;
#910 = EDGE_LOOP ( 'NONE', ( #375, #397, #719, #167 ) ) ;
#911 = ORIENTED_EDGE ( 'NONE', *, *, #442, .T. ) ;
#912 = FACE_OUTER_BOUND ( 'NONE', #232, .T. ) ;
#913 = CARTESIAN_POINT ( 'NONE',  ( 49.63000000000000966, 2.999999999999993783, -48.50000000000000711 ) ) ;
#914 = DIRECTION ( 'NONE',  ( 0.000000000000000000, -0.000000000000000000, -1.000000000000000000 ) ) ;
#915 = VERTEX_POINT ( 'NONE', #511 ) ;
#916 = ORIENTED_EDGE ( 'NONE', *, *, #754, .F. ) ;
#918 = VECTOR ( 'NONE', #714, 1000.000000000000000 ) ;
#917 = DIRECTION ( 'NONE',  ( -0.000000000000000000, -0.000000000000000000, -1.000000000000000000 ) ) ;
#919 = AXIS2_PLACEMENT_3D ( 'NONE', #790, #325, #973 ) ;
#920 = DIRECTION ( 'NONE',  ( -1.000000000000000000, 0.000000000000000000, 0.000000000000000000 ) ) ;
#921 = PLANE ( 'NONE',  #108 ) ;
#922 = EDGE_CURVE ( 'NONE', #728, #275, #276, .T. ) ;
#923 = ORIENTED_EDGE ( 'NONE', *, *, #607, .T. ) ;
#924 = VERTEX_POINT ( 'NONE', #655 ) ;
#925 = LINE ( 'NONE', #121, #259 ) ;
#926 = DIRECTION ( 'NONE',  ( -1.371322905910519414E-16, -1.000000000000000000, 0.000000000000000000 ) ) ;
#927 = CARTESIAN_POINT ( 'NONE',  ( 49.63000000000000966, 28.30000000000000071, -70.00000000000000000 ) ) ;
#928 = EDGE_CURVE ( 'NONE', #635, #485, #256, .T. ) ;
#929 = EDGE_LOOP ( 'NONE', ( #318, #700, #802, #438 ) ) ;
#930 = DIRECTION ( 'NONE',  ( 0.000000000000000000, -1.000000000000000000, 0.000000000000000000 ) ) ;
#931 = LINE ( 'NONE', #436, #177 ) ;
#932 = LINE ( 'NONE', #689, #179 ) ;
#933 = EDGE_CURVE ( 'NONE', #7, #494, #998, .T. ) ;
#934 = VECTOR ( 'NONE', #462, 1000.000000000000000 ) ;
#935 = CARTESIAN_POINT ( 'NONE',  ( -3.000000000000000000, 0.000000000000000000, 0.000000000000000000 ) ) ;
#936 = DIRECTION ( 'NONE',  ( -9.637352644315647012E-17, -1.000000000000000000, 0.000000000000000000 ) ) ;
#937 = DIRECTION ( 'NONE',  ( 0.000000000000000000, -1.000000000000000000, 0.000000000000000000 ) ) ;
#938 = CARTESIAN_POINT ( 'NONE',  ( 66.63000000000002387, 2.999999999999992450, -48.50000000000000711 ) ) ;
#939 = VECTOR ( 'NONE', #158, 1000.000000000000000 ) ;
#940 = LOCAL_TIME ( 9, 18, 59.00000000000000000, #154 ) ;
#941 = PLANE ( 'NONE',  #471 ) ;
#942 = ORIENTED_EDGE ( 'NONE', *, *, #571, .T. ) ;
#943 = EDGE_CURVE ( 'NONE', #7, #1041, #731, .T. ) ;
#944 = LINE ( 'NONE', #531, #751 ) ;
#945 = DIRECTION ( 'NONE',  ( 0.000000000000000000, -0.000000000000000000, -1.000000000000000000 ) ) ;
#946 = DIRECTION ( 'NONE',  ( 0.000000000000000000, -1.000000000000000000, 0.000000000000000000 ) ) ;
#947 = ADVANCED_BREP_SHAPE_REPRESENTATION ( 'MountingGauge', ( #233, #446 ), #367 ) ;
#948 = ORIENTED_EDGE ( 'NONE', *, *, #820, .T. ) ;
#949 = VECTOR ( 'NONE', #1046, 1000.000000000000000 ) ;
#950 = AXIS2_PLACEMENT_3D ( 'NONE', #228, #875, #1043 ) ;
#951 = ADVANCED_FACE ( 'NONE', ( #357 ), #748, .F. ) ;
#952 = CARTESIAN_POINT ( 'NONE',  ( 71.12999999999999545, 0.000000000000000000, -70.00000000000000000 ) ) ;
#953 = ORIENTED_EDGE ( 'NONE', *, *, #271, .F. ) ;
#954 = DIRECTION ( 'NONE',  ( 0.000000000000000000, 0.000000000000000000, 1.000000000000000000 ) ) ;
#955 = EDGE_CURVE ( 'NONE', #915, #566, #199, .T. ) ;
#956 = CARTESIAN_POINT ( 'NONE',  ( 26.63000000000000966, 2.999999999999996891, -48.50000000000000711 ) ) ;
#957 = ORIENTED_EDGE ( 'NONE', *, *, #1056, .T. ) ;
#958 = SECURITY_CLASSIFICATION_LEVEL ( 'unclassified' ) ;
#959 = VERTEX_POINT ( 'NONE', #761 ) ;
#960 = LINE ( 'NONE', #237, #939 ) ;
#961 = FACE_OUTER_BOUND ( 'NONE', #910, .T. ) ;
#962 = ORIENTED_EDGE ( 'NONE', *, *, #171, .F. ) ;
#963 = DIRECTION ( 'NONE',  ( -0.000000000000000000, -0.000000000000000000, -1.000000000000000000 ) ) ;
#964 = APPLICATION_CONTEXT ( 'configuration controlled 3d designs of mechanical parts and assemblies' ) ;
#965 = EDGE_LOOP ( 'NONE', ( #326, #874, #32, #25 ) ) ;
#966 = LINE ( 'NONE', #244, #331 ) ;
#967 = CARTESIAN_POINT ( 'NONE',  ( 0.000000000000000000, 2.999999999999996891, -40.00000000000000711 ) ) ;
#968 = VECTOR ( 'NONE', #447, 1000.000000000000000 ) ;
#969 = VECTOR ( 'NONE', #836, 1000.000000000000000 ) ;
#970 = VECTOR ( 'NONE', #339, 1000.000000000000000 ) ;
#971 = CARTESIAN_POINT ( 'NONE',  ( -3.000000000000000000, 2.999999999999992006, -40.00000000000000711 ) ) ;
#972 = ORIENTED_EDGE ( 'NONE', *, *, #618, .F. ) ;
#973 = DIRECTION ( 'NONE',  ( 1.371322905910519414E-16, 1.000000000000000000, 0.000000000000000000 ) ) ;
#974 = ADVANCED_FACE ( 'NONE', ( #36 ), #360, .F. ) ;
#975 = VERTEX_POINT ( 'NONE', #9 ) ;
#976 = DIRECTION ( 'NONE',  ( -0.000000000000000000, -1.000000000000000000, -0.000000000000000000 ) ) ;
#977 = ORIENTED_EDGE ( 'NONE', *, *, #593, .F. ) ;
#978 = LINE ( 'NONE', #798, #68 ) ;
#979 = DIRECTION ( 'NONE',  ( -0.000000000000000000, -0.000000000000000000, -1.000000000000000000 ) ) ;
#980 = DIRECTION ( 'NONE',  ( 0.000000000000000000, -1.000000000000000000, 0.000000000000000000 ) ) ;
#981 = LINE ( 'NONE', #254, #535 ) ;
#982 = VERTEX_POINT ( 'NONE', #496 ) ;
#983 = ORIENTED_EDGE ( 'NONE', *, *, #195, .F. ) ;
#984 = FACE_OUTER_BOUND ( 'NONE', #376, .T. ) ;
#985 = ADVANCED_FACE ( 'NONE', ( #39 ), #770, .T. ) ;
#986 = FACE_OUTER_BOUND ( 'NONE', #239, .T. ) ;
#987 = AXIS2_PLACEMENT_3D ( 'NONE', #486, #726, #406 ) ;
#988 = VECTOR ( 'NONE', #555, 1000.000000000000000 ) ;
#989 = ORIENTED_EDGE ( 'NONE', *, *, #64, .T. ) ;
#990 = CARTESIAN_POINT ( 'NONE',  ( 20.62999999999999901, -2.829039154893400900E-15, -48.50000000000000711 ) ) ;
#991 = PLANE ( 'NONE',  #987 ) ;
#992 = CARTESIAN_POINT ( 'NONE',  ( 20.62999999999999901, 2.999999999999996891, -70.00000000000000000 ) ) ;
#993 = PLANE ( 'NONE',  #857 ) ;
#994 = VERTEX_POINT ( 'NONE', #279 ) ;
#995 = CYLINDRICAL_SURFACE ( 'NONE', #196, 8.500000000000000000 ) ;
#996 = ORIENTED_EDGE ( 'NONE', *, *, #52, .F. ) ;
#997 = ORIENTED_EDGE ( 'NONE', *, *, #329, .T. ) ;
#998 = LINE ( 'NONE', #102, #457 ) ;
#999 = ORIENTED_EDGE ( 'NONE', *, *, #271, .T. ) ;
#1000 = ADVANCED_FACE ( 'NONE', ( #702 ), #921, .F. ) ;
#1001 = LINE ( 'NONE', #585, #830 ) ;
#1002 = EDGE_LOOP ( 'NONE', ( #983, #625, #680, #942 ) ) ;
#1003 = VECTOR ( 'NONE', #22, 1000.000000000000000 ) ;
#1004 = EDGE_LOOP ( 'NONE', ( #118, #786, #123, #459, #546, #165 ) ) ;
#1006 = VECTOR ( 'NONE', #653, 1000.000000000000000 ) ;
#1005 = DIRECTION ( 'NONE',  ( 1.714153632388149083E-16, 1.000000000000000000, 0.000000000000000000 ) ) ;
#1007 = AXIS2_PLACEMENT_3D ( 'NONE', #313, #954, #404 ) ;
#1008 = LINE ( 'NONE', #200, #870 ) ;
#1009 = EDGE_CURVE ( 'NONE', #667, #859, #383, .T. ) ;
#1010 = PLANE ( 'NONE',  #6 ) ;
#1011 = ORIENTED_EDGE ( 'NONE', *, *, #522, .F. ) ;
#1012 = LINE ( 'NONE', #591, #526 ) ;
#1013 = DIRECTION ( 'NONE',  ( -0.000000000000000000, 1.000000000000000000, -0.000000000000000000 ) ) ;
#1014 = VERTEX_POINT ( 'NONE', #913 ) ;
#1015 = ADVANCED_FACE ( 'NONE', ( #609 ), #60, .F. ) ;
#1016 = LINE ( 'NONE', #309, #727 ) ;
#1017 = DIRECTION ( 'NONE',  ( 1.000000000000000000, 0.000000000000000000, 0.000000000000000000 ) ) ;
#1018 = CARTESIAN_POINT ( 'NONE',  ( 0.000000000000000000, 28.30000000000000071, -70.00000000000000000 ) ) ;
#1019 = FACE_OUTER_BOUND ( 'NONE', #929, .T. ) ;
#1020 = VERTEX_POINT ( 'NONE', #780 ) ;
#1021 = EDGE_CURVE ( 'NONE', #959, #635, #528, .T. ) ;
#1022 = VECTOR ( 'NONE', #425, 1000.000000000000000 ) ;
#1023 = DIRECTION ( 'NONE',  ( 1.000000000000000000, -1.371322905910519414E-16, 0.000000000000000000 ) ) ;
#1024 = LINE ( 'NONE', #448, #697 ) ;
#1025 = LOCAL_TIME ( 9, 18, 59.00000000000000000, #648 ) ;
#1026 = FACE_OUTER_BOUND ( 'NONE', #654, .T. ) ;
#1027 = PERSON ( 'UNSPECIFIED', 'UNSPECIFIED', 'UNSPECIFIED', ('UNSPECIFIED'), ('UNSPECIFIED'), ('UNSPECIFIED') ) ;
#1028 = CARTESIAN_POINT ( 'NONE',  ( 58.13000000000000966, 25.30000000000000426, -40.00000000000000711 ) ) ;
#1029 = CARTESIAN_POINT ( 'NONE',  ( -3.000000000000000000, 2.999999999999999112, -70.00000000000000000 ) ) ;
#1030 = ORIENTED_EDGE ( 'NONE', *, *, #219, .T. ) ;
#1031 = EDGE_CURVE ( 'NONE', #635, #340, #1024, .T. ) ;
#1032 = DIRECTION ( 'NONE',  ( 1.000000000000000000, 1.194713137725074903E-16, 0.000000000000000000 ) ) ;
#1033 = ORIENTED_EDGE ( 'NONE', *, *, #907, .T. ) ;
#1034 = PRODUCT ( 'MountingGauge', 'MountingGauge', '', ( #883 ) ) ;
#1035 = APPROVAL_ROLE ( '' ) ;
#1036 = CIRCLE ( 'NONE', #707, 8.500000000000000000 ) ;
#1037 = PLANE ( 'NONE',  #456 ) ;
#1038 = CIRCLE ( 'NONE', #4, 8.500000000000000000 ) ;
#1039 = EDGE_CURVE ( 'NONE', #1041, #476, #431, .T. ) ;
#1040 = CIRCLE ( 'NONE', #160, 8.500000000000000000 ) ;
#1041 = VERTEX_POINT ( 'NONE', #1028 ) ;
#1042 = VERTEX_POINT ( 'NONE', #50 ) ;
#1043 = DIRECTION ( 'NONE',  ( 0.000000000000000000, -0.000000000000000000, -1.000000000000000000 ) ) ;
#1044 = CALENDAR_DATE ( 2021, 16, 12 ) ;
#1045 = EDGE_LOOP ( 'NONE', ( #795, #115, #82, #372 ) ) ;
#1046 = DIRECTION ( 'NONE',  ( -1.000000000000000000, -0.000000000000000000, -0.000000000000000000 ) ) ;
#1047 = EDGE_CURVE ( 'NONE', #584, #994, #381, .T. ) ;
#1048 = CARTESIAN_POINT ( 'NONE',  ( 35.13000000000000256, 0.000000000000000000, -48.50000000000000711 ) ) ;
#1049 = ORIENTED_EDGE ( 'NONE', *, *, #922, .F. ) ;
#1050 = FACE_OUTER_BOUND ( 'NONE', #41, .T. ) ;
#1051 = PERSON_AND_ORGANIZATION_ROLE ( 'creator' ) ;
#1052 = ORIENTED_EDGE ( 'NONE', *, *, #701, .F. ) ;
#1053 = DIRECTION ( 'NONE',  ( 0.000000000000000000, 0.000000000000000000, -1.000000000000000000 ) ) ;
#1054 = DIRECTION ( 'NONE',  ( 1.000000000000000000, 0.000000000000000000, 0.000000000000000000 ) ) ;
#1055 = CARTESIAN_POINT ( 'NONE',  ( 35.13000000000000256, 0.000000000000000000, -40.00000000000000711 ) ) ;
#1056 = EDGE_CURVE ( 'NONE', #804, #656, #944, .T. ) ;
#1057 = ORIENTED_EDGE ( 'NONE', *, *, #219, .F. ) ;
ENDSEC;
END-ISO-10303-21;
