M48
;Layer_Color=9474304
;FILE_FORMAT=2:5
INCH,TZ
;TYPE=PLATED
T2F00S00C0.02703
T3F00S00C0.02705
;TYPE=NON_PLATED
%
G90
G05
T02
G00X22131Y54134
M15
G01X34562
M16
G00X41028Y54134
M15
G01X53460
M16
G00X59926Y54134
M15
G01X72357
M16
G00X112682Y54134
M15
G01X125113
M16
G00X131580Y54134
M15
G01X144011
M16
G00X150477Y54134
M15
G01X162908
M16
G00X203233Y54134
M15
G01X215664
M16
G00X222131Y54134
M15
G01X234562
M16
G00X241028Y54134
M15
G01X253460
M16
G00X222131Y18701
M15
G01X234562
M16
T03
G00X222132Y67913
M15
G01X234561
M16
M17
M30
