G04*
G04 #@! TF.GenerationSoftware,Altium Limited,Altium Designer,22.10.1 (41)*
G04*
G04 Layer_Color=32896*
%FSLAX25Y25*%
%MOIN*%
G70*
G04*
G04 #@! TF.SameCoordinates,BD0F175D-CEFC-4C96-A7A4-5F040625B05C*
G04*
G04*
G04 #@! TF.FilePolarity,Positive*
G04*
G01*
G75*
%ADD11C,0.00394*%
%ADD12C,0.00013*%
%ADD14C,0.00787*%
%ADD15C,0.01000*%
%ADD28C,0.00709*%
G36*
X305361Y220868D02*
X305729Y220715D01*
X306046Y220473D01*
X306046Y220472D01*
X306046Y220472D01*
X306289Y220156D01*
X306442Y219787D01*
X306477Y219518D01*
X306494Y219391D01*
X306494Y219257D01*
Y198281D01*
X306483D01*
X306528Y198051D01*
X306659Y197856D01*
X306854Y197726D01*
X307084Y197680D01*
X307087Y197680D01*
X307216Y197691D01*
X321747D01*
Y197689D01*
X321968Y197645D01*
X322155Y197520D01*
X322225Y197415D01*
X322280Y197333D01*
X322324Y197113D01*
X322280Y196892D01*
X322155Y196705D01*
X322050Y196635D01*
X321968Y196580D01*
X321747Y196536D01*
Y196534D01*
X306867D01*
X306866Y196535D01*
X306475Y196586D01*
X306106Y196739D01*
X305883Y196910D01*
X305783Y196990D01*
X305545Y197300D01*
X305392Y197669D01*
X305340Y198066D01*
X305342Y198080D01*
X305340Y198080D01*
X305340Y198080D01*
Y219047D01*
X305351Y219176D01*
X305351Y219176D01*
X305305Y219407D01*
X305174Y219603D01*
X304978Y219734D01*
X304750Y219779D01*
X304750Y219769D01*
X304750Y219769D01*
X287502D01*
X287502Y219769D01*
X287502Y219779D01*
X287274Y219734D01*
X287078Y219603D01*
X286947Y219407D01*
X286901Y219176D01*
X286912Y219176D01*
Y198199D01*
X286912Y198066D01*
X286895Y197936D01*
X286860Y197669D01*
X286707Y197300D01*
X286463Y196983D01*
X286146Y196739D01*
X285776Y196586D01*
X285383Y196534D01*
Y196534D01*
X279128D01*
X279126Y196537D01*
X279126D01*
X278908Y196580D01*
X278821Y196638D01*
X278717Y196711D01*
X278596Y196892D01*
X278574Y196999D01*
X278553Y197118D01*
X278554Y197123D01*
X278577Y197248D01*
X278596Y197344D01*
X278721Y197531D01*
X278908Y197656D01*
X279126Y197700D01*
X279126Y197700D01*
Y197700D01*
X279128Y197702D01*
X285035D01*
X285165Y197692D01*
X285168Y197691D01*
X285398Y197737D01*
X285592Y197866D01*
X285593Y197867D01*
X285723Y198062D01*
X285769Y198292D01*
X285769Y198292D01*
X285758Y198421D01*
Y219257D01*
Y219391D01*
X285775Y219521D01*
X285810Y219787D01*
X285963Y220156D01*
X286205Y220472D01*
X286206Y220472D01*
X286206Y220473D01*
X286522Y220715D01*
X286891Y220868D01*
X287287Y220920D01*
X287287Y220920D01*
X304965D01*
X304965Y220920D01*
X305361Y220868D01*
D02*
G37*
G36*
X328425D02*
X328794Y220715D01*
X329110Y220473D01*
X329111Y220472D01*
X329111Y220472D01*
X329354Y220156D01*
X329506Y219787D01*
X329559Y219391D01*
X329558Y219391D01*
Y204161D01*
X329557D01*
X329513Y203941D01*
X329458Y203858D01*
X329388Y203754D01*
X329201Y203629D01*
X329106Y203610D01*
X328980Y203585D01*
Y203585D01*
X328761Y203628D01*
X328574Y203753D01*
X328450Y203939D01*
X328406Y204158D01*
X328407Y204161D01*
X328405Y204161D01*
X328405Y204161D01*
Y219173D01*
X328416Y219184D01*
X328370Y219416D01*
X328239Y219612D01*
X328043Y219742D01*
X327812Y219788D01*
Y219777D01*
X312810D01*
X312680Y219789D01*
X312678Y219789D01*
X312677Y219790D01*
X312555Y219739D01*
X312504Y219617D01*
X312504Y219616D01*
X312545Y219517D01*
X312627Y219414D01*
X328598Y197772D01*
X328598Y197769D01*
X328598Y197769D01*
X328681Y197714D01*
X328725Y197705D01*
X328726Y197705D01*
X345446D01*
X345576Y197694D01*
X345579Y197694D01*
X345809Y197740D01*
X346002Y197869D01*
X346002D01*
X346004Y197870D01*
X346134Y198065D01*
X346180Y198295D01*
Y198295D01*
X346169Y198424D01*
Y220227D01*
X346170Y220227D01*
X346214Y220448D01*
X346339Y220635D01*
X346526Y220760D01*
X346744Y220803D01*
Y220803D01*
X346873Y220778D01*
X346965Y220760D01*
X347047Y220705D01*
X347152Y220635D01*
X347277Y220448D01*
X347321Y220227D01*
X347323D01*
Y198199D01*
Y198066D01*
X347323D01*
X347306Y197936D01*
X347271Y197669D01*
X347117Y197300D01*
X346874Y196983D01*
X346557Y196739D01*
X346187Y196586D01*
X345793Y196534D01*
Y196534D01*
X328734D01*
X328727Y196542D01*
X328727D01*
X328427Y196581D01*
X328093Y196720D01*
X327806Y196940D01*
X327686Y197097D01*
X327686D01*
X327668Y197099D01*
X310965Y219705D01*
X310965Y219705D01*
X310974Y219713D01*
X310896Y219815D01*
X310823Y219992D01*
X310798Y220181D01*
X310823Y220371D01*
X310896Y220548D01*
X311013Y220700D01*
X311165Y220817D01*
X311342Y220890D01*
X311531Y220915D01*
X311577Y220909D01*
X311578Y220920D01*
X328029D01*
X328030Y220920D01*
X328425Y220868D01*
D02*
G37*
G36*
X297432Y189416D02*
X298227Y189258D01*
X298970Y189006D01*
X298971Y189003D01*
Y189003D01*
X298971Y189003D01*
X299550Y188717D01*
X300108Y188345D01*
X300611Y187903D01*
X300848Y187633D01*
X300849Y187634D01*
X301057Y187396D01*
X301507Y186722D01*
X301866Y185995D01*
X302051Y185450D01*
Y185450D01*
X302059Y185445D01*
X302287Y184534D01*
X302438Y183516D01*
X302488Y182488D01*
X302438Y181460D01*
X302287Y180442D01*
X302059Y179532D01*
X302050Y179527D01*
X301992Y179325D01*
X301718Y178665D01*
X301373Y178039D01*
X300959Y177455D01*
X300841Y177324D01*
X300840Y177326D01*
X300586Y177037D01*
X300094Y176605D01*
X299549Y176241D01*
X298980Y175960D01*
X298969Y175964D01*
D01*
X298969D01*
X298969D01*
X298727Y175865D01*
X298007Y175657D01*
X297269Y175532D01*
X296520Y175490D01*
X295772Y175532D01*
X295034Y175657D01*
X294313Y175865D01*
X294072Y175964D01*
X294072D01*
X294072D01*
D01*
X294063Y175961D01*
X293500Y176238D01*
X292940Y176612D01*
X292434Y177056D01*
X292190Y177334D01*
X292188Y177332D01*
X292081Y177451D01*
X291672Y178029D01*
X291329Y178648D01*
X291058Y179303D01*
X290991Y179535D01*
X290991D01*
X290983Y179540D01*
X290760Y180430D01*
X290609Y181450D01*
X290558Y182480D01*
X290609Y183509D01*
X290760Y184529D01*
X290983Y185421D01*
X290990Y185424D01*
X290990D01*
X290990Y185424D01*
X291174Y185967D01*
X291534Y186697D01*
X291986Y187373D01*
X292195Y187611D01*
X292196Y187611D01*
X292446Y187896D01*
X292948Y188336D01*
X293503Y188707D01*
X294064Y188984D01*
X294076Y188980D01*
X294399Y189114D01*
X295075Y189309D01*
X295767Y189426D01*
X296416Y189463D01*
X296550Y189461D01*
X296683Y189465D01*
X297432Y189416D01*
D02*
G37*
G36*
X326986Y189459D02*
X327120Y189463D01*
X327480Y189447D01*
X327613Y189441D01*
X327947Y189425D01*
X327948Y189424D01*
X328131Y189415D01*
X328391Y189376D01*
X328523Y189359D01*
X328808Y189311D01*
X328808Y189311D01*
Y189311D01*
X329072Y189266D01*
X329202Y189232D01*
X329357Y189202D01*
X329569Y189130D01*
X329569Y189129D01*
X329787Y189055D01*
X329912Y189012D01*
X329928Y189006D01*
X330037Y188965D01*
X330227Y188871D01*
X330351Y188819D01*
X330682Y188616D01*
X330791Y188549D01*
X330893Y188467D01*
X331207Y188198D01*
X331545Y187803D01*
X331831Y187337D01*
X331930Y187097D01*
X331930D01*
X331981Y186974D01*
X332052Y186802D01*
X332046Y186788D01*
X332113Y186591D01*
X332146Y186461D01*
X332172Y186335D01*
X332260Y185889D01*
X332246Y185832D01*
X332173Y185755D01*
X330924D01*
X330903Y185966D01*
X330767Y186414D01*
X330547Y186826D01*
X330250Y187188D01*
X329920Y187459D01*
X329889Y187484D01*
X329809Y187528D01*
Y187528D01*
X329608Y187636D01*
X329611Y187642D01*
X329390Y187734D01*
Y187734D01*
X329156Y187831D01*
X329157Y187832D01*
X329133Y187842D01*
X329029Y187867D01*
X328906Y187897D01*
X328900Y187907D01*
X328748Y187937D01*
X328624Y187962D01*
X328623Y187962D01*
X328622Y187962D01*
X328500Y187986D01*
X328332Y188020D01*
X328326Y188016D01*
X328151Y188046D01*
X328050Y188063D01*
X328021Y188066D01*
Y188066D01*
X327823Y188077D01*
X327690Y188086D01*
X327104Y188115D01*
X326990Y188120D01*
X326973Y188119D01*
X326839Y188118D01*
X326759Y188123D01*
X326052Y188077D01*
X325357Y187939D01*
X324943Y187798D01*
X324941Y187803D01*
X324941Y187803D01*
X324873Y187783D01*
X324817Y187753D01*
X324442Y187552D01*
X324064Y187242D01*
X323904Y187047D01*
X323821Y186947D01*
X323624Y186624D01*
X323450Y186204D01*
X323351Y185795D01*
X323343Y185762D01*
X323336Y185662D01*
X323321Y185529D01*
X323268Y185127D01*
X323226Y184167D01*
X323224Y184120D01*
Y184120D01*
X323227Y184047D01*
X323236Y184042D01*
X323237Y184042D01*
X323242Y184039D01*
X323242Y184039D01*
X323242D01*
X324834Y184039D01*
Y184038D01*
X324844Y184039D01*
X325467Y184018D01*
X325600Y184014D01*
X325734Y184009D01*
X326195Y183993D01*
X326328Y183984D01*
X326460Y183978D01*
X326462Y183978D01*
X326883Y183928D01*
X327015Y183913D01*
X327148Y183897D01*
X327663Y183829D01*
X327664Y183828D01*
X327841Y183805D01*
X328272Y183709D01*
Y183709D01*
X328403Y183682D01*
X328841Y183572D01*
X328842Y183572D01*
Y183572D01*
X329051Y183520D01*
X329371Y183405D01*
X329499Y183365D01*
X329861Y183215D01*
X329985Y183163D01*
X330497Y182911D01*
X330615Y182832D01*
X330724Y182758D01*
X331044Y182562D01*
X331521Y182155D01*
X331929Y181677D01*
X332257Y181142D01*
X332497Y180561D01*
X332644Y179951D01*
X332691Y179354D01*
X332688Y179263D01*
X332685Y179220D01*
X332685D01*
X332684Y179087D01*
X332647Y178609D01*
X332515Y178059D01*
X332413Y177813D01*
X332362Y177691D01*
X332362D01*
X332299Y177538D01*
X332011Y177068D01*
X331653Y176649D01*
X331491Y176511D01*
X331490Y176511D01*
X331230Y176289D01*
X330707Y175968D01*
X330308Y175803D01*
X330181Y175759D01*
X329873Y175655D01*
X329233Y175527D01*
X328674Y175491D01*
X328542Y175487D01*
X328409Y175490D01*
X327590Y175530D01*
X327246Y175581D01*
X327113Y175596D01*
X326470Y175724D01*
X326082Y175855D01*
X325958Y175897D01*
X325833Y175943D01*
X325269Y176176D01*
X324752Y176462D01*
X324638Y176533D01*
X324638D01*
X324241Y176770D01*
X323502Y177319D01*
X323452Y177364D01*
X323360Y177447D01*
X323246Y177551D01*
X323228Y177541D01*
X323226Y177536D01*
X323226Y177388D01*
Y177264D01*
Y175826D01*
X321847D01*
Y184512D01*
X321847Y184512D01*
X321852Y184512D01*
X321848Y184597D01*
X321893Y185401D01*
X322028Y186194D01*
X322137Y186576D01*
X322134Y186577D01*
X322164Y186703D01*
X322393Y187255D01*
X322705Y187764D01*
X323022Y188135D01*
X323115Y188228D01*
X323509Y188564D01*
X324040Y188889D01*
X324600Y189121D01*
X324610Y189116D01*
X325204Y189287D01*
X326004Y189423D01*
X326815Y189469D01*
X326986Y189459D01*
D02*
G37*
G36*
X287202Y175826D02*
X285822D01*
Y185541D01*
X285820Y185546D01*
X285824Y185549D01*
X285259Y186173D01*
X284520Y186843D01*
X283812Y187368D01*
X283719Y187437D01*
X283703Y187447D01*
X283698Y187440D01*
X283303Y187681D01*
X282720Y187923D01*
X282106Y188070D01*
X281502Y188118D01*
Y188118D01*
X281386Y188122D01*
X281369Y188121D01*
X280708Y188069D01*
X280161Y187938D01*
X280047Y187910D01*
X280032Y187904D01*
X279907Y187855D01*
X279897Y187852D01*
X279505Y187642D01*
X279161Y187360D01*
X279062Y187239D01*
X279062Y187238D01*
X278978Y187135D01*
X278906Y187048D01*
X278656Y186580D01*
X278517Y186122D01*
X278517Y186122D01*
X278393Y185392D01*
X278351Y184645D01*
X278349Y184610D01*
X278355Y184512D01*
X278360Y184380D01*
Y175826D01*
X276980D01*
Y184632D01*
X276980Y184632D01*
X276983Y184632D01*
X276982Y184655D01*
X277019Y185418D01*
X277030Y185551D01*
X277030D01*
X277038Y185697D01*
X277131Y186241D01*
X277158Y186372D01*
X277215Y186658D01*
X277364Y187096D01*
X277407Y187223D01*
X277553Y187575D01*
X277827Y188021D01*
X278167Y188420D01*
X278565Y188760D01*
X279006Y189030D01*
X279007Y189030D01*
X279007Y189030D01*
Y189030D01*
X279500Y189234D01*
X279628Y189266D01*
X279756Y189303D01*
X280354Y189422D01*
X280981Y189463D01*
X281094Y189464D01*
X281114Y189463D01*
Y189463D01*
X281246Y189457D01*
X281811Y189425D01*
X282139Y189369D01*
X282271Y189346D01*
X282643Y189272D01*
X283157Y189098D01*
X283282Y189053D01*
X283401Y188997D01*
X283947Y188728D01*
X284507Y188353D01*
X284508Y188347D01*
X284688Y188219D01*
X285392Y187590D01*
X285598Y187361D01*
X285680Y187268D01*
X285792Y187143D01*
X285806Y187148D01*
X285806Y187148D01*
X285812Y187151D01*
X285814Y187156D01*
X285814Y187320D01*
Y187320D01*
X285814Y187443D01*
X285822Y194624D01*
X287202D01*
Y175826D01*
D02*
G37*
G36*
X267306Y189460D02*
Y189460D01*
X267440Y189456D01*
X267980Y189426D01*
X268246Y189381D01*
X268246Y189381D01*
X268246Y189381D01*
D01*
X268255Y189387D01*
X268849Y189245D01*
X269281Y189066D01*
X269281D01*
X269282Y189066D01*
X269791Y188815D01*
X270435Y188385D01*
X270437Y188370D01*
Y188370D01*
X270676Y188193D01*
X271324Y187606D01*
X271547Y187360D01*
X271630Y187268D01*
X271630D01*
X271743Y187144D01*
X271756Y187148D01*
X271756Y187148D01*
X271756Y187148D01*
X271761Y187150D01*
X271761Y187151D01*
X271764Y187156D01*
Y187320D01*
X271764Y187444D01*
Y189125D01*
X273143D01*
Y175826D01*
X271764D01*
Y185508D01*
Y185508D01*
X271762Y185512D01*
X271764Y185514D01*
X271619Y185710D01*
X270976Y186418D01*
X270267Y187061D01*
X269770Y187429D01*
X269775Y187436D01*
X269309Y187722D01*
X268781Y187941D01*
X268225Y188074D01*
X267686Y188117D01*
Y188117D01*
X267587Y188119D01*
X267552Y188117D01*
X267065Y188078D01*
X266556Y187956D01*
X266550Y187954D01*
X266427Y187904D01*
X266367Y187886D01*
X266304Y187853D01*
X266048Y187715D01*
X265768Y187486D01*
X265586Y187265D01*
X265580Y187269D01*
X265580Y187269D01*
X265564Y187250D01*
X265512Y187153D01*
X265307Y186770D01*
X265158Y186277D01*
X265149Y186249D01*
X265139Y186145D01*
X265142Y186145D01*
X265048Y185508D01*
X265005Y184644D01*
X265004Y184630D01*
X265010Y184512D01*
X265016Y184380D01*
Y175820D01*
X263636D01*
Y185502D01*
X263634Y185506D01*
X263635Y185507D01*
X263467Y185733D01*
X262890Y186369D01*
X262254Y186946D01*
X261601Y187430D01*
X261599Y187427D01*
X261180Y187684D01*
X260607Y187921D01*
X260004Y188066D01*
X259562Y188101D01*
X259435Y188112D01*
Y188112D01*
X259431Y188112D01*
X259279Y188102D01*
X259146Y188094D01*
X258873Y188073D01*
Y188073D01*
X258762Y188064D01*
X258741Y188058D01*
X258617Y188029D01*
X258617Y188028D01*
X258378Y187971D01*
X258379Y187968D01*
X258254Y187930D01*
X258155Y187900D01*
X258119Y187888D01*
X257955Y187800D01*
X257955D01*
X257953Y187799D01*
X257953Y187799D01*
X257838Y187738D01*
X257765Y187698D01*
Y187698D01*
X257757Y187693D01*
X257668Y187619D01*
X257665Y187617D01*
X257661Y187614D01*
X257498Y187480D01*
X257322Y187265D01*
X257320Y187266D01*
X257320Y187266D01*
X257283Y187221D01*
X257210Y187084D01*
X257210Y187084D01*
X257210D01*
X257104Y186885D01*
X257108Y186884D01*
X257016Y186662D01*
X257015Y186663D01*
X256973Y186560D01*
X256970Y186548D01*
X256970Y186548D01*
X256967Y186539D01*
X256936Y186420D01*
X256918Y186367D01*
X256901Y186284D01*
X256875Y186154D01*
X256818Y185869D01*
X256818D01*
X256799Y185736D01*
X256792Y185691D01*
X256768Y185563D01*
X256757Y185366D01*
X256749Y185233D01*
X256719Y184644D01*
X256714Y184532D01*
X256715Y184512D01*
X256726Y184383D01*
Y175826D01*
X255441D01*
X255346Y175920D01*
X255363Y184632D01*
X255364Y184632D01*
X255363Y184661D01*
X255400Y185418D01*
X255410Y185551D01*
X255423Y185789D01*
X255500Y186241D01*
X255523Y186372D01*
X255549Y186502D01*
X255609Y186803D01*
X255709Y187096D01*
X255709Y187096D01*
X255709Y187096D01*
X255818Y187419D01*
X255968Y187723D01*
X256026Y187844D01*
X256231Y188178D01*
X256539Y188538D01*
X256899Y188846D01*
X257189Y189024D01*
X257189D01*
X257304Y189091D01*
X257621Y189222D01*
X257742Y189271D01*
X257866Y189301D01*
X258345Y189416D01*
X258948Y189463D01*
X259078Y189465D01*
X259081Y189464D01*
Y189464D01*
X259212Y189457D01*
X259784Y189425D01*
X260253Y189345D01*
X260254Y189344D01*
X260632Y189269D01*
X261277Y189050D01*
X261454Y188963D01*
X261454Y188962D01*
X261870Y188756D01*
X262489Y188343D01*
X262631Y188219D01*
X262630Y188218D01*
X263043Y187856D01*
X263578Y187246D01*
X263725Y187025D01*
X263755Y187031D01*
X263777Y187120D01*
X263789Y187152D01*
X263794Y187163D01*
X263981Y187614D01*
X264258Y188067D01*
X264603Y188470D01*
X264974Y188787D01*
X265086Y188859D01*
X265200Y188929D01*
X265378Y189038D01*
X265952Y189276D01*
X266557Y189421D01*
X267176Y189470D01*
X267306Y189460D01*
D02*
G37*
G36*
X318118Y193261D02*
X306448D01*
X306446Y193260D01*
X306444Y193259D01*
X306443Y193259D01*
X306443Y193259D01*
X306443Y193259D01*
X306442Y193256D01*
X306441Y193254D01*
X306441Y193254D01*
X306441Y193254D01*
X306442Y193251D01*
X306442Y193249D01*
X306542Y193127D01*
X306621Y193031D01*
X319245Y177637D01*
Y175826D01*
X304671D01*
Y177186D01*
X317565D01*
X317689Y177186D01*
X317846D01*
X317849Y177187D01*
X317851Y177188D01*
X317851Y177188D01*
X317851Y177188D01*
X317852Y177188D01*
X317853Y177190D01*
X317854Y177192D01*
X317854Y177192D01*
X317854Y177193D01*
X317854Y177193D01*
X317853Y177195D01*
X317852Y177198D01*
X317752Y177320D01*
Y177320D01*
X317673Y177415D01*
X305028Y192793D01*
Y194624D01*
X318118D01*
Y193261D01*
D02*
G37*
G36*
X347744Y189132D02*
X347746Y189127D01*
X347751Y189125D01*
X349458D01*
Y187765D01*
X347751D01*
X347746Y187763D01*
X347744Y187758D01*
Y179616D01*
X347744Y179616D01*
X347738Y179616D01*
X347743Y179493D01*
X347696Y178302D01*
X347645Y177873D01*
X347644Y177872D01*
X347627Y177654D01*
X347510Y177164D01*
X347339Y176753D01*
X347274Y176637D01*
X347274D01*
X347214Y176524D01*
X346997Y176261D01*
X346734Y176044D01*
X346455Y175895D01*
X346447Y175898D01*
X346224Y175806D01*
X345692Y175678D01*
X345147Y175635D01*
X345008Y175646D01*
X344880Y175637D01*
X344831Y175637D01*
X344772Y175638D01*
X344772D01*
X344729Y175639D01*
X344596Y175654D01*
X344596Y175654D01*
X344420Y175666D01*
X344286Y175663D01*
X344243Y175666D01*
X344125Y175676D01*
X344007Y175687D01*
X343838Y175705D01*
X343835Y176884D01*
X343886Y176950D01*
X343959Y177001D01*
X343964Y177002D01*
X344023Y177000D01*
X344023Y177000D01*
X344053Y176999D01*
X344053Y176999D01*
X344083Y176999D01*
X344140Y176999D01*
X344338D01*
X344469Y176991D01*
X344515Y176988D01*
X344603Y176995D01*
X345100Y177034D01*
X345148Y177045D01*
X345277Y177075D01*
X345344Y177084D01*
X345404Y177109D01*
X345611Y177195D01*
X345785Y177328D01*
X345840Y177370D01*
X345879Y177421D01*
X345877Y177423D01*
X345877Y177423D01*
X345877Y177423D01*
X345877Y177424D01*
X345994Y177566D01*
X346152Y177861D01*
X346248Y178180D01*
X346241Y178182D01*
X346328Y178621D01*
X346377Y179364D01*
X346368Y179499D01*
X346368Y179499D01*
X346368D01*
X346364Y179504D01*
Y187761D01*
X346362Y187766D01*
X346357Y187768D01*
X344164D01*
Y189128D01*
X346357D01*
X346362Y189130D01*
X346364Y189135D01*
Y192616D01*
X347744D01*
Y189132D01*
D02*
G37*
G36*
X373412Y183704D02*
X373412Y183523D01*
X373406Y183518D01*
X373389Y182953D01*
X373389D01*
X373386Y182820D01*
X373373Y182380D01*
X373373Y182380D01*
X373373D01*
X373381Y182371D01*
X373352Y181809D01*
X373339Y181798D01*
X373321Y181437D01*
X373181Y180491D01*
X373036Y179911D01*
X373036Y179911D01*
X373036D01*
X373036Y179910D01*
X372887Y179393D01*
X372586Y178667D01*
X372327Y178198D01*
X372327D01*
Y178198D01*
X372329Y178189D01*
X372006Y177705D01*
X371600Y177242D01*
X371179Y176872D01*
X371071Y176793D01*
X371071D01*
X370961Y176720D01*
X370550Y176445D01*
X369828Y176089D01*
X369087Y175838D01*
X369073Y175845D01*
X368421Y175681D01*
X367408Y175531D01*
X366385Y175481D01*
X366179Y175491D01*
X366178Y175494D01*
X365889Y175480D01*
X364937Y175526D01*
X363994Y175666D01*
X363070Y175898D01*
X362638Y176052D01*
X362638Y176050D01*
X362450Y176114D01*
X361854Y176408D01*
X361301Y176777D01*
X360802Y177215D01*
X360421Y177650D01*
X360421Y177656D01*
X360421Y177656D01*
X360421D01*
X360128Y178069D01*
X359785Y178690D01*
X359514Y179345D01*
X359317Y180027D01*
X359282Y180236D01*
X359283Y180236D01*
X359144Y180937D01*
X358992Y182222D01*
X358941Y183515D01*
X358948Y183701D01*
X358942Y183701D01*
X358942Y183701D01*
Y194624D01*
X360321D01*
Y183758D01*
X360320Y183757D01*
Y183757D01*
X360305Y183416D01*
X360355Y182272D01*
X360504Y181137D01*
X360698Y180266D01*
X360696Y180266D01*
X360715Y180170D01*
X360727Y180136D01*
X360923Y179560D01*
X361207Y178982D01*
X361565Y178447D01*
X361732Y178257D01*
X361818Y178159D01*
X361818Y178159D01*
X361818Y178158D01*
X361813Y178153D01*
X361848Y178112D01*
X361909Y178060D01*
X362299Y177727D01*
X362804Y177417D01*
X363352Y177191D01*
X363659Y177117D01*
X363659Y177117D01*
X363659Y177116D01*
X364011Y177028D01*
X365036Y176875D01*
X366037Y176826D01*
X366071Y176825D01*
X366170Y176830D01*
X366278Y176825D01*
X367284Y176874D01*
X368281Y177022D01*
X368656Y177116D01*
X368786Y177148D01*
X368945Y177186D01*
X369514Y177422D01*
X370039Y177743D01*
X370505Y178142D01*
X370498Y178149D01*
X370800Y178493D01*
X371150Y179017D01*
X371429Y179583D01*
X371614Y180128D01*
X371632Y180181D01*
X371647Y180257D01*
X371647Y180257D01*
X371852Y181182D01*
X371999Y182301D01*
X372049Y183429D01*
X372034Y183757D01*
X372034Y183757D01*
X372034D01*
X372033Y183758D01*
Y194624D01*
X373412D01*
Y183704D01*
D02*
G37*
G36*
X354087Y175826D02*
X352707D01*
Y194624D01*
X354087D01*
Y175826D01*
D02*
G37*
G36*
X335217Y189466D02*
X335217D01*
X335981Y189416D01*
X336133Y189385D01*
X336138Y189389D01*
X336749Y189242D01*
X337175Y189066D01*
X337175Y189066D01*
X337658Y188828D01*
X338182Y188478D01*
X338289Y188397D01*
X338428Y188299D01*
X339027Y187763D01*
X339258Y187505D01*
X339340Y187413D01*
X339455Y187285D01*
X339467Y187288D01*
X339467Y187288D01*
X339472Y187290D01*
X339474Y187295D01*
Y187298D01*
X339475Y187302D01*
X339474Y187303D01*
Y187464D01*
X339474Y187587D01*
Y189125D01*
X340854D01*
Y175826D01*
X339474D01*
Y185354D01*
X339473Y185358D01*
X339477Y185361D01*
X339427Y185452D01*
X339410Y185476D01*
X338987Y186072D01*
X338816Y186263D01*
X338728Y186363D01*
X338727Y186363D01*
X338727Y186363D01*
X338638Y186462D01*
X338441Y186683D01*
X337890Y187175D01*
X337798Y187246D01*
X337777Y187264D01*
X337689Y187323D01*
X337236Y187626D01*
X336736Y187872D01*
X336734Y187868D01*
X336471Y187977D01*
X336036Y188081D01*
X335715Y188106D01*
X335590Y188116D01*
X335585Y188116D01*
X335455Y188108D01*
X335211D01*
X335081Y188118D01*
X335066Y188119D01*
X334948Y188108D01*
X334772Y188090D01*
X334674Y188181D01*
X334686Y189444D01*
X334959Y189468D01*
X335215D01*
X335217Y189466D01*
D02*
G37*
G36*
X518110Y202588D02*
X465689D01*
Y204189D01*
X461073D01*
D01*
X465689D01*
Y203310D01*
X461073D01*
Y202588D01*
X377559D01*
Y217176D01*
X518110D01*
Y202588D01*
D02*
G37*
G36*
Y195507D02*
D01*
Y188363D01*
D01*
Y174016D01*
X377559D01*
Y188363D01*
X424388D01*
Y190190D01*
Y188363D01*
X377559D01*
Y195507D01*
X440902D01*
D01*
X377559D01*
Y202588D01*
X518110D01*
Y195507D01*
D02*
G37*
G36*
X546890Y209095D02*
X520001D01*
Y216952D01*
X546890D01*
Y209095D01*
D02*
G37*
%LPC*%
G36*
X296558Y188119D02*
X295882Y188074D01*
X295218Y187942D01*
X294683Y187760D01*
X294685Y187756D01*
X294407Y187641D01*
X293887Y187322D01*
X293423Y186926D01*
X293321Y186807D01*
X293234Y186706D01*
X293234D01*
Y186706D01*
X293089Y186541D01*
X292734Y186010D01*
X292452Y185437D01*
X292288Y184953D01*
X292287Y184953D01*
X292114Y184261D01*
X291983Y183381D01*
X291940Y182494D01*
X291983Y181606D01*
X292114Y180727D01*
X292287Y180034D01*
X292330Y179910D01*
X292457Y179535D01*
X292748Y178944D01*
X293114Y178397D01*
X293233Y178261D01*
X293235Y178261D01*
X293236Y178261D01*
X293453Y178007D01*
X293908Y177618D01*
X294418Y177306D01*
X294685Y177195D01*
X294682Y177188D01*
X295245Y176997D01*
X295861Y176874D01*
X296417Y176837D01*
X296488Y176833D01*
X296550Y176837D01*
X296619Y176832D01*
X297252Y176874D01*
X297874Y176998D01*
X298434Y177188D01*
X298432Y177195D01*
X298699Y177306D01*
X299208Y177618D01*
X299663Y178007D01*
X299881Y178261D01*
X299881Y178261D01*
X299882Y178262D01*
X299883Y178261D01*
X299998Y178393D01*
X300358Y178931D01*
X300644Y179511D01*
X300822Y180034D01*
X300819Y180035D01*
X300977Y180669D01*
X301112Y181577D01*
X301157Y182494D01*
X301112Y183410D01*
X300977Y184318D01*
X300819Y184952D01*
X300822Y184953D01*
X300649Y185461D01*
X300372Y186023D01*
X300024Y186544D01*
X299882Y186706D01*
X299795Y186806D01*
X299794Y186807D01*
X299693Y186926D01*
X299229Y187322D01*
X298709Y187641D01*
X298432Y187756D01*
X298433Y187760D01*
X297898Y187942D01*
X297234Y188074D01*
X296558Y188119D01*
D02*
G37*
G36*
X332046Y186788D02*
Y186788D01*
D01*
Y186788D01*
D02*
G37*
G36*
X325357Y182690D02*
X325327Y182689D01*
X325198Y182679D01*
X323234D01*
X323228Y182677D01*
X323226Y182672D01*
Y179203D01*
X323228Y179199D01*
X323228Y179198D01*
X323472Y178929D01*
X324081Y178377D01*
X324086Y178377D01*
X324254Y178227D01*
X324937Y177742D01*
X325167Y177615D01*
X325167Y177615D01*
X325596Y177378D01*
X326257Y177104D01*
X326426Y177056D01*
Y177056D01*
X326426D01*
X326429Y177057D01*
X326643Y176985D01*
X327210Y176872D01*
X327787Y176834D01*
X327806Y176832D01*
X327810Y176832D01*
X327993Y176842D01*
X328125Y176849D01*
Y176849D01*
X328430Y176866D01*
X328563Y176877D01*
X328681Y176885D01*
X328723Y176893D01*
X328723Y176894D01*
X328868Y176923D01*
X328997Y176949D01*
X328998Y176949D01*
X328999Y176949D01*
Y176949D01*
X328999Y176949D01*
X329130Y176975D01*
X329264Y177002D01*
X329269Y177010D01*
X329505Y177067D01*
X329749Y177167D01*
X329749Y177167D01*
Y177167D01*
X330007Y177275D01*
X330376Y177500D01*
X330378Y177498D01*
X330694Y177758D01*
X330962Y178084D01*
X331160Y178455D01*
X331283Y178858D01*
X331324Y179278D01*
X331321Y179357D01*
X331326Y179405D01*
X331317Y179490D01*
X331274Y179935D01*
X331119Y180445D01*
X330868Y180915D01*
X330529Y181327D01*
X330117Y181665D01*
X329829Y181819D01*
X329829Y181820D01*
X329638Y181937D01*
X329518Y181987D01*
X329397Y182042D01*
X329302Y182089D01*
X329176Y182132D01*
X329175Y182133D01*
X328801Y182260D01*
X328801Y182259D01*
X328398Y182375D01*
X328398Y182376D01*
X328268Y182414D01*
X327969Y182464D01*
X327963Y182472D01*
X327496Y182541D01*
X327496Y182542D01*
X327496Y182542D01*
X327001Y182607D01*
Y182607D01*
X326997Y182604D01*
X326698Y182640D01*
X326607Y182643D01*
X326473Y182650D01*
X325460Y182687D01*
X325357Y182690D01*
D02*
G37*
G36*
X423789Y208485D02*
X421873D01*
D01*
X423789D01*
D02*
G37*
G36*
X435206Y208485D02*
X431262Y208485D01*
D01*
X433146Y208485D01*
X433089Y208479D01*
X433014D01*
X432938Y208472D01*
X432851Y208460D01*
X432668Y208441D01*
X432486Y208410D01*
X432310Y208366D01*
X432235Y208334D01*
X432160Y208303D01*
X432154D01*
X432141Y208297D01*
X432122Y208284D01*
X432103Y208272D01*
X432034Y208234D01*
X431959Y208184D01*
X431871Y208115D01*
X431789Y208039D01*
X431708Y207951D01*
X431645Y207857D01*
X431638Y207844D01*
X431632Y207826D01*
X431620Y207807D01*
X431607Y207775D01*
X431595Y207731D01*
X431582Y207687D01*
X431569Y207631D01*
X431557Y207568D01*
X431544Y207499D01*
X431532Y207417D01*
X431519Y207323D01*
X431507Y207223D01*
X431500Y207116D01*
X431494Y206997D01*
Y206865D01*
X431513Y205565D01*
Y205558D01*
Y205540D01*
Y205515D01*
Y205477D01*
Y205427D01*
Y205376D01*
X431507Y205257D01*
X431500Y205125D01*
X431494Y204987D01*
X431482Y204861D01*
X431469Y204799D01*
X431463Y204748D01*
Y204736D01*
X431450Y204704D01*
X431438Y204648D01*
X431419Y204579D01*
X431394Y204497D01*
X431356Y204403D01*
X431312Y204296D01*
X431262Y204189D01*
X432361Y204189D01*
Y204196D01*
X432367Y204208D01*
X432380Y204234D01*
X432392Y204271D01*
X432405Y204315D01*
X432430Y204372D01*
X432449Y204441D01*
X432474Y204516D01*
Y204522D01*
X432480Y204535D01*
X432486Y204573D01*
X432499Y204617D01*
X432505Y204635D01*
X432511Y204648D01*
X432524Y204635D01*
X432562Y204604D01*
X432618Y204554D01*
X432694Y204491D01*
X432782Y204428D01*
X432888Y204359D01*
X433001Y204290D01*
X433121Y204234D01*
X433127D01*
X433133Y204227D01*
X433152Y204221D01*
X433177Y204215D01*
X433240Y204189D01*
X433328Y204164D01*
X433428Y204139D01*
X433548Y204114D01*
X433673Y204102D01*
X433811Y204095D01*
X433874D01*
X433918Y204102D01*
X433975Y204108D01*
X434037Y204114D01*
X434107Y204127D01*
X434182Y204139D01*
X434345Y204177D01*
X434515Y204240D01*
X434603Y204284D01*
X434684Y204328D01*
X434760Y204378D01*
X434835Y204441D01*
X434841Y204447D01*
X434854Y204460D01*
X434866Y204478D01*
X434892Y204503D01*
X434923Y204541D01*
X434954Y204579D01*
X434986Y204629D01*
X435017Y204686D01*
X435055Y204748D01*
X435086Y204811D01*
X435149Y204968D01*
X435174Y205050D01*
X435187Y205138D01*
X435199Y205232D01*
X435206Y205332D01*
Y204171D01*
Y205395D01*
X435199Y205458D01*
X435187Y205546D01*
X435162Y205646D01*
X435137Y205753D01*
X435092Y205860D01*
X435036Y205967D01*
Y205973D01*
X435030Y205979D01*
X435005Y206011D01*
X434967Y206061D01*
X434910Y206124D01*
X434848Y206193D01*
X434766Y206262D01*
X434672Y206331D01*
X434565Y206387D01*
X434559D01*
X434552Y206394D01*
X434534Y206400D01*
X434509Y206413D01*
X434477Y206425D01*
X434439Y206444D01*
X434389Y206457D01*
X434339Y206475D01*
X434282Y206494D01*
X434213Y206519D01*
X434138Y206538D01*
X434063Y206563D01*
X433975Y206582D01*
X433881Y206607D01*
X433786Y206632D01*
X433679Y206651D01*
X433673D01*
X433648Y206658D01*
X433604Y206664D01*
X433554Y206676D01*
X433491Y206689D01*
X433416Y206701D01*
X433334Y206720D01*
X433246Y206739D01*
X433070Y206783D01*
X432888Y206827D01*
X432807Y206852D01*
X432725Y206877D01*
X432656Y206903D01*
X432593Y206928D01*
Y207034D01*
Y207041D01*
Y207047D01*
Y207091D01*
X432599Y207147D01*
X432612Y207217D01*
X432631Y207292D01*
X432662Y207367D01*
X432700Y207442D01*
X432756Y207499D01*
X432763Y207505D01*
X432788Y207518D01*
X432832Y207543D01*
X432888Y207568D01*
X432970Y207593D01*
X433077Y207618D01*
X433140Y207625D01*
X433202Y207631D01*
X433278Y207637D01*
X433410D01*
X433466Y207631D01*
X433529Y207625D01*
X433604Y207606D01*
X433686Y207587D01*
X433761Y207556D01*
X433830Y207518D01*
X433837Y207512D01*
X433855Y207493D01*
X433887Y207468D01*
X433924Y207424D01*
X433968Y207367D01*
X434012Y207292D01*
X434056Y207204D01*
X434094Y207103D01*
X435092Y207286D01*
Y207292D01*
X435086Y207311D01*
X435074Y207342D01*
X435061Y207386D01*
X435042Y207436D01*
X435017Y207493D01*
X434954Y207625D01*
X434873Y207775D01*
X434772Y207926D01*
X434653Y208064D01*
X434584Y208133D01*
X434509Y208190D01*
X434502Y208196D01*
X434490Y208202D01*
X434465Y208215D01*
X434433Y208234D01*
X434389Y208259D01*
X434333Y208284D01*
X434270Y208309D01*
X434201Y208341D01*
X434113Y208366D01*
X434025Y208391D01*
X433924Y208416D01*
X433811Y208441D01*
X433692Y208460D01*
X433560Y208472D01*
X433422Y208485D01*
X435206D01*
D01*
D02*
G37*
G36*
X425792Y208485D02*
X423826D01*
X423782Y208479D01*
X423713Y208472D01*
X423638Y208466D01*
X423544Y208454D01*
X423443Y208435D01*
X423336Y208410D01*
X423217Y208372D01*
X423098Y208334D01*
X422978Y208284D01*
X422853Y208221D01*
X422733Y208152D01*
X422614Y208070D01*
X422501Y207970D01*
X422394Y207863D01*
X422388Y207857D01*
X422369Y207832D01*
X422344Y207801D01*
X422313Y207750D01*
X422269Y207681D01*
X422225Y207599D01*
X422175Y207505D01*
X422124Y207399D01*
X422074Y207273D01*
X422030Y207129D01*
X421986Y206978D01*
X421948Y206808D01*
X421917Y206620D01*
X421892Y206419D01*
X421873Y206205D01*
Y206205D01*
Y205973D01*
X424655D01*
Y205967D01*
Y205954D01*
Y205923D01*
X424649Y205891D01*
X424643Y205847D01*
X424636Y205797D01*
X424617Y205690D01*
X424586Y205565D01*
X424542Y205433D01*
X424479Y205307D01*
X424391Y205194D01*
X424385D01*
X424379Y205182D01*
X424347Y205150D01*
X424291Y205106D01*
X424216Y205062D01*
X424121Y205012D01*
X424008Y204968D01*
X423883Y204937D01*
X423814Y204930D01*
X423745Y204924D01*
X423701D01*
X423657Y204930D01*
X423594Y204943D01*
X423525Y204956D01*
X423456Y204981D01*
X423380Y205018D01*
X423311Y205062D01*
X423305Y205069D01*
X423280Y205087D01*
X423248Y205125D01*
X423211Y205175D01*
X423161Y205238D01*
X423117Y205320D01*
X423073Y205414D01*
X423035Y205527D01*
X421930Y205339D01*
Y205332D01*
X421942Y205314D01*
X421955Y205282D01*
X421967Y205238D01*
X421992Y205188D01*
X422024Y205132D01*
X422055Y205062D01*
X422093Y204993D01*
X422187Y204843D01*
X422306Y204692D01*
X422445Y204541D01*
X422526Y204472D01*
X422608Y204409D01*
X422614Y204403D01*
X422627Y204397D01*
X422652Y204378D01*
X422689Y204359D01*
X422733Y204334D01*
X422790Y204309D01*
X422853Y204284D01*
X422922Y204252D01*
X423003Y204221D01*
X423091Y204196D01*
X423186Y204171D01*
X423286Y204146D01*
X423393Y204127D01*
X423512Y204108D01*
X423631Y204102D01*
X423757Y204095D01*
X423404D01*
X425792D01*
Y206300D01*
Y206300D01*
X425786Y206356D01*
Y206425D01*
X425773Y206513D01*
X425761Y206620D01*
X425748Y206727D01*
X425723Y206852D01*
X425698Y206978D01*
X425660Y207110D01*
X425616Y207248D01*
X425566Y207386D01*
X425503Y207518D01*
X425428Y207650D01*
X425346Y207775D01*
X425252Y207888D01*
X425246Y207895D01*
X425227Y207913D01*
X425195Y207945D01*
X425151Y207983D01*
X425101Y208027D01*
X425032Y208077D01*
X424957Y208133D01*
X424875Y208190D01*
X424781Y208240D01*
X424674Y208297D01*
X424561Y208347D01*
X424435Y208391D01*
X424310Y208429D01*
X424172Y208460D01*
X424021Y208479D01*
X423870Y208485D01*
X425792D01*
D02*
G37*
G36*
X443005Y209879D02*
X440537D01*
X441385D01*
Y208391D01*
X440625D01*
Y207505D01*
X441385D01*
Y205810D01*
Y205803D01*
Y205785D01*
Y205760D01*
Y205728D01*
Y205690D01*
Y205640D01*
Y205540D01*
X441379Y205439D01*
Y205339D01*
X441372Y205295D01*
Y205257D01*
X441366Y205226D01*
Y205207D01*
Y205201D01*
X441360Y205194D01*
X441347Y205157D01*
X441316Y205113D01*
X441272Y205069D01*
X441266D01*
X441259Y205062D01*
X441241Y205056D01*
X441216Y205044D01*
X441159Y205025D01*
X441084Y205018D01*
X441052D01*
X441021Y205025D01*
X440971Y205031D01*
X440908Y205044D01*
X440826Y205062D01*
X440738Y205088D01*
X440638Y205119D01*
X440537Y204259D01*
D01*
X440544D01*
X440556Y204252D01*
X440575Y204246D01*
X440606Y204234D01*
X440644Y204221D01*
X440688Y204208D01*
X440738Y204189D01*
X440795Y204177D01*
X440920Y204146D01*
X441071Y204120D01*
X441241Y204102D01*
X441417Y204095D01*
X441467D01*
X441523Y204102D01*
X441599Y204108D01*
X441680Y204120D01*
X441768Y204139D01*
X441862Y204164D01*
X441957Y204196D01*
X441969Y204202D01*
X441994Y204215D01*
X442038Y204234D01*
X442089Y204265D01*
X442145Y204303D01*
X442208Y204346D01*
X442258Y204397D01*
X442308Y204453D01*
X442314Y204460D01*
X442327Y204485D01*
X442346Y204522D01*
X442371Y204566D01*
X442396Y204629D01*
X442421Y204704D01*
X442446Y204792D01*
X442465Y204887D01*
Y204899D01*
X442472Y204924D01*
Y204949D01*
X442478Y204981D01*
Y205018D01*
Y205056D01*
X442484Y205106D01*
Y205163D01*
X442490Y205226D01*
Y205301D01*
X442497Y205383D01*
Y205471D01*
Y205565D01*
Y205672D01*
Y207505D01*
X443005D01*
Y208391D01*
D01*
X442497D01*
Y209226D01*
X441385Y209879D01*
X443005D01*
D02*
G37*
G36*
X452689Y208485D02*
X448369D01*
D01*
X450491D01*
X450441Y208479D01*
X450378Y208472D01*
X450296Y208466D01*
X450202Y208454D01*
X450095Y208435D01*
X449982Y208410D01*
X449863Y208372D01*
X449738Y208334D01*
X449606Y208284D01*
X449480Y208221D01*
X449348Y208152D01*
X449216Y208071D01*
X449097Y207970D01*
X448978Y207863D01*
X448971Y207857D01*
X448952Y207832D01*
X448921Y207801D01*
X448883Y207750D01*
X448833Y207687D01*
X448783Y207618D01*
X448733Y207530D01*
X448670Y207436D01*
X448613Y207330D01*
X448563Y207210D01*
X448507Y207078D01*
X448463Y206940D01*
X448425Y206796D01*
X448394Y206639D01*
X448375Y206475D01*
X448369Y206300D01*
Y206256D01*
X448375Y206205D01*
Y206143D01*
X448387Y206061D01*
X448400Y205967D01*
X448419Y205860D01*
X448444Y205747D01*
X448475Y205621D01*
X448519Y205496D01*
X448569Y205364D01*
X448626Y205232D01*
X448701Y205094D01*
X448783Y204968D01*
X448877Y204836D01*
X448984Y204717D01*
X448990Y204711D01*
X449009Y204692D01*
X449047Y204661D01*
X449097Y204623D01*
X449153Y204573D01*
X449229Y204522D01*
X449310Y204466D01*
X449405Y204409D01*
X449511Y204346D01*
X449631Y204290D01*
X449756Y204240D01*
X449895Y204196D01*
X450039Y204152D01*
X450196Y204120D01*
X450359Y204102D01*
X450529Y204095D01*
X450585D01*
X450629Y204102D01*
X450679D01*
X450736Y204108D01*
X450805Y204114D01*
X450880Y204127D01*
X451050Y204158D01*
X451238Y204202D01*
X451433Y204265D01*
X451628Y204353D01*
X451634Y204359D01*
X451653Y204365D01*
X451678Y204378D01*
X451716Y204403D01*
X451760Y204428D01*
X451804Y204466D01*
X451923Y204548D01*
X452048Y204654D01*
X452180Y204786D01*
X452306Y204943D01*
X452419Y205119D01*
Y205125D01*
X452432Y205144D01*
X452444Y205169D01*
X452463Y205207D01*
X452482Y205257D01*
X452507Y205314D01*
X452526Y205383D01*
X452551Y205458D01*
X452576Y205546D01*
X452601Y205640D01*
X452626Y205741D01*
X452645Y205847D01*
X452664Y205960D01*
X452676Y206086D01*
X452683Y206212D01*
X452689Y206344D01*
Y204654D01*
Y208485D01*
D02*
G37*
G36*
X470116Y209986D02*
X465764D01*
D01*
X465890D01*
Y209075D01*
X469055Y205169D01*
X465764D01*
Y204189D01*
X470468D01*
Y205244D01*
X467422Y209006D01*
X470116D01*
Y209986D01*
D02*
G37*
G36*
X460520D02*
X456545D01*
Y204189D01*
Y209006D01*
X459352D01*
Y207631D01*
X456928D01*
Y206651D01*
X459352D01*
Y204189D01*
X460520D01*
Y209986D01*
D02*
G37*
G36*
X455634Y208485D02*
X452915D01*
D01*
X453587D01*
X453549Y208479D01*
X453512Y208472D01*
X453418Y208460D01*
X453304Y208435D01*
X453179Y208397D01*
X453047Y208341D01*
X452915Y208272D01*
X453261Y207304D01*
X453273Y207311D01*
X453311Y207336D01*
X453361Y207361D01*
X453430Y207399D01*
X453512Y207430D01*
X453600Y207461D01*
X453688Y207480D01*
X453782Y207487D01*
X453820D01*
X453863Y207480D01*
X453920Y207468D01*
X453983Y207455D01*
X454046Y207430D01*
X454115Y207399D01*
X454178Y207355D01*
X454184Y207348D01*
X454203Y207330D01*
X454234Y207298D01*
X454272Y207248D01*
X454309Y207185D01*
X454353Y207103D01*
X454397Y207009D01*
X454435Y206890D01*
Y206884D01*
X454441Y206871D01*
Y206852D01*
X454448Y206821D01*
X454454Y206783D01*
X454460Y206727D01*
X454473Y206664D01*
X454479Y206589D01*
X454485Y206501D01*
X454498Y206400D01*
X454504Y206287D01*
X454510Y206155D01*
X454517Y206011D01*
Y205854D01*
X454523Y205678D01*
Y205483D01*
Y204189D01*
X455634D01*
Y208397D01*
Y208391D01*
X454604D01*
Y207788D01*
X454598Y207794D01*
X454592Y207807D01*
X454579Y207826D01*
X454561Y207857D01*
X454510Y207932D01*
X454448Y208020D01*
X454372Y208115D01*
X454297Y208202D01*
X454215Y208284D01*
X454171Y208322D01*
X454134Y208347D01*
X454121Y208353D01*
X454096Y208366D01*
X454052Y208391D01*
X453995Y208416D01*
X453920Y208441D01*
X453838Y208466D01*
X453750Y208479D01*
X453650Y208485D01*
X455634D01*
D01*
D02*
G37*
G36*
X447502D02*
X443684D01*
X445034D01*
X444965Y208479D01*
X444871Y208466D01*
X444770Y208454D01*
X444657Y208429D01*
X444538Y208391D01*
X444425Y208347D01*
X444418D01*
X444412Y208341D01*
X444374Y208322D01*
X444318Y208297D01*
X444255Y208253D01*
X444180Y208209D01*
X444104Y208146D01*
X444029Y208083D01*
X443966Y208008D01*
X443960Y208001D01*
X443941Y207970D01*
X443916Y207932D01*
X443878Y207876D01*
X443841Y207807D01*
X443809Y207725D01*
X443772Y207637D01*
X443746Y207543D01*
Y207530D01*
X443734Y207493D01*
X443727Y207436D01*
X443715Y207355D01*
X443702Y207248D01*
X443696Y207122D01*
X443684Y206972D01*
Y204189D01*
X444795D01*
Y206331D01*
Y206337D01*
Y206362D01*
Y206394D01*
Y206444D01*
Y206494D01*
X444801Y206557D01*
Y206695D01*
X444814Y206846D01*
X444827Y206990D01*
X444833Y207060D01*
X444845Y207116D01*
X444858Y207166D01*
X444871Y207210D01*
Y207217D01*
X444883Y207242D01*
X444902Y207279D01*
X444927Y207323D01*
X444958Y207373D01*
X444996Y207430D01*
X445046Y207480D01*
X445103Y207524D01*
X445109Y207530D01*
X445128Y207543D01*
X445166Y207562D01*
X445210Y207581D01*
X445266Y207599D01*
X445329Y207618D01*
X445398Y207631D01*
X445480Y207637D01*
X445530D01*
X445580Y207631D01*
X445655Y207618D01*
X445731Y207599D01*
X445819Y207568D01*
X445913Y207530D01*
X446001Y207474D01*
X446013Y207468D01*
X446039Y207442D01*
X446076Y207411D01*
X446127Y207361D01*
X446177Y207304D01*
X446227Y207229D01*
X446271Y207147D01*
X446309Y207053D01*
X446315Y207041D01*
Y207028D01*
X446321Y207003D01*
X446327Y206972D01*
X446334Y206934D01*
X446340Y206890D01*
X446346Y206840D01*
X446359Y206777D01*
X446365Y206708D01*
X446371Y206626D01*
X446378Y206538D01*
X446384Y206444D01*
Y206337D01*
X446390Y206218D01*
Y206092D01*
Y204189D01*
X447502D01*
Y208391D01*
D01*
X446472D01*
Y207769D01*
X446466Y207775D01*
X446447Y207801D01*
X446415Y207838D01*
X446371Y207882D01*
X446321Y207932D01*
X446252Y207995D01*
X446183Y208058D01*
X446095Y208127D01*
X446001Y208196D01*
X445894Y208259D01*
X445781Y208322D01*
X445662Y208372D01*
X445530Y208422D01*
X445392Y208454D01*
X445247Y208479D01*
X445097Y208485D01*
X447502D01*
D01*
D02*
G37*
G36*
X430420Y208485D02*
X426602D01*
X427952D01*
X427883Y208479D01*
X427789Y208466D01*
X427688Y208454D01*
X427575Y208429D01*
X427456Y208391D01*
X427343Y208347D01*
X427337D01*
X427330Y208341D01*
X427293Y208322D01*
X427236Y208297D01*
X427173Y208253D01*
X427098Y208209D01*
X427023Y208146D01*
X426947Y208083D01*
X426885Y208008D01*
X426878Y208001D01*
X426860Y207970D01*
X426834Y207932D01*
X426797Y207876D01*
X426759Y207807D01*
X426728Y207725D01*
X426690Y207637D01*
X426665Y207543D01*
Y207530D01*
X426652Y207493D01*
X426646Y207436D01*
X426633Y207355D01*
X426621Y207248D01*
X426615Y207122D01*
X426602Y206972D01*
Y204189D01*
X427713D01*
Y206331D01*
Y206337D01*
Y206362D01*
Y206394D01*
Y206444D01*
Y206494D01*
X427720Y206557D01*
Y206695D01*
X427732Y206846D01*
X427745Y206990D01*
X427751Y207060D01*
X427764Y207116D01*
X427776Y207166D01*
X427789Y207210D01*
Y207217D01*
X427802Y207242D01*
X427820Y207279D01*
X427845Y207323D01*
X427877Y207373D01*
X427914Y207430D01*
X427965Y207480D01*
X428021Y207524D01*
X428027Y207530D01*
X428046Y207543D01*
X428084Y207562D01*
X428128Y207581D01*
X428185Y207599D01*
X428247Y207618D01*
X428316Y207631D01*
X428398Y207637D01*
X428448D01*
X428499Y207631D01*
X428574Y207618D01*
X428649Y207599D01*
X428737Y207568D01*
X428831Y207530D01*
X428919Y207474D01*
X428932Y207468D01*
X428957Y207442D01*
X428995Y207411D01*
X429045Y207361D01*
X429095Y207304D01*
X429145Y207229D01*
X429189Y207147D01*
X429227Y207053D01*
X429233Y207041D01*
Y207028D01*
X429240Y207003D01*
X429246Y206972D01*
X429252Y206934D01*
X429258Y206890D01*
X429265Y206840D01*
X429277Y206777D01*
X429284Y206708D01*
X429290Y206626D01*
X429296Y206538D01*
X429302Y206444D01*
Y206337D01*
X429309Y206218D01*
Y206092D01*
Y204189D01*
X428511D01*
X430420D01*
Y208391D01*
X429390D01*
Y207769D01*
X429384Y207775D01*
X429365Y207801D01*
X429334Y207838D01*
X429290Y207882D01*
X429240Y207932D01*
X429171Y207995D01*
X429101Y208058D01*
X429013Y208127D01*
X428919Y208196D01*
X428813Y208259D01*
X428699Y208322D01*
X428580Y208372D01*
X428448Y208422D01*
X428310Y208454D01*
X428166Y208479D01*
X428015Y208485D01*
X430420D01*
D02*
G37*
G36*
X475818Y209986D02*
X471203D01*
Y206676D01*
X471209Y206582D01*
Y206475D01*
X471215Y206356D01*
X471228Y206118D01*
X471246Y205873D01*
X471259Y205753D01*
X471272Y205646D01*
X471284Y205546D01*
X471303Y205458D01*
Y205452D01*
X471309Y205439D01*
X471316Y205414D01*
X471322Y205389D01*
X471334Y205351D01*
X471347Y205307D01*
X471385Y205207D01*
X471429Y205088D01*
X471491Y204968D01*
X471567Y204849D01*
X471655Y204730D01*
Y204723D01*
X471667Y204717D01*
X471699Y204679D01*
X471755Y204629D01*
X471831Y204560D01*
X471931Y204485D01*
X472044Y204409D01*
X472182Y204328D01*
X472333Y204259D01*
X472339D01*
X472352Y204252D01*
X472377Y204240D01*
X472408Y204234D01*
X472452Y204221D01*
X472503Y204202D01*
X472565Y204189D01*
X472634Y204171D01*
X472710Y204152D01*
X472791Y204139D01*
X472886Y204127D01*
X472980Y204108D01*
X473087Y204102D01*
X473200Y204089D01*
X473319Y204083D01*
X473526D01*
X473583Y204089D01*
X473652D01*
X473727Y204095D01*
X473815Y204102D01*
X473909Y204108D01*
X474116Y204127D01*
X474324Y204164D01*
X474525Y204208D01*
X474619Y204240D01*
X474700Y204271D01*
X474707D01*
X474719Y204277D01*
X474744Y204290D01*
X474770Y204309D01*
X474807Y204328D01*
X474851Y204346D01*
X474945Y204409D01*
X475052Y204478D01*
X475165Y204560D01*
X475278Y204661D01*
X475379Y204767D01*
Y204774D01*
X475391Y204780D01*
X475404Y204799D01*
X475416Y204824D01*
X475460Y204880D01*
X475511Y204962D01*
X475567Y205062D01*
X475624Y205169D01*
X475668Y205289D01*
X475705Y205414D01*
Y205420D01*
X475712Y205439D01*
X475718Y205464D01*
X475724Y205508D01*
X475730Y205559D01*
X475743Y205621D01*
X475749Y205697D01*
X475762Y205785D01*
X475774Y205879D01*
X475781Y205992D01*
X475793Y206111D01*
X475800Y206243D01*
X475806Y206387D01*
X475812Y206538D01*
X475818Y206708D01*
Y204189D01*
Y209986D01*
D02*
G37*
G36*
X420962Y209986D02*
X419851D01*
Y204189D01*
X420962D01*
Y209986D01*
D02*
G37*
G36*
X439890Y208485D02*
X435790D01*
D01*
X437517D01*
X437479Y208479D01*
X437422D01*
X437360Y208466D01*
X437290Y208454D01*
X437209Y208435D01*
X437115Y208416D01*
X437020Y208384D01*
X436920Y208347D01*
X436820Y208297D01*
X436713Y208240D01*
X436606Y208177D01*
X436506Y208096D01*
X436405Y208008D01*
X436305Y207907D01*
X436298Y207901D01*
X436279Y207882D01*
X436254Y207851D01*
X436223Y207801D01*
X436185Y207744D01*
X436141Y207675D01*
X436097Y207587D01*
X436047Y207493D01*
X435997Y207386D01*
X435953Y207267D01*
X435909Y207135D01*
X435871Y206990D01*
X435840Y206840D01*
X435808Y206676D01*
X435796Y206501D01*
X435790Y206312D01*
Y206268D01*
X435796Y206212D01*
Y206136D01*
X435802Y206048D01*
X435815Y205948D01*
X435834Y205835D01*
X435852Y205709D01*
X435884Y205584D01*
X435915Y205446D01*
X435959Y205314D01*
X436009Y205175D01*
X436066Y205044D01*
X436135Y204912D01*
X436217Y204786D01*
X436305Y204673D01*
X436311Y204667D01*
X436330Y204648D01*
X436355Y204623D01*
X436399Y204585D01*
X436449Y204541D01*
X436506Y204491D01*
X436575Y204441D01*
X436656Y204384D01*
X436738Y204328D01*
X436838Y204277D01*
X436939Y204227D01*
X437052Y204183D01*
X437165Y204152D01*
X437290Y204120D01*
X437416Y204102D01*
X437554Y204095D01*
X437611D01*
X437680Y204102D01*
X437768Y204114D01*
X437862Y204127D01*
X437969Y204152D01*
X438082Y204189D01*
X438189Y204234D01*
X438201Y204240D01*
X438239Y204259D01*
X438295Y204296D01*
X438371Y204346D01*
X438459Y204409D01*
X438559Y204491D01*
X438666Y204591D01*
X438779Y204704D01*
Y202594D01*
X439890D01*
Y208391D01*
X438854D01*
Y207775D01*
X438842Y207782D01*
X438817Y207819D01*
X438773Y207882D01*
X438710Y207951D01*
X438634Y208033D01*
X438540Y208121D01*
X438434Y208209D01*
X438314Y208284D01*
X438308D01*
X438295Y208290D01*
X438276Y208303D01*
X438251Y208315D01*
X438220Y208328D01*
X438182Y208347D01*
X438088Y208384D01*
X437975Y208422D01*
X437843Y208454D01*
X437699Y208479D01*
X437548Y208485D01*
X439890D01*
D01*
D02*
G37*
%LPD*%
G36*
X432606Y206199D02*
X432637Y206193D01*
X432687Y206174D01*
X432763Y206155D01*
X432857Y206130D01*
X432976Y206099D01*
X433114Y206067D01*
X433278Y206030D01*
X433284D01*
X433296Y206023D01*
X433322D01*
X433353Y206011D01*
X433428Y205992D01*
X433523Y205973D01*
X433623Y205942D01*
X433723Y205910D01*
X433811Y205879D01*
X433849Y205860D01*
X433881Y205841D01*
X433887Y205835D01*
X433912Y205816D01*
X433950Y205778D01*
X433987Y205734D01*
X434025Y205678D01*
X434063Y205609D01*
X434088Y205533D01*
X434094Y205452D01*
Y205439D01*
Y205414D01*
X434088Y205370D01*
X434075Y205314D01*
X434050Y205251D01*
X434025Y205182D01*
X433981Y205119D01*
X433924Y205050D01*
X433918Y205044D01*
X433893Y205025D01*
X433855Y204993D01*
X433805Y204968D01*
X433736Y204937D01*
X433661Y204905D01*
X433573Y204887D01*
X433479Y204880D01*
X433466D01*
X433428Y204887D01*
X433372Y204893D01*
X433296Y204905D01*
X433209Y204930D01*
X433108Y204962D01*
X433008Y205012D01*
X432907Y205075D01*
X432901Y205081D01*
X432876Y205100D01*
X432838Y205132D01*
X432800Y205175D01*
X432750Y205232D01*
X432706Y205295D01*
X432668Y205364D01*
X432637Y205439D01*
Y205446D01*
X432631Y205471D01*
X432624Y205508D01*
X432612Y205559D01*
X432606Y205634D01*
X432599Y205728D01*
X432593Y205841D01*
Y205979D01*
Y206205D01*
X432606Y206199D01*
D02*
G37*
G36*
X423870Y207631D02*
X423933Y207625D01*
X424021Y207606D01*
X424115Y207574D01*
X424216Y207524D01*
X424310Y207455D01*
X424360Y207417D01*
X424404Y207367D01*
X424416Y207355D01*
X424442Y207317D01*
X424479Y207260D01*
X424523Y207179D01*
X424567Y207078D01*
X424605Y206953D01*
X424630Y206815D01*
X424636Y206651D01*
X422978D01*
Y206658D01*
Y206670D01*
Y206695D01*
X422985Y206733D01*
X422991Y206771D01*
X422997Y206815D01*
X423016Y206921D01*
X423047Y207041D01*
X423091Y207160D01*
X423148Y207279D01*
X423230Y207380D01*
X423242Y207392D01*
X423274Y207417D01*
X423324Y207461D01*
X423393Y207512D01*
X423475Y207556D01*
X423575Y207599D01*
X423688Y207625D01*
X423807Y207637D01*
X423845D01*
X423870Y207631D01*
D02*
G37*
G36*
X425792Y204095D02*
X423807D01*
X423864Y204102D01*
X423939Y204108D01*
X424027Y204114D01*
X424134Y204133D01*
X424247Y204152D01*
X424373Y204183D01*
X424504Y204221D01*
X424636Y204271D01*
X424768Y204328D01*
X424906Y204397D01*
X425032Y204478D01*
X425158Y204573D01*
X425271Y204679D01*
X425377Y204805D01*
X425384Y204811D01*
X425396Y204830D01*
X425415Y204861D01*
X425440Y204912D01*
X425472Y204968D01*
X425509Y205031D01*
X425547Y205113D01*
X425585Y205201D01*
X425622Y205301D01*
X425660Y205414D01*
X425698Y205533D01*
X425729Y205659D01*
X425754Y205797D01*
X425773Y205942D01*
X425786Y206099D01*
X425792Y206256D01*
Y204095D01*
D02*
G37*
G36*
X452689Y206400D02*
X452683Y206438D01*
Y206488D01*
X452676Y206551D01*
X452664Y206614D01*
X452658Y206689D01*
X452620Y206852D01*
X452576Y207034D01*
X452507Y207223D01*
X452469Y207323D01*
X452419Y207417D01*
X452413Y207424D01*
X452407Y207442D01*
X452388Y207468D01*
X452369Y207505D01*
X452344Y207549D01*
X452306Y207599D01*
X452224Y207713D01*
X452111Y207838D01*
X451979Y207970D01*
X451829Y208096D01*
X451653Y208209D01*
X451647Y208215D01*
X451628Y208221D01*
X451603Y208234D01*
X451565Y208253D01*
X451515Y208272D01*
X451458Y208297D01*
X451395Y208322D01*
X451326Y208347D01*
X451245Y208372D01*
X451157Y208397D01*
X450968Y208441D01*
X450761Y208472D01*
X450648Y208485D01*
X452689D01*
Y206400D01*
D02*
G37*
G36*
X450604Y207574D02*
X450642Y207568D01*
X450686Y207562D01*
X450786Y207537D01*
X450906Y207499D01*
X451025Y207442D01*
X451088Y207405D01*
X451144Y207361D01*
X451207Y207304D01*
X451264Y207248D01*
Y207242D01*
X451276Y207235D01*
X451289Y207210D01*
X451307Y207185D01*
X451333Y207154D01*
X451358Y207110D01*
X451383Y207060D01*
X451408Y207003D01*
X451433Y206940D01*
X451458Y206865D01*
X451483Y206789D01*
X451508Y206701D01*
X451527Y206607D01*
X451540Y206507D01*
X451546Y206400D01*
X451552Y206287D01*
Y206281D01*
Y206262D01*
Y206224D01*
X451546Y206187D01*
Y206130D01*
X451540Y206073D01*
X451527Y206004D01*
X451515Y205929D01*
X451483Y205778D01*
X451433Y205615D01*
X451358Y205464D01*
X451314Y205389D01*
X451264Y205326D01*
X451257Y205320D01*
X451251Y205314D01*
X451232Y205295D01*
X451213Y205276D01*
X451144Y205226D01*
X451063Y205163D01*
X450956Y205100D01*
X450830Y205050D01*
X450692Y205012D01*
X450617Y205006D01*
X450535Y205000D01*
X450491D01*
X450460Y205006D01*
X450428Y205012D01*
X450384Y205018D01*
X450284Y205044D01*
X450165Y205081D01*
X450045Y205138D01*
X449982Y205175D01*
X449920Y205219D01*
X449863Y205270D01*
X449807Y205326D01*
X449800Y205332D01*
X449794Y205345D01*
X449782Y205364D01*
X449763Y205389D01*
X449738Y205420D01*
X449712Y205464D01*
X449687Y205515D01*
X449656Y205571D01*
X449631Y205634D01*
X449606Y205709D01*
X449580Y205791D01*
X449555Y205873D01*
X449537Y205967D01*
X449524Y206067D01*
X449511Y206180D01*
Y206293D01*
Y206300D01*
Y206318D01*
Y206356D01*
X449518Y206394D01*
Y206450D01*
X449524Y206507D01*
X449537Y206576D01*
X449549Y206645D01*
X449580Y206802D01*
X449637Y206959D01*
X449706Y207110D01*
X449756Y207185D01*
X449807Y207248D01*
X449813Y207254D01*
X449819Y207260D01*
X449838Y207279D01*
X449857Y207298D01*
X449920Y207355D01*
X450007Y207417D01*
X450114Y207474D01*
X450240Y207530D01*
X450378Y207568D01*
X450453Y207574D01*
X450535Y207581D01*
X450579D01*
X450604Y207574D01*
D02*
G37*
G36*
X474650Y206840D02*
Y206833D01*
Y206808D01*
Y206771D01*
Y206720D01*
Y206658D01*
Y206589D01*
X474644Y206513D01*
Y206438D01*
Y206268D01*
X474631Y206111D01*
Y206036D01*
X474625Y205973D01*
X474619Y205917D01*
X474613Y205866D01*
Y205860D01*
X474606Y205854D01*
Y205835D01*
X474594Y205810D01*
X474575Y205741D01*
X474537Y205659D01*
X474493Y205571D01*
X474431Y205477D01*
X474349Y205383D01*
X474255Y205295D01*
X474248D01*
X474242Y205289D01*
X474223Y205276D01*
X474204Y205263D01*
X474142Y205226D01*
X474054Y205188D01*
X473941Y205150D01*
X473809Y205113D01*
X473658Y205088D01*
X473482Y205081D01*
X473432D01*
X473400Y205088D01*
X473357D01*
X473313Y205094D01*
X473200Y205106D01*
X473080Y205132D01*
X472955Y205169D01*
X472835Y205213D01*
X472729Y205282D01*
X472716Y205289D01*
X472691Y205320D01*
X472647Y205364D01*
X472597Y205420D01*
X472546Y205489D01*
X472496Y205577D01*
X472452Y205672D01*
X472427Y205778D01*
Y205785D01*
Y205791D01*
X472421Y205810D01*
Y205835D01*
X472415Y205873D01*
X472408Y205910D01*
X472402Y205960D01*
X472396Y206017D01*
Y206080D01*
X472390Y206155D01*
X472383Y206237D01*
X472377Y206325D01*
Y206425D01*
X472371Y206532D01*
Y206645D01*
Y206771D01*
Y209986D01*
X474650D01*
Y206840D01*
D02*
G37*
G36*
X437925Y207599D02*
X437956Y207593D01*
X438000Y207587D01*
X438094Y207568D01*
X438201Y207530D01*
X438314Y207474D01*
X438371Y207436D01*
X438427Y207392D01*
X438484Y207342D01*
X438534Y207286D01*
Y207279D01*
X438547Y207273D01*
X438559Y207254D01*
X438578Y207229D01*
X438597Y207191D01*
X438616Y207154D01*
X438641Y207103D01*
X438666Y207053D01*
X438691Y206990D01*
X438716Y206921D01*
X438735Y206846D01*
X438754Y206764D01*
X438773Y206670D01*
X438785Y206576D01*
X438791Y206469D01*
X438798Y206356D01*
Y206350D01*
Y206325D01*
Y206287D01*
X438791Y206243D01*
Y206180D01*
X438785Y206111D01*
X438773Y206042D01*
X438760Y205960D01*
X438729Y205791D01*
X438678Y205615D01*
X438609Y205452D01*
X438572Y205376D01*
X438521Y205307D01*
X438515Y205301D01*
X438509Y205295D01*
X438471Y205257D01*
X438408Y205201D01*
X438327Y205144D01*
X438226Y205081D01*
X438113Y205025D01*
X437975Y204987D01*
X437906Y204981D01*
X437831Y204975D01*
X437793D01*
X437768Y204981D01*
X437699Y204993D01*
X437605Y205012D01*
X437504Y205050D01*
X437397Y205106D01*
X437347Y205138D01*
X437290Y205182D01*
X437240Y205226D01*
X437190Y205282D01*
X437184Y205289D01*
X437178Y205295D01*
X437165Y205314D01*
X437146Y205339D01*
X437127Y205376D01*
X437108Y205414D01*
X437083Y205464D01*
X437058Y205527D01*
X437033Y205590D01*
X437008Y205665D01*
X436989Y205747D01*
X436970Y205841D01*
X436951Y205942D01*
X436939Y206055D01*
X436926Y206174D01*
Y206300D01*
Y206306D01*
Y206331D01*
Y206362D01*
X436933Y206406D01*
Y206463D01*
X436939Y206526D01*
X436951Y206595D01*
X436958Y206670D01*
X436989Y206827D01*
X437039Y206990D01*
X437108Y207147D01*
X437146Y207217D01*
X437196Y207279D01*
Y207286D01*
X437209Y207292D01*
X437247Y207330D01*
X437303Y207380D01*
X437378Y207442D01*
X437473Y207505D01*
X437586Y207556D01*
X437711Y207593D01*
X437780Y207599D01*
X437856Y207606D01*
X437893D01*
X437925Y207599D01*
D02*
G37*
%LPC*%
G36*
X438245Y201429D02*
X436405D01*
X438164D01*
X438101Y201423D01*
X438032Y201416D01*
X437950Y201404D01*
X437856Y201391D01*
X437755Y201372D01*
X437648Y201347D01*
X437542Y201316D01*
X437429Y201278D01*
X437316Y201234D01*
X437209Y201178D01*
X437102Y201115D01*
X436995Y201046D01*
X436901Y200964D01*
X436895Y200958D01*
X436882Y200945D01*
X436857Y200914D01*
X436826Y200883D01*
X436788Y200838D01*
X436744Y200782D01*
X436700Y200719D01*
X436650Y200644D01*
X436606Y200569D01*
X436562Y200481D01*
X436518Y200386D01*
X436480Y200286D01*
X436449Y200173D01*
X436424Y200060D01*
X436411Y199941D01*
X436405Y199815D01*
Y199746D01*
X436411Y199714D01*
Y199670D01*
X436424Y199576D01*
X436443Y199457D01*
X436468Y199331D01*
X436499Y199199D01*
X436550Y199067D01*
Y199061D01*
X436556Y199055D01*
X436562Y199030D01*
X436575Y199005D01*
X436593Y198973D01*
X436612Y198936D01*
X436656Y198842D01*
X436719Y198735D01*
X436794Y198609D01*
X436889Y198471D01*
X436995Y198327D01*
X437008Y198314D01*
X437033Y198276D01*
X437090Y198220D01*
X437159Y198138D01*
X437209Y198088D01*
X437259Y198031D01*
X437322Y197975D01*
X437385Y197906D01*
X437460Y197837D01*
X437542Y197755D01*
X437630Y197673D01*
X437724Y197585D01*
X437730Y197579D01*
X437749Y197567D01*
X437774Y197541D01*
X437806Y197510D01*
X437849Y197472D01*
X437900Y197429D01*
X438006Y197328D01*
X438120Y197221D01*
X438226Y197115D01*
X438276Y197064D01*
X438320Y197020D01*
X438358Y196976D01*
X438389Y196945D01*
X438396Y196939D01*
X438415Y196920D01*
X438440Y196888D01*
X438471Y196851D01*
X438503Y196800D01*
X438540Y196750D01*
X438616Y196643D01*
X436405D01*
Y195614D01*
X440299D01*
Y195620D01*
X440292Y195639D01*
Y195670D01*
X440286Y195714D01*
X440274Y195764D01*
X440261Y195827D01*
X440248Y195896D01*
X440230Y195972D01*
X440179Y196141D01*
X440110Y196329D01*
X440029Y196524D01*
X439922Y196719D01*
X439916Y196725D01*
X439909Y196744D01*
X439884Y196775D01*
X439859Y196813D01*
X439821Y196863D01*
X439771Y196932D01*
X439715Y197001D01*
X439645Y197089D01*
X439570Y197184D01*
X439476Y197284D01*
X439375Y197403D01*
X439262Y197523D01*
X439137Y197654D01*
X438992Y197799D01*
X438842Y197950D01*
X438672Y198107D01*
X438666Y198113D01*
X438641Y198138D01*
X438603Y198176D01*
X438553Y198220D01*
X438490Y198276D01*
X438427Y198339D01*
X438352Y198414D01*
X438276Y198490D01*
X438113Y198647D01*
X437962Y198804D01*
X437900Y198873D01*
X437837Y198942D01*
X437787Y199005D01*
X437749Y199055D01*
Y199061D01*
X437736Y199067D01*
X437730Y199086D01*
X437711Y199111D01*
X437674Y199181D01*
X437630Y199268D01*
X437592Y199369D01*
X437554Y199482D01*
X437529Y199608D01*
X437517Y199733D01*
Y199740D01*
Y199752D01*
Y199771D01*
Y199796D01*
X437529Y199859D01*
X437542Y199947D01*
X437567Y200035D01*
X437598Y200129D01*
X437648Y200223D01*
X437718Y200305D01*
X437724Y200311D01*
X437755Y200336D01*
X437799Y200367D01*
X437862Y200405D01*
X437944Y200443D01*
X438038Y200474D01*
X438145Y200499D01*
X438270Y200506D01*
X438327D01*
X438389Y200493D01*
X438471Y200481D01*
X438559Y200455D01*
X438653Y200418D01*
X438748Y200361D01*
X438829Y200292D01*
X438835Y200280D01*
X438861Y200255D01*
X438892Y200204D01*
X438936Y200129D01*
X438974Y200035D01*
X439011Y199915D01*
X439043Y199771D01*
X439055Y199689D01*
X439061Y199601D01*
X440167Y199708D01*
Y199721D01*
X440161Y199746D01*
X440154Y199796D01*
X440142Y199859D01*
X440129Y199934D01*
X440110Y200022D01*
X440085Y200116D01*
X440054Y200217D01*
X440016Y200324D01*
X439972Y200430D01*
X439922Y200543D01*
X439865Y200650D01*
X439803Y200757D01*
X439727Y200857D01*
X439645Y200945D01*
X439551Y201027D01*
X439545Y201033D01*
X439526Y201046D01*
X439495Y201065D01*
X439457Y201090D01*
X439407Y201121D01*
X439344Y201152D01*
X439275Y201190D01*
X439193Y201228D01*
X439099Y201266D01*
X439005Y201303D01*
X438898Y201335D01*
X438779Y201366D01*
X438660Y201391D01*
X438528Y201410D01*
X438389Y201423D01*
X438245Y201429D01*
D02*
G37*
G36*
X453750Y199909D02*
X449832D01*
D01*
X451785D01*
X451741Y199903D01*
X451672Y199897D01*
X451596Y199890D01*
X451502Y199878D01*
X451402Y199859D01*
X451295Y199834D01*
X451176Y199796D01*
X451056Y199758D01*
X450937Y199708D01*
X450811Y199645D01*
X450692Y199576D01*
X450573Y199495D01*
X450460Y199394D01*
X450353Y199287D01*
X450347Y199281D01*
X450328Y199256D01*
X450303Y199224D01*
X450271Y199174D01*
X450227Y199105D01*
X450183Y199024D01*
X450133Y198929D01*
X450083Y198823D01*
X450033Y198697D01*
X449989Y198553D01*
X449945Y198402D01*
X449907Y198232D01*
X449876Y198044D01*
X449851Y197843D01*
X449832Y197629D01*
Y197636D01*
Y197397D01*
X452614D01*
Y197391D01*
Y197378D01*
Y197347D01*
X452607Y197315D01*
X452601Y197272D01*
X452595Y197221D01*
X452576Y197115D01*
X452545Y196989D01*
X452501Y196857D01*
X452438Y196731D01*
X452350Y196618D01*
X452344D01*
X452337Y196606D01*
X452306Y196574D01*
X452249Y196530D01*
X452174Y196486D01*
X452080Y196436D01*
X451967Y196392D01*
X451841Y196361D01*
X451772Y196355D01*
X451703Y196348D01*
X451659D01*
X451615Y196355D01*
X451552Y196367D01*
X451483Y196380D01*
X451414Y196405D01*
X451339Y196442D01*
X451270Y196486D01*
X451264Y196493D01*
X451238Y196512D01*
X451207Y196549D01*
X451169Y196599D01*
X451119Y196662D01*
X451075Y196744D01*
X451031Y196838D01*
X450993Y196951D01*
X449888Y196763D01*
Y196756D01*
X449901Y196738D01*
X449913Y196706D01*
X449926Y196662D01*
X449951Y196612D01*
X449982Y196555D01*
X450014Y196486D01*
X450051Y196417D01*
X450146Y196267D01*
X450265Y196116D01*
X450403Y195965D01*
X450485Y195896D01*
X450566Y195833D01*
X450573Y195827D01*
X450585Y195821D01*
X450610Y195802D01*
X450648Y195783D01*
X450692Y195758D01*
X450749Y195733D01*
X450811Y195708D01*
X450880Y195676D01*
X450962Y195645D01*
X451050Y195620D01*
X451144Y195595D01*
X451245Y195570D01*
X451351Y195551D01*
X451471Y195532D01*
X451590Y195526D01*
X451716Y195519D01*
X451766D01*
X451823Y195526D01*
X451898Y195532D01*
X451986Y195538D01*
X452093Y195557D01*
X452206Y195576D01*
X452331Y195607D01*
X452463Y195645D01*
X452595Y195695D01*
X452727Y195752D01*
X452865Y195821D01*
X452990Y195902D01*
X453116Y195997D01*
X453229Y196103D01*
X453336Y196229D01*
X453342Y196235D01*
X453355Y196254D01*
X453374Y196285D01*
X453399Y196336D01*
X453430Y196392D01*
X453468Y196455D01*
X453506Y196537D01*
X453543Y196625D01*
X453581Y196725D01*
X453618Y196838D01*
X453656Y196958D01*
X453688Y197083D01*
X453713Y197221D01*
X453732Y197366D01*
X453744Y197523D01*
X453750Y197680D01*
Y195676D01*
Y197724D01*
X453744Y197780D01*
Y197849D01*
X453732Y197937D01*
X453719Y198044D01*
X453707Y198151D01*
X453681Y198276D01*
X453656Y198402D01*
X453618Y198534D01*
X453575Y198672D01*
X453524Y198810D01*
X453462Y198942D01*
X453386Y199074D01*
X453304Y199199D01*
X453210Y199312D01*
X453204Y199319D01*
X453185Y199338D01*
X453154Y199369D01*
X453110Y199407D01*
X453060Y199451D01*
X452990Y199501D01*
X452915Y199557D01*
X452834Y199614D01*
X452739Y199664D01*
X452633Y199721D01*
X452520Y199771D01*
X452394Y199815D01*
X452268Y199853D01*
X452130Y199884D01*
X451979Y199903D01*
X451829Y199909D01*
X453750D01*
D01*
D02*
G37*
G36*
X459264Y201410D02*
X454052D01*
D01*
X456652D01*
X456576Y201404D01*
X456489D01*
X456388Y201397D01*
X456287Y201391D01*
X456061Y201372D01*
X455842Y201341D01*
X455735Y201328D01*
X455628Y201303D01*
X455534Y201278D01*
X455452Y201253D01*
X455446D01*
X455433Y201247D01*
X455415Y201234D01*
X455383Y201222D01*
X455345Y201203D01*
X455308Y201184D01*
X455207Y201127D01*
X455101Y201046D01*
X454994Y200952D01*
X454881Y200832D01*
X454780Y200694D01*
Y200688D01*
X454768Y200675D01*
X454755Y200656D01*
X454743Y200625D01*
X454717Y200587D01*
X454699Y200543D01*
X454674Y200487D01*
X454648Y200430D01*
X454604Y200298D01*
X454561Y200141D01*
X454535Y199972D01*
X454523Y199784D01*
Y199777D01*
Y199752D01*
Y199721D01*
X454529Y199677D01*
X454535Y199620D01*
X454542Y199557D01*
X454554Y199482D01*
X454573Y199407D01*
X454617Y199231D01*
X454648Y199143D01*
X454686Y199055D01*
X454730Y198961D01*
X454780Y198873D01*
X454837Y198785D01*
X454906Y198703D01*
X454912Y198697D01*
X454925Y198685D01*
X454944Y198666D01*
X454975Y198634D01*
X455019Y198603D01*
X455069Y198565D01*
X455126Y198521D01*
X455195Y198477D01*
X455270Y198427D01*
X455352Y198383D01*
X455446Y198339D01*
X455553Y198295D01*
X455666Y198257D01*
X455785Y198220D01*
X455917Y198188D01*
X456055Y198163D01*
X456049D01*
X456036Y198151D01*
X456017Y198144D01*
X455992Y198126D01*
X455923Y198082D01*
X455835Y198019D01*
X455735Y197950D01*
X455628Y197868D01*
X455521Y197774D01*
X455427Y197680D01*
X455415Y197667D01*
X455402Y197648D01*
X455383Y197629D01*
X455358Y197598D01*
X455327Y197560D01*
X455289Y197516D01*
X455251Y197466D01*
X455207Y197403D01*
X455157Y197334D01*
X455101Y197259D01*
X455044Y197171D01*
X454981Y197077D01*
X454912Y196970D01*
X454837Y196863D01*
X454762Y196738D01*
X454052Y195614D01*
X455452D01*
X456300Y196876D01*
X456306Y196882D01*
X456319Y196907D01*
X456344Y196939D01*
X456376Y196983D01*
X456407Y197039D01*
X456451Y197096D01*
X456545Y197234D01*
X456652Y197378D01*
X456752Y197516D01*
X456803Y197579D01*
X456847Y197636D01*
X456884Y197686D01*
X456922Y197724D01*
X456928Y197730D01*
X456947Y197755D01*
X456985Y197780D01*
X457029Y197818D01*
X457079Y197862D01*
X457142Y197899D01*
X457204Y197937D01*
X457273Y197962D01*
X457280Y197968D01*
X457311Y197975D01*
X457355Y197987D01*
X457418Y198000D01*
X457500Y198012D01*
X457600Y198019D01*
X457719Y198031D01*
X458096D01*
Y195614D01*
X459264D01*
Y201410D01*
D02*
G37*
G36*
X449468Y199815D02*
X445109D01*
X446780Y195614D01*
X447778D01*
X449468Y199815D01*
D02*
G37*
G36*
X444663Y201429D02*
X440902D01*
X442748D01*
X442704Y201423D01*
X442647D01*
X442578Y201410D01*
X442497Y201397D01*
X442403Y201379D01*
X442302Y201354D01*
X442202Y201322D01*
X442095Y201284D01*
X441982Y201234D01*
X441875Y201178D01*
X441768Y201109D01*
X441661Y201027D01*
X441561Y200933D01*
X441467Y200826D01*
X441461Y200820D01*
X441442Y200795D01*
X441417Y200751D01*
X441379Y200688D01*
X441335Y200612D01*
X441285Y200512D01*
X441234Y200399D01*
X441184Y200261D01*
X441134Y200110D01*
X441077Y199934D01*
X441033Y199740D01*
X440989Y199526D01*
X440952Y199294D01*
X440927Y199036D01*
X440908Y198760D01*
X440902Y198465D01*
Y198352D01*
X440908Y198308D01*
Y198257D01*
Y198195D01*
X440920Y198063D01*
X440933Y197906D01*
X440952Y197736D01*
X440971Y197554D01*
X441002Y197359D01*
X441040Y197165D01*
X441090Y196964D01*
X441140Y196769D01*
X441209Y196587D01*
X441285Y196405D01*
X441372Y196241D01*
X441473Y196097D01*
X441479Y196091D01*
X441492Y196072D01*
X441523Y196041D01*
X441561Y196003D01*
X441605Y195959D01*
X441668Y195909D01*
X441737Y195859D01*
X441812Y195802D01*
X441900Y195745D01*
X442000Y195695D01*
X442107Y195645D01*
X442227Y195601D01*
X442352Y195563D01*
X442490Y195532D01*
X442635Y195513D01*
X442785Y195507D01*
X442823D01*
X442867Y195513D01*
X442924Y195519D01*
X442999Y195526D01*
X443081Y195538D01*
X443175Y195563D01*
X443275Y195588D01*
X443382Y195620D01*
X443489Y195664D01*
X443602Y195720D01*
X443715Y195777D01*
X443828Y195852D01*
X443941Y195940D01*
X444048Y196041D01*
X444148Y196154D01*
X444155Y196160D01*
X444167Y196185D01*
X444199Y196223D01*
X444230Y196279D01*
X444268Y196355D01*
X444312Y196449D01*
X444355Y196562D01*
X444406Y196687D01*
X444456Y196838D01*
X444500Y197008D01*
X444544Y197196D01*
X444582Y197410D01*
X444613Y197642D01*
X444638Y197899D01*
X444657Y198176D01*
X444663Y198477D01*
Y195507D01*
X518110D01*
X444663D01*
Y201429D01*
D02*
G37*
G36*
X435171Y194253D02*
X434059D01*
Y192658D01*
Y193223D01*
X435171D01*
Y194253D01*
D02*
G37*
G36*
X444629D02*
X440810D01*
D01*
X443517D01*
Y192118D01*
X443511Y192124D01*
X443492Y192143D01*
X443461Y192175D01*
X443423Y192219D01*
X443373Y192262D01*
X443310Y192319D01*
X443235Y192376D01*
X443159Y192438D01*
X443065Y192495D01*
X442971Y192551D01*
X442864Y192608D01*
X442751Y192652D01*
X442632Y192696D01*
X442506Y192727D01*
X442374Y192746D01*
X442236Y192752D01*
X442173D01*
X442135Y192746D01*
X442098D01*
X442004Y192734D01*
X441897Y192715D01*
X441784Y192690D01*
X441665Y192658D01*
X441545Y192608D01*
X441539D01*
X441533Y192602D01*
X441495Y192583D01*
X441438Y192551D01*
X441369Y192507D01*
X441300Y192457D01*
X441219Y192394D01*
X441150Y192325D01*
X441087Y192244D01*
X441081Y192231D01*
X441062Y192206D01*
X441037Y192162D01*
X440999Y192099D01*
X440968Y192030D01*
X440930Y191942D01*
X440898Y191854D01*
X440873Y191754D01*
Y191741D01*
X440867Y191723D01*
X440861Y191704D01*
Y191672D01*
X440854Y191641D01*
X440848Y191597D01*
X440842Y191547D01*
X440836Y191496D01*
X440829Y191434D01*
X440823Y191365D01*
Y191289D01*
X440817Y191208D01*
X440810Y191120D01*
Y188457D01*
X441922D01*
Y190674D01*
Y190680D01*
Y190705D01*
Y190736D01*
Y190780D01*
Y190831D01*
X441928Y190893D01*
Y191025D01*
X441941Y191170D01*
X441953Y191302D01*
X441960Y191365D01*
X441966Y191421D01*
X441979Y191471D01*
X441991Y191509D01*
Y191515D01*
X442004Y191540D01*
X442016Y191572D01*
X442041Y191616D01*
X442073Y191660D01*
X442110Y191710D01*
X442154Y191754D01*
X442211Y191798D01*
X442217Y191804D01*
X442236Y191817D01*
X442274Y191829D01*
X442318Y191854D01*
X442381Y191873D01*
X442450Y191886D01*
X442525Y191898D01*
X442613Y191905D01*
X442657D01*
X442713Y191898D01*
X442776Y191886D01*
X442858Y191873D01*
X442939Y191848D01*
X443027Y191810D01*
X443109Y191766D01*
X443115Y191760D01*
X443147Y191741D01*
X443184Y191710D01*
X443228Y191666D01*
X443279Y191609D01*
X443329Y191540D01*
X443379Y191452D01*
X443423Y191358D01*
X443429Y191346D01*
Y191333D01*
X443435Y191308D01*
X443454Y191245D01*
X443467Y191157D01*
X443486Y191044D01*
X443505Y190906D01*
X443511Y190749D01*
X443517Y190561D01*
Y188457D01*
X444629D01*
Y194253D01*
D02*
G37*
G36*
X424388Y190240D02*
D01*
Y190190D01*
Y190240D01*
D02*
G37*
G36*
X433174Y194253D02*
X429079Y194253D01*
Y188363D01*
Y188457D01*
X430109D01*
Y189066D01*
X430122Y189053D01*
X430134Y189035D01*
X430153Y189016D01*
X430210Y188947D01*
X430279Y188871D01*
X430373Y188783D01*
X430474Y188689D01*
X430593Y188608D01*
X430719Y188532D01*
X430725D01*
X430731Y188526D01*
X430756Y188520D01*
X430781Y188507D01*
X430850Y188476D01*
X430938Y188451D01*
X431045Y188419D01*
X431164Y188388D01*
X431290Y188369D01*
X431422Y188363D01*
X431453D01*
X431491Y188369D01*
X431541D01*
X431604Y188382D01*
X431679Y188394D01*
X431761Y188413D01*
X431849Y188438D01*
X431943Y188463D01*
X432044Y188501D01*
X432144Y188551D01*
X432251Y188608D01*
X432351Y188670D01*
X432458Y188752D01*
X432559Y188840D01*
X432659Y188940D01*
X432665Y188947D01*
X432678Y188965D01*
X432709Y189003D01*
X432741Y189047D01*
X432778Y189110D01*
X432822Y189179D01*
X432866Y189267D01*
X432916Y189361D01*
X432967Y189474D01*
X433011Y189594D01*
X433055Y189732D01*
X433092Y189876D01*
X433124Y190033D01*
X433149Y190203D01*
X433168Y190385D01*
X433174Y190573D01*
Y189474D01*
Y190623D01*
X433168Y190674D01*
Y190749D01*
X433161Y190837D01*
X433149Y190937D01*
X433130Y191057D01*
X433111Y191176D01*
X433086Y191308D01*
X433055Y191440D01*
X433011Y191572D01*
X432967Y191710D01*
X432910Y191842D01*
X432841Y191967D01*
X432766Y192087D01*
X432678Y192193D01*
X432672Y192200D01*
X432653Y192219D01*
X432628Y192244D01*
X432590Y192281D01*
X432540Y192325D01*
X432477Y192369D01*
X432408Y192420D01*
X432333Y192476D01*
X432244Y192526D01*
X432144Y192577D01*
X432044Y192621D01*
X431931Y192664D01*
X431811Y192702D01*
X431686Y192727D01*
X431547Y192746D01*
X431409Y192752D01*
X431378D01*
X431340Y192746D01*
X431290D01*
X431227Y192734D01*
X431158Y192721D01*
X431083Y192702D01*
X430995Y192677D01*
X430901Y192646D01*
X430800Y192608D01*
X430700Y192558D01*
X430599Y192501D01*
X430492Y192438D01*
X430392Y192357D01*
X430292Y192269D01*
X430191Y192162D01*
Y194253D01*
X433174Y194253D01*
D01*
D02*
G37*
G36*
X457465D02*
X453371D01*
Y188363D01*
Y188457D01*
X454400D01*
Y189066D01*
X454413Y189053D01*
X454425Y189035D01*
X454444Y189016D01*
X454501Y188947D01*
X454570Y188871D01*
X454664Y188783D01*
X454765Y188689D01*
X454884Y188608D01*
X455010Y188532D01*
X455016D01*
X455022Y188526D01*
X455047Y188520D01*
X455072Y188507D01*
X455141Y188476D01*
X455229Y188451D01*
X455336Y188419D01*
X455455Y188388D01*
X455581Y188369D01*
X455713Y188363D01*
X455744D01*
X455782Y188369D01*
X455832D01*
X455895Y188382D01*
X455970Y188394D01*
X456052Y188413D01*
X456140Y188438D01*
X456234Y188463D01*
X456335Y188501D01*
X456435Y188551D01*
X456542Y188608D01*
X456642Y188670D01*
X456749Y188752D01*
X456850Y188840D01*
X456950Y188940D01*
X456956Y188947D01*
X456969Y188965D01*
X457000Y189003D01*
X457032Y189047D01*
X457069Y189110D01*
X457113Y189179D01*
X457157Y189267D01*
X457207Y189361D01*
X457258Y189474D01*
X457302Y189594D01*
X457346Y189732D01*
X457383Y189876D01*
X457415Y190033D01*
X457440Y190203D01*
X457459Y190385D01*
X457465Y190573D01*
Y189474D01*
Y190623D01*
X457459Y190674D01*
Y190749D01*
X457452Y190837D01*
X457440Y190937D01*
X457421Y191057D01*
X457402Y191176D01*
X457377Y191308D01*
X457346Y191440D01*
X457302Y191572D01*
X457258Y191710D01*
X457201Y191842D01*
X457132Y191967D01*
X457057Y192087D01*
X456969Y192193D01*
X456963Y192200D01*
X456944Y192219D01*
X456919Y192244D01*
X456881Y192281D01*
X456831Y192325D01*
X456768Y192369D01*
X456699Y192420D01*
X456624Y192476D01*
X456536Y192526D01*
X456435Y192577D01*
X456335Y192621D01*
X456222Y192665D01*
X456102Y192702D01*
X455977Y192727D01*
X455838Y192746D01*
X455700Y192752D01*
X455669D01*
X455631Y192746D01*
X455581D01*
X455518Y192734D01*
X455449Y192721D01*
X455374Y192702D01*
X455286Y192677D01*
X455192Y192646D01*
X455091Y192608D01*
X454991Y192558D01*
X454890Y192501D01*
X454783Y192438D01*
X454683Y192357D01*
X454583Y192269D01*
X454482Y192162D01*
Y194253D01*
X457465D01*
D01*
D02*
G37*
G36*
X452598Y192752D02*
X448679D01*
D01*
X450632D01*
X450588Y192746D01*
X450519Y192740D01*
X450444Y192734D01*
X450350Y192721D01*
X450249Y192702D01*
X450143Y192677D01*
X450023Y192639D01*
X449904Y192602D01*
X449785Y192551D01*
X449659Y192489D01*
X449540Y192420D01*
X449420Y192338D01*
X449307Y192237D01*
X449201Y192131D01*
X449194Y192124D01*
X449175Y192099D01*
X449150Y192068D01*
X449119Y192018D01*
X449075Y191948D01*
X449031Y191867D01*
X448981Y191773D01*
X448931Y191666D01*
X448880Y191540D01*
X448836Y191396D01*
X448792Y191245D01*
X448755Y191076D01*
X448723Y190887D01*
X448698Y190686D01*
X448679Y190473D01*
Y190510D01*
Y190240D01*
X451461D01*
Y190234D01*
Y190222D01*
Y190190D01*
X451455Y190159D01*
X451449Y190115D01*
X451442Y190065D01*
X451424Y189958D01*
X451392Y189832D01*
X451348Y189700D01*
X451286Y189575D01*
X451198Y189462D01*
X451191D01*
X451185Y189449D01*
X451154Y189418D01*
X451097Y189374D01*
X451022Y189330D01*
X450927Y189279D01*
X450814Y189236D01*
X450689Y189204D01*
X450620Y189198D01*
X450551Y189192D01*
X450507D01*
X450463Y189198D01*
X450400Y189210D01*
X450331Y189223D01*
X450262Y189248D01*
X450186Y189286D01*
X450117Y189330D01*
X450111Y189336D01*
X450086Y189355D01*
X450055Y189393D01*
X450017Y189443D01*
X449967Y189506D01*
X449923Y189587D01*
X449879Y189681D01*
X449841Y189795D01*
X448736Y189606D01*
Y189600D01*
X448748Y189581D01*
X448761Y189550D01*
X448773Y189506D01*
X448799Y189455D01*
X448830Y189399D01*
X448861Y189330D01*
X448899Y189261D01*
X448993Y189110D01*
X449113Y188959D01*
X449251Y188809D01*
X449332Y188740D01*
X449414Y188677D01*
X449420Y188670D01*
X449433Y188664D01*
X449458Y188645D01*
X449496Y188626D01*
X449540Y188601D01*
X449596Y188576D01*
X449659Y188551D01*
X449728Y188520D01*
X449810Y188488D01*
X449898Y188463D01*
X449992Y188438D01*
X450092Y188413D01*
X450199Y188394D01*
X450318Y188375D01*
X450438Y188369D01*
X450563Y188363D01*
X450614D01*
X450670Y188369D01*
X450745Y188375D01*
X450833Y188382D01*
X450940Y188400D01*
X451053Y188419D01*
X451179Y188451D01*
X451311Y188488D01*
X451442Y188539D01*
X451574Y188595D01*
X451713Y188664D01*
X451838Y188746D01*
X451964Y188840D01*
X452077Y188947D01*
X452184Y189072D01*
X452190Y189079D01*
X452202Y189097D01*
X452221Y189129D01*
X452246Y189179D01*
X452278Y189236D01*
X452315Y189298D01*
X452353Y189380D01*
X452391Y189468D01*
X452428Y189568D01*
X452466Y189681D01*
X452504Y189801D01*
X452535Y189926D01*
X452560Y190065D01*
X452579Y190209D01*
X452592Y190366D01*
X452598Y190523D01*
Y189298D01*
Y190567D01*
X452592Y190623D01*
Y190692D01*
X452579Y190780D01*
X452567Y190887D01*
X452554Y190994D01*
X452529Y191120D01*
X452504Y191245D01*
X452466Y191377D01*
X452422Y191515D01*
X452372Y191653D01*
X452309Y191785D01*
X452234Y191917D01*
X452152Y192043D01*
X452058Y192156D01*
X452052Y192162D01*
X452033Y192181D01*
X452001Y192212D01*
X451958Y192250D01*
X451907Y192294D01*
X451838Y192344D01*
X451763Y192401D01*
X451681Y192457D01*
X451587Y192507D01*
X451480Y192564D01*
X451367Y192614D01*
X451242Y192658D01*
X451116Y192696D01*
X450978Y192727D01*
X450827Y192746D01*
X450676Y192752D01*
X452598D01*
D01*
D02*
G37*
G36*
X428307Y192752D02*
X424388D01*
D01*
X426341D01*
X426297Y192746D01*
X426228Y192740D01*
X426153Y192734D01*
X426059Y192721D01*
X425958Y192702D01*
X425851Y192677D01*
X425732Y192639D01*
X425613Y192602D01*
X425493Y192551D01*
X425368Y192489D01*
X425249Y192420D01*
X425129Y192338D01*
X425016Y192237D01*
X424909Y192131D01*
X424903Y192124D01*
X424884Y192099D01*
X424859Y192068D01*
X424828Y192018D01*
X424784Y191948D01*
X424740Y191867D01*
X424690Y191773D01*
X424640Y191666D01*
X424589Y191540D01*
X424545Y191396D01*
X424501Y191245D01*
X424464Y191076D01*
X424432Y190887D01*
X424407Y190686D01*
X424388Y190473D01*
Y190510D01*
Y190240D01*
X427170D01*
Y190234D01*
Y190222D01*
Y190190D01*
X427164Y190159D01*
X427158Y190115D01*
X427151Y190065D01*
X427133Y189958D01*
X427101Y189832D01*
X427057Y189700D01*
X426995Y189575D01*
X426906Y189462D01*
X426900D01*
X426894Y189449D01*
X426863Y189418D01*
X426806Y189374D01*
X426731Y189330D01*
X426637Y189279D01*
X426523Y189236D01*
X426398Y189204D01*
X426329Y189198D01*
X426260Y189192D01*
X426216D01*
X426172Y189198D01*
X426109Y189210D01*
X426040Y189223D01*
X425971Y189248D01*
X425896Y189286D01*
X425826Y189330D01*
X425820Y189336D01*
X425795Y189355D01*
X425764Y189393D01*
X425726Y189443D01*
X425676Y189506D01*
X425632Y189587D01*
X425588Y189681D01*
X425550Y189795D01*
X424445Y189606D01*
Y189600D01*
X424457Y189581D01*
X424470Y189550D01*
X424482Y189506D01*
X424508Y189455D01*
X424539Y189399D01*
X424570Y189330D01*
X424608Y189261D01*
X424702Y189110D01*
X424822Y188959D01*
X424960Y188809D01*
X425041Y188739D01*
X425123Y188677D01*
X425129Y188670D01*
X425142Y188664D01*
X425167Y188645D01*
X425205Y188626D01*
X425249Y188601D01*
X425305Y188576D01*
X425368Y188551D01*
X425437Y188520D01*
X425519Y188488D01*
X425607Y188463D01*
X425701Y188438D01*
X425801Y188413D01*
X425908Y188394D01*
X426027Y188375D01*
X426147Y188369D01*
X426272Y188363D01*
X426323D01*
X426379Y188369D01*
X426454Y188375D01*
X426542Y188382D01*
X426649Y188400D01*
X426762Y188419D01*
X426888Y188451D01*
X427020Y188488D01*
X427151Y188539D01*
X427283Y188595D01*
X427422Y188664D01*
X427547Y188746D01*
X427673Y188840D01*
X427786Y188947D01*
X427892Y189072D01*
X427899Y189079D01*
X427911Y189097D01*
X427930Y189129D01*
X427955Y189179D01*
X427987Y189236D01*
X428024Y189298D01*
X428062Y189380D01*
X428100Y189468D01*
X428137Y189568D01*
X428175Y189681D01*
X428213Y189801D01*
X428244Y189926D01*
X428269Y190065D01*
X428288Y190209D01*
X428301Y190366D01*
X428307Y190523D01*
Y189248D01*
Y190567D01*
Y190567D01*
X428301Y190623D01*
Y190692D01*
X428288Y190780D01*
X428276Y190887D01*
X428263Y190994D01*
X428238Y191120D01*
X428213Y191245D01*
X428175Y191377D01*
X428131Y191515D01*
X428081Y191653D01*
X428018Y191785D01*
X427943Y191917D01*
X427861Y192043D01*
X427767Y192156D01*
X427761Y192162D01*
X427742Y192181D01*
X427710Y192212D01*
X427666Y192250D01*
X427616Y192294D01*
X427547Y192344D01*
X427472Y192401D01*
X427390Y192457D01*
X427296Y192507D01*
X427189Y192564D01*
X427076Y192614D01*
X426951Y192658D01*
X426825Y192696D01*
X426687Y192727D01*
X426536Y192746D01*
X426385Y192752D01*
X428307D01*
D01*
D02*
G37*
G36*
X469027Y194253D02*
X467783D01*
X465459Y188457D01*
X466734D01*
X467243Y189776D01*
X469560D01*
X470044Y188457D01*
X471281D01*
X469027Y194253D01*
D02*
G37*
G36*
X460398Y194348D02*
X457553D01*
D01*
X458407D01*
X458363Y194341D01*
X458313D01*
X458256Y194335D01*
X458193Y194329D01*
X458049Y194310D01*
X457892Y194285D01*
X457723Y194253D01*
X457553Y194203D01*
X457697Y193431D01*
X457710Y193437D01*
X457741Y193443D01*
X457798Y193456D01*
X457861Y193468D01*
X457942Y193481D01*
X458030Y193487D01*
X458124Y193500D01*
X458256D01*
X458300Y193493D01*
X458357Y193487D01*
X458413Y193475D01*
X458470Y193449D01*
X458526Y193424D01*
X458570Y193387D01*
X458577Y193380D01*
X458583Y193361D01*
X458602Y193336D01*
X458621Y193292D01*
X458639Y193230D01*
X458652Y193154D01*
X458665Y193066D01*
X458671Y192953D01*
Y192658D01*
X457842D01*
Y191785D01*
X458671D01*
Y188457D01*
X459782D01*
Y191785D01*
X460398D01*
Y192658D01*
X459782D01*
Y192972D01*
Y192978D01*
Y192997D01*
Y193022D01*
Y193060D01*
X459776Y193104D01*
Y193154D01*
X459770Y193267D01*
X459757Y193393D01*
X459732Y193525D01*
X459707Y193650D01*
X459688Y193707D01*
X459669Y193757D01*
X459663Y193770D01*
X459644Y193801D01*
X459619Y193845D01*
X459575Y193908D01*
X459519Y193971D01*
X459449Y194046D01*
X459362Y194115D01*
X459255Y194178D01*
X459248D01*
X459242Y194184D01*
X459223Y194197D01*
X459198Y194203D01*
X459135Y194234D01*
X459048Y194266D01*
X458935Y194291D01*
X458803Y194322D01*
X458652Y194341D01*
X458489Y194348D01*
X460398D01*
D02*
G37*
G36*
X445834Y192752D02*
X445772D01*
X445734Y192746D01*
X445696Y192740D01*
X445602Y192727D01*
X445489Y192702D01*
X445364Y192665D01*
X445232Y192608D01*
X445100Y192539D01*
X445445Y191572D01*
X445458Y191578D01*
X445495Y191603D01*
X445546Y191628D01*
X445615Y191666D01*
X445696Y191697D01*
X445784Y191729D01*
X445872Y191748D01*
X445966Y191754D01*
X446004D01*
X446048Y191748D01*
X446104Y191735D01*
X446167Y191723D01*
X446230Y191697D01*
X446299Y191666D01*
X446362Y191622D01*
X446368Y191616D01*
X446387Y191597D01*
X446419Y191566D01*
X446456Y191515D01*
X446494Y191452D01*
X446538Y191371D01*
X446582Y191277D01*
X446620Y191157D01*
Y191151D01*
X446626Y191138D01*
Y191120D01*
X446632Y191088D01*
X446638Y191051D01*
X446645Y190994D01*
X446657Y190931D01*
X446663Y190856D01*
X446670Y190768D01*
X446682Y190667D01*
X446689Y190554D01*
X446695Y190422D01*
X446701Y190278D01*
Y190121D01*
X446707Y189945D01*
Y189751D01*
Y188457D01*
X445100D01*
X447819D01*
Y192658D01*
X446789D01*
Y192055D01*
X446783Y192062D01*
X446776Y192074D01*
X446764Y192093D01*
X446745Y192124D01*
X446695Y192200D01*
X446632Y192288D01*
X446557Y192382D01*
X446481Y192470D01*
X446400Y192551D01*
X446356Y192589D01*
X446318Y192614D01*
X446306Y192621D01*
X446280Y192633D01*
X446236Y192658D01*
X446180Y192683D01*
X446104Y192708D01*
X446023Y192734D01*
X445935Y192746D01*
X445834Y192752D01*
D02*
G37*
G36*
X435171Y192658D02*
X434059D01*
Y188457D01*
X435171D01*
Y192658D01*
D02*
G37*
G36*
X464875D02*
X461063D01*
Y188363D01*
D01*
Y188457D01*
X462093D01*
Y189079D01*
X462106Y189072D01*
X462118Y189053D01*
X462137Y189028D01*
X462188Y188965D01*
X462257Y188890D01*
X462345Y188809D01*
X462445Y188714D01*
X462571Y188633D01*
X462703Y188551D01*
X462709D01*
X462721Y188545D01*
X462740Y188532D01*
X462765Y188520D01*
X462803Y188507D01*
X462841Y188495D01*
X462941Y188457D01*
X463054Y188426D01*
X463192Y188394D01*
X463337Y188369D01*
X463487Y188363D01*
X463557D01*
X463594Y188369D01*
X463638Y188375D01*
X463739Y188388D01*
X463858Y188407D01*
X463984Y188438D01*
X464115Y188482D01*
X464247Y188545D01*
X464254D01*
X464260Y188551D01*
X464279Y188564D01*
X464304Y188582D01*
X464361Y188620D01*
X464430Y188683D01*
X464511Y188752D01*
X464593Y188846D01*
X464668Y188947D01*
X464731Y189066D01*
Y189072D01*
X464737Y189085D01*
X464744Y189104D01*
X464756Y189129D01*
X464762Y189160D01*
X464775Y189204D01*
X464787Y189254D01*
X464800Y189311D01*
X464819Y189374D01*
X464831Y189443D01*
X464844Y189518D01*
X464850Y189600D01*
X464863Y189688D01*
X464869Y189788D01*
X464875Y189996D01*
Y192658D01*
D02*
G37*
G36*
X448679Y190190D02*
Y188363D01*
D01*
Y190190D01*
D02*
G37*
G36*
X440000Y192752D02*
X436082D01*
D01*
X438035D01*
X437991Y192746D01*
X437922Y192740D01*
X437846Y192734D01*
X437752Y192721D01*
X437652Y192702D01*
X437545Y192677D01*
X437426Y192639D01*
X437306Y192602D01*
X437187Y192551D01*
X437061Y192489D01*
X436942Y192420D01*
X436823Y192338D01*
X436710Y192237D01*
X436603Y192131D01*
X436597Y192124D01*
X436578Y192099D01*
X436553Y192068D01*
X436521Y192018D01*
X436477Y191948D01*
X436433Y191867D01*
X436383Y191773D01*
X436333Y191666D01*
X436283Y191540D01*
X436239Y191396D01*
X436195Y191245D01*
X436157Y191076D01*
X436126Y190887D01*
X436100Y190686D01*
X436082Y190473D01*
Y190523D01*
Y190473D01*
Y190240D01*
X438864D01*
Y190234D01*
Y190222D01*
Y190190D01*
X438857Y190159D01*
X438851Y190115D01*
X438845Y190065D01*
X438826Y189958D01*
X438795Y189832D01*
X438751Y189700D01*
X438688Y189575D01*
X438600Y189462D01*
X438594D01*
X438587Y189449D01*
X438556Y189418D01*
X438499Y189374D01*
X438424Y189330D01*
X438330Y189279D01*
X438217Y189236D01*
X438091Y189204D01*
X438022Y189198D01*
X437953Y189192D01*
X437909D01*
X437865Y189198D01*
X437802Y189210D01*
X437733Y189223D01*
X437664Y189248D01*
X437589Y189286D01*
X437520Y189330D01*
X437513Y189336D01*
X437488Y189355D01*
X437457Y189393D01*
X437419Y189443D01*
X437369Y189506D01*
X437325Y189587D01*
X437281Y189681D01*
X437243Y189795D01*
X436138Y189606D01*
Y189600D01*
X436151Y189581D01*
X436163Y189550D01*
X436176Y189506D01*
X436201Y189455D01*
X436232Y189399D01*
X436264Y189330D01*
X436301Y189261D01*
X436396Y189110D01*
X436515Y188959D01*
X436653Y188809D01*
X436735Y188740D01*
X436816Y188677D01*
X436823Y188670D01*
X436835Y188664D01*
X436860Y188645D01*
X436898Y188626D01*
X436942Y188601D01*
X436999Y188576D01*
X437061Y188551D01*
X437130Y188520D01*
X437212Y188488D01*
X437300Y188463D01*
X437394Y188438D01*
X437495Y188413D01*
X437601Y188394D01*
X437721Y188375D01*
X437840Y188369D01*
X437965Y188363D01*
X438016D01*
X438072Y188369D01*
X438148Y188375D01*
X438236Y188382D01*
X438342Y188400D01*
X438455Y188419D01*
X438581Y188451D01*
X438713Y188488D01*
X438845Y188539D01*
X438977Y188595D01*
X439115Y188664D01*
X439241Y188746D01*
X439366Y188840D01*
X439479Y188947D01*
X439586Y189072D01*
X439592Y189079D01*
X439605Y189097D01*
X439623Y189129D01*
X439649Y189179D01*
X439680Y189236D01*
X439718Y189298D01*
X439755Y189380D01*
X439793Y189468D01*
X439831Y189568D01*
X439868Y189681D01*
X439906Y189801D01*
X439938Y189926D01*
X439963Y190065D01*
X439982Y190209D01*
X439994Y190366D01*
X440000Y190523D01*
Y188363D01*
Y190567D01*
X439994Y190623D01*
Y190692D01*
X439982Y190780D01*
X439969Y190887D01*
X439956Y190994D01*
X439931Y191120D01*
X439906Y191245D01*
X439868Y191377D01*
X439824Y191515D01*
X439774Y191653D01*
X439712Y191785D01*
X439636Y191917D01*
X439555Y192043D01*
X439460Y192156D01*
X439454Y192162D01*
X439435Y192181D01*
X439404Y192212D01*
X439360Y192250D01*
X439310Y192294D01*
X439241Y192344D01*
X439165Y192401D01*
X439083Y192457D01*
X438989Y192507D01*
X438882Y192564D01*
X438769Y192614D01*
X438644Y192658D01*
X438518Y192696D01*
X438380Y192727D01*
X438229Y192746D01*
X438079Y192752D01*
X440000D01*
D01*
D02*
G37*
G36*
X461943Y187128D02*
Y185659D01*
X461936D01*
X461924Y185665D01*
X461899Y185671D01*
X461867Y185684D01*
X461823Y185702D01*
X461779Y185721D01*
X461723Y185746D01*
X461660Y185778D01*
X461522Y185847D01*
X461365Y185941D01*
X461189Y186054D01*
X461001Y186192D01*
X460994Y186199D01*
X460976Y186211D01*
X460950Y186230D01*
X460919Y186261D01*
X460875Y186299D01*
X460831Y186349D01*
X460781Y186399D01*
X460724Y186462D01*
X460605Y186600D01*
X460492Y186758D01*
X460385Y186933D01*
X460341Y187028D01*
X460304Y187128D01*
X459399D01*
Y181313D01*
X460511D01*
Y185489D01*
X460517Y185483D01*
X460536Y185464D01*
X460574Y185432D01*
X460618Y185395D01*
X460674Y185351D01*
X460749Y185294D01*
X460825Y185231D01*
X460919Y185169D01*
X461020Y185100D01*
X461126Y185030D01*
X461246Y184961D01*
X461371Y184892D01*
X461503Y184823D01*
X461648Y184760D01*
X461792Y184704D01*
X461943Y184647D01*
Y181526D01*
Y187128D01*
D02*
G37*
G36*
X457440D02*
Y185659D01*
X457434D01*
X457421Y185665D01*
X457396Y185671D01*
X457365Y185684D01*
X457321Y185702D01*
X457277Y185721D01*
X457220Y185746D01*
X457157Y185778D01*
X457019Y185847D01*
X456862Y185941D01*
X456686Y186054D01*
X456498Y186192D01*
X456492Y186199D01*
X456473Y186211D01*
X456448Y186230D01*
X456416Y186261D01*
X456372Y186299D01*
X456328Y186349D01*
X456278Y186399D01*
X456222Y186462D01*
X456102Y186600D01*
X455989Y186758D01*
X455883Y186933D01*
X455838Y187028D01*
X455801Y187128D01*
X454896D01*
Y181313D01*
X456008D01*
Y185489D01*
X456014Y185483D01*
X456033Y185464D01*
X456071Y185432D01*
X456115Y185395D01*
X456171Y185351D01*
X456247Y185294D01*
X456322Y185231D01*
X456416Y185169D01*
X456517Y185100D01*
X456624Y185030D01*
X456743Y184961D01*
X456868Y184892D01*
X457000Y184823D01*
X457145Y184760D01*
X457289Y184704D01*
X457440Y184647D01*
Y181840D01*
Y187128D01*
D02*
G37*
G36*
X451128D02*
X447235D01*
X448993D01*
X448931Y187122D01*
X448861Y187115D01*
X448780Y187103D01*
X448686Y187090D01*
X448585Y187072D01*
X448478Y187046D01*
X448372Y187015D01*
X448259Y186977D01*
X448145Y186933D01*
X448039Y186877D01*
X447932Y186814D01*
X447825Y186745D01*
X447731Y186663D01*
X447725Y186657D01*
X447712Y186644D01*
X447687Y186613D01*
X447656Y186582D01*
X447618Y186538D01*
X447574Y186481D01*
X447530Y186418D01*
X447480Y186343D01*
X447436Y186268D01*
X447392Y186180D01*
X447348Y186085D01*
X447310Y185985D01*
X447279Y185872D01*
X447254Y185759D01*
X447241Y185640D01*
X447235Y185514D01*
Y185445D01*
X447241Y185414D01*
Y185370D01*
X447254Y185275D01*
X447273Y185156D01*
X447298Y185030D01*
X447329Y184899D01*
X447379Y184767D01*
Y184760D01*
X447386Y184754D01*
X447392Y184729D01*
X447404Y184704D01*
X447423Y184672D01*
X447442Y184635D01*
X447486Y184541D01*
X447549Y184434D01*
X447624Y184308D01*
X447718Y184170D01*
X447825Y184026D01*
X447838Y184013D01*
X447863Y183975D01*
X447919Y183919D01*
X447989Y183837D01*
X448039Y183787D01*
X448089Y183730D01*
X448152Y183674D01*
X448215Y183605D01*
X448290Y183536D01*
X448372Y183454D01*
X448459Y183373D01*
X448554Y183285D01*
X448560Y183278D01*
X448579Y183266D01*
X448604Y183241D01*
X448635Y183209D01*
X448679Y183172D01*
X448730Y183128D01*
X448836Y183027D01*
X448949Y182920D01*
X449056Y182814D01*
X449106Y182763D01*
X449150Y182719D01*
X449188Y182676D01*
X449219Y182644D01*
X449226Y182638D01*
X449244Y182619D01*
X449270Y182588D01*
X449301Y182550D01*
X449332Y182500D01*
X449370Y182449D01*
X449445Y182343D01*
X447235D01*
Y181313D01*
X451128D01*
Y181319D01*
X451122Y181338D01*
Y181369D01*
X451116Y181413D01*
X451103Y181463D01*
X451091Y181526D01*
X451078Y181595D01*
X451059Y181671D01*
X451009Y181840D01*
X450940Y182029D01*
X450858Y182223D01*
X450752Y182418D01*
X450745Y182424D01*
X450739Y182443D01*
X450714Y182475D01*
X450689Y182512D01*
X450651Y182562D01*
X450601Y182632D01*
X450545Y182701D01*
X450475Y182789D01*
X450400Y182883D01*
X450306Y182983D01*
X450205Y183103D01*
X450092Y183222D01*
X449967Y183354D01*
X449822Y183498D01*
X449672Y183649D01*
X449502Y183806D01*
X449496Y183812D01*
X449471Y183837D01*
X449433Y183875D01*
X449383Y183919D01*
X449320Y183975D01*
X449257Y184038D01*
X449182Y184114D01*
X449106Y184189D01*
X448943Y184346D01*
X448792Y184503D01*
X448730Y184572D01*
X448667Y184641D01*
X448617Y184704D01*
X448579Y184754D01*
Y184760D01*
X448566Y184767D01*
X448560Y184786D01*
X448541Y184811D01*
X448503Y184880D01*
X448459Y184968D01*
X448422Y185068D01*
X448384Y185181D01*
X448359Y185307D01*
X448347Y185432D01*
Y185439D01*
Y185451D01*
Y185470D01*
Y185495D01*
X448359Y185558D01*
X448372Y185646D01*
X448397Y185734D01*
X448428Y185828D01*
X448478Y185922D01*
X448547Y186004D01*
X448554Y186010D01*
X448585Y186035D01*
X448629Y186067D01*
X448692Y186104D01*
X448773Y186142D01*
X448868Y186173D01*
X448975Y186199D01*
X449100Y186205D01*
X449157D01*
X449219Y186192D01*
X449301Y186180D01*
X449389Y186155D01*
X449483Y186117D01*
X449577Y186060D01*
X449659Y185991D01*
X449665Y185979D01*
X449690Y185954D01*
X449722Y185903D01*
X449766Y185828D01*
X449803Y185734D01*
X449841Y185615D01*
X449872Y185470D01*
X449885Y185388D01*
X449891Y185301D01*
X450997Y185407D01*
Y185420D01*
X450990Y185445D01*
X450984Y185495D01*
X450972Y185558D01*
X450959Y185633D01*
X450940Y185721D01*
X450915Y185816D01*
X450884Y185916D01*
X450846Y186023D01*
X450802Y186129D01*
X450752Y186242D01*
X450695Y186349D01*
X450632Y186456D01*
X450557Y186556D01*
X450475Y186644D01*
X450381Y186726D01*
X450375Y186732D01*
X450356Y186745D01*
X450325Y186764D01*
X450287Y186789D01*
X450237Y186820D01*
X450174Y186852D01*
X450105Y186889D01*
X450023Y186927D01*
X449929Y186965D01*
X449835Y187002D01*
X449728Y187034D01*
X449609Y187065D01*
X449489Y187090D01*
X449358Y187109D01*
X449219Y187122D01*
X449075Y187128D01*
X451128D01*
D01*
D02*
G37*
G36*
X442123D02*
X438229D01*
X439988D01*
X439925Y187122D01*
X439856Y187115D01*
X439774Y187103D01*
X439680Y187090D01*
X439580Y187072D01*
X439473Y187046D01*
X439366Y187015D01*
X439253Y186977D01*
X439140Y186933D01*
X439033Y186877D01*
X438927Y186814D01*
X438820Y186745D01*
X438726Y186663D01*
X438719Y186657D01*
X438707Y186644D01*
X438682Y186613D01*
X438650Y186582D01*
X438613Y186538D01*
X438568Y186481D01*
X438524Y186418D01*
X438474Y186343D01*
X438430Y186268D01*
X438386Y186180D01*
X438342Y186085D01*
X438305Y185985D01*
X438273Y185872D01*
X438248Y185759D01*
X438236Y185640D01*
X438229Y185514D01*
Y185445D01*
X438236Y185414D01*
Y185370D01*
X438248Y185275D01*
X438267Y185156D01*
X438292Y185030D01*
X438324Y184899D01*
X438374Y184767D01*
Y184760D01*
X438380Y184754D01*
X438386Y184729D01*
X438399Y184704D01*
X438418Y184672D01*
X438437Y184635D01*
X438481Y184541D01*
X438543Y184434D01*
X438619Y184308D01*
X438713Y184170D01*
X438820Y184026D01*
X438832Y184013D01*
X438857Y183975D01*
X438914Y183919D01*
X438983Y183837D01*
X439033Y183787D01*
X439083Y183730D01*
X439146Y183674D01*
X439209Y183605D01*
X439284Y183536D01*
X439366Y183454D01*
X439454Y183373D01*
X439548Y183285D01*
X439555Y183278D01*
X439573Y183266D01*
X439598Y183241D01*
X439630Y183209D01*
X439674Y183172D01*
X439724Y183128D01*
X439831Y183027D01*
X439944Y182920D01*
X440051Y182814D01*
X440101Y182763D01*
X440145Y182719D01*
X440182Y182676D01*
X440214Y182644D01*
X440220Y182638D01*
X440239Y182619D01*
X440264Y182588D01*
X440296Y182550D01*
X440327Y182500D01*
X440365Y182449D01*
X440440Y182343D01*
X438229D01*
Y181313D01*
X442123D01*
Y181319D01*
X442117Y181338D01*
Y181369D01*
X442110Y181413D01*
X442098Y181463D01*
X442085Y181526D01*
X442073Y181595D01*
X442054Y181671D01*
X442004Y181840D01*
X441935Y182029D01*
X441853Y182223D01*
X441746Y182418D01*
X441740Y182424D01*
X441734Y182443D01*
X441709Y182475D01*
X441683Y182512D01*
X441646Y182562D01*
X441596Y182632D01*
X441539Y182701D01*
X441470Y182789D01*
X441395Y182883D01*
X441300Y182983D01*
X441200Y183103D01*
X441087Y183222D01*
X440961Y183354D01*
X440817Y183498D01*
X440666Y183649D01*
X440496Y183806D01*
X440490Y183812D01*
X440465Y183837D01*
X440427Y183875D01*
X440377Y183919D01*
X440314Y183975D01*
X440252Y184038D01*
X440176Y184114D01*
X440101Y184189D01*
X439938Y184346D01*
X439787Y184503D01*
X439724Y184572D01*
X439661Y184641D01*
X439611Y184704D01*
X439573Y184754D01*
Y184760D01*
X439561Y184767D01*
X439555Y184786D01*
X439536Y184811D01*
X439498Y184880D01*
X439454Y184968D01*
X439416Y185068D01*
X439379Y185181D01*
X439354Y185307D01*
X439341Y185432D01*
Y185439D01*
Y185451D01*
Y185470D01*
Y185495D01*
X439354Y185558D01*
X439366Y185646D01*
X439391Y185734D01*
X439423Y185828D01*
X439473Y185922D01*
X439542Y186004D01*
X439548Y186010D01*
X439580Y186035D01*
X439623Y186067D01*
X439686Y186104D01*
X439768Y186142D01*
X439862Y186173D01*
X439969Y186199D01*
X440095Y186205D01*
X440151D01*
X440214Y186192D01*
X440296Y186180D01*
X440383Y186155D01*
X440478Y186117D01*
X440572Y186060D01*
X440654Y185991D01*
X440660Y185979D01*
X440685Y185954D01*
X440716Y185903D01*
X440760Y185828D01*
X440798Y185734D01*
X440836Y185615D01*
X440867Y185470D01*
X440880Y185388D01*
X440886Y185301D01*
X441991Y185407D01*
Y185420D01*
X441985Y185445D01*
X441979Y185495D01*
X441966Y185558D01*
X441953Y185633D01*
X441935Y185721D01*
X441910Y185816D01*
X441878Y185916D01*
X441840Y186023D01*
X441796Y186129D01*
X441746Y186242D01*
X441690Y186349D01*
X441627Y186456D01*
X441551Y186556D01*
X441470Y186644D01*
X441376Y186726D01*
X441369Y186732D01*
X441351Y186745D01*
X441319Y186764D01*
X441282Y186789D01*
X441231Y186820D01*
X441168Y186852D01*
X441099Y186889D01*
X441018Y186927D01*
X440924Y186965D01*
X440829Y187002D01*
X440723Y187034D01*
X440603Y187065D01*
X440484Y187090D01*
X440352Y187109D01*
X440214Y187122D01*
X440069Y187128D01*
X442123D01*
D01*
D02*
G37*
G36*
X437620D02*
X433727D01*
D01*
X435485D01*
X435422Y187122D01*
X435353Y187115D01*
X435272Y187103D01*
X435177Y187090D01*
X435077Y187072D01*
X434970Y187046D01*
X434863Y187015D01*
X434750Y186977D01*
X434637Y186933D01*
X434530Y186877D01*
X434424Y186814D01*
X434317Y186745D01*
X434223Y186663D01*
X434216Y186657D01*
X434204Y186644D01*
X434179Y186613D01*
X434147Y186582D01*
X434110Y186538D01*
X434066Y186481D01*
X434022Y186418D01*
X433972Y186343D01*
X433928Y186268D01*
X433884Y186180D01*
X433840Y186085D01*
X433802Y185985D01*
X433771Y185872D01*
X433745Y185759D01*
X433733Y185640D01*
X433727Y185514D01*
Y185445D01*
X433733Y185414D01*
Y185370D01*
X433745Y185275D01*
X433764Y185156D01*
X433789Y185030D01*
X433821Y184899D01*
X433871Y184767D01*
Y184760D01*
X433877Y184754D01*
X433884Y184729D01*
X433896Y184704D01*
X433915Y184672D01*
X433934Y184635D01*
X433978Y184541D01*
X434041Y184434D01*
X434116Y184308D01*
X434210Y184170D01*
X434317Y184026D01*
X434330Y184013D01*
X434355Y183975D01*
X434411Y183919D01*
X434480Y183837D01*
X434530Y183787D01*
X434581Y183730D01*
X434644Y183674D01*
X434706Y183605D01*
X434782Y183536D01*
X434863Y183454D01*
X434951Y183373D01*
X435045Y183285D01*
X435052Y183278D01*
X435071Y183266D01*
X435096Y183241D01*
X435127Y183209D01*
X435171Y183172D01*
X435221Y183128D01*
X435328Y183027D01*
X435441Y182920D01*
X435548Y182814D01*
X435598Y182763D01*
X435642Y182719D01*
X435680Y182676D01*
X435711Y182644D01*
X435717Y182638D01*
X435736Y182619D01*
X435761Y182588D01*
X435793Y182550D01*
X435824Y182500D01*
X435862Y182449D01*
X435937Y182343D01*
X433727D01*
Y181313D01*
X437620D01*
Y181319D01*
X437614Y181338D01*
Y181369D01*
X437608Y181413D01*
X437595Y181463D01*
X437582Y181526D01*
X437570Y181595D01*
X437551Y181671D01*
X437501Y181840D01*
X437432Y182029D01*
X437350Y182223D01*
X437243Y182418D01*
X437237Y182424D01*
X437231Y182443D01*
X437206Y182475D01*
X437181Y182512D01*
X437143Y182562D01*
X437093Y182632D01*
X437036Y182701D01*
X436967Y182789D01*
X436892Y182883D01*
X436798Y182983D01*
X436697Y183103D01*
X436584Y183222D01*
X436458Y183354D01*
X436314Y183498D01*
X436163Y183649D01*
X435994Y183806D01*
X435987Y183812D01*
X435962Y183837D01*
X435925Y183875D01*
X435874Y183919D01*
X435812Y183975D01*
X435749Y184038D01*
X435673Y184114D01*
X435598Y184189D01*
X435435Y184346D01*
X435284Y184503D01*
X435221Y184572D01*
X435158Y184641D01*
X435108Y184704D01*
X435071Y184754D01*
Y184760D01*
X435058Y184767D01*
X435052Y184786D01*
X435033Y184811D01*
X434995Y184880D01*
X434951Y184968D01*
X434914Y185068D01*
X434876Y185181D01*
X434851Y185307D01*
X434838Y185432D01*
Y185439D01*
Y185451D01*
Y185470D01*
Y185495D01*
X434851Y185558D01*
X434863Y185646D01*
X434888Y185734D01*
X434920Y185828D01*
X434970Y185922D01*
X435039Y186004D01*
X435045Y186010D01*
X435077Y186035D01*
X435121Y186067D01*
X435184Y186104D01*
X435265Y186142D01*
X435359Y186173D01*
X435466Y186199D01*
X435592Y186205D01*
X435648D01*
X435711Y186192D01*
X435793Y186180D01*
X435881Y186155D01*
X435975Y186117D01*
X436069Y186060D01*
X436151Y185991D01*
X436157Y185979D01*
X436182Y185954D01*
X436213Y185903D01*
X436258Y185828D01*
X436295Y185734D01*
X436333Y185615D01*
X436364Y185470D01*
X436377Y185388D01*
X436383Y185301D01*
X437488Y185407D01*
Y185420D01*
X437482Y185445D01*
X437476Y185495D01*
X437463Y185558D01*
X437451Y185633D01*
X437432Y185721D01*
X437407Y185816D01*
X437375Y185916D01*
X437338Y186023D01*
X437294Y186129D01*
X437243Y186242D01*
X437187Y186349D01*
X437124Y186456D01*
X437049Y186556D01*
X436967Y186644D01*
X436873Y186726D01*
X436867Y186732D01*
X436848Y186745D01*
X436816Y186764D01*
X436779Y186789D01*
X436728Y186820D01*
X436666Y186852D01*
X436597Y186889D01*
X436515Y186927D01*
X436421Y186965D01*
X436327Y187002D01*
X436220Y187034D01*
X436100Y187065D01*
X435981Y187090D01*
X435849Y187109D01*
X435711Y187122D01*
X435567Y187128D01*
X437620D01*
D01*
D02*
G37*
G36*
X446488D02*
X444572D01*
X444528Y187122D01*
X444472D01*
X444403Y187109D01*
X444321Y187097D01*
X444227Y187078D01*
X444126Y187053D01*
X444026Y187021D01*
X443919Y186984D01*
X443806Y186933D01*
X443699Y186877D01*
X443593Y186808D01*
X443486Y186726D01*
X443385Y186632D01*
X443291Y186525D01*
X443285Y186519D01*
X443266Y186494D01*
X443241Y186450D01*
X443203Y186387D01*
X443159Y186312D01*
X443109Y186211D01*
X443059Y186098D01*
X443009Y185960D01*
X442958Y185809D01*
X442902Y185633D01*
X442858Y185439D01*
X442814Y185225D01*
X442776Y184993D01*
X442751Y184735D01*
X442732Y184459D01*
X442726Y184164D01*
Y184051D01*
X442732Y184007D01*
Y183957D01*
Y183894D01*
X442745Y183762D01*
X442757Y183605D01*
X442776Y183435D01*
X442795Y183253D01*
X442826Y183059D01*
X442864Y182864D01*
X442914Y182663D01*
X442965Y182468D01*
X443034Y182286D01*
X443109Y182104D01*
X443197Y181941D01*
X443297Y181796D01*
X443304Y181790D01*
X443316Y181771D01*
X443348Y181740D01*
X443385Y181702D01*
X443429Y181658D01*
X443492Y181608D01*
X443561Y181558D01*
X443637Y181501D01*
X443724Y181445D01*
X443825Y181394D01*
X443932Y181344D01*
X444051Y181300D01*
X444177Y181263D01*
X444315Y181231D01*
X444459Y181212D01*
X444610Y181206D01*
X444648D01*
X444692Y181212D01*
X444748Y181219D01*
X444823Y181225D01*
X444905Y181237D01*
X444999Y181263D01*
X445100Y181288D01*
X445206Y181319D01*
X445313Y181363D01*
X445426Y181420D01*
X445539Y181476D01*
X445652Y181551D01*
X445765Y181639D01*
X445872Y181740D01*
X445973Y181853D01*
X445979Y181859D01*
X445992Y181884D01*
X446023Y181922D01*
X446054Y181978D01*
X446092Y182054D01*
X446136Y182148D01*
X446180Y182261D01*
X446230Y182387D01*
X446280Y182537D01*
X446324Y182707D01*
X446368Y182895D01*
X446406Y183109D01*
X446437Y183341D01*
X446462Y183599D01*
X446481Y183875D01*
X446488Y184176D01*
Y181369D01*
Y184289D01*
X446481Y184333D01*
Y184384D01*
Y184440D01*
X446469Y184578D01*
X446456Y184729D01*
X446437Y184899D01*
X446419Y185081D01*
X446387Y185275D01*
X446349Y185470D01*
X446306Y185665D01*
X446249Y185859D01*
X446186Y186048D01*
X446111Y186224D01*
X446023Y186387D01*
X445922Y186531D01*
X445916Y186538D01*
X445897Y186556D01*
X445872Y186588D01*
X445834Y186626D01*
X445784Y186670D01*
X445728Y186720D01*
X445659Y186776D01*
X445583Y186833D01*
X445495Y186883D01*
X445395Y186940D01*
X445288Y186990D01*
X445169Y187034D01*
X445043Y187072D01*
X444905Y187103D01*
X444761Y187122D01*
X444610Y187128D01*
X446488D01*
D02*
G37*
G36*
X453590Y187203D02*
X451323D01*
D01*
X452774Y181212D01*
X453590D01*
X452158Y187203D01*
X453590D01*
D01*
D02*
G37*
%LPD*%
G36*
X451829Y199055D02*
X451892Y199049D01*
X451979Y199030D01*
X452074Y198998D01*
X452174Y198948D01*
X452268Y198879D01*
X452319Y198842D01*
X452362Y198791D01*
X452375Y198779D01*
X452400Y198741D01*
X452438Y198685D01*
X452482Y198603D01*
X452526Y198502D01*
X452563Y198377D01*
X452589Y198239D01*
X452595Y198075D01*
X450937D01*
Y198082D01*
Y198094D01*
Y198119D01*
X450943Y198157D01*
X450949Y198195D01*
X450956Y198239D01*
X450975Y198345D01*
X451006Y198465D01*
X451050Y198584D01*
X451107Y198703D01*
X451188Y198804D01*
X451201Y198816D01*
X451232Y198842D01*
X451282Y198885D01*
X451351Y198936D01*
X451433Y198980D01*
X451534Y199024D01*
X451647Y199049D01*
X451766Y199061D01*
X451804D01*
X451829Y199055D01*
D02*
G37*
G36*
X458096Y198954D02*
X457029D01*
X456953Y198961D01*
X456784D01*
X456601Y198973D01*
X456432Y198986D01*
X456357Y198992D01*
X456287Y198998D01*
X456225Y199011D01*
X456181Y199024D01*
X456168Y199030D01*
X456143Y199036D01*
X456105Y199055D01*
X456061Y199080D01*
X456005Y199111D01*
X455948Y199155D01*
X455898Y199206D01*
X455848Y199268D01*
X455842Y199275D01*
X455829Y199300D01*
X455810Y199338D01*
X455785Y199388D01*
X455766Y199451D01*
X455748Y199526D01*
X455735Y199614D01*
X455729Y199708D01*
Y199714D01*
Y199721D01*
Y199758D01*
X455735Y199809D01*
X455748Y199878D01*
X455766Y199953D01*
X455798Y200028D01*
X455835Y200104D01*
X455886Y200179D01*
X455892Y200185D01*
X455917Y200210D01*
X455948Y200242D01*
X455999Y200273D01*
X456061Y200317D01*
X456137Y200349D01*
X456231Y200380D01*
X456331Y200405D01*
X456338D01*
X456363Y200412D01*
X456413D01*
X456445Y200418D01*
X456539D01*
X456601Y200424D01*
X456752D01*
X456840Y200430D01*
X458096D01*
Y198954D01*
D02*
G37*
G36*
X447508Y197667D02*
X447282Y196951D01*
Y196958D01*
X447276Y196964D01*
X447269Y196995D01*
X447251Y197045D01*
X447232Y197102D01*
X447213Y197158D01*
X447194Y197221D01*
X447182Y197272D01*
X447169Y197309D01*
Y197315D01*
X447156Y197341D01*
X447150Y197378D01*
X447131Y197422D01*
X447112Y197479D01*
X447094Y197535D01*
X447050Y197667D01*
X446252Y199815D01*
X448299D01*
X447508Y197667D01*
D02*
G37*
G36*
X444663Y198590D02*
X444657Y198634D01*
Y198685D01*
Y198741D01*
X444644Y198879D01*
X444632Y199030D01*
X444613Y199199D01*
X444594Y199381D01*
X444563Y199576D01*
X444525Y199771D01*
X444481Y199966D01*
X444425Y200160D01*
X444362Y200349D01*
X444286Y200524D01*
X444199Y200688D01*
X444098Y200832D01*
X444092Y200838D01*
X444073Y200857D01*
X444048Y200889D01*
X444010Y200926D01*
X443960Y200970D01*
X443903Y201021D01*
X443834Y201077D01*
X443759Y201134D01*
X443671Y201184D01*
X443571Y201240D01*
X443464Y201291D01*
X443344Y201335D01*
X443219Y201372D01*
X443081Y201404D01*
X442936Y201423D01*
X442786Y201429D01*
X444663D01*
Y198590D01*
D02*
G37*
G36*
X442855Y200499D02*
X442905Y200487D01*
X442961Y200474D01*
X443024Y200449D01*
X443081Y200418D01*
X443144Y200374D01*
X443150Y200367D01*
X443169Y200349D01*
X443200Y200317D01*
X443231Y200267D01*
X443269Y200204D01*
X443313Y200129D01*
X443351Y200028D01*
X443388Y199915D01*
Y199909D01*
X443395Y199897D01*
X443401Y199871D01*
X443407Y199834D01*
X443413Y199784D01*
X443426Y199727D01*
X443432Y199652D01*
X443445Y199570D01*
X443458Y199476D01*
X443464Y199369D01*
X443476Y199250D01*
X443483Y199118D01*
X443489Y198980D01*
X443495Y198816D01*
X443502Y198647D01*
Y198465D01*
Y198452D01*
Y198421D01*
Y198371D01*
Y198301D01*
X443495Y198214D01*
Y198119D01*
Y198019D01*
X443489Y197906D01*
X443476Y197673D01*
X443458Y197441D01*
X443445Y197328D01*
X443432Y197228D01*
X443420Y197140D01*
X443401Y197058D01*
Y197052D01*
X443395Y197039D01*
X443388Y197020D01*
X443382Y196995D01*
X443363Y196932D01*
X443332Y196857D01*
X443294Y196769D01*
X443250Y196687D01*
X443200Y196612D01*
X443144Y196555D01*
X443137Y196549D01*
X443118Y196537D01*
X443081Y196518D01*
X443037Y196493D01*
X442986Y196468D01*
X442924Y196449D01*
X442861Y196436D01*
X442786Y196430D01*
X442754D01*
X442716Y196436D01*
X442666Y196449D01*
X442610Y196461D01*
X442547Y196480D01*
X442490Y196512D01*
X442428Y196555D01*
X442421Y196562D01*
X442403Y196581D01*
X442371Y196612D01*
X442340Y196662D01*
X442296Y196725D01*
X442258Y196800D01*
X442220Y196901D01*
X442183Y197014D01*
Y197020D01*
X442176Y197033D01*
X442170Y197058D01*
X442164Y197096D01*
X442158Y197146D01*
X442145Y197202D01*
X442132Y197272D01*
X442120Y197353D01*
X442114Y197447D01*
X442101Y197554D01*
X442089Y197673D01*
X442082Y197805D01*
X442076Y197950D01*
X442070Y198107D01*
X442063Y198283D01*
Y198465D01*
Y198477D01*
Y198509D01*
Y198559D01*
Y198628D01*
Y198710D01*
X442070Y198810D01*
Y198910D01*
X442076Y199024D01*
X442089Y199256D01*
X442107Y199482D01*
X442120Y199595D01*
X442132Y199696D01*
X442151Y199784D01*
X442170Y199865D01*
Y199871D01*
X442176Y199884D01*
X442183Y199903D01*
X442189Y199928D01*
X442208Y199991D01*
X442239Y200072D01*
X442277Y200160D01*
X442321Y200242D01*
X442371Y200317D01*
X442428Y200374D01*
X442434Y200380D01*
X442453Y200393D01*
X442490Y200418D01*
X442528Y200443D01*
X442585Y200462D01*
X442647Y200487D01*
X442710Y200499D01*
X442786Y200506D01*
X442817D01*
X442855Y200499D01*
D02*
G37*
G36*
X431177Y191898D02*
X431252Y191886D01*
X431347Y191867D01*
X431447Y191829D01*
X431560Y191773D01*
X431617Y191735D01*
X431667Y191691D01*
X431723Y191641D01*
X431774Y191584D01*
Y191578D01*
X431786Y191572D01*
X431799Y191553D01*
X431817Y191528D01*
X431836Y191490D01*
X431855Y191452D01*
X431880Y191402D01*
X431905Y191352D01*
X431931Y191289D01*
X431956Y191220D01*
X431975Y191138D01*
X431993Y191057D01*
X432012Y190969D01*
X432025Y190868D01*
X432031Y190762D01*
X432037Y190649D01*
Y190642D01*
Y190617D01*
Y190586D01*
Y190542D01*
X432031Y190485D01*
X432025Y190422D01*
Y190347D01*
X432012Y190278D01*
X431993Y190115D01*
X431962Y189958D01*
X431918Y189801D01*
X431887Y189738D01*
X431855Y189675D01*
X431849Y189669D01*
X431843Y189656D01*
X431824Y189637D01*
X431805Y189606D01*
X431742Y189537D01*
X431661Y189462D01*
X431554Y189380D01*
X431428Y189311D01*
X431353Y189279D01*
X431277Y189261D01*
X431196Y189248D01*
X431108Y189242D01*
X431070D01*
X431045Y189248D01*
X430970Y189261D01*
X430882Y189279D01*
X430781Y189317D01*
X430668Y189380D01*
X430618Y189411D01*
X430561Y189455D01*
X430505Y189506D01*
X430455Y189562D01*
X430448Y189568D01*
X430442Y189575D01*
X430430Y189600D01*
X430411Y189625D01*
X430392Y189656D01*
X430367Y189700D01*
X430342Y189751D01*
X430317Y189807D01*
X430292Y189870D01*
X430273Y189945D01*
X430247Y190027D01*
X430229Y190115D01*
X430210Y190209D01*
X430197Y190309D01*
X430185Y190422D01*
Y190542D01*
Y190548D01*
Y190573D01*
Y190611D01*
X430191Y190661D01*
Y190718D01*
X430197Y190787D01*
X430203Y190862D01*
X430216Y190944D01*
X430247Y191113D01*
X430298Y191289D01*
X430361Y191446D01*
X430405Y191522D01*
X430448Y191584D01*
Y191591D01*
X430461Y191597D01*
X430492Y191635D01*
X430549Y191685D01*
X430631Y191748D01*
X430725Y191804D01*
X430838Y191854D01*
X430970Y191892D01*
X431039Y191898D01*
X431114Y191905D01*
X431152D01*
X431177Y191898D01*
D02*
G37*
G36*
X455468Y191898D02*
X455543Y191886D01*
X455638Y191867D01*
X455738Y191829D01*
X455851Y191773D01*
X455908Y191735D01*
X455958Y191691D01*
X456014Y191641D01*
X456065Y191584D01*
Y191578D01*
X456077Y191572D01*
X456090Y191553D01*
X456109Y191528D01*
X456127Y191490D01*
X456146Y191452D01*
X456171Y191402D01*
X456196Y191352D01*
X456222Y191289D01*
X456247Y191220D01*
X456265Y191138D01*
X456284Y191057D01*
X456303Y190969D01*
X456316Y190868D01*
X456322Y190762D01*
X456328Y190649D01*
Y190642D01*
Y190617D01*
Y190586D01*
Y190542D01*
X456322Y190485D01*
X456316Y190422D01*
Y190347D01*
X456303Y190278D01*
X456284Y190115D01*
X456253Y189958D01*
X456209Y189801D01*
X456178Y189738D01*
X456146Y189675D01*
X456140Y189669D01*
X456134Y189656D01*
X456115Y189637D01*
X456096Y189606D01*
X456033Y189537D01*
X455952Y189462D01*
X455845Y189380D01*
X455719Y189311D01*
X455644Y189279D01*
X455569Y189261D01*
X455487Y189248D01*
X455399Y189242D01*
X455361D01*
X455336Y189248D01*
X455261Y189261D01*
X455173Y189279D01*
X455072Y189317D01*
X454959Y189380D01*
X454909Y189411D01*
X454852Y189455D01*
X454796Y189506D01*
X454746Y189562D01*
X454740Y189568D01*
X454733Y189575D01*
X454721Y189600D01*
X454702Y189625D01*
X454683Y189656D01*
X454658Y189700D01*
X454633Y189751D01*
X454608Y189807D01*
X454583Y189870D01*
X454564Y189945D01*
X454539Y190027D01*
X454520Y190115D01*
X454501Y190209D01*
X454488Y190309D01*
X454476Y190422D01*
Y190542D01*
Y190548D01*
Y190573D01*
Y190611D01*
X454482Y190661D01*
Y190718D01*
X454488Y190787D01*
X454495Y190862D01*
X454507Y190944D01*
X454539Y191113D01*
X454589Y191289D01*
X454652Y191446D01*
X454696Y191522D01*
X454740Y191584D01*
Y191591D01*
X454752Y191597D01*
X454783Y191635D01*
X454840Y191685D01*
X454922Y191748D01*
X455016Y191804D01*
X455129Y191854D01*
X455261Y191892D01*
X455330Y191898D01*
X455405Y191905D01*
X455443D01*
X455468Y191898D01*
D02*
G37*
G36*
X450676D02*
X450739Y191892D01*
X450827Y191873D01*
X450921Y191842D01*
X451022Y191791D01*
X451116Y191723D01*
X451166Y191685D01*
X451210Y191635D01*
X451223Y191622D01*
X451248Y191584D01*
X451286Y191528D01*
X451330Y191446D01*
X451373Y191346D01*
X451411Y191220D01*
X451436Y191082D01*
X451442Y190919D01*
X449785D01*
Y190925D01*
Y190937D01*
Y190963D01*
X449791Y191000D01*
X449797Y191038D01*
X449803Y191082D01*
X449822Y191189D01*
X449854Y191308D01*
X449898Y191427D01*
X449954Y191547D01*
X450036Y191647D01*
X450048Y191660D01*
X450080Y191685D01*
X450130Y191729D01*
X450199Y191779D01*
X450281Y191823D01*
X450381Y191867D01*
X450494Y191892D01*
X450614Y191905D01*
X450651D01*
X450676Y191898D01*
D02*
G37*
G36*
X426385Y191898D02*
X426448Y191892D01*
X426536Y191873D01*
X426630Y191842D01*
X426731Y191791D01*
X426825Y191722D01*
X426875Y191685D01*
X426919Y191635D01*
X426932Y191622D01*
X426957Y191584D01*
X426995Y191528D01*
X427038Y191446D01*
X427082Y191346D01*
X427120Y191220D01*
X427145Y191082D01*
X427151Y190919D01*
X425493D01*
Y190925D01*
Y190937D01*
Y190963D01*
X425500Y191000D01*
X425506Y191038D01*
X425512Y191082D01*
X425531Y191189D01*
X425563Y191308D01*
X425607Y191427D01*
X425663Y191547D01*
X425745Y191647D01*
X425757Y191660D01*
X425789Y191685D01*
X425839Y191729D01*
X425908Y191779D01*
X425990Y191823D01*
X426090Y191867D01*
X426203Y191892D01*
X426323Y191905D01*
X426360D01*
X426385Y191898D01*
D02*
G37*
G36*
X469202Y190755D02*
X467614D01*
X468417Y192903D01*
X469202Y190755D01*
D02*
G37*
G36*
X463764Y190724D02*
Y190711D01*
Y190686D01*
Y190642D01*
Y190586D01*
Y190510D01*
X463758Y190435D01*
Y190347D01*
Y190259D01*
X463751Y190071D01*
X463745Y189977D01*
X463739Y189895D01*
X463732Y189813D01*
X463726Y189744D01*
X463720Y189681D01*
X463707Y189637D01*
X463701Y189631D01*
X463695Y189606D01*
X463676Y189568D01*
X463657Y189524D01*
X463626Y189474D01*
X463588Y189424D01*
X463544Y189374D01*
X463488Y189323D01*
X463481Y189317D01*
X463456Y189305D01*
X463425Y189286D01*
X463375Y189267D01*
X463312Y189248D01*
X463243Y189229D01*
X463161Y189217D01*
X463073Y189210D01*
X463023D01*
X462973Y189217D01*
X462903Y189229D01*
X462828Y189248D01*
X462740Y189273D01*
X462652Y189311D01*
X462571Y189361D01*
X462558Y189367D01*
X462533Y189393D01*
X462495Y189424D01*
X462445Y189468D01*
X462395Y189524D01*
X462345Y189594D01*
X462301Y189669D01*
X462263Y189751D01*
X462257Y189763D01*
Y189776D01*
X462250Y189801D01*
X462244Y189832D01*
X462238Y189870D01*
X462225Y189920D01*
X462219Y189977D01*
X462213Y190046D01*
X462200Y190127D01*
X462194Y190222D01*
X462188Y190328D01*
X462181Y190441D01*
Y190573D01*
X462175Y190718D01*
Y190881D01*
Y192658D01*
X463764D01*
Y190724D01*
D02*
G37*
G36*
X438079Y191898D02*
X438141Y191892D01*
X438229Y191873D01*
X438324Y191842D01*
X438424Y191791D01*
X438518Y191723D01*
X438568Y191685D01*
X438613Y191635D01*
X438625Y191622D01*
X438650Y191584D01*
X438688Y191528D01*
X438732Y191446D01*
X438776Y191346D01*
X438813Y191220D01*
X438839Y191082D01*
X438845Y190919D01*
X437187D01*
Y190925D01*
Y190937D01*
Y190963D01*
X437193Y191000D01*
X437199Y191038D01*
X437206Y191082D01*
X437225Y191189D01*
X437256Y191308D01*
X437300Y191427D01*
X437357Y191547D01*
X437438Y191647D01*
X437451Y191660D01*
X437482Y191685D01*
X437532Y191729D01*
X437601Y191779D01*
X437683Y191823D01*
X437783Y191867D01*
X437897Y191892D01*
X438016Y191905D01*
X438054D01*
X438079Y191898D01*
D02*
G37*
G36*
X444679Y186199D02*
X444729Y186186D01*
X444786Y186173D01*
X444848Y186148D01*
X444905Y186117D01*
X444968Y186073D01*
X444974Y186067D01*
X444993Y186048D01*
X445024Y186016D01*
X445056Y185966D01*
X445093Y185903D01*
X445137Y185828D01*
X445175Y185728D01*
X445213Y185615D01*
Y185608D01*
X445219Y185596D01*
X445225Y185571D01*
X445232Y185533D01*
X445238Y185483D01*
X445250Y185426D01*
X445257Y185351D01*
X445269Y185269D01*
X445282Y185175D01*
X445288Y185068D01*
X445301Y184949D01*
X445307Y184817D01*
X445313Y184679D01*
X445320Y184516D01*
X445326Y184346D01*
Y184164D01*
Y184151D01*
Y184120D01*
Y184070D01*
Y184001D01*
X445320Y183913D01*
Y183818D01*
Y183718D01*
X445313Y183605D01*
X445301Y183373D01*
X445282Y183140D01*
X445269Y183027D01*
X445257Y182927D01*
X445244Y182839D01*
X445225Y182757D01*
Y182751D01*
X445219Y182738D01*
X445213Y182719D01*
X445206Y182694D01*
X445188Y182632D01*
X445156Y182556D01*
X445119Y182468D01*
X445075Y182387D01*
X445024Y182311D01*
X444968Y182255D01*
X444962Y182248D01*
X444943Y182236D01*
X444905Y182217D01*
X444861Y182192D01*
X444811Y182167D01*
X444748Y182148D01*
X444685Y182135D01*
X444610Y182129D01*
X444579D01*
X444541Y182135D01*
X444490Y182148D01*
X444434Y182160D01*
X444371Y182179D01*
X444315Y182211D01*
X444252Y182255D01*
X444246Y182261D01*
X444227Y182280D01*
X444195Y182311D01*
X444164Y182361D01*
X444120Y182424D01*
X444082Y182500D01*
X444045Y182600D01*
X444007Y182713D01*
Y182719D01*
X444001Y182732D01*
X443994Y182757D01*
X443988Y182795D01*
X443982Y182845D01*
X443969Y182902D01*
X443957Y182971D01*
X443944Y183052D01*
X443938Y183147D01*
X443925Y183253D01*
X443913Y183373D01*
X443906Y183504D01*
X443900Y183649D01*
X443894Y183806D01*
X443888Y183982D01*
Y184164D01*
Y184176D01*
Y184208D01*
Y184258D01*
Y184327D01*
Y184409D01*
X443894Y184509D01*
Y184610D01*
X443900Y184723D01*
X443913Y184955D01*
X443932Y185181D01*
X443944Y185294D01*
X443957Y185395D01*
X443976Y185483D01*
X443994Y185564D01*
Y185571D01*
X444001Y185583D01*
X444007Y185602D01*
X444013Y185627D01*
X444032Y185690D01*
X444064Y185772D01*
X444101Y185859D01*
X444145Y185941D01*
X444195Y186016D01*
X444252Y186073D01*
X444258Y186079D01*
X444277Y186092D01*
X444315Y186117D01*
X444352Y186142D01*
X444409Y186161D01*
X444472Y186186D01*
X444534Y186199D01*
X444610Y186205D01*
X444641D01*
X444679Y186199D01*
D02*
G37*
%LPC*%
G36*
X543396Y214981D02*
X543326D01*
D01*
X541838D01*
X543326D01*
X543281Y214977D01*
X543220Y214973D01*
X543154Y214965D01*
X543076Y214956D01*
X542994Y214940D01*
X542912Y214924D01*
X542822Y214903D01*
X542732Y214878D01*
X542646Y214850D01*
X542560Y214813D01*
X542474Y214768D01*
X542396Y214723D01*
X542326Y214665D01*
X542322Y214661D01*
X542310Y214653D01*
X542293Y214632D01*
X542269Y214608D01*
X542240Y214579D01*
X542211Y214538D01*
X542178Y214493D01*
X542141Y214444D01*
X542109Y214386D01*
X542076Y214325D01*
X542043Y214255D01*
X542014Y214181D01*
X541986Y214104D01*
X541965Y214017D01*
X541953Y213927D01*
X541945Y213833D01*
X542707Y213804D01*
Y213808D01*
X542711Y213816D01*
Y213833D01*
X542716Y213849D01*
X542724Y213874D01*
X542732Y213903D01*
X542752Y213964D01*
X542781Y214030D01*
X542818Y214099D01*
X542863Y214165D01*
X542920Y214218D01*
X542929Y214222D01*
X542949Y214239D01*
X542986Y214259D01*
X543039Y214284D01*
X543109Y214309D01*
X543191Y214329D01*
X543290Y214345D01*
X543404Y214350D01*
X543458D01*
X543486Y214345D01*
X543519Y214341D01*
X543597Y214333D01*
X543679Y214317D01*
X543769Y214292D01*
X543851Y214255D01*
X543929Y214210D01*
X543933Y214206D01*
X543946Y214194D01*
X543966Y214173D01*
X543987Y214149D01*
X544011Y214116D01*
X544028Y214075D01*
X544044Y214030D01*
X544048Y213976D01*
Y213972D01*
Y213956D01*
X544044Y213927D01*
X544036Y213898D01*
X544019Y213862D01*
X544003Y213821D01*
X543974Y213784D01*
X543937Y213747D01*
X543929Y213743D01*
X543921Y213735D01*
X543904Y213726D01*
X543888Y213714D01*
X543863Y213702D01*
X543831Y213685D01*
X543794Y213669D01*
X543753Y213652D01*
X543704Y213632D01*
X543646Y213612D01*
X543581Y213591D01*
X543507Y213566D01*
X543425Y213542D01*
X543335Y213517D01*
X543236Y213493D01*
X543228D01*
X543212Y213489D01*
X543183Y213480D01*
X543146Y213472D01*
X543097Y213460D01*
X543048Y213443D01*
X542986Y213427D01*
X542925Y213411D01*
X542789Y213370D01*
X542654Y213324D01*
X542588Y213300D01*
X542523Y213275D01*
X542465Y213247D01*
X542412Y213222D01*
X542408D01*
X542400Y213214D01*
X542387Y213206D01*
X542367Y213197D01*
X542318Y213165D01*
X542256Y213124D01*
X542191Y213066D01*
X542121Y213001D01*
X542051Y212923D01*
X541990Y212837D01*
Y212832D01*
X541982Y212824D01*
X541978Y212812D01*
X541965Y212791D01*
X541953Y212767D01*
X541941Y212738D01*
X541928Y212705D01*
X541912Y212668D01*
X541900Y212628D01*
X541887Y212582D01*
X541863Y212480D01*
X541846Y212361D01*
X541838Y212234D01*
Y212254D01*
Y212201D01*
X541842Y212181D01*
Y212152D01*
X541846Y212115D01*
X541854Y212078D01*
X541863Y212037D01*
X541883Y211943D01*
X541916Y211840D01*
X541961Y211734D01*
X541990Y211676D01*
X542023Y211623D01*
Y211619D01*
X542031Y211611D01*
X542043Y211594D01*
X542055Y211578D01*
X542076Y211553D01*
X542096Y211525D01*
X542154Y211463D01*
X542228Y211398D01*
X542314Y211324D01*
X542416Y211258D01*
X542535Y211201D01*
X542539D01*
X542552Y211197D01*
X542568Y211188D01*
X542592Y211180D01*
X542625Y211168D01*
X542666Y211160D01*
X542711Y211147D01*
X542761Y211135D01*
X542818Y211119D01*
X542879Y211106D01*
X542949Y211098D01*
X543023Y211086D01*
X543097Y211078D01*
X543183Y211069D01*
X543269Y211065D01*
X541838D01*
X543392D01*
X543429Y211069D01*
X543478D01*
X543536Y211074D01*
X543605Y211082D01*
X543683Y211094D01*
X543765Y211106D01*
X543855Y211123D01*
X543946Y211147D01*
X544036Y211172D01*
X544126Y211205D01*
X544216Y211242D01*
X544302Y211287D01*
X544384Y211336D01*
X544462Y211393D01*
X544466Y211398D01*
X544479Y211410D01*
X544499Y211430D01*
X544524Y211455D01*
X544552Y211492D01*
X544589Y211533D01*
X544626Y211582D01*
X544663Y211639D01*
X544704Y211705D01*
X544745Y211775D01*
X544782Y211857D01*
X544819Y211943D01*
X544852Y212037D01*
X544880Y212136D01*
X544905Y212246D01*
X544921Y212361D01*
X544179Y212435D01*
Y212431D01*
X544175Y212418D01*
X544171Y212398D01*
X544167Y212373D01*
X544159Y212340D01*
X544146Y212308D01*
X544122Y212226D01*
X544085Y212136D01*
X544036Y212041D01*
X543978Y211955D01*
X543946Y211918D01*
X543909Y211881D01*
X543904D01*
X543900Y211873D01*
X543888Y211865D01*
X543872Y211853D01*
X543851Y211840D01*
X543822Y211828D01*
X543794Y211812D01*
X543761Y211795D01*
X543679Y211762D01*
X543585Y211738D01*
X543474Y211717D01*
X543351Y211709D01*
X543314D01*
X543290Y211713D01*
X543257D01*
X543224Y211717D01*
X543142Y211730D01*
X543052Y211746D01*
X542957Y211775D01*
X542867Y211812D01*
X542826Y211836D01*
X542789Y211865D01*
X542785D01*
X542781Y211873D01*
X542761Y211894D01*
X542728Y211926D01*
X542695Y211967D01*
X542662Y212021D01*
X542629Y212086D01*
X542609Y212156D01*
X542601Y212193D01*
Y212230D01*
Y212234D01*
Y212254D01*
X542605Y212279D01*
X542609Y212308D01*
X542621Y212345D01*
X542633Y212386D01*
X542654Y212422D01*
X542683Y212459D01*
X542687Y212463D01*
X542699Y212476D01*
X542720Y212492D01*
X542744Y212517D01*
X542785Y212541D01*
X542830Y212570D01*
X542888Y212595D01*
X542957Y212623D01*
X542966Y212628D01*
X542974D01*
X542986Y212632D01*
X543003Y212636D01*
X543027Y212644D01*
X543052Y212652D01*
X543084Y212660D01*
X543121Y212673D01*
X543166Y212685D01*
X543216Y212697D01*
X543273Y212714D01*
X543335Y212730D01*
X543404Y212746D01*
X543482Y212767D01*
X543568Y212787D01*
X543576D01*
X543597Y212796D01*
X543626Y212804D01*
X543667Y212816D01*
X543720Y212828D01*
X543777Y212849D01*
X543839Y212869D01*
X543904Y212890D01*
X544048Y212947D01*
X544192Y213009D01*
X544257Y213046D01*
X544323Y213083D01*
X544380Y213120D01*
X544429Y213160D01*
X544433Y213165D01*
X544446Y213177D01*
X544462Y213193D01*
X544483Y213218D01*
X544511Y213247D01*
X544540Y213283D01*
X544573Y213324D01*
X544601Y213374D01*
X544634Y213427D01*
X544667Y213484D01*
X544696Y213550D01*
X544725Y213616D01*
X544745Y213685D01*
X544761Y213763D01*
X544774Y213841D01*
X544778Y213923D01*
Y213927D01*
Y213935D01*
Y213952D01*
X544774Y213972D01*
Y213997D01*
X544770Y214030D01*
X544757Y214099D01*
X544737Y214181D01*
X544708Y214276D01*
X544667Y214370D01*
X544614Y214464D01*
Y214468D01*
X544606Y214477D01*
X544597Y214489D01*
X544585Y214505D01*
X544544Y214550D01*
X544495Y214608D01*
X544425Y214669D01*
X544347Y214731D01*
X544249Y214792D01*
X544142Y214846D01*
X544138D01*
X544130Y214850D01*
X544109Y214858D01*
X544089Y214866D01*
X544056Y214878D01*
X544023Y214887D01*
X543982Y214899D01*
X543933Y214915D01*
X543880Y214928D01*
X543827Y214940D01*
X543765Y214948D01*
X543700Y214960D01*
X543626Y214969D01*
X543556Y214977D01*
X543396Y214981D01*
D02*
G37*
G36*
X536201Y214919D02*
X535475D01*
Y214247D01*
X536201D01*
Y213878D01*
X535475D01*
D01*
Y211135D01*
X536201D01*
Y214919D01*
D02*
G37*
G36*
X538292Y213939D02*
Y213878D01*
X537619D01*
Y213484D01*
X537615Y213489D01*
X537611Y213497D01*
X537603Y213509D01*
X537591Y213529D01*
X537558Y213579D01*
X537517Y213636D01*
X537467Y213698D01*
X537418Y213755D01*
X537365Y213808D01*
X537336Y213833D01*
X537312Y213849D01*
X537303Y213853D01*
X537287Y213862D01*
X537258Y213878D01*
X537221Y213894D01*
X537172Y213911D01*
X537119Y213927D01*
X537062Y213935D01*
X536996Y213939D01*
X536955D01*
X536930Y213935D01*
X536906Y213931D01*
X536844Y213923D01*
X536770Y213907D01*
X536689Y213882D01*
X536602Y213845D01*
X536516Y213800D01*
X536742Y213169D01*
X536750Y213173D01*
X536775Y213189D01*
X536807Y213206D01*
X536853Y213230D01*
X536906Y213251D01*
X536963Y213271D01*
X537021Y213283D01*
X537082Y213288D01*
X537107D01*
X537135Y213283D01*
X537172Y213275D01*
X537213Y213267D01*
X537254Y213251D01*
X537299Y213230D01*
X537340Y213201D01*
X537345Y213197D01*
X537357Y213185D01*
X537377Y213165D01*
X537402Y213132D01*
X537427Y213091D01*
X537455Y213037D01*
X537484Y212976D01*
X537508Y212898D01*
Y212894D01*
X537513Y212886D01*
Y212874D01*
X537517Y212853D01*
X537521Y212828D01*
X537525Y212791D01*
X537533Y212751D01*
X537537Y212701D01*
X537541Y212644D01*
X537549Y212578D01*
X537554Y212505D01*
X537558Y212418D01*
X537562Y212324D01*
Y212222D01*
X537566Y212107D01*
Y211980D01*
Y211135D01*
X536516D01*
D01*
X538292D01*
Y213939D01*
D02*
G37*
G36*
X524782D02*
Y213878D01*
X524110D01*
Y213484D01*
X524106Y213489D01*
X524101Y213497D01*
X524093Y213509D01*
X524081Y213529D01*
X524048Y213579D01*
X524007Y213636D01*
X523958Y213698D01*
X523909Y213755D01*
X523855Y213808D01*
X523827Y213833D01*
X523802Y213849D01*
X523794Y213853D01*
X523778Y213862D01*
X523749Y213878D01*
X523712Y213894D01*
X523663Y213911D01*
X523609Y213927D01*
X523552Y213935D01*
X523487Y213939D01*
X524782D01*
X523007D01*
X523446D01*
X523421Y213935D01*
X523396Y213931D01*
X523335Y213923D01*
X523261Y213907D01*
X523179Y213882D01*
X523093Y213845D01*
X523007Y213800D01*
X523232Y213169D01*
X523241Y213173D01*
X523265Y213189D01*
X523298Y213206D01*
X523343Y213230D01*
X523396Y213251D01*
X523454Y213271D01*
X523511Y213283D01*
X523573Y213288D01*
X523597D01*
X523626Y213283D01*
X523663Y213275D01*
X523704Y213267D01*
X523745Y213251D01*
X523790Y213230D01*
X523831Y213201D01*
X523835Y213197D01*
X523847Y213185D01*
X523868Y213165D01*
X523892Y213132D01*
X523917Y213091D01*
X523946Y213037D01*
X523974Y212976D01*
X523999Y212898D01*
Y212894D01*
X524003Y212886D01*
Y212874D01*
X524007Y212853D01*
X524011Y212828D01*
X524015Y212791D01*
X524024Y212751D01*
X524028Y212701D01*
X524032Y212644D01*
X524040Y212578D01*
X524044Y212505D01*
X524048Y212418D01*
X524052Y212324D01*
Y212222D01*
X524056Y212107D01*
Y211980D01*
Y211135D01*
X523007D01*
X524782D01*
Y213939D01*
D02*
G37*
G36*
X534926D02*
X532351D01*
D01*
X533581D01*
X533544Y213935D01*
X533495D01*
X533445Y213931D01*
X533388Y213923D01*
X533269Y213911D01*
X533150Y213890D01*
X533035Y213862D01*
X532986Y213841D01*
X532937Y213821D01*
X532933D01*
X532925Y213816D01*
X532912Y213808D01*
X532900Y213800D01*
X532855Y213775D01*
X532806Y213743D01*
X532748Y213698D01*
X532695Y213648D01*
X532642Y213591D01*
X532601Y213529D01*
X532597Y213521D01*
X532593Y213509D01*
X532584Y213497D01*
X532576Y213476D01*
X532568Y213447D01*
X532560Y213419D01*
X532552Y213382D01*
X532543Y213341D01*
X532535Y213296D01*
X532527Y213243D01*
X532519Y213181D01*
X532511Y213115D01*
X532507Y213046D01*
X532502Y212968D01*
Y212882D01*
X532515Y212033D01*
Y212029D01*
Y212017D01*
Y212000D01*
Y211976D01*
Y211943D01*
Y211910D01*
X532511Y211832D01*
X532507Y211746D01*
X532502Y211656D01*
X532494Y211574D01*
X532486Y211533D01*
X532482Y211500D01*
Y211492D01*
X532474Y211471D01*
X532466Y211434D01*
X532453Y211389D01*
X532437Y211336D01*
X532412Y211275D01*
X532383Y211205D01*
X532351Y211135D01*
X533068D01*
Y211139D01*
X533072Y211147D01*
X533080Y211164D01*
X533089Y211188D01*
X533097Y211217D01*
X533113Y211254D01*
X533126Y211299D01*
X533142Y211348D01*
Y211352D01*
X533146Y211361D01*
X533150Y211385D01*
X533158Y211414D01*
X533162Y211426D01*
X533167Y211434D01*
X533175Y211426D01*
X533199Y211406D01*
X533236Y211373D01*
X533286Y211332D01*
X533343Y211291D01*
X533413Y211246D01*
X533486Y211201D01*
X533564Y211164D01*
X533568D01*
X533572Y211160D01*
X533585Y211156D01*
X533601Y211152D01*
X533642Y211135D01*
X533700Y211119D01*
X533765Y211102D01*
X533843Y211086D01*
X533925Y211078D01*
X534015Y211074D01*
X534056D01*
X534085Y211078D01*
X534122Y211082D01*
X534163Y211086D01*
X534208Y211094D01*
X534257Y211102D01*
X534364Y211127D01*
X534475Y211168D01*
X534532Y211197D01*
X534585Y211225D01*
X534634Y211258D01*
X534684Y211299D01*
X534688Y211303D01*
X534696Y211311D01*
X534704Y211324D01*
X534721Y211340D01*
X534741Y211365D01*
X534761Y211389D01*
X534782Y211422D01*
X534802Y211459D01*
X534827Y211500D01*
X534848Y211541D01*
X534889Y211644D01*
X534905Y211697D01*
X534913Y211754D01*
X534921Y211816D01*
X534926Y211881D01*
Y211922D01*
X534921Y211963D01*
X534913Y212021D01*
X534897Y212086D01*
X534880Y212156D01*
X534852Y212226D01*
X534815Y212295D01*
Y212299D01*
X534811Y212304D01*
X534794Y212324D01*
X534770Y212357D01*
X534733Y212398D01*
X534692Y212443D01*
X534639Y212488D01*
X534577Y212533D01*
X534507Y212570D01*
X534503D01*
X534499Y212574D01*
X534487Y212578D01*
X534470Y212586D01*
X534450Y212595D01*
X534425Y212607D01*
X534392Y212615D01*
X534360Y212628D01*
X534323Y212640D01*
X534278Y212656D01*
X534229Y212668D01*
X534179Y212685D01*
X534122Y212697D01*
X534060Y212714D01*
X533999Y212730D01*
X533929Y212742D01*
X533925D01*
X533909Y212746D01*
X533880Y212751D01*
X533847Y212759D01*
X533806Y212767D01*
X533757Y212775D01*
X533704Y212787D01*
X533646Y212800D01*
X533532Y212828D01*
X533413Y212857D01*
X533359Y212874D01*
X533306Y212890D01*
X533261Y212906D01*
X533220Y212923D01*
Y212992D01*
Y212997D01*
Y213001D01*
Y213029D01*
X533224Y213066D01*
X533232Y213111D01*
X533245Y213160D01*
X533265Y213210D01*
X533290Y213259D01*
X533326Y213296D01*
X533331Y213300D01*
X533347Y213308D01*
X533376Y213324D01*
X533413Y213341D01*
X533466Y213357D01*
X533536Y213374D01*
X533577Y213378D01*
X533618Y213382D01*
X533667Y213386D01*
X533753D01*
X533790Y213382D01*
X533831Y213378D01*
X533880Y213366D01*
X533933Y213353D01*
X533983Y213333D01*
X534028Y213308D01*
X534032Y213304D01*
X534044Y213292D01*
X534064Y213275D01*
X534089Y213247D01*
X534118Y213210D01*
X534146Y213160D01*
X534175Y213103D01*
X534200Y213037D01*
X534852Y213156D01*
Y213160D01*
X534848Y213173D01*
X534839Y213193D01*
X534831Y213222D01*
X534819Y213255D01*
X534802Y213292D01*
X534761Y213378D01*
X534708Y213476D01*
X534643Y213575D01*
X534565Y213665D01*
X534520Y213710D01*
X534470Y213747D01*
X534466Y213751D01*
X534458Y213755D01*
X534442Y213763D01*
X534421Y213775D01*
X534392Y213792D01*
X534356Y213808D01*
X534315Y213825D01*
X534270Y213845D01*
X534212Y213862D01*
X534155Y213878D01*
X534089Y213894D01*
X534015Y213911D01*
X533937Y213923D01*
X533851Y213931D01*
X533761Y213939D01*
X534926D01*
D02*
G37*
G36*
X528554Y214919D02*
X527816D01*
X526258Y212377D01*
Y214919D01*
X525553D01*
Y211135D01*
X528554D01*
Y214919D01*
D02*
G37*
G36*
X530411Y212869D02*
X528985D01*
Y212144D01*
X530411D01*
Y212869D01*
D02*
G37*
G36*
X540157Y213939D02*
X538853D01*
X540128D01*
X540100Y213935D01*
X540055Y213931D01*
X540005Y213927D01*
X539944Y213919D01*
X539878Y213907D01*
X539809Y213890D01*
X539731Y213866D01*
X539653Y213841D01*
X539575Y213808D01*
X539493Y213767D01*
X539415Y213722D01*
X539337Y213669D01*
X539263Y213603D01*
X539194Y213534D01*
X539189Y213529D01*
X539177Y213513D01*
X539161Y213493D01*
X539140Y213460D01*
X539112Y213415D01*
X539083Y213361D01*
X539050Y213300D01*
X539017Y213230D01*
X538984Y213148D01*
X538956Y213054D01*
X538927Y212955D01*
X538903Y212845D01*
X538882Y212722D01*
X538866Y212591D01*
X538853Y212451D01*
Y212299D01*
X540670D01*
Y212295D01*
Y212287D01*
Y212267D01*
X540665Y212246D01*
X540661Y212217D01*
X540657Y212185D01*
X540645Y212115D01*
X540625Y212033D01*
X540596Y211947D01*
X540555Y211865D01*
X540497Y211791D01*
X540493D01*
X540489Y211783D01*
X540469Y211762D01*
X540432Y211734D01*
X540383Y211705D01*
X540321Y211672D01*
X540247Y211644D01*
X540165Y211623D01*
X540120Y211619D01*
X540075Y211615D01*
X540046D01*
X540018Y211619D01*
X539977Y211627D01*
X539932Y211635D01*
X539887Y211652D01*
X539837Y211676D01*
X539792Y211705D01*
X539788Y211709D01*
X539772Y211721D01*
X539751Y211746D01*
X539727Y211779D01*
X539694Y211820D01*
X539665Y211873D01*
X539636Y211935D01*
X539612Y212008D01*
X538890Y211885D01*
Y211881D01*
X538898Y211869D01*
X538907Y211848D01*
X538915Y211820D01*
X538931Y211787D01*
X538952Y211750D01*
X538972Y211705D01*
X538997Y211660D01*
X539058Y211561D01*
X539136Y211463D01*
X539226Y211365D01*
X539280Y211320D01*
X539333Y211279D01*
X539337Y211275D01*
X539345Y211270D01*
X539362Y211258D01*
X539386Y211246D01*
X539415Y211229D01*
X539452Y211213D01*
X539493Y211197D01*
X539538Y211176D01*
X539591Y211156D01*
X539649Y211139D01*
X539710Y211123D01*
X539776Y211106D01*
X539846Y211094D01*
X539923Y211082D01*
X540001Y211078D01*
X540083Y211074D01*
X540116D01*
X540153Y211078D01*
X540202Y211082D01*
X540260Y211086D01*
X540329Y211098D01*
X540403Y211110D01*
X540485Y211131D01*
X540571Y211156D01*
X540657Y211188D01*
X540743Y211225D01*
X540834Y211270D01*
X540916Y211324D01*
X540998Y211385D01*
X541071Y211455D01*
X541141Y211537D01*
X541145Y211541D01*
X541153Y211553D01*
X541166Y211574D01*
X541182Y211607D01*
X541203Y211644D01*
X541227Y211684D01*
X541252Y211738D01*
X541276Y211795D01*
X541301Y211861D01*
X541326Y211935D01*
X541350Y212013D01*
X541371Y212094D01*
X541387Y212185D01*
X541399Y212279D01*
X541408Y212382D01*
X541412Y212484D01*
Y212513D01*
X541408Y212550D01*
Y212595D01*
X541399Y212652D01*
X541391Y212722D01*
X541383Y212791D01*
X541367Y212874D01*
X541350Y212955D01*
X541326Y213042D01*
X541297Y213132D01*
X541264Y213222D01*
X541223Y213308D01*
X541174Y213394D01*
X541121Y213476D01*
X541059Y213550D01*
X541055Y213554D01*
X541043Y213566D01*
X541022Y213587D01*
X540993Y213612D01*
X540961Y213640D01*
X540916Y213673D01*
X540866Y213710D01*
X540813Y213747D01*
X540752Y213780D01*
X540682Y213816D01*
X540608Y213849D01*
X540526Y213878D01*
X540444Y213903D01*
X540354Y213923D01*
X540255Y213935D01*
X540157Y213939D01*
D02*
G37*
G36*
X531793Y214919D02*
X531067D01*
Y211135D01*
X531793D01*
Y214919D01*
D02*
G37*
G36*
X522695Y211861D02*
X521970D01*
Y211135D01*
X522695D01*
Y211861D01*
D02*
G37*
G36*
X538853Y212299D02*
D01*
Y211074D01*
Y212299D01*
D02*
G37*
%LPD*%
G36*
X533228Y212447D02*
X533249Y212443D01*
X533281Y212431D01*
X533331Y212418D01*
X533392Y212402D01*
X533470Y212382D01*
X533560Y212361D01*
X533667Y212336D01*
X533671D01*
X533679Y212332D01*
X533696D01*
X533716Y212324D01*
X533765Y212312D01*
X533827Y212299D01*
X533892Y212279D01*
X533958Y212259D01*
X534015Y212238D01*
X534040Y212226D01*
X534060Y212213D01*
X534064Y212209D01*
X534081Y212197D01*
X534105Y212172D01*
X534130Y212144D01*
X534155Y212107D01*
X534179Y212062D01*
X534196Y212013D01*
X534200Y211959D01*
Y211951D01*
Y211935D01*
X534196Y211906D01*
X534188Y211869D01*
X534171Y211828D01*
X534155Y211783D01*
X534126Y211742D01*
X534089Y211697D01*
X534085Y211693D01*
X534069Y211680D01*
X534044Y211660D01*
X534011Y211644D01*
X533966Y211623D01*
X533917Y211602D01*
X533859Y211590D01*
X533798Y211586D01*
X533790D01*
X533765Y211590D01*
X533728Y211594D01*
X533679Y211602D01*
X533622Y211619D01*
X533556Y211639D01*
X533491Y211672D01*
X533425Y211713D01*
X533421Y211717D01*
X533404Y211730D01*
X533380Y211750D01*
X533355Y211779D01*
X533322Y211816D01*
X533294Y211857D01*
X533269Y211902D01*
X533249Y211951D01*
Y211955D01*
X533245Y211971D01*
X533240Y211996D01*
X533232Y212029D01*
X533228Y212078D01*
X533224Y212140D01*
X533220Y212213D01*
Y212304D01*
Y212451D01*
X533228Y212447D01*
D02*
G37*
G36*
X527849Y211135D02*
X526315D01*
X527849Y213620D01*
Y211135D01*
D02*
G37*
G36*
X540157Y213382D02*
X540198Y213378D01*
X540255Y213366D01*
X540317Y213345D01*
X540383Y213312D01*
X540444Y213267D01*
X540477Y213243D01*
X540506Y213210D01*
X540514Y213201D01*
X540530Y213177D01*
X540555Y213140D01*
X540584Y213087D01*
X540612Y213021D01*
X540637Y212939D01*
X540653Y212849D01*
X540657Y212742D01*
X539575D01*
Y212746D01*
Y212755D01*
Y212771D01*
X539579Y212796D01*
X539583Y212820D01*
X539587Y212849D01*
X539600Y212919D01*
X539620Y212997D01*
X539649Y213074D01*
X539686Y213152D01*
X539739Y213218D01*
X539747Y213226D01*
X539768Y213243D01*
X539800Y213271D01*
X539846Y213304D01*
X539899Y213333D01*
X539964Y213361D01*
X540038Y213378D01*
X540116Y213386D01*
X540141D01*
X540157Y213382D01*
D02*
G37*
D11*
X246220Y149744D02*
Y164744D01*
X243721D02*
X246220D01*
X213720Y162244D02*
X218721D01*
X213720Y152244D02*
Y162244D01*
Y152244D02*
X218721D01*
X243721Y149744D02*
X246220D01*
X243721Y89252D02*
Y225236D01*
X218721D02*
X243721D01*
X218721Y89252D02*
Y225236D01*
Y89252D02*
X243721D01*
D12*
X332700Y179220D02*
X332587Y180276D01*
X332200Y181265D01*
X331568Y182118D01*
X330734Y182775D01*
X271756Y185508D02*
X271154Y186208D01*
X270489Y186849D01*
X269765Y187423D01*
X263629Y185502D02*
X263020Y186212D01*
X262339Y186853D01*
X261593Y187418D01*
X296550Y176850D02*
X297507Y176932D01*
X298429Y177201D01*
X339467Y187295D02*
X338914Y187886D01*
X338299Y188410D01*
X363661Y177123D02*
X364489Y176963D01*
X365327Y176870D01*
X366170Y176845D01*
X298975Y189013D02*
X297786Y189366D01*
X296550Y189475D01*
X298429Y187750D02*
X297510Y188012D01*
X296558Y188101D01*
X295606Y188012D01*
X294687Y187750D01*
X294065Y175947D02*
X295025Y175649D01*
X296018Y175499D01*
X297023D01*
X298016Y175649D01*
X298975Y175947D01*
X362632Y176033D02*
X363495Y175770D01*
X364379Y175589D01*
X365276Y175490D01*
X366178Y175476D01*
X279002Y189040D02*
X278286Y188547D01*
X277722Y187886D01*
X277346Y187102D01*
X294068Y188999D02*
X293045Y188420D01*
X292180Y187624D01*
X300863Y187646D02*
X299998Y188438D01*
X298975Y189013D01*
X359263Y180232D02*
X359513Y179316D01*
X359897Y178447D01*
X360407Y177645D01*
X261593Y187418D02*
X260564Y187915D01*
X259435Y188095D01*
X263740Y187036D02*
X263230Y187670D01*
X262642Y188232D01*
X269765Y187423D02*
X268778Y187923D01*
X267686Y188101D01*
X278532Y186118D02*
X278403Y185320D01*
X278367Y184512D01*
X283693Y187432D02*
X282646Y187926D01*
X281501Y188101D01*
X285806Y187156D02*
X285194Y187792D01*
X284518Y188360D01*
X294687Y187750D02*
X293902Y187310D01*
X293240Y186701D01*
X292180Y187624D02*
X291680Y186949D01*
X291275Y186213D01*
X290973Y185430D01*
X290973Y179530D02*
X291274Y178742D01*
X291677Y178002D01*
X292175Y177321D01*
X293041Y176525D01*
X294065Y175947D01*
X294687Y177201D02*
X295601Y176933D01*
X296550Y176850D01*
X302068Y185455D02*
X301767Y186238D01*
X301363Y186972D01*
X300863Y187646D01*
X299876Y186701D02*
X299214Y187310D01*
X298429Y187750D01*
X300855Y177313D02*
X301356Y177993D01*
X301762Y178734D01*
X302068Y179521D01*
X298975Y175947D02*
X299995Y176520D01*
X300855Y177313D01*
X312680Y219770D02*
X312541Y219687D01*
X306501Y219391D02*
X306051Y220477D01*
X329869Y183233D02*
X329377Y183424D01*
X323234Y179203D02*
X324090Y178386D01*
X326429Y177065D02*
X327806Y176850D01*
X323234Y177536D02*
X323907Y176994D01*
X324628Y176515D01*
X331948Y187105D02*
X331651Y187667D01*
X331504Y176496D02*
X332379Y177684D01*
X360407Y177645D02*
X361046Y176975D01*
X361796Y176432D01*
X362632Y176033D01*
X372343Y178189D02*
X372756Y179024D01*
X373054Y179906D01*
X366170Y176845D02*
X367005Y176870D01*
X367835Y176963D01*
X368654Y177123D01*
X261462Y188979D02*
X260258Y189364D01*
X259146Y188087D02*
X258874Y188062D01*
X257180Y189040D02*
X256466Y188479D01*
X255950Y187732D01*
X260258Y189364D02*
X259081Y189475D01*
X257026Y186659D02*
X256948Y186416D01*
X270449Y188385D02*
X269289Y189082D01*
X268249Y189400D02*
X267306Y189475D01*
X267306Y189475D02*
X266146Y189342D01*
X265076Y188876D01*
X265594Y187259D02*
X265151Y186144D01*
X287287Y220927D02*
X286201Y220477D01*
X287502Y219762D02*
X286919Y219176D01*
X283286Y189063D02*
X282143Y189389D01*
X281114Y189475D02*
X280362Y189432D01*
X279623Y189282D01*
X281501Y188101D02*
X280037Y187886D01*
X285815Y185541D02*
X285168Y186237D01*
X284458Y186869D01*
X283693Y187432D01*
X296550Y189475D02*
X295704Y189429D01*
X294871Y189269D01*
X294068Y188999D01*
X293240Y178267D02*
X293900Y177647D01*
X294687Y177201D01*
X298429D02*
X299217Y177647D01*
X299876Y178267D01*
X305777Y196985D02*
X306866Y196527D01*
X329918Y189027D02*
X329574Y189146D01*
X327689Y188077D02*
X326973Y188101D01*
X327949Y189440D02*
X327480Y189467D01*
X326973Y188101D02*
X325944Y188043D01*
X324945Y187791D01*
X326987Y189475D02*
X325782Y189403D01*
X324605Y189132D01*
X324605D02*
X323749Y188734D01*
X323010Y188145D01*
X329803Y187518D02*
X329604Y187629D01*
X323830Y186941D02*
X323345Y185661D01*
X325601Y184034D02*
X324834Y184047D01*
X327666Y183843D02*
X327017Y183932D01*
X329825Y181813D02*
X329514Y181976D01*
X327960Y182457D02*
X327495Y182535D01*
X326473Y182638D02*
X325327Y182672D01*
X329746Y177174D02*
X330369Y177511D01*
X325171Y177622D02*
X326429Y177065D01*
X327243Y175562D02*
X328542Y175476D01*
X324628Y176515D02*
X325952Y175880D01*
X328542Y175476D02*
X329376Y175539D01*
X330187Y175740D01*
X336732Y187861D02*
X335585Y188101D01*
X337183Y189082D02*
X336135Y189400D01*
X338722Y186358D02*
X337788Y187234D01*
X347158Y220641D02*
X346744Y220813D01*
X345793Y196527D02*
X346880Y196979D01*
X347330Y198066D01*
X344469Y177006D02*
X345275Y177084D01*
X346454Y175880D02*
X347291Y176627D01*
X361823Y178163D02*
X362667Y177512D01*
X363661Y177123D01*
X368654Y177123D02*
X369644Y177513D01*
X370492Y178155D01*
X366178Y175476D02*
X367155Y175502D01*
X368124Y175619D01*
X369078Y175827D01*
X369078Y175827D02*
X370123Y176213D01*
X371080Y176780D01*
X290973Y185430D02*
X290739Y184461D01*
X290598Y183475D01*
X290551Y182480D01*
X290598Y181484D01*
X290739Y180498D01*
X290973Y179530D01*
X292298Y184950D02*
X292080Y183979D01*
X291971Y182991D01*
Y181996D01*
X292080Y181008D01*
X292298Y180037D01*
X300810Y180037D02*
X301020Y181009D01*
X301126Y181997D01*
X301126Y182991D01*
X301020Y183979D01*
X300810Y184950D01*
X302068Y179521D02*
X302305Y180495D01*
X302448Y181487D01*
X302496Y182488D01*
X302448Y183489D01*
X302305Y184481D01*
X302068Y185455D01*
X265076Y188876D02*
X264249Y188071D01*
X263740Y187036D01*
X331306Y179357D02*
X331137Y180345D01*
X330620Y181203D01*
X329825Y181813D01*
X360708Y180269D02*
X361136Y179147D01*
X361823Y178163D01*
X370492Y178155D02*
X371197Y179135D01*
X371635Y180260D01*
X373054Y179906D02*
X373253Y180844D01*
X373358Y181797D01*
X256787Y185561D02*
X256757Y185232D01*
X255393Y185552D02*
X255356Y184632D01*
X255950Y187732D02*
X255690Y187102D01*
X257773Y187685D02*
X257330Y187259D01*
X265151Y186143D02*
X265049Y185331D01*
X265023Y184512D01*
X266431Y187894D02*
X265594Y187259D01*
X271756Y187156D02*
X271133Y187803D01*
X270449Y188385D01*
X277015Y185552D02*
X276973Y184632D01*
X280037Y187886D02*
X279067Y187234D01*
X286201Y220477D02*
X285751Y219391D01*
X293240Y186701D02*
X292678Y185874D01*
X292298Y184950D01*
X292298Y180037D02*
X292680Y179104D01*
X293240Y178267D01*
X300810Y184950D02*
X300435Y185875D01*
X299876Y186701D01*
X299876Y178267D02*
X300434Y179104D01*
X300810Y180037D01*
X310864Y220518D02*
X310960Y219700D01*
X323345Y185661D02*
X323265Y184856D01*
X323242Y184047D01*
X322118Y186581D02*
X321903Y185557D01*
X321839Y184512D01*
X323010Y188145D02*
X322471Y187417D01*
X322118Y186581D01*
X324945Y187791D02*
X323830Y186941D01*
X328226Y219599D02*
X327812Y219770D01*
X329566Y219391D02*
X329116Y220477D01*
X329604Y187629D02*
X329387Y187728D01*
X328720Y176910D02*
X328998Y176956D01*
X330369Y177511D02*
X331076Y178313D01*
X331306Y179357D01*
X332379Y177684D02*
X332624Y178434D01*
X332700Y179220D01*
X337788Y187234D02*
X336732Y187861D01*
X339467Y185354D02*
X338722Y186358D01*
X346234Y178183D02*
X346357Y179499D01*
X347291Y176627D02*
X347664Y177871D01*
X347664D02*
X347733Y178742D01*
X347751Y179616D01*
X358934Y183701D02*
X358962Y182538D01*
X359072Y181380D01*
X359263Y180232D01*
X360329Y183757D02*
X360335Y182877D01*
X360401Y182000D01*
X360525Y181129D01*
X360708Y180269D01*
X371635Y180260D02*
X371822Y181122D01*
X371950Y181995D01*
X372018Y182875D01*
X372025Y183757D01*
X371080Y176780D02*
X371783Y177421D01*
X372343Y178189D01*
X373409Y182953D02*
X373419Y183518D01*
X256829Y185867D02*
X256787Y185561D01*
X256948Y186416D02*
X256882Y186153D01*
X255690Y187102D02*
X255504Y186376D01*
X256882Y186153D02*
X256829Y185867D01*
X255504Y186376D02*
X255393Y185552D01*
X256757Y185232D02*
X256733Y184512D01*
X258161Y187886D02*
X257958Y187794D01*
X258381Y187961D02*
X258161Y187886D01*
X258619Y188020D02*
X258381Y187961D01*
X258874Y188062D02*
X258619Y188020D01*
X257739Y189282D02*
X257180Y189040D01*
X257958Y187794D02*
X257773Y187685D01*
X259081Y189475D02*
X257739Y189282D01*
X257115Y186880D02*
X257026Y186659D01*
X257217Y187080D02*
X257115Y186880D01*
X257330Y187259D02*
X257217Y187080D01*
X259435Y188095D02*
X259146Y188087D01*
X262642Y188232D02*
X261462Y188979D01*
X267686Y188101D02*
X266431Y187894D01*
X269289Y189082D02*
X268249Y189400D01*
X277139Y186376D02*
X277015Y185552D01*
X277346Y187102D02*
X277139Y186376D01*
X278710Y196703D02*
X279126Y196527D01*
X279126Y197709D02*
X278543Y197124D01*
X278543Y197124D02*
X278710Y196703D01*
X279623Y189282D02*
X279002Y189040D01*
X279067Y187234D02*
X278532Y186118D01*
X282143Y189389D02*
X281114Y189475D01*
X284518Y188360D02*
X283286Y189063D01*
X285579Y197879D02*
X285751Y198292D01*
X285165Y197709D02*
X285579Y197879D01*
X285383Y196527D02*
X286469Y196979D01*
X286919Y198066D01*
X306051Y220477D02*
X304965Y220927D01*
X305333Y219176D02*
X304750Y219762D01*
X305333Y198080D02*
X305777Y196985D01*
X306673Y197868D02*
X307087Y197698D01*
X306501Y198281D02*
X306673Y197868D01*
X311578Y220927D02*
X310864Y220518D01*
X312541Y219687D02*
X312554Y219525D01*
X321747Y196527D02*
X322161Y196698D01*
X322333Y197113D02*
X322161Y197527D01*
X321747Y197698D01*
X322161Y196698D02*
X322333Y197113D01*
X324090Y178386D02*
X325171Y177622D01*
X327480Y189467D02*
X326987Y189475D01*
X326329Y183996D02*
X325601Y184034D01*
X327017Y183932D02*
X326329Y183996D01*
X326999Y182595D02*
X326473Y182638D01*
X327495Y182535D02*
X326999Y182595D01*
X325952Y175880D02*
X327243Y175562D01*
X329116Y220477D02*
X328029Y220927D01*
X328397Y219184D02*
X328226Y219599D01*
X328980Y203576D02*
X329394Y203747D01*
X329566Y204161D01*
X328397D02*
X328567Y203747D01*
X328980Y203576D01*
X328604Y197776D02*
X328726Y197712D01*
X327670Y197085D02*
X328726Y196527D01*
X328896Y187891D02*
X328623Y187955D01*
X329151Y187815D02*
X328896Y187891D01*
X329387Y187728D02*
X329151Y187815D01*
X329574Y189146D02*
X329205Y189248D01*
X329205D02*
X328812Y189330D01*
X328019Y188048D02*
X327689Y188077D01*
X328330Y188008D02*
X328019Y188048D01*
X328393Y189394D02*
X327949Y189440D01*
X328623Y187955D02*
X328330Y188008D01*
X328812Y189330D02*
X328393Y189394D01*
X329377Y183424D02*
X328846Y183589D01*
X328276Y183729D02*
X327666Y183843D01*
X328846Y183589D02*
X328276Y183729D01*
X329171Y182122D02*
X328798Y182251D01*
X329514Y181976D02*
X329171Y182122D01*
X328395Y182363D02*
X327960Y182457D01*
X328798Y182251D02*
X328395Y182363D01*
X329261Y177015D02*
X329746Y177174D01*
X328998Y176956D02*
X329261Y177015D01*
X328125Y176857D02*
X328430Y176877D01*
X327806Y176850D02*
X328125Y176857D01*
X328430Y176877D02*
X328720Y176910D01*
X330236Y188889D02*
X329918Y189027D01*
X331651Y187667D02*
X330798Y188558D01*
X330798Y188558D02*
X330236Y188889D01*
X330918Y185748D02*
X330567Y186763D01*
X329803Y187518D01*
X330734Y182775D02*
X329869Y183233D01*
X330187Y175740D02*
X330882Y176054D01*
X331504Y176496D01*
X332160Y186465D02*
X332065Y186794D01*
X332065D02*
X331948Y187105D01*
X332287Y185748D02*
X332160Y186465D01*
X336135Y189400D02*
X335217Y189475D01*
X335081Y188101D02*
X334665Y188067D01*
X338299Y188410D02*
X337183Y189082D01*
X343928Y177012D02*
X343960Y177010D01*
X343862Y177018D02*
X343928Y177012D01*
X343828Y177023D02*
X343862Y177018D01*
X344419Y175646D02*
X344595Y175636D01*
X346744Y220813D02*
X346162Y220227D01*
X345990Y197882D02*
X346161Y198295D01*
X345576Y197712D02*
X345990Y197882D01*
X345871Y177427D02*
X346234Y178183D01*
X345275Y177084D02*
X345871Y177427D01*
X345007Y175629D02*
X346454Y175880D01*
X347330Y220227D02*
X347158Y220641D01*
X373389Y182379D02*
X373409Y182953D01*
X306448Y193254D02*
X319252Y177639D01*
X312554Y219525D02*
X328604Y197776D01*
X310960Y219700D02*
X327670Y197085D01*
X312680Y219770D02*
X327812D01*
X311578Y220927D02*
X328029D01*
X279126Y196527D02*
X285383D01*
X279126Y197709D02*
X285165D01*
X306866Y196527D02*
X321747D01*
X307087Y197698D02*
X321747D01*
X305020Y194631D02*
X318125D01*
X306448Y193254D02*
X318125D01*
X304664Y175819D02*
X319252D01*
X305020Y192791D02*
X317846Y177193D01*
X287287Y220927D02*
X304965D01*
X287502Y219762D02*
X304750D01*
X304664Y177193D02*
X317846D01*
X328726Y196527D02*
X345793D01*
X328726Y197712D02*
X345576D01*
X347751Y187758D02*
X349465D01*
X347751Y189132D02*
X349465D01*
X271756D02*
X273150D01*
X271756Y175819D02*
X273150D01*
X285815Y194631D02*
X287209D01*
X285815Y175819D02*
X287209D01*
X323242Y184047D02*
X324834D01*
X323234Y182672D02*
X325327D01*
X330918Y185748D02*
X332287D01*
X346357Y192623D02*
X347751D01*
X339467Y189132D02*
X340861D01*
X344157Y187761D02*
X346357D01*
X344157Y189135D02*
X346357D01*
X344772Y175631D02*
X344831Y175630D01*
X339467Y175819D02*
X340861D01*
X352700Y194631D02*
X354094D01*
X352700Y175819D02*
X354094D01*
X358934Y194631D02*
X360329D01*
X372025D02*
X373420D01*
X256733Y175819D02*
Y184512D01*
X255339Y175819D02*
X255356Y184632D01*
X265023Y175813D02*
Y184512D01*
X263629Y175813D02*
Y185502D01*
X271756Y175819D02*
Y185508D01*
X273150Y175819D02*
Y189132D01*
X278367Y175819D02*
Y184512D01*
X276973Y175819D02*
Y184632D01*
X285815Y175819D02*
Y185541D01*
X286919Y198066D02*
Y219176D01*
X285751Y198292D02*
Y219391D01*
X287209Y175819D02*
Y194631D01*
X305333Y198080D02*
Y219176D01*
X306501Y198281D02*
Y219391D01*
X321839Y175819D02*
Y184512D01*
X329566Y204161D02*
Y219391D01*
X328397Y204161D02*
Y219184D01*
X339467Y175819D02*
Y185354D01*
X340861Y175819D02*
Y189132D01*
X346357Y179499D02*
Y187761D01*
X346162Y198295D02*
Y220227D01*
X347751Y179616D02*
Y187758D01*
X347330Y198066D02*
Y220227D01*
X352700Y175819D02*
Y194631D01*
X354094Y175819D02*
Y194631D01*
X358934Y183701D02*
Y194631D01*
X360329Y183757D02*
Y194631D01*
X372025Y183757D02*
Y194631D01*
X373420Y183704D02*
Y194631D01*
X271756Y187156D02*
Y189132D01*
X285806Y187156D02*
X285815Y194631D01*
X323234Y179203D02*
Y182672D01*
X339467Y187295D02*
Y189132D01*
X305020Y192791D02*
Y194631D01*
X304664Y175819D02*
Y177193D01*
X318125Y193254D02*
Y194631D01*
X319252Y175819D02*
Y177639D01*
X323234Y175819D02*
Y177536D01*
X343828Y177023D02*
X343830Y175699D01*
X346357Y189135D02*
Y192623D01*
X347751Y189132D02*
Y192623D01*
X255339Y175819D02*
X256733D01*
X263629Y175813D02*
X265023D01*
X276973Y175819D02*
X278367D01*
X321839D02*
X323234D01*
X335081Y188101D02*
X335585D01*
X334679Y189450D02*
X334958Y189475D01*
X334665Y188067D02*
X334679Y189450D01*
X334958Y189475D02*
X335217D01*
X344157Y187761D02*
Y189135D01*
X344140Y177006D02*
X344469D01*
X344083Y177006D02*
X344140Y177006D01*
X344054Y177007D02*
X344083Y177006D01*
X344023Y177007D02*
X344054Y177007D01*
X343992Y177008D02*
X344023Y177007D01*
X343960Y177010D02*
X343992Y177008D01*
X343830Y175699D02*
X344007Y175680D01*
X344125Y175669D01*
X344243Y175659D01*
X344360Y175650D01*
X344419Y175646D01*
X344595Y175636D02*
X344654Y175634D01*
X344713Y175632D01*
X344772Y175631D01*
X344831Y175630D02*
X344890Y175629D01*
X344949Y175629D01*
X345007Y175629D01*
X349465Y187758D02*
Y189132D01*
X373419Y183518D02*
X373420Y183704D01*
X373358Y181797D02*
X373389Y182379D01*
D14*
X247614Y97244D02*
X246827D01*
X247614D01*
X197756Y92244D02*
X207756D01*
Y222244D01*
X197756D02*
X207756D01*
X197756Y214744D02*
Y222244D01*
Y92244D02*
Y214744D01*
X520472Y183071D02*
X546457D01*
Y209055D01*
X520472D02*
X546457D01*
X520472Y183071D02*
Y209055D01*
X194227Y158556D02*
X194883Y159212D01*
X196194D01*
X196850Y158556D01*
Y157900D01*
X196194Y157244D01*
X194883D01*
X194227Y156588D01*
Y155932D01*
X194883Y155276D01*
X196194D01*
X196850Y155932D01*
X192915Y159212D02*
Y155276D01*
X191603Y156588D01*
X190291Y155276D01*
Y159212D01*
X186355D02*
X187667Y158556D01*
X188979Y157244D01*
Y155932D01*
X188323Y155276D01*
X187011D01*
X186355Y155932D01*
Y156588D01*
X187011Y157244D01*
X188979D01*
X196850Y178556D02*
X196194Y179212D01*
X194883D01*
X194227Y178556D01*
Y177900D01*
X194883Y177244D01*
X195538D01*
X194883D01*
X194227Y176588D01*
Y175932D01*
X194883Y175276D01*
X196194D01*
X196850Y175932D01*
X192915Y179212D02*
Y176588D01*
X191603Y175276D01*
X190291Y176588D01*
Y179212D01*
X188979Y178556D02*
X188323Y179212D01*
X187011D01*
X186355Y178556D01*
Y177900D01*
X187011Y177244D01*
X187667D01*
X187011D01*
X186355Y176588D01*
Y175932D01*
X187011Y175276D01*
X188323D01*
X188979Y175932D01*
X194227Y138556D02*
X194883Y139212D01*
X196194D01*
X196850Y138556D01*
Y137900D01*
X196194Y137244D01*
X194883D01*
X194227Y136588D01*
Y135932D01*
X194883Y135276D01*
X196194D01*
X196850Y135932D01*
X192915Y139212D02*
Y135276D01*
X191603Y136588D01*
X190291Y135276D01*
Y139212D01*
X188979Y138556D02*
X188323Y139212D01*
X187011D01*
X186355Y138556D01*
Y137900D01*
X187011Y137244D01*
X186355Y136588D01*
Y135932D01*
X187011Y135276D01*
X188323D01*
X188979Y135932D01*
Y136588D01*
X188323Y137244D01*
X188979Y137900D01*
Y138556D01*
X188323Y137244D02*
X187011D01*
X194227Y128556D02*
X194883Y129212D01*
X196194D01*
X196850Y128556D01*
Y125932D01*
X196194Y125276D01*
X194883D01*
X194227Y125932D01*
Y127244D01*
X195538D01*
X192915Y125276D02*
Y129212D01*
X190291Y125276D01*
Y129212D01*
X188979D02*
Y125276D01*
X187011D01*
X186355Y125932D01*
Y128556D01*
X187011Y129212D01*
X188979D01*
X194227Y148556D02*
X194883Y149212D01*
X196194D01*
X196850Y148556D01*
Y147900D01*
X196194Y147244D01*
X194883D01*
X194227Y146588D01*
Y145932D01*
X194883Y145276D01*
X196194D01*
X196850Y145932D01*
X192915Y149212D02*
Y145276D01*
X191603Y146588D01*
X190291Y145276D01*
Y149212D01*
X188979D02*
X186355D01*
Y148556D01*
X188979Y145932D01*
Y145276D01*
X196850Y115276D02*
X195538D01*
X196194D01*
Y119212D01*
X196850Y118556D01*
X193571Y119212D02*
Y116588D01*
X192259Y115276D01*
X190947Y116588D01*
Y119212D01*
X189635Y118556D02*
X188979Y119212D01*
X187667D01*
X187011Y118556D01*
Y117900D01*
X187667Y117244D01*
X187011Y116588D01*
Y115932D01*
X187667Y115276D01*
X188979D01*
X189635Y115932D01*
Y116588D01*
X188979Y117244D01*
X189635Y117900D01*
Y118556D01*
X188979Y117244D02*
X187667D01*
X194227Y108556D02*
X194883Y109212D01*
X196194D01*
X196850Y108556D01*
Y105932D01*
X196194Y105276D01*
X194883D01*
X194227Y105932D01*
Y107244D01*
X195538D01*
X192915Y105276D02*
Y109212D01*
X190291Y105276D01*
Y109212D01*
X188979D02*
Y105276D01*
X187011D01*
X186355Y105932D01*
Y108556D01*
X187011Y109212D01*
X188979D01*
X194227Y168556D02*
X194883Y169212D01*
X196194D01*
X196850Y168556D01*
Y167900D01*
X196194Y167244D01*
X194883D01*
X194227Y166588D01*
Y165932D01*
X194883Y165276D01*
X196194D01*
X196850Y165932D01*
X192915Y169212D02*
Y165276D01*
X191603Y166588D01*
X190291Y165276D01*
Y169212D01*
X186355D02*
X188979D01*
Y167244D01*
X187667Y167900D01*
X187011D01*
X186355Y167244D01*
Y165932D01*
X187011Y165276D01*
X188323D01*
X188979Y165932D01*
X196850Y99212D02*
Y96588D01*
X195538Y95276D01*
X194227Y96588D01*
Y99212D01*
X192915D02*
X191603D01*
X192259D01*
Y95276D01*
X192915D01*
X191603D01*
X189635D02*
Y99212D01*
X187011Y95276D01*
Y99212D01*
X217981Y84227D02*
X216669D01*
X217325D01*
Y88162D01*
X217981Y87506D01*
X212733Y84227D02*
Y88162D01*
X214701Y86194D01*
X212077D01*
X247638Y84227D02*
X246326D01*
X246982D01*
Y88162D01*
X247638Y87506D01*
X250787Y226024D02*
X249476D01*
X250131D01*
Y229959D01*
X250787Y229303D01*
X247508D02*
X246852Y229959D01*
X245540D01*
X244884Y229303D01*
Y228647D01*
X245540Y227992D01*
X246196D01*
X245540D01*
X244884Y227336D01*
Y226680D01*
X245540Y226024D01*
X246852D01*
X247508Y226680D01*
X215309Y226024D02*
X217933D01*
X215309Y228647D01*
Y229303D01*
X215965Y229959D01*
X217277D01*
X217933Y229303D01*
X211373Y229959D02*
X212685Y229303D01*
X213997Y227992D01*
Y226680D01*
X213341Y226024D01*
X212030D01*
X211373Y226680D01*
Y227336D01*
X212030Y227992D01*
X213997D01*
D15*
X452756Y240158D02*
Y246156D01*
X449757D01*
X448757Y245156D01*
Y243157D01*
X449757Y242157D01*
X452756D01*
X450757D02*
X448757Y240158D01*
X446758Y244156D02*
Y241157D01*
X445758Y240158D01*
X442759D01*
Y244156D01*
X440760Y240158D02*
Y244156D01*
X437761D01*
X436761Y243157D01*
Y240158D01*
X434762D02*
Y244156D01*
X431763D01*
X430763Y243157D01*
Y240158D01*
X428764D02*
X426764D01*
X427764D01*
Y244156D01*
X428764D01*
X423765Y240158D02*
Y244156D01*
X420766D01*
X419767Y243157D01*
Y240158D01*
X415768Y238158D02*
X414768D01*
X413768Y239158D01*
Y244156D01*
X416768D01*
X417767Y243157D01*
Y241157D01*
X416768Y240158D01*
X413768D01*
X488127Y246156D02*
X492126D01*
Y240158D01*
X488127D01*
X492126Y243157D02*
X490127D01*
X486128Y244156D02*
Y240158D01*
Y242157D01*
X485128Y243157D01*
X484129Y244156D01*
X483129D01*
X480130D02*
Y240158D01*
Y242157D01*
X479130Y243157D01*
X478130Y244156D01*
X477131D01*
X473132Y240158D02*
X471133D01*
X470133Y241157D01*
Y243157D01*
X471133Y244156D01*
X473132D01*
X474132Y243157D01*
Y241157D01*
X473132Y240158D01*
X468134Y244156D02*
Y240158D01*
Y242157D01*
X467134Y243157D01*
X466134Y244156D01*
X465135D01*
X526772Y246156D02*
Y241157D01*
X525772Y240158D01*
X523773D01*
X522773Y241157D01*
Y246156D01*
X520774Y240158D02*
X517775D01*
X516775Y241157D01*
X517775Y242157D01*
X519774D01*
X520774Y243157D01*
X519774Y244156D01*
X516775D01*
X511776Y240158D02*
X513776D01*
X514776Y241157D01*
Y243157D01*
X513776Y244156D01*
X511776D01*
X510777Y243157D01*
Y242157D01*
X514776D01*
X508778Y244156D02*
Y240158D01*
Y242157D01*
X507778Y243157D01*
X506778Y244156D01*
X505778D01*
X401575Y234345D02*
Y228346D01*
X397576D01*
X391578Y234345D02*
X395577D01*
Y228346D01*
X391578D01*
X395577Y231346D02*
X393577D01*
X389579Y234345D02*
Y228346D01*
X386580D01*
X385580Y229346D01*
Y233345D01*
X386580Y234345D01*
X389579D01*
X377583Y228346D02*
X375583D01*
X376583D01*
Y234345D01*
X377583Y233345D01*
X527165Y234345D02*
Y228346D01*
X523167D01*
X517169Y234345D02*
X521167D01*
Y228346D01*
X517169D01*
X521167Y231346D02*
X519168D01*
X515169Y234345D02*
Y228346D01*
X512170D01*
X511170Y229346D01*
Y233345D01*
X512170Y234345D01*
X515169D01*
X506172Y228346D02*
Y234345D01*
X509171Y231346D01*
X505172D01*
X452756Y234345D02*
Y228346D01*
X448757D01*
X442759Y234345D02*
X446758D01*
Y228346D01*
X442759D01*
X446758Y231346D02*
X444759D01*
X440760Y234345D02*
Y228346D01*
X437761D01*
X436761Y229346D01*
Y233345D01*
X437761Y234345D01*
X440760D01*
X424765Y228346D02*
X428764D01*
X424765Y232345D01*
Y233345D01*
X425765Y234345D01*
X427764D01*
X428764Y233345D01*
X492126Y234345D02*
Y228346D01*
X488127D01*
X482129Y234345D02*
X486128D01*
Y228346D01*
X482129D01*
X486128Y231346D02*
X484129D01*
X480130Y234345D02*
Y228346D01*
X477131D01*
X476131Y229346D01*
Y233345D01*
X477131Y234345D01*
X480130D01*
X468134Y233345D02*
X467134Y234345D01*
X465135D01*
X464135Y233345D01*
Y232345D01*
X465135Y231346D01*
X466134D01*
X465135D01*
X464135Y230346D01*
Y229346D01*
X465135Y228346D01*
X467134D01*
X468134Y229346D01*
X173954Y31589D02*
X177953D01*
Y25591D01*
X173954D01*
X177953Y28590D02*
X175953D01*
X171955Y25591D02*
Y29589D01*
X168956D01*
X167956Y28590D01*
Y25591D01*
X164957Y29589D02*
X162958D01*
X161958Y28590D01*
Y25591D01*
X164957D01*
X165957Y26590D01*
X164957Y27590D01*
X161958D01*
X159959Y31589D02*
Y25591D01*
X156959D01*
X155960Y26590D01*
Y27590D01*
Y28590D01*
X156959Y29589D01*
X159959D01*
X153961Y25591D02*
X151961D01*
X152961D01*
Y31589D01*
X153961D01*
X145963Y25591D02*
X147962D01*
X148962Y26590D01*
Y28590D01*
X147962Y29589D01*
X145963D01*
X144963Y28590D01*
Y27590D01*
X148962D01*
X132967Y30589D02*
X133967Y31589D01*
X135966D01*
X136966Y30589D01*
Y26590D01*
X135966Y25591D01*
X133967D01*
X132967Y26590D01*
X129968Y25591D02*
X127969D01*
X126969Y26590D01*
Y28590D01*
X127969Y29589D01*
X129968D01*
X130968Y28590D01*
Y26590D01*
X129968Y25591D01*
X124970D02*
Y29589D01*
X121971D01*
X120971Y28590D01*
Y25591D01*
X117972Y30589D02*
Y29589D01*
X118972D01*
X116972D01*
X117972D01*
Y26590D01*
X116972Y25591D01*
X113973Y29589D02*
Y25591D01*
Y27590D01*
X112974Y28590D01*
X111974Y29589D01*
X110974D01*
X106976Y25591D02*
X104976D01*
X103977Y26590D01*
Y28590D01*
X104976Y29589D01*
X106976D01*
X107975Y28590D01*
Y26590D01*
X106976Y25591D01*
X101977D02*
X99978D01*
X100978D01*
Y31589D01*
X101977D01*
X234584Y30589D02*
X235584Y31589D01*
X237583D01*
X238583Y30589D01*
Y29589D01*
X237583Y28590D01*
X235584D01*
X234584Y27590D01*
Y26590D01*
X235584Y25591D01*
X237583D01*
X238583Y26590D01*
X232585Y31589D02*
X228586D01*
X230585D01*
Y25591D01*
X223587Y31589D02*
X225587D01*
X226587Y30589D01*
Y26590D01*
X225587Y25591D01*
X223587D01*
X222588Y26590D01*
Y30589D01*
X223587Y31589D01*
X220588Y25591D02*
Y31589D01*
X217589D01*
X216590Y30589D01*
Y28590D01*
X217589Y27590D01*
X220588D01*
X79860Y33557D02*
X83858D01*
Y27559D01*
X79860D01*
X83858Y30558D02*
X81859D01*
X77860Y27559D02*
Y31558D01*
X74861D01*
X73861Y30558D01*
Y27559D01*
X70863Y31558D02*
X68863D01*
X67863Y30558D01*
Y27559D01*
X70863D01*
X71862Y28559D01*
X70863Y29558D01*
X67863D01*
X65864Y33557D02*
Y27559D01*
X62865D01*
X61865Y28559D01*
Y29558D01*
Y30558D01*
X62865Y31558D01*
X65864D01*
X59866Y27559D02*
X57867D01*
X58866D01*
Y33557D01*
X59866D01*
X51869Y27559D02*
X53868D01*
X54868Y28559D01*
Y30558D01*
X53868Y31558D01*
X51869D01*
X50869Y30558D01*
Y29558D01*
X54868D01*
X38873Y32557D02*
X39873Y33557D01*
X41872D01*
X42871Y32557D01*
Y31558D01*
X41872Y30558D01*
X39873D01*
X38873Y29558D01*
Y28559D01*
X39873Y27559D01*
X41872D01*
X42871Y28559D01*
X36873Y31558D02*
Y28559D01*
X35874Y27559D01*
X32875D01*
Y26559D01*
X33874Y25560D01*
X34874D01*
X32875Y27559D02*
Y31558D01*
X30875Y27559D02*
X27876D01*
X26877Y28559D01*
X27876Y29558D01*
X29876D01*
X30875Y30558D01*
X29876Y31558D01*
X26877D01*
X23878Y32557D02*
Y31558D01*
X24877D01*
X22878D01*
X23878D01*
Y28559D01*
X22878Y27559D01*
X16880D02*
X18879D01*
X19879Y28559D01*
Y30558D01*
X18879Y31558D01*
X16880D01*
X15880Y30558D01*
Y29558D01*
X19879D01*
X13881Y27559D02*
Y31558D01*
X12881D01*
X11882Y30558D01*
Y27559D01*
Y30558D01*
X10882Y31558D01*
X9882Y30558D01*
Y27559D01*
X231828Y44762D02*
X232828Y45762D01*
X234827D01*
X235827Y44762D01*
Y43762D01*
X234827Y42763D01*
X232828D01*
X231828Y41763D01*
Y40764D01*
X232828Y39764D01*
X234827D01*
X235827Y40764D01*
X229829Y45762D02*
Y39764D01*
X227829Y41763D01*
X225830Y39764D01*
Y45762D01*
X223831Y44762D02*
X222831Y45762D01*
X220832D01*
X219832Y44762D01*
Y43762D01*
X220832Y42763D01*
X221831D01*
X220832D01*
X219832Y41763D01*
Y40764D01*
X220832Y39764D01*
X222831D01*
X223831Y40764D01*
X142852Y44762D02*
X143851Y45762D01*
X145851D01*
X146850Y44762D01*
Y43762D01*
X145851Y42763D01*
X143851D01*
X142852Y41763D01*
Y40764D01*
X143851Y39764D01*
X145851D01*
X146850Y40764D01*
X140852Y45762D02*
Y39764D01*
X138853Y41763D01*
X136854Y39764D01*
Y45762D01*
X130856Y39764D02*
X134854D01*
X130856Y43762D01*
Y44762D01*
X131855Y45762D01*
X133855D01*
X134854Y44762D01*
X49151D02*
X50151Y45762D01*
X52150D01*
X53150Y44762D01*
Y43762D01*
X52150Y42763D01*
X50151D01*
X49151Y41763D01*
Y40764D01*
X50151Y39764D01*
X52150D01*
X53150Y40764D01*
X47151Y45762D02*
Y39764D01*
X45152Y41763D01*
X43153Y39764D01*
Y45762D01*
X41153Y39764D02*
X39154D01*
X40154D01*
Y45762D01*
X41153Y44762D01*
X401575Y240158D02*
Y246156D01*
X398576D01*
X397576Y245156D01*
Y243157D01*
X398576Y242157D01*
X401575D01*
X399575D02*
X397576Y240158D01*
X392578D02*
X394577D01*
X395577Y241157D01*
Y243157D01*
X394577Y244156D01*
X392578D01*
X391578Y243157D01*
Y242157D01*
X395577D01*
X388579Y244156D02*
X386580D01*
X385580Y243157D01*
Y240158D01*
X388579D01*
X389579Y241157D01*
X388579Y242157D01*
X385580D01*
X379582Y246156D02*
Y240158D01*
X382581D01*
X383581Y241157D01*
Y243157D01*
X382581Y244156D01*
X379582D01*
X377583D02*
Y241157D01*
X376583Y240158D01*
X373584D01*
Y239158D01*
X374584Y238158D01*
X375583D01*
X373584Y240158D02*
Y244156D01*
X194944Y88432D02*
X190945Y82434D01*
Y88432D02*
X194944Y82434D01*
X188945D02*
X186946D01*
X187946D01*
Y88432D01*
X188945Y87432D01*
X238976Y235919D02*
X234978Y229921D01*
Y235919D02*
X238976Y229921D01*
X232978D02*
X230979D01*
X231979D01*
Y235919D01*
X232978Y234920D01*
X227980D02*
X226980Y235919D01*
X224981D01*
X223981Y234920D01*
Y233920D01*
X224981Y232920D01*
X223981Y231921D01*
Y230921D01*
X224981Y229921D01*
X226980D01*
X227980Y230921D01*
Y231921D01*
X226980Y232920D01*
X227980Y233920D01*
Y234920D01*
X226980Y232920D02*
X224981D01*
D28*
X196929Y198740D02*
Y195197D01*
X194568D01*
X191025Y198740D02*
X193387D01*
Y195197D01*
X191025D01*
X193387Y196969D02*
X192206D01*
X189845Y198740D02*
Y195197D01*
X188074D01*
X187483Y195788D01*
Y198149D01*
X188074Y198740D01*
X189845D01*
X186303Y198149D02*
X185712Y198740D01*
X184532D01*
X183941Y198149D01*
Y197559D01*
X184532Y196969D01*
X185122D01*
X184532D01*
X183941Y196378D01*
Y195788D01*
X184532Y195197D01*
X185712D01*
X186303Y195788D01*
X196929Y188740D02*
Y185197D01*
X194568D01*
X191025Y188740D02*
X193387D01*
Y185197D01*
X191025D01*
X193387Y186969D02*
X192206D01*
X189845Y188740D02*
Y185197D01*
X188074D01*
X187483Y185788D01*
Y188149D01*
X188074Y188740D01*
X189845D01*
X184532Y185197D02*
Y188740D01*
X186303Y186969D01*
X183941D01*
X196929Y218740D02*
Y215197D01*
X194568D01*
X191025Y218740D02*
X193387D01*
Y215197D01*
X191025D01*
X193387Y216969D02*
X192206D01*
X189845Y218740D02*
Y215197D01*
X188074D01*
X187483Y215788D01*
Y218149D01*
X188074Y218740D01*
X189845D01*
X186303Y215197D02*
X185122D01*
X185712D01*
Y218740D01*
X186303Y218149D01*
X196929Y208740D02*
Y205198D01*
X194568D01*
X191025Y208740D02*
X193387D01*
Y205198D01*
X191025D01*
X193387Y206969D02*
X192206D01*
X189845Y208740D02*
Y205198D01*
X188074D01*
X187483Y205788D01*
Y208149D01*
X188074Y208740D01*
X189845D01*
X183941Y205198D02*
X186303D01*
X183941Y207559D01*
Y208149D01*
X184532Y208740D01*
X185712D01*
X186303Y208149D01*
M02*
