G04*
G04 #@! TF.GenerationSoftware,Altium Limited,Altium Designer,22.10.1 (41)*
G04*
G04 Layer_Color=16711935*
%FSLAX25Y25*%
%MOIN*%
G70*
G04*
G04 #@! TF.SameCoordinates,BD0F175D-CEFC-4C96-A7A4-5F040625B05C*
G04*
G04*
G04 #@! TF.FilePolarity,Positive*
G04*
G01*
G75*
%ADD15C,0.01000*%
%ADD29C,0.00600*%
D15*
Y19685D02*
X25Y18688D01*
X101Y17694D01*
X227Y16704D01*
X403Y15722D01*
X628Y14751D01*
X903Y13792D01*
X1225Y12848D01*
X1595Y11922D01*
X2012Y11016D01*
X2473Y10132D01*
X2979Y9272D01*
X3528Y8440D01*
X4119Y7636D01*
X4749Y6863D01*
X5418Y6123D01*
X6123Y5418D01*
X6863Y4749D01*
X7636Y4119D01*
X8440Y3528D01*
X9272Y2979D01*
X10132Y2473D01*
X11016Y2012D01*
X11922Y1595D01*
X12848Y1225D01*
X13792Y903D01*
X14751Y628D01*
X15722Y403D01*
X16704Y227D01*
X17694Y101D01*
X18688Y25D01*
X19685Y0D01*
Y86614D02*
X18688Y86589D01*
X17694Y86513D01*
X16704Y86387D01*
X15722Y86211D01*
X14751Y85986D01*
X13792Y85711D01*
X12848Y85389D01*
X11922Y85019D01*
X11016Y84602D01*
X10132Y84141D01*
X9272Y83635D01*
X8440Y83086D01*
X7636Y82496D01*
X6863Y81865D01*
X6123Y81197D01*
X5418Y80492D01*
X4749Y79751D01*
X4119Y78979D01*
X3528Y78175D01*
X2979Y77342D01*
X2473Y76482D01*
X2012Y75598D01*
X1595Y74692D01*
X1225Y73766D01*
X903Y72822D01*
X628Y71863D01*
X403Y70892D01*
X227Y69910D01*
X101Y68921D01*
X25Y67926D01*
X0Y66929D01*
X163386Y86614D02*
X164383Y86639D01*
X165377Y86715D01*
X166367Y86841D01*
X167348Y87017D01*
X168320Y87243D01*
X169279Y87517D01*
X170223Y87840D01*
X171149Y88209D01*
X172055Y88626D01*
X172939Y89088D01*
X173799Y89594D01*
X174631Y90143D01*
X175435Y90733D01*
X176208Y91363D01*
X176948Y92032D01*
X177653Y92737D01*
X178322Y93477D01*
X178952Y94250D01*
X179543Y95054D01*
X180091Y95886D01*
X180597Y96746D01*
X181059Y97630D01*
X181476Y98536D01*
X181845Y99462D01*
X182168Y100406D01*
X182442Y101365D01*
X182668Y102337D01*
X182844Y103318D01*
X182970Y104308D01*
X183046Y105302D01*
X183071Y106299D01*
X255906Y0D02*
X256903Y25D01*
X257897Y101D01*
X258886Y227D01*
X259868Y403D01*
X260840Y628D01*
X261799Y903D01*
X262742Y1225D01*
X263668Y1595D01*
X264575Y2012D01*
X265459Y2473D01*
X266318Y2979D01*
X267151Y3528D01*
X267955Y4119D01*
X268728Y4749D01*
X269468Y5418D01*
X270173Y6123D01*
X270842Y6863D01*
X271472Y7636D01*
X272062Y8440D01*
X272611Y9272D01*
X273117Y10132D01*
X273579Y11016D01*
X273995Y11922D01*
X274365Y12848D01*
X274688Y13792D01*
X274962Y14751D01*
X275188Y15722D01*
X275363Y16704D01*
X275490Y17694D01*
X275565Y18688D01*
X275590Y19685D01*
X295276Y168898D02*
X294279Y168872D01*
X293284Y168797D01*
X292295Y168671D01*
X291313Y168495D01*
X290341Y168269D01*
X289383Y167995D01*
X288439Y167672D01*
X287513Y167302D01*
X286606Y166886D01*
X285722Y166424D01*
X284863Y165918D01*
X284030Y165369D01*
X283226Y164779D01*
X282453Y164149D01*
X281713Y163480D01*
X281008Y162775D01*
X280339Y162035D01*
X279709Y161262D01*
X279119Y160458D01*
X278570Y159625D01*
X278064Y158766D01*
X277602Y157882D01*
X277186Y156975D01*
X276816Y156049D01*
X276493Y155105D01*
X276219Y154147D01*
X275993Y153175D01*
X275817Y152193D01*
X275692Y151204D01*
X275616Y150210D01*
X275590Y149213D01*
X532677Y168898D02*
X533674Y168923D01*
X534669Y168999D01*
X535658Y169125D01*
X536640Y169301D01*
X537611Y169526D01*
X538570Y169800D01*
X539514Y170123D01*
X540440Y170493D01*
X541346Y170909D01*
X542230Y171371D01*
X543090Y171877D01*
X543923Y172426D01*
X544727Y173016D01*
X545500Y173646D01*
X546240Y174315D01*
X546945Y175020D01*
X547613Y175760D01*
X548244Y176533D01*
X548834Y177337D01*
X549383Y178170D01*
X549889Y179030D01*
X550351Y179913D01*
X550767Y180820D01*
X551137Y181746D01*
X551460Y182690D01*
X551734Y183649D01*
X551959Y184620D01*
X552135Y185602D01*
X552261Y186591D01*
X552337Y187586D01*
X552362Y188583D01*
Y233858D02*
X552337Y234855D01*
X552261Y235850D01*
X552135Y236839D01*
X551959Y237821D01*
X551734Y238792D01*
X551459Y239751D01*
X551137Y240695D01*
X550767Y241621D01*
X550351Y242527D01*
X549889Y243411D01*
X549383Y244271D01*
X548834Y245104D01*
X548244Y245908D01*
X547613Y246681D01*
X546945Y247421D01*
X546240Y248126D01*
X545500Y248795D01*
X544727Y249425D01*
X543923Y250015D01*
X543090Y250564D01*
X542230Y251070D01*
X541346Y251532D01*
X540440Y251948D01*
X539514Y252318D01*
X538570Y252641D01*
X537611Y252915D01*
X536640Y253140D01*
X535658Y253316D01*
X534669Y253442D01*
X533674Y253518D01*
X532677Y253543D01*
X202756D02*
X201759Y253518D01*
X200764Y253442D01*
X199775Y253316D01*
X198793Y253140D01*
X197822Y252915D01*
X196863Y252641D01*
X195919Y252318D01*
X194993Y251948D01*
X194087Y251532D01*
X193203Y251070D01*
X192343Y250564D01*
X191510Y250015D01*
X190707Y249425D01*
X189934Y248794D01*
X189194Y248126D01*
X188488Y247421D01*
X187820Y246680D01*
X187189Y245908D01*
X186599Y245104D01*
X186050Y244271D01*
X185544Y243411D01*
X185083Y242527D01*
X184666Y241621D01*
X184296Y240695D01*
X183974Y239751D01*
X183699Y238792D01*
X183474Y237821D01*
X183298Y236839D01*
X183172Y235850D01*
X183096Y234855D01*
X183071Y233858D01*
X0Y19685D02*
Y66929D01*
X183071Y106299D02*
Y233858D01*
X275590Y19685D02*
Y149213D01*
X552362Y188583D02*
Y233858D01*
X202756Y253543D02*
X532677D01*
X19291Y86614D02*
X163386Y86614D01*
X295276Y168898D02*
X532677Y168898D01*
X19685Y0D02*
X255906Y0D01*
X647213Y6000D02*
X649213Y0D01*
X651213Y6000D01*
X649213Y253543D02*
X651213Y247543D01*
X647213D02*
X649213Y253543D01*
Y0D02*
Y109576D01*
Y140767D02*
Y253543D01*
X257405Y0D02*
X650213D01*
X534177Y253543D02*
X650213D01*
X607087Y253543D02*
X609087Y247543D01*
X605087D02*
X607087Y253543D01*
X605087Y174898D02*
X607087Y168898D01*
X609087Y174898D01*
X607087Y224716D02*
Y253543D01*
Y168898D02*
Y194525D01*
X534177Y253543D02*
X608087D01*
X534177Y168898D02*
X608087D01*
X603905Y6000D02*
X605905Y0D01*
X607905Y6000D01*
X605905Y86614D02*
X607905Y80614D01*
X603905D02*
X605905Y86614D01*
Y0D02*
Y26112D01*
Y57303D02*
Y86614D01*
X21185Y0D02*
X606906D01*
X20791Y86614D02*
X606906D01*
X183071Y288976D02*
X189071Y290976D01*
X183071Y288976D02*
X189071Y286976D01*
X269590D02*
X275590Y288976D01*
X269590Y290976D02*
X275590Y288976D01*
X183071D02*
X212135D01*
X243326D02*
X275590D01*
X183071Y235358D02*
Y289976D01*
X275590Y150713D02*
Y289976D01*
X0Y288976D02*
X6000Y290976D01*
X0Y288976D02*
X6000Y286976D01*
X177071D02*
X183071Y288976D01*
X177071Y290976D02*
X183071Y288976D01*
X0D02*
X74340D01*
X105531D02*
X183071D01*
X0Y68429D02*
Y289976D01*
X183071Y235358D02*
Y289976D01*
X0Y336614D02*
X6000Y338614D01*
X0Y336614D02*
X6000Y334614D01*
X546362D02*
X552362Y336614D01*
X546362Y338614D02*
X552362Y336614D01*
X0D02*
X256486D01*
X292676D02*
X552362D01*
X0Y21185D02*
Y337614D01*
X552362Y235358D02*
Y337614D01*
D29*
X647813Y115175D02*
X648813Y113175D01*
X650812Y111176D01*
X652812D01*
X653811Y112176D01*
Y114175D01*
X652812Y115175D01*
X651812D01*
X650812Y114175D01*
Y111176D01*
X653811Y120173D02*
X647813D01*
X650812Y117174D01*
Y121173D01*
X654811Y124172D02*
X653811Y125172D01*
X652812D01*
Y124172D01*
X653811D01*
Y125172D01*
X654811Y124172D01*
X655811Y123172D01*
X653811Y132169D02*
X647813D01*
X650812Y129170D01*
Y133169D01*
X648813Y135168D02*
X647813Y136168D01*
Y138168D01*
X648813Y139167D01*
X652812D01*
X653811Y138168D01*
Y136168D01*
X652812Y135168D01*
X648813D01*
X611685Y200124D02*
Y196125D01*
X607687Y200124D01*
X606687D01*
X605687Y199124D01*
Y197125D01*
X606687Y196125D01*
X611685Y202123D02*
Y204122D01*
Y203123D01*
X605687D01*
X606687Y202123D01*
X612685Y208121D02*
X611685Y209121D01*
X610686D01*
Y208121D01*
X611685D01*
Y209121D01*
X612685Y208121D01*
X613685Y207121D01*
X605687Y217118D02*
Y213119D01*
X608686D01*
X607687Y215119D01*
Y216118D01*
X608686Y217118D01*
X610686D01*
X611685Y216118D01*
Y214119D01*
X610686Y213119D01*
X606687Y219117D02*
X605687Y220117D01*
Y222116D01*
X606687Y223116D01*
X610686D01*
X611685Y222116D01*
Y220117D01*
X610686Y219117D01*
X606687D01*
X610504Y31710D02*
Y27712D01*
X606505Y31710D01*
X605506D01*
X604506Y30711D01*
Y28711D01*
X605506Y27712D01*
X610504Y37708D02*
Y33710D01*
X606505Y37708D01*
X605506D01*
X604506Y36709D01*
Y34709D01*
X605506Y33710D01*
X611504Y40707D02*
X610504Y41707D01*
X609505D01*
Y40707D01*
X610504D01*
Y41707D01*
X611504Y40707D01*
X612504Y39708D01*
X605506Y45706D02*
X604506Y46705D01*
Y48705D01*
X605506Y49705D01*
X609505D01*
X610504Y48705D01*
Y46705D01*
X609505Y45706D01*
X605506D01*
Y51704D02*
X604506Y52703D01*
Y54703D01*
X605506Y55703D01*
X609505D01*
X610504Y54703D01*
Y52703D01*
X609505Y51704D01*
X605506D01*
X217734Y284378D02*
X213735D01*
X217734Y288376D01*
Y289376D01*
X216734Y290376D01*
X214735D01*
X213735Y289376D01*
X219733D02*
X220733Y290376D01*
X222732D01*
X223732Y289376D01*
Y288376D01*
X222732Y287377D01*
X221733D01*
X222732D01*
X223732Y286377D01*
Y285377D01*
X222732Y284378D01*
X220733D01*
X219733Y285377D01*
X226731Y283378D02*
X227731Y284378D01*
Y285377D01*
X226731D01*
Y284378D01*
X227731D01*
X226731Y283378D01*
X225731Y282378D01*
X235728Y290376D02*
X231729D01*
Y287377D01*
X233729Y288376D01*
X234728D01*
X235728Y287377D01*
Y285377D01*
X234728Y284378D01*
X232729D01*
X231729Y285377D01*
X237727Y289376D02*
X238727Y290376D01*
X240726D01*
X241726Y289376D01*
Y285377D01*
X240726Y284378D01*
X238727D01*
X237727Y285377D01*
Y289376D01*
X78939Y284378D02*
Y290376D01*
X75940Y287377D01*
X79939D01*
X85937Y290376D02*
X83937Y289376D01*
X81938Y287377D01*
Y285377D01*
X82938Y284378D01*
X84937D01*
X85937Y285377D01*
Y286377D01*
X84937Y287377D01*
X81938D01*
X88936Y283378D02*
X89935Y284378D01*
Y285377D01*
X88936D01*
Y284378D01*
X89935D01*
X88936Y283378D01*
X87936Y282378D01*
X97933Y290376D02*
X93934D01*
Y287377D01*
X95934Y288376D01*
X96933D01*
X97933Y287377D01*
Y285377D01*
X96933Y284378D01*
X94934D01*
X93934Y285377D01*
X99932Y289376D02*
X100932Y290376D01*
X102931D01*
X103931Y289376D01*
Y285377D01*
X102931Y284378D01*
X100932D01*
X99932Y285377D01*
Y289376D01*
X258086Y332015D02*
X260086D01*
X259086D01*
Y338014D01*
X258086Y337014D01*
X266084Y332015D02*
Y338014D01*
X263085Y335015D01*
X267084D01*
X269083Y337014D02*
X270083Y338014D01*
X272082D01*
X273082Y337014D01*
Y333015D01*
X272082Y332015D01*
X270083D01*
X269083Y333015D01*
Y337014D01*
X276081Y331016D02*
X277080Y332015D01*
Y333015D01*
X276081D01*
Y332015D01*
X277080D01*
X276081Y331016D01*
X275081Y330016D01*
X281079Y337014D02*
X282079Y338014D01*
X284078D01*
X285078Y337014D01*
Y336014D01*
X284078Y335015D01*
X283078D01*
X284078D01*
X285078Y334015D01*
Y333015D01*
X284078Y332015D01*
X282079D01*
X281079Y333015D01*
X287077Y337014D02*
X288077Y338014D01*
X290076D01*
X291076Y337014D01*
Y333015D01*
X290076Y332015D01*
X288077D01*
X287077Y333015D01*
Y337014D01*
M02*
