G04*
G04 #@! TF.GenerationSoftware,Altium Limited,Altium Designer,21.1.1 (26)*
G04*
G04 Layer_Color=65535*
%FSLAX25Y25*%
%MOIN*%
G70*
G04*
G04 #@! TF.SameCoordinates,022FA635-1C18-43D6-9117-3F95ACA47FE2*
G04*
G04*
G04 #@! TF.FilePolarity,Positive*
G04*
G01*
G75*
%ADD10C,0.01000*%
%ADD11C,0.00394*%
%ADD12C,0.00013*%
%ADD13C,0.00591*%
%ADD14C,0.00787*%
G36*
X342243Y220081D02*
X342612Y219928D01*
X342928Y219685D01*
X342928Y219685D01*
X342929Y219685D01*
X343171Y219368D01*
X343324Y218999D01*
X343359Y218733D01*
X343376Y218603D01*
Y218470D01*
Y197634D01*
X343365Y197504D01*
X343365Y197504D01*
X343411Y197274D01*
X343541Y197080D01*
X343542Y197079D01*
X343736Y196949D01*
X343966Y196904D01*
X343969Y196904D01*
X344098Y196915D01*
X350006D01*
X350008Y196912D01*
Y196912D01*
X350008Y196912D01*
X350226Y196869D01*
X350413Y196744D01*
X350538Y196557D01*
X350557Y196461D01*
X350580Y196336D01*
X350581Y196331D01*
X350559Y196212D01*
X350538Y196104D01*
X350417Y195923D01*
X350313Y195851D01*
X350226Y195792D01*
X350008Y195749D01*
X350008D01*
X350006Y195747D01*
X343751D01*
Y195747D01*
X343357Y195799D01*
X342988Y195952D01*
X342671Y196195D01*
X342427Y196513D01*
X342274Y196882D01*
X342239Y197149D01*
X342222Y197279D01*
X342222Y197412D01*
Y218389D01*
X342233Y218389D01*
X342187Y218620D01*
X342056Y218816D01*
X341860Y218947D01*
X341632Y218992D01*
X341632Y218982D01*
X341632Y218982D01*
X324384D01*
X324384Y218982D01*
X324384Y218992D01*
X324156Y218947D01*
X323960Y218816D01*
X323829Y218620D01*
X323783Y218389D01*
X323783Y218389D01*
X323794Y218259D01*
Y197293D01*
X323794Y197293D01*
X323792Y197293D01*
X323794Y197279D01*
X323742Y196882D01*
X323589Y196513D01*
X323351Y196203D01*
X323251Y196123D01*
X323028Y195952D01*
X322659Y195799D01*
X322268Y195747D01*
X322267Y195747D01*
X307386D01*
Y195749D01*
X307166Y195792D01*
X307084Y195847D01*
X306979Y195917D01*
X306854Y196105D01*
X306810Y196325D01*
X306854Y196546D01*
X306909Y196628D01*
X306979Y196733D01*
X307166Y196858D01*
X307386Y196902D01*
Y196903D01*
X321918D01*
X322047Y196893D01*
X322050Y196892D01*
X322280Y196938D01*
X322475Y197068D01*
X322605Y197263D01*
X322651Y197493D01*
X322640D01*
Y218470D01*
X322640Y218603D01*
X322656Y218731D01*
X322692Y218999D01*
X322845Y219368D01*
X323088Y219685D01*
X323088Y219685D01*
X323088Y219685D01*
X323405Y219928D01*
X323773Y220081D01*
X324169Y220133D01*
X324169Y220132D01*
X341847D01*
X341847Y220133D01*
X342243Y220081D01*
D02*
G37*
G36*
X301105Y220132D02*
X317555D01*
X317557Y220121D01*
X317603Y220127D01*
X317792Y220103D01*
X317969Y220029D01*
X318121Y219913D01*
X318238Y219761D01*
X318311Y219584D01*
X318336Y219394D01*
X318311Y219204D01*
X318238Y219027D01*
X318160Y218925D01*
X318169Y218918D01*
X318168Y218917D01*
X301466Y196312D01*
X301448Y196309D01*
X301448D01*
X301328Y196152D01*
X301041Y195932D01*
X300707Y195794D01*
X300407Y195754D01*
X300407D01*
X300400Y195747D01*
X283341D01*
Y195747D01*
X282947Y195799D01*
X282577Y195952D01*
X282260Y196195D01*
X282016Y196513D01*
X281863Y196882D01*
X281828Y197149D01*
X281811Y197279D01*
X281811D01*
Y197412D01*
Y219440D01*
X281813D01*
X281857Y219660D01*
X281982Y219848D01*
X282087Y219918D01*
X282169Y219973D01*
X282261Y219991D01*
X282390Y220016D01*
Y220016D01*
X282608Y219973D01*
X282795Y219848D01*
X282920Y219660D01*
X282963Y219440D01*
X282965Y219440D01*
Y197637D01*
X282954Y197507D01*
Y197507D01*
X283000Y197277D01*
X283130Y197082D01*
X283131Y197081D01*
X283131D01*
X283325Y196952D01*
X283555Y196906D01*
X283558Y196907D01*
X283688Y196917D01*
X300408D01*
X300409Y196918D01*
X300453Y196926D01*
X300536Y196982D01*
X300536Y196982D01*
X300536Y196984D01*
X316507Y218626D01*
X316589Y218730D01*
X316630Y218828D01*
X316630Y218829D01*
X316579Y218952D01*
X316457Y219003D01*
X316456Y219002D01*
X316454Y219001D01*
X316324Y218990D01*
X301322D01*
Y219001D01*
X301091Y218955D01*
X300895Y218824D01*
X300764Y218628D01*
X300718Y218397D01*
X300729Y218386D01*
Y203374D01*
X300729Y203374D01*
X300727Y203374D01*
X300728Y203371D01*
X300684Y203151D01*
X300559Y202965D01*
X300373Y202841D01*
X300154Y202797D01*
Y202797D01*
X300027Y202822D01*
X299933Y202841D01*
X299746Y202966D01*
X299676Y203071D01*
X299621Y203153D01*
X299577Y203374D01*
X299575D01*
Y218603D01*
X299575Y218604D01*
X299627Y218999D01*
X299780Y219368D01*
X300023Y219685D01*
X300023Y219685D01*
X300024Y219685D01*
X300340Y219928D01*
X300709Y220081D01*
X301104Y220133D01*
X301105Y220132D01*
D02*
G37*
G36*
X303130Y188636D02*
X303930Y188500D01*
X304523Y188329D01*
X304534Y188334D01*
X305094Y188102D01*
X305625Y187776D01*
X306018Y187440D01*
X306112Y187347D01*
X306429Y186977D01*
X306741Y186467D01*
X306970Y185916D01*
X307000Y185789D01*
X306996Y185788D01*
X307106Y185407D01*
X307241Y184613D01*
X307286Y183809D01*
X307281Y183725D01*
X307287Y183725D01*
X307287Y183725D01*
Y175038D01*
X305908D01*
Y176477D01*
Y176601D01*
X305908Y176749D01*
X305906Y176754D01*
X305888Y176763D01*
X305774Y176660D01*
X305682Y176577D01*
X305632Y176531D01*
X304892Y175983D01*
X304496Y175745D01*
X304496D01*
X304382Y175675D01*
X303865Y175389D01*
X303301Y175155D01*
X303175Y175110D01*
X303052Y175068D01*
X302664Y174936D01*
X302021Y174808D01*
X301888Y174794D01*
X301543Y174743D01*
X300725Y174702D01*
X300591Y174700D01*
X300459Y174703D01*
X299901Y174740D01*
X299261Y174867D01*
X298953Y174972D01*
X298826Y175015D01*
X298427Y175180D01*
X297904Y175501D01*
X297643Y175724D01*
X297643Y175723D01*
X297481Y175862D01*
X297123Y176281D01*
X296835Y176751D01*
X296772Y176904D01*
X296772D01*
X296721Y177026D01*
X296619Y177272D01*
X296487Y177821D01*
X296449Y178299D01*
X296449Y178433D01*
X296449D01*
X296445Y178476D01*
X296443Y178566D01*
X296490Y179164D01*
X296636Y179774D01*
X296877Y180354D01*
X297205Y180890D01*
X297613Y181367D01*
X298090Y181775D01*
X298410Y181971D01*
X298518Y182044D01*
X298637Y182123D01*
X299149Y182376D01*
X299273Y182428D01*
X299635Y182578D01*
X299763Y182618D01*
X300083Y182732D01*
X300292Y182785D01*
Y182785D01*
X300292Y182785D01*
X300731Y182895D01*
X300862Y182922D01*
Y182922D01*
X301292Y183018D01*
X301470Y183041D01*
X301471Y183042D01*
X301986Y183110D01*
X302119Y183125D01*
X302251Y183141D01*
X302672Y183191D01*
X302673Y183191D01*
X302806Y183197D01*
X302939Y183205D01*
X303400Y183222D01*
X303533Y183227D01*
X303667Y183231D01*
X304290Y183251D01*
X304300Y183251D01*
Y183252D01*
X305892Y183252D01*
X305892D01*
X305892Y183252D01*
X305897Y183254D01*
X305897Y183255D01*
X305907Y183259D01*
X305910Y183333D01*
Y183333D01*
X305908Y183379D01*
X305866Y184339D01*
X305813Y184742D01*
X305798Y184875D01*
X305790Y184974D01*
X305783Y185008D01*
X305684Y185417D01*
X305510Y185837D01*
X305312Y186160D01*
X305230Y186260D01*
X305070Y186454D01*
X304692Y186765D01*
X304317Y186965D01*
X304261Y186995D01*
X304193Y187016D01*
X304193Y187015D01*
X304191Y187011D01*
X303777Y187151D01*
X303082Y187290D01*
X302375Y187336D01*
X302295Y187331D01*
X302161Y187332D01*
X302144Y187333D01*
X302029Y187327D01*
X301444Y187298D01*
X301311Y187290D01*
X301113Y187279D01*
Y187279D01*
X301084Y187275D01*
X300983Y187258D01*
X300807Y187228D01*
X300802Y187232D01*
X300634Y187199D01*
X300512Y187175D01*
X300511Y187175D01*
X300510Y187174D01*
X300386Y187150D01*
X300234Y187119D01*
X300227Y187109D01*
X300104Y187080D01*
X300001Y187055D01*
X299977Y187045D01*
X299978Y187043D01*
X299744Y186947D01*
Y186947D01*
X299523Y186855D01*
X299526Y186848D01*
X299325Y186741D01*
Y186741D01*
X299245Y186697D01*
X299214Y186671D01*
X298884Y186400D01*
X298587Y186039D01*
X298366Y185626D01*
X298231Y185179D01*
X298210Y184967D01*
X296961D01*
X296888Y185045D01*
X296873Y185101D01*
X296962Y185547D01*
X296988Y185674D01*
X297021Y185803D01*
X297088Y186001D01*
X297081Y186014D01*
X297153Y186186D01*
X297204Y186309D01*
X297204D01*
X297303Y186550D01*
X297589Y187016D01*
X297926Y187411D01*
X298240Y187679D01*
X298343Y187761D01*
X298451Y187829D01*
X298783Y188032D01*
X298906Y188084D01*
X299097Y188178D01*
X299206Y188219D01*
X299222Y188225D01*
X299347Y188268D01*
X299565Y188342D01*
X299565Y188342D01*
X299777Y188414D01*
X299932Y188445D01*
X300062Y188478D01*
X300326Y188523D01*
Y188523D01*
X300326Y188523D01*
X300611Y188572D01*
X300743Y188589D01*
X301003Y188627D01*
X301186Y188636D01*
X301187Y188637D01*
X301521Y188654D01*
X301654Y188660D01*
X302014Y188675D01*
X302148Y188672D01*
X302319Y188681D01*
X303130Y188636D01*
D02*
G37*
G36*
X294447Y188656D02*
X294460Y187393D01*
X294361Y187303D01*
X294186Y187320D01*
X294068Y187332D01*
X294053Y187330D01*
X293923Y187321D01*
X293679D01*
X293548Y187329D01*
X293544Y187329D01*
X293419Y187319D01*
X293098Y187294D01*
X292663Y187189D01*
X292399Y187080D01*
X292397Y187085D01*
X291898Y186838D01*
X291445Y186536D01*
X291357Y186477D01*
X291336Y186459D01*
X291244Y186388D01*
X290692Y185895D01*
X290495Y185675D01*
X290407Y185576D01*
X290406Y185576D01*
X290406Y185575D01*
X290317Y185475D01*
X290147Y185285D01*
X289724Y184688D01*
X289707Y184665D01*
X289656Y184573D01*
X289661Y184571D01*
X289660Y184567D01*
Y175038D01*
X288280D01*
Y188338D01*
X289660D01*
Y186800D01*
X289660Y186676D01*
Y186516D01*
X289659Y186514D01*
X289660Y186511D01*
Y186508D01*
X289662Y186503D01*
X289667Y186500D01*
X289667Y186500D01*
X289679Y186497D01*
X289794Y186625D01*
X289876Y186717D01*
X290107Y186976D01*
X290706Y187511D01*
X290845Y187610D01*
X290952Y187690D01*
X291476Y188040D01*
X291958Y188278D01*
X291958Y188278D01*
X292385Y188455D01*
X292996Y188602D01*
X293001Y188598D01*
X293153Y188628D01*
X293917Y188678D01*
X293917D01*
X293919Y188681D01*
X294175D01*
X294447Y188656D01*
D02*
G37*
G36*
X362577Y188634D02*
X363181Y188488D01*
X363755Y188251D01*
X363934Y188141D01*
X364048Y188072D01*
X364160Y188000D01*
X364531Y187683D01*
X364876Y187279D01*
X365153Y186827D01*
X365340Y186376D01*
X365345Y186365D01*
X365357Y186333D01*
X365379Y186244D01*
X365409Y186238D01*
X365556Y186458D01*
X366091Y187068D01*
X366504Y187430D01*
X366503Y187431D01*
X366645Y187555D01*
X367264Y187969D01*
X367680Y188174D01*
X367680Y188175D01*
X367857Y188263D01*
X368502Y188482D01*
X368880Y188557D01*
X368881Y188558D01*
X369350Y188638D01*
X369922Y188670D01*
X370053Y188677D01*
Y188677D01*
X370056Y188677D01*
X370186Y188676D01*
X370789Y188628D01*
X371268Y188514D01*
X371392Y188484D01*
X371513Y188435D01*
X371830Y188304D01*
X371945Y188236D01*
X371945D01*
X372235Y188059D01*
X372595Y187751D01*
X372903Y187390D01*
X373108Y187056D01*
X373166Y186935D01*
X373316Y186632D01*
X373425Y186309D01*
X373425Y186309D01*
X373425Y186309D01*
X373525Y186016D01*
X373585Y185715D01*
X373611Y185585D01*
X373634Y185453D01*
X373711Y185002D01*
X373724Y184764D01*
X373734Y184631D01*
X373771Y183874D01*
X373770Y183845D01*
X373771Y183845D01*
X373787Y175133D01*
X373693Y175038D01*
X372408D01*
Y183595D01*
X372419Y183725D01*
X372420Y183745D01*
X372414Y183857D01*
X372385Y184446D01*
X372377Y184579D01*
X372366Y184775D01*
X372342Y184904D01*
X372335Y184949D01*
X372316Y185081D01*
X372316D01*
X372259Y185367D01*
X372233Y185497D01*
X372216Y185579D01*
X372198Y185633D01*
X372166Y185752D01*
X372164Y185761D01*
X372164Y185761D01*
X372161Y185773D01*
X372119Y185875D01*
X372118Y185875D01*
X372026Y186096D01*
X372030Y186098D01*
X371924Y186296D01*
X371924D01*
X371924Y186296D01*
X371850Y186433D01*
X371814Y186478D01*
X371814Y186478D01*
X371812Y186477D01*
X371636Y186693D01*
X371473Y186826D01*
X371469Y186829D01*
X371466Y186832D01*
X371376Y186905D01*
X371369Y186911D01*
Y186911D01*
X371296Y186950D01*
X371181Y187012D01*
X371181Y187012D01*
X371179Y187013D01*
X371179D01*
X371015Y187100D01*
X370979Y187113D01*
X370880Y187142D01*
X370755Y187181D01*
X370756Y187184D01*
X370516Y187241D01*
X370516Y187241D01*
X370393Y187271D01*
X370372Y187276D01*
X370261Y187285D01*
Y187285D01*
X369988Y187307D01*
X369854Y187315D01*
X369703Y187325D01*
X369699Y187325D01*
Y187325D01*
X369572Y187313D01*
X369130Y187278D01*
X368527Y187134D01*
X367954Y186896D01*
X367535Y186639D01*
X367532Y186643D01*
X366880Y186159D01*
X366244Y185582D01*
X365667Y184945D01*
X365499Y184720D01*
X365500Y184719D01*
X365498Y184715D01*
Y175033D01*
X364118D01*
Y183592D01*
X364124Y183725D01*
X364129Y183843D01*
X364129Y183857D01*
X364086Y184721D01*
X363992Y185357D01*
X363995Y185358D01*
X363984Y185461D01*
X363976Y185489D01*
X363826Y185982D01*
X363622Y186365D01*
X363570Y186463D01*
X363554Y186481D01*
X363554Y186481D01*
X363547Y186477D01*
X363366Y186699D01*
X363086Y186928D01*
X362830Y187065D01*
X362767Y187099D01*
X362707Y187117D01*
X362584Y187166D01*
X362578Y187169D01*
X362069Y187291D01*
X361582Y187329D01*
X361547Y187332D01*
X361448Y187329D01*
Y187329D01*
X360909Y187287D01*
X360353Y187153D01*
X359825Y186934D01*
X359359Y186649D01*
X359364Y186642D01*
X358866Y186273D01*
X358158Y185631D01*
X357515Y184922D01*
X357370Y184726D01*
X357372Y184725D01*
X357370Y184720D01*
Y184720D01*
Y175038D01*
X355991D01*
Y188338D01*
X357370D01*
Y186656D01*
X357370Y186532D01*
Y186368D01*
X357372Y186363D01*
X357372Y186363D01*
X357378Y186361D01*
X357378Y186361D01*
X357378Y186361D01*
X357391Y186356D01*
X357504Y186481D01*
X357504D01*
X357587Y186573D01*
X357810Y186818D01*
X358458Y187406D01*
X358697Y187583D01*
Y187583D01*
X358699Y187597D01*
X359343Y188027D01*
X359852Y188278D01*
X359853Y188278D01*
X359853D01*
X360285Y188458D01*
X360878Y188600D01*
X360888Y188593D01*
D01*
X360888Y188593D01*
X360888Y188593D01*
X361154Y188638D01*
X361694Y188669D01*
X361828Y188672D01*
Y188672D01*
X361958Y188682D01*
X362577Y188634D01*
D02*
G37*
G36*
X332584Y188674D02*
X332718Y188675D01*
X333366Y188639D01*
X334059Y188521D01*
X334735Y188327D01*
X335058Y188193D01*
X335069Y188197D01*
X335631Y187920D01*
X336186Y187549D01*
X336688Y187109D01*
X336938Y186824D01*
X336939Y186824D01*
X337147Y186586D01*
X337600Y185909D01*
X337960Y185179D01*
X338144Y184637D01*
X338144Y184637D01*
X338144D01*
X338151Y184633D01*
X338374Y183742D01*
X338525Y182722D01*
X338576Y181692D01*
X338525Y180663D01*
X338374Y179643D01*
X338151Y178753D01*
X338142Y178748D01*
X338142D01*
X338075Y178515D01*
X337805Y177861D01*
X337462Y177242D01*
X337052Y176664D01*
X336946Y176545D01*
X336944Y176547D01*
X336700Y176269D01*
X336194Y175825D01*
X335634Y175451D01*
X335071Y175173D01*
X335062Y175177D01*
D01*
X335062D01*
X335062D01*
X334821Y175077D01*
X334100Y174870D01*
X333362Y174744D01*
X332613Y174702D01*
X331865Y174744D01*
X331126Y174870D01*
X330406Y175077D01*
X330165Y175177D01*
X330154Y175173D01*
X329585Y175453D01*
X329040Y175817D01*
X328548Y176249D01*
X328294Y176538D01*
X328292Y176537D01*
X328175Y176668D01*
X327761Y177251D01*
X327415Y177877D01*
X327142Y178538D01*
X327084Y178739D01*
X327075Y178744D01*
X326847Y179655D01*
X326696Y180673D01*
X326646Y181701D01*
X326696Y182729D01*
X326847Y183747D01*
X327075Y184658D01*
X327083Y184662D01*
Y184662D01*
X327268Y185208D01*
X327627Y185935D01*
X328077Y186609D01*
X328285Y186846D01*
X328286Y186846D01*
X328522Y187116D01*
X329026Y187557D01*
X329584Y187930D01*
X330163Y188215D01*
X330163Y188215D01*
Y188215D01*
X330164Y188218D01*
X330907Y188470D01*
X331702Y188629D01*
X332450Y188678D01*
X332584Y188674D01*
D02*
G37*
G36*
X270192Y182913D02*
X270192Y182913D01*
X270186Y182913D01*
X270193Y182728D01*
X270142Y181434D01*
X269990Y180149D01*
X269851Y179449D01*
X269852Y179448D01*
X269817Y179239D01*
X269620Y178558D01*
X269349Y177902D01*
X269006Y177282D01*
X268712Y176868D01*
X268712D01*
X268712Y176868D01*
X268713Y176863D01*
X268332Y176428D01*
X267833Y175990D01*
X267280Y175621D01*
X266684Y175327D01*
X266496Y175263D01*
X266495Y175265D01*
X266064Y175110D01*
X265140Y174879D01*
X264197Y174739D01*
X263245Y174692D01*
X262956Y174706D01*
X262955Y174704D01*
X262749Y174694D01*
X261726Y174744D01*
X260713Y174894D01*
X260060Y175058D01*
X260047Y175050D01*
X259306Y175302D01*
X258584Y175658D01*
X258173Y175933D01*
X258063Y176006D01*
X258063D01*
X257955Y176085D01*
X257534Y176454D01*
X257128Y176918D01*
X256804Y177401D01*
X256807Y177410D01*
Y177410D01*
X256807D01*
X256548Y177879D01*
X256246Y178606D01*
X256098Y179123D01*
X256098Y179124D01*
X256098D01*
X256098Y179124D01*
X255953Y179703D01*
X255813Y180650D01*
X255795Y181010D01*
X255782Y181022D01*
X255753Y181584D01*
X255761Y181593D01*
X255761D01*
X255761Y181593D01*
X255748Y182032D01*
X255745Y182166D01*
X255745D01*
X255728Y182730D01*
X255722Y182736D01*
X255721Y182916D01*
Y193836D01*
X257101D01*
Y182971D01*
X257100Y182969D01*
X257100D01*
X257100Y182969D01*
X257085Y182642D01*
X257135Y181514D01*
X257282Y180394D01*
X257487Y179470D01*
X257487Y179470D01*
X257502Y179393D01*
X257520Y179340D01*
X257705Y178796D01*
X257984Y178230D01*
X258334Y177705D01*
X258635Y177362D01*
X258629Y177354D01*
X259095Y176956D01*
X259620Y176634D01*
X260189Y176399D01*
X260348Y176361D01*
X260478Y176329D01*
X260853Y176235D01*
X261850Y176087D01*
X262856Y176038D01*
X262964Y176042D01*
X263063Y176037D01*
X263097Y176039D01*
X264098Y176088D01*
X265123Y176240D01*
X265475Y176328D01*
X265475Y176329D01*
X265475Y176330D01*
X265782Y176403D01*
X266330Y176630D01*
X266835Y176940D01*
X267225Y177273D01*
X267286Y177325D01*
X267321Y177366D01*
X267316Y177371D01*
X267316Y177371D01*
X267316Y177371D01*
X267402Y177469D01*
X267569Y177659D01*
X267927Y178195D01*
X268211Y178773D01*
X268407Y179349D01*
X268419Y179383D01*
X268438Y179478D01*
X268436Y179479D01*
X268629Y180350D01*
X268779Y181485D01*
X268829Y182629D01*
X268814Y182969D01*
Y182969D01*
X268812Y182971D01*
Y193836D01*
X270192D01*
Y182913D01*
D02*
G37*
G36*
X343320Y186656D02*
X343320Y186532D01*
Y186532D01*
X343320Y186368D01*
X343322Y186363D01*
X343327Y186361D01*
X343328Y186361D01*
X343342Y186356D01*
X343454Y186481D01*
X343536Y186573D01*
X343742Y186803D01*
X344445Y187432D01*
X344625Y187560D01*
X344626Y187566D01*
X345187Y187941D01*
X345733Y188210D01*
X345852Y188266D01*
X345977Y188310D01*
X346491Y188485D01*
X346863Y188559D01*
X346994Y188582D01*
X347323Y188638D01*
X347888Y188669D01*
X348020Y188675D01*
Y188675D01*
X348040Y188677D01*
X348153Y188675D01*
X348780Y188634D01*
X349378Y188515D01*
X349506Y188479D01*
X349634Y188446D01*
X350127Y188242D01*
Y188242D01*
X350127Y188242D01*
X350128Y188242D01*
X350569Y187972D01*
X350967Y187632D01*
X351307Y187234D01*
X351581Y186787D01*
X351727Y186435D01*
X351770Y186308D01*
X351919Y185871D01*
X351976Y185584D01*
X352003Y185453D01*
X352096Y184910D01*
X352104Y184764D01*
X352104D01*
X352115Y184631D01*
X352152Y183867D01*
X352151Y183845D01*
X352153Y183845D01*
X352153Y183845D01*
Y175038D01*
X350774D01*
Y183592D01*
X350779Y183725D01*
X350785Y183822D01*
X350783Y183858D01*
X350741Y184605D01*
X350617Y185334D01*
X350617Y185334D01*
X350478Y185793D01*
X350227Y186261D01*
X350156Y186348D01*
X350072Y186451D01*
X350072Y186451D01*
X349973Y186573D01*
X349629Y186855D01*
X349237Y187065D01*
X349227Y187067D01*
X349102Y187117D01*
X349087Y187123D01*
X348972Y187150D01*
X348426Y187282D01*
X347765Y187334D01*
X347748Y187335D01*
X347632Y187331D01*
Y187331D01*
X347028Y187283D01*
X346414Y187136D01*
X345831Y186894D01*
X345436Y186652D01*
X345431Y186659D01*
X345415Y186650D01*
X345322Y186581D01*
X344614Y186056D01*
X343875Y185386D01*
X343309Y184762D01*
X343314Y184758D01*
X343312Y184754D01*
Y175038D01*
X341932D01*
Y193836D01*
X343312D01*
X343320Y186656D01*
D02*
G37*
G36*
X324106Y192006D02*
X311461Y176628D01*
X311382Y176532D01*
Y176532D01*
X311282Y176410D01*
X311281Y176408D01*
X311280Y176406D01*
X311280Y176405D01*
X311280Y176405D01*
X311280Y176405D01*
X311281Y176403D01*
X311282Y176400D01*
X311282Y176400D01*
X311283Y176400D01*
X311283Y176400D01*
X311285Y176399D01*
X311287Y176398D01*
X311445D01*
X311569Y176398D01*
X324463D01*
Y175038D01*
X309889D01*
Y176849D01*
X322513Y192244D01*
X322591Y192340D01*
X322691Y192462D01*
X322692Y192464D01*
X322693Y192466D01*
X322693Y192466D01*
X322693Y192467D01*
X322692Y192469D01*
X322691Y192471D01*
X322691Y192471D01*
X322690Y192472D01*
X322690Y192472D01*
X322688Y192472D01*
X322686Y192473D01*
X311016D01*
Y193836D01*
X324106D01*
Y192006D01*
D02*
G37*
G36*
X276427Y175038D02*
X275047D01*
Y193836D01*
X276427D01*
Y175038D01*
D02*
G37*
G36*
X282770Y188348D02*
X282772Y188343D01*
X282777Y188341D01*
X284970D01*
Y186980D01*
X282777D01*
X282772Y186978D01*
X282770Y186973D01*
Y178716D01*
X282766Y178712D01*
X282766D01*
X282766Y178712D01*
X282757Y178576D01*
X282805Y177834D01*
X282893Y177394D01*
X282886Y177393D01*
X282982Y177074D01*
X283140Y176778D01*
X283257Y176636D01*
X283257Y176635D01*
X283257Y176635D01*
X283257Y176635D01*
X283255Y176634D01*
X283294Y176583D01*
X283349Y176541D01*
X283523Y176407D01*
X283730Y176321D01*
X283790Y176297D01*
X283857Y176288D01*
X283986Y176258D01*
X284033Y176246D01*
X284531Y176207D01*
X284619Y176200D01*
X284665Y176204D01*
X284796Y176212D01*
X284994D01*
X285051Y176212D01*
X285080Y176212D01*
X285081Y176212D01*
X285111Y176213D01*
X285111Y176213D01*
X285170Y176214D01*
X285175Y176214D01*
X285247Y176163D01*
X285299Y176097D01*
X285296Y174918D01*
X285126Y174900D01*
X285009Y174889D01*
X284891Y174879D01*
X284848Y174875D01*
X284714Y174878D01*
X284538Y174867D01*
X284538Y174867D01*
X284405Y174852D01*
X284362Y174851D01*
X284362D01*
X284303Y174850D01*
X284254Y174849D01*
X284126Y174859D01*
X283987Y174848D01*
X283442Y174891D01*
X282910Y175019D01*
X282687Y175111D01*
X282679Y175108D01*
X282400Y175257D01*
X282137Y175473D01*
X281920Y175737D01*
X281860Y175849D01*
X281860D01*
X281795Y175966D01*
X281624Y176377D01*
X281506Y176867D01*
X281489Y177085D01*
X281489Y177085D01*
X281438Y177515D01*
X281391Y178706D01*
X281396Y178829D01*
X281390Y178829D01*
X281390Y178829D01*
Y186970D01*
X281388Y186976D01*
X281383Y186978D01*
X279676D01*
Y188338D01*
X281383D01*
X281388Y188340D01*
X281390Y188345D01*
Y191829D01*
X282770D01*
Y188348D01*
D02*
G37*
%LPC*%
G36*
X297088Y186001D02*
Y186001D01*
D01*
Y186001D01*
D02*
G37*
G36*
X303777Y181903D02*
X303674Y181899D01*
X302660Y181863D01*
X302527Y181856D01*
X302436Y181852D01*
X302137Y181817D01*
X302133Y181820D01*
Y181820D01*
X301638Y181755D01*
X301638Y181754D01*
X301638Y181754D01*
X301171Y181685D01*
X301165Y181677D01*
X300866Y181626D01*
X300736Y181589D01*
X300736Y181588D01*
X300333Y181471D01*
X300333Y181472D01*
X299959Y181345D01*
X299958Y181344D01*
X299832Y181302D01*
X299737Y181255D01*
X299616Y181199D01*
X299496Y181150D01*
X299305Y181033D01*
X299305Y181032D01*
X299016Y180878D01*
X298604Y180540D01*
X298266Y180128D01*
X298015Y179658D01*
X297860Y179148D01*
X297816Y178702D01*
X297808Y178617D01*
X297813Y178569D01*
X297810Y178491D01*
X297851Y178071D01*
X297973Y177668D01*
X298172Y177296D01*
X298440Y176970D01*
X298756Y176710D01*
X298758Y176713D01*
X299127Y176487D01*
X299385Y176380D01*
Y176380D01*
X299385Y176380D01*
X299629Y176279D01*
X299865Y176223D01*
X299869Y176215D01*
X300004Y176188D01*
X300135Y176162D01*
X300135Y176162D01*
Y176162D01*
X300136Y176161D01*
X300137Y176161D01*
X300266Y176136D01*
X300411Y176107D01*
X300411Y176106D01*
X300453Y176097D01*
X300571Y176090D01*
X300703Y176079D01*
X301009Y176062D01*
Y176062D01*
X301141Y176054D01*
X301324Y176044D01*
X301328Y176044D01*
X301346Y176047D01*
X301923Y176084D01*
X302491Y176197D01*
X302705Y176270D01*
X302708Y176268D01*
X302708D01*
Y176269D01*
X302876Y176317D01*
X303538Y176591D01*
X303967Y176828D01*
X303967Y176828D01*
X304197Y176955D01*
X304879Y177439D01*
X305048Y177590D01*
X305052Y177589D01*
X305661Y178141D01*
X305906Y178411D01*
X305906Y178411D01*
X305908Y178416D01*
Y181885D01*
X305906Y181890D01*
X305900Y181892D01*
X303936D01*
X303806Y181902D01*
X303777Y181903D01*
D02*
G37*
G36*
X332576Y187331D02*
X331900Y187287D01*
X331236Y187155D01*
X330701Y186973D01*
X330702Y186968D01*
X330425Y186853D01*
X329905Y186535D01*
X329441Y186139D01*
X329340Y186020D01*
X329339Y186019D01*
X329252Y185919D01*
X329110Y185756D01*
X328762Y185236D01*
X328485Y184674D01*
X328312Y184166D01*
X328315Y184165D01*
X328156Y183531D01*
X328022Y182623D01*
X327977Y181706D01*
X328022Y180789D01*
X328156Y179882D01*
X328315Y179247D01*
X328312Y179246D01*
X328490Y178724D01*
X328776Y178143D01*
X329135Y177605D01*
X329251Y177473D01*
X329252Y177474D01*
X329253Y177474D01*
X329253Y177474D01*
X329471Y177219D01*
X329925Y176831D01*
X330435Y176518D01*
X330702Y176408D01*
X330699Y176401D01*
X331260Y176210D01*
X331882Y176087D01*
X332515Y176045D01*
X332584Y176049D01*
X332646Y176045D01*
X332717Y176050D01*
X333273Y176086D01*
X333889Y176209D01*
X334452Y176400D01*
X334449Y176408D01*
X334716Y176518D01*
X335226Y176831D01*
X335681Y177219D01*
X335898Y177474D01*
X335899Y177474D01*
X335901Y177473D01*
X336020Y177609D01*
X336386Y178157D01*
X336677Y178748D01*
X336804Y179123D01*
X336847Y179247D01*
X337020Y179939D01*
X337150Y180818D01*
X337194Y181706D01*
X337150Y182594D01*
X337020Y183473D01*
X336847Y184166D01*
X336846Y184166D01*
X336682Y184649D01*
X336400Y185222D01*
X336045Y185753D01*
X335900Y185919D01*
Y185919D01*
X335900D01*
X335812Y186019D01*
X335711Y186139D01*
X335247Y186535D01*
X334727Y186853D01*
X334449Y186968D01*
X334451Y186973D01*
X333915Y187155D01*
X333251Y187287D01*
X332576Y187331D01*
D02*
G37*
G36*
X330165Y175177D02*
X330165D01*
D01*
X330165D01*
D02*
G37*
%LPD*%
D10*
X512598Y227165D02*
G03*
X512598Y227165I-394J0D01*
G01*
X481380Y227193D02*
G03*
X481380Y227193I-394J0D01*
G01*
X450000Y227165D02*
G03*
X450000Y227165I-394J0D01*
G01*
X418110Y227559D02*
G03*
X418110Y227559I-394J0D01*
G01*
X500000Y184344D02*
Y178347D01*
X503999D01*
X509997Y184344D02*
X505998D01*
Y178347D01*
X509997D01*
X505998Y181345D02*
X507997D01*
X511996Y184344D02*
Y178347D01*
X514995D01*
X515995Y179346D01*
Y183345D01*
X514995Y184344D01*
X511996D01*
X526991Y178347D02*
Y184344D01*
X523992Y181345D01*
X527991D01*
X464567Y184344D02*
Y178347D01*
X468566D01*
X474564Y184344D02*
X470565D01*
Y178347D01*
X474564D01*
X470565Y181345D02*
X472564D01*
X476563Y184344D02*
Y178347D01*
X479562D01*
X480562Y179346D01*
Y183345D01*
X479562Y184344D01*
X476563D01*
X488559Y183345D02*
X489559Y184344D01*
X491558D01*
X492558Y183345D01*
Y182345D01*
X491558Y181345D01*
X490558D01*
X491558D01*
X492558Y180346D01*
Y179346D01*
X491558Y178347D01*
X489559D01*
X488559Y179346D01*
X429134Y184344D02*
Y178347D01*
X433133D01*
X439131Y184344D02*
X435132D01*
Y178347D01*
X439131D01*
X435132Y181345D02*
X437131D01*
X441130Y184344D02*
Y178347D01*
X444129D01*
X445129Y179346D01*
Y183345D01*
X444129Y184344D01*
X441130D01*
X457125Y178347D02*
X453126D01*
X457125Y182345D01*
Y183345D01*
X456125Y184344D01*
X454126D01*
X453126Y183345D01*
X393701Y184344D02*
Y178347D01*
X397699D01*
X403698Y184344D02*
X399699D01*
Y178347D01*
X403698D01*
X399699Y181345D02*
X401698D01*
X405697Y184344D02*
Y178347D01*
X408696D01*
X409696Y179346D01*
Y183345D01*
X408696Y184344D01*
X405697D01*
X417693Y178347D02*
X419692D01*
X418693D01*
Y184344D01*
X417693Y183345D01*
X503937Y248124D02*
Y243126D01*
X504937Y242126D01*
X506936D01*
X507936Y243126D01*
Y248124D01*
X509935Y242126D02*
X512934D01*
X513934Y243126D01*
X512934Y244125D01*
X510935D01*
X509935Y245125D01*
X510935Y246125D01*
X513934D01*
X518932Y242126D02*
X516933D01*
X515933Y243126D01*
Y245125D01*
X516933Y246125D01*
X518932D01*
X519932Y245125D01*
Y244125D01*
X515933D01*
X521931Y246125D02*
Y242126D01*
Y244125D01*
X522931Y245125D01*
X523931Y246125D01*
X524930D01*
X472503Y248124D02*
X468504D01*
Y242126D01*
X472503D01*
X468504Y245125D02*
X470503D01*
X474502Y246125D02*
Y242126D01*
Y244125D01*
X475502Y245125D01*
X476501Y246125D01*
X477501D01*
X480500D02*
Y242126D01*
Y244125D01*
X481500Y245125D01*
X482499Y246125D01*
X483499D01*
X487498Y242126D02*
X489497D01*
X490497Y243126D01*
Y245125D01*
X489497Y246125D01*
X487498D01*
X486498Y245125D01*
Y243126D01*
X487498Y242126D01*
X492496Y246125D02*
Y242126D01*
Y244125D01*
X493496Y245125D01*
X494495Y246125D01*
X495495D01*
X421260Y242126D02*
Y248124D01*
X424259D01*
X425259Y247124D01*
Y245125D01*
X424259Y244125D01*
X421260D01*
X423259D02*
X425259Y242126D01*
X427258Y246125D02*
Y243126D01*
X428258Y242126D01*
X431257D01*
Y246125D01*
X433256Y242126D02*
Y246125D01*
X436255D01*
X437255Y245125D01*
Y242126D01*
X439254D02*
Y246125D01*
X442253D01*
X443253Y245125D01*
Y242126D01*
X445252D02*
X447251D01*
X446252D01*
Y246125D01*
X445252D01*
X450250Y242126D02*
Y246125D01*
X453250D01*
X454249Y245125D01*
Y242126D01*
X458248Y240127D02*
X459247D01*
X460247Y241126D01*
Y246125D01*
X457248D01*
X456249Y245125D01*
Y243126D01*
X457248Y242126D01*
X460247D01*
X381890D02*
Y248124D01*
X384889D01*
X385889Y247124D01*
Y245125D01*
X384889Y244125D01*
X381890D01*
X383889D02*
X385889Y242126D01*
X390887D02*
X388888D01*
X387888Y243126D01*
Y245125D01*
X388888Y246125D01*
X390887D01*
X391886Y245125D01*
Y244125D01*
X387888D01*
X394886Y246125D02*
X396885D01*
X397885Y245125D01*
Y242126D01*
X394886D01*
X393886Y243126D01*
X394886Y244125D01*
X397885D01*
X403883Y248124D02*
Y242126D01*
X400884D01*
X399884Y243126D01*
Y245125D01*
X400884Y246125D01*
X403883D01*
X405882D02*
Y243126D01*
X406882Y242126D01*
X409881D01*
Y241126D01*
X408881Y240127D01*
X407881D01*
X409881Y242126D02*
Y246125D01*
X222503Y8935D02*
X221503Y9935D01*
X219504D01*
X218504Y8935D01*
Y7936D01*
X219504Y6936D01*
X221503D01*
X222503Y5936D01*
Y4937D01*
X221503Y3937D01*
X219504D01*
X218504Y4937D01*
X224502Y9935D02*
X228501D01*
X226501D01*
Y3937D01*
X233499Y9935D02*
X231500D01*
X230500Y8935D01*
Y4937D01*
X231500Y3937D01*
X233499D01*
X234499Y4937D01*
Y8935D01*
X233499Y9935D01*
X236498Y3937D02*
Y9935D01*
X239497D01*
X240497Y8935D01*
Y6936D01*
X239497Y5936D01*
X236498D01*
X105180Y9935D02*
X101181D01*
Y3937D01*
X105180D01*
X101181Y6936D02*
X103180D01*
X107179Y3937D02*
Y7936D01*
X110178D01*
X111178Y6936D01*
Y3937D01*
X114177Y7936D02*
X116176D01*
X117176Y6936D01*
Y3937D01*
X114177D01*
X113177Y4937D01*
X114177Y5936D01*
X117176D01*
X119175Y9935D02*
Y3937D01*
X122174D01*
X123174Y4937D01*
Y5936D01*
Y6936D01*
X122174Y7936D01*
X119175D01*
X125173Y3937D02*
X127173D01*
X126173D01*
Y9935D01*
X125173D01*
X133171Y3937D02*
X131171D01*
X130172Y4937D01*
Y6936D01*
X131171Y7936D01*
X133171D01*
X134170Y6936D01*
Y5936D01*
X130172D01*
X146167Y8935D02*
X145167Y9935D01*
X143167D01*
X142168Y8935D01*
Y4937D01*
X143167Y3937D01*
X145167D01*
X146167Y4937D01*
X149166Y3937D02*
X151165D01*
X152165Y4937D01*
Y6936D01*
X151165Y7936D01*
X149166D01*
X148166Y6936D01*
Y4937D01*
X149166Y3937D01*
X154164D02*
Y7936D01*
X157163D01*
X158163Y6936D01*
Y3937D01*
X161162Y8935D02*
Y7936D01*
X160162D01*
X162161D01*
X161162D01*
Y4937D01*
X162161Y3937D01*
X165160Y7936D02*
Y3937D01*
Y5936D01*
X166160Y6936D01*
X167160Y7936D01*
X168159D01*
X172158Y3937D02*
X174158D01*
X175157Y4937D01*
Y6936D01*
X174158Y7936D01*
X172158D01*
X171159Y6936D01*
Y4937D01*
X172158Y3937D01*
X177156D02*
X179156D01*
X178156D01*
Y9935D01*
X177156D01*
X17778D02*
X13780D01*
Y3937D01*
X17778D01*
X13780Y6936D02*
X15779D01*
X19778Y3937D02*
Y7936D01*
X22777D01*
X23776Y6936D01*
Y3937D01*
X26775Y7936D02*
X28775D01*
X29774Y6936D01*
Y3937D01*
X26775D01*
X25776Y4937D01*
X26775Y5936D01*
X29774D01*
X31774Y9935D02*
Y3937D01*
X34773D01*
X35772Y4937D01*
Y5936D01*
Y6936D01*
X34773Y7936D01*
X31774D01*
X37772Y3937D02*
X39771D01*
X38771D01*
Y9935D01*
X37772D01*
X45769Y3937D02*
X43770D01*
X42770Y4937D01*
Y6936D01*
X43770Y7936D01*
X45769D01*
X46769Y6936D01*
Y5936D01*
X42770D01*
X58765Y8935D02*
X57765Y9935D01*
X55766D01*
X54766Y8935D01*
Y7936D01*
X55766Y6936D01*
X57765D01*
X58765Y5936D01*
Y4937D01*
X57765Y3937D01*
X55766D01*
X54766Y4937D01*
X60764Y7936D02*
Y4937D01*
X61764Y3937D01*
X64763D01*
Y2937D01*
X63763Y1938D01*
X62764D01*
X64763Y3937D02*
Y7936D01*
X66762Y3937D02*
X69761D01*
X70761Y4937D01*
X69761Y5936D01*
X67762D01*
X66762Y6936D01*
X67762Y7936D01*
X70761D01*
X73760Y8935D02*
Y7936D01*
X72760D01*
X74760D01*
X73760D01*
Y4937D01*
X74760Y3937D01*
X80758D02*
X78759D01*
X77759Y4937D01*
Y6936D01*
X78759Y7936D01*
X80758D01*
X81757Y6936D01*
Y5936D01*
X77759D01*
X83757Y3937D02*
Y7936D01*
X84757D01*
X85756Y6936D01*
Y3937D01*
Y6936D01*
X86756Y7936D01*
X87756Y6936D01*
Y3937D01*
X247699Y82164D02*
X246700Y83163D01*
X244701D01*
X243701Y82164D01*
Y81164D01*
X244701Y80164D01*
X246700D01*
X247699Y79165D01*
Y78165D01*
X246700Y77165D01*
X244701D01*
X243701Y78165D01*
X249699Y83163D02*
Y77165D01*
X251698Y79165D01*
X253698Y77165D01*
Y83163D01*
X255697Y82164D02*
X256697Y83163D01*
X258696D01*
X259696Y82164D01*
Y81164D01*
X258696Y80164D01*
X257696D01*
X258696D01*
X259696Y79165D01*
Y78165D01*
X258696Y77165D01*
X256697D01*
X255697Y78165D01*
X161085Y81376D02*
X160086Y82376D01*
X158086D01*
X157087Y81376D01*
Y80377D01*
X158086Y79377D01*
X160086D01*
X161085Y78377D01*
Y77378D01*
X160086Y76378D01*
X158086D01*
X157087Y77378D01*
X163085Y82376D02*
Y76378D01*
X165084Y78377D01*
X167083Y76378D01*
Y82376D01*
X173081Y76378D02*
X169083D01*
X173081Y80377D01*
Y81376D01*
X172082Y82376D01*
X170082D01*
X169083Y81376D01*
X69353D02*
X68353Y82376D01*
X66354D01*
X65354Y81376D01*
Y80377D01*
X66354Y79377D01*
X68353D01*
X69353Y78377D01*
Y77378D01*
X68353Y76378D01*
X66354D01*
X65354Y77378D01*
X71352Y82376D02*
Y76378D01*
X73352Y78377D01*
X75351Y76378D01*
Y82376D01*
X77350Y76378D02*
X79350D01*
X78350D01*
Y82376D01*
X77350Y81376D01*
D11*
X260630Y43307D02*
G03*
X260630Y43307I-32283J0D01*
G01*
X170079D02*
G03*
X170079Y43307I-32283J0D01*
G01*
X79527D02*
G03*
X79527Y43307I-32283J0D01*
G01*
D12*
X298400Y181988D02*
G03*
X296434Y178433I2042J-3450D01*
G01*
X359368Y186636D02*
G03*
X357378Y184720I5681J-7897D01*
G01*
X367541Y186630D02*
G03*
X365505Y184715I4894J-7239D01*
G01*
X330705Y176414D02*
G03*
X332584Y176063I1810J4480D01*
G01*
X290835Y187623D02*
G03*
X289667Y186508I4338J-5714D01*
G01*
X262964Y176057D02*
G03*
X265473Y176336I99J10542D01*
G01*
X332584Y188688D02*
G03*
X330158Y188225I-73J-6206D01*
G01*
X334447Y186962D02*
G03*
X330705Y186962I-1871J-4807D01*
G01*
X330158Y175159D02*
G03*
X335068Y175159I2455J6225D01*
G01*
X262955Y174688D02*
G03*
X266502Y175246I290J9713D01*
G01*
X351788Y186315D02*
G03*
X350132Y188252I-3181J-1043D01*
G01*
X336953Y186837D02*
G03*
X335066Y188211I-3875J-3337D01*
G01*
X330158Y188225D02*
G03*
X328271Y186859I1987J-4733D01*
G01*
X268727Y176857D02*
G03*
X269870Y179445I-5077J3789D01*
G01*
X369699Y187308D02*
G03*
X367541Y186630I49J-3931D01*
G01*
X366492Y187444D02*
G03*
X365394Y186248I3985J-4762D01*
G01*
X361448Y187313D02*
G03*
X359368Y186636I30J-3625D01*
G01*
X350766Y183725D02*
G03*
X350602Y185331I-6970J97D01*
G01*
X347633Y187313D02*
G03*
X345441Y186644I25J-4004D01*
G01*
X344616Y187573D02*
G03*
X343327Y186368I5077J-6721D01*
G01*
X335894Y185914D02*
G03*
X334447Y186962I-2931J-2523D01*
G01*
X338161Y184642D02*
G03*
X336953Y186837I-5950J-1844D01*
G01*
X336959Y176534D02*
G03*
X338161Y178742I-4843J4067D01*
G01*
X335068Y175159D02*
G03*
X336959Y176534I-2008J4749D01*
G01*
X332584Y176063D02*
G03*
X334447Y176414I62J4787D01*
G01*
X328271Y186859D02*
G03*
X327066Y184667I4723J-4023D01*
G01*
X330705Y186962D02*
G03*
X329258Y185914I1484J-3571D01*
G01*
X327066Y178734D02*
G03*
X328279Y176526I6095J1911D01*
G01*
Y176526D02*
G03*
X330158Y175159I3811J3266D01*
G01*
X316593Y218899D02*
G03*
X316454Y218983I-137J-70D01*
G01*
X323083Y219690D02*
G03*
X322633Y218603I1086J-1086D01*
G01*
X299757Y182636D02*
G03*
X299265Y182446I2403J-6922D01*
G01*
X305044Y177599D02*
G03*
X305900Y178416I-6324J7484D01*
G01*
X301328Y176063D02*
G03*
X302705Y176277I19J4405D01*
G01*
X304506Y175728D02*
G03*
X305900Y176749I-4825J8054D01*
G01*
X297483Y186879D02*
G03*
X297185Y186317I3036J-1969D01*
G01*
X296755Y176896D02*
G03*
X297630Y175709I3210J1449D01*
G01*
X266502Y175246D02*
G03*
X268727Y176857I-1762J4774D01*
G01*
X256080Y179119D02*
G03*
X256790Y177401I6788J1804D01*
G01*
X260479Y176336D02*
G03*
X262964Y176057I2376J9967D01*
G01*
X368876Y188576D02*
G03*
X367672Y188192I972J-5120D01*
G01*
X370260Y187274D02*
G03*
X369988Y187300I-513J-4069D01*
G01*
X373183Y186944D02*
G03*
X371954Y188252I-2724J-1330D01*
G01*
X370053Y188688D02*
G03*
X368876Y188576I14J-6413D01*
G01*
X372186Y185629D02*
G03*
X372108Y185872I-3494J-984D01*
G01*
X359845Y188295D02*
G03*
X358685Y187598I2578J-5603D01*
G01*
X361828Y188688D02*
G03*
X360885Y188613I26J-6265D01*
G01*
X364058Y188089D02*
G03*
X361828Y188688I-2101J-3366D01*
G01*
X363983Y185356D02*
G03*
X363540Y186471I-2723J-437D01*
G01*
X342933Y219690D02*
G03*
X341847Y220140I-1086J-1086D01*
G01*
X342215Y218389D02*
G03*
X341632Y218974I-586J0D01*
G01*
X346991Y188602D02*
G03*
X345848Y188275I804J-4985D01*
G01*
X349511Y188494D02*
G03*
X348020Y188688I-1422J-5114D01*
G01*
X349096Y187099D02*
G03*
X347633Y187313I-1349J-4097D01*
G01*
X345441Y186644D02*
G03*
X343319Y184754I5620J-8444D01*
G01*
X335066Y188211D02*
G03*
X332584Y188688I-2401J-5799D01*
G01*
X334447Y176414D02*
G03*
X335894Y177479I-1460J3500D01*
G01*
X329258D02*
G03*
X330705Y176414I2907J2434D01*
G01*
X322268Y195740D02*
G03*
X323357Y196197I-6J1539D01*
G01*
X299560Y188359D02*
G03*
X299216Y188240I1521J-4929D01*
G01*
X302161Y187313D02*
G03*
X301445Y187290I-18J-10472D01*
G01*
X301654Y188679D02*
G03*
X301185Y188652I406J-11087D01*
G01*
X304188Y187004D02*
G03*
X302161Y187313I-1814J-5087D01*
G01*
X304529Y188345D02*
G03*
X302147Y188688I-2210J-6904D01*
G01*
X306123Y187358D02*
G03*
X304528Y188345I-2832J-2795D01*
G01*
X299530Y186841D02*
G03*
X299331Y186731I1201J-2386D01*
G01*
X305789Y184874D02*
G03*
X305304Y186153I-2861J-353D01*
G01*
X304300Y183259D02*
G03*
X303533Y183247I-10J-22573D01*
G01*
X302116Y183145D02*
G03*
X301467Y183056I1584J-13962D01*
G01*
X299620Y181189D02*
G03*
X299309Y181026I1790J-3795D01*
G01*
X301639Y181747D02*
G03*
X301174Y181670I1425J-10012D01*
G01*
X303806Y181885D02*
G03*
X302661Y181850I-29J-18137D01*
G01*
X298765Y176724D02*
G03*
X299388Y176386I1756J2500D01*
G01*
X302705Y176277D02*
G03*
X303962Y176835I-1937J6064D01*
G01*
X300591Y174688D02*
G03*
X301891Y174775I18J9536D01*
G01*
X303182Y175092D02*
G03*
X304506Y175728I-2493J6891D01*
G01*
X298946Y174953D02*
G03*
X300591Y174688I1606J4734D01*
G01*
X293548Y187313D02*
G03*
X292402Y187074I-5J-2836D01*
G01*
X292999Y188613D02*
G03*
X291951Y188295I724J-4275D01*
G01*
X291346Y186446D02*
G03*
X290411Y185571I4008J-5212D01*
G01*
X282390Y220025D02*
G03*
X281976Y219854I0J-586D01*
G01*
X281804Y197279D02*
G03*
X283341Y195740I1539J0D01*
G01*
X283859Y176297D02*
G03*
X284665Y176219I760J3647D01*
G01*
X281843Y175840D02*
G03*
X282680Y175092I1523J863D01*
G01*
X265473Y176336D02*
G03*
X267311Y177376I-858J3659D01*
G01*
X258642Y177368D02*
G03*
X260479Y176336I2759J2762D01*
G01*
X260056Y175039D02*
G03*
X262955Y174688I2693J10089D01*
G01*
X258054Y175993D02*
G03*
X260056Y175039I3606J4993D01*
G01*
X338161Y178742D02*
G03*
X338161Y184642I-10089J2950D01*
G01*
X336836Y179250D02*
G03*
X336836Y184163I-8699J2457D01*
G01*
X328324D02*
G03*
X328324Y179250I9006J-2457D01*
G01*
X327066Y184667D02*
G03*
X327066Y178734I10067J-2967D01*
G01*
X365394Y186248D02*
G03*
X364058Y188089I-3255J-958D01*
G01*
X299309Y181026D02*
G03*
X297828Y178569I1218J-2409D01*
G01*
X267311Y177376D02*
G03*
X268426Y179481I-3649J3281D01*
G01*
X257499Y179473D02*
G03*
X258642Y177368I4663J1169D01*
G01*
X255776Y181009D02*
G03*
X256080Y179119I9741J596D01*
G01*
X372377Y184445D02*
G03*
X372347Y184773I-7831J-547D01*
G01*
X373778Y183845D02*
G03*
X373741Y184765I-10813J29D01*
G01*
X373444Y186315D02*
G03*
X373183Y186944I-4170J-1357D01*
G01*
X371804Y186471D02*
G03*
X371361Y186898I-1379J-989D01*
G01*
X364111Y183725D02*
G03*
X363983Y185356I-8936J118D01*
G01*
X363540Y186471D02*
G03*
X362703Y187107I-1478J-1077D01*
G01*
X358685Y187598D02*
G03*
X357378Y186368I5427J-7082D01*
G01*
X352161Y183845D02*
G03*
X352119Y184765I-9743J23D01*
G01*
X350067Y186446D02*
G03*
X349096Y187099I-1698J-1477D01*
G01*
X343383Y218603D02*
G03*
X342933Y219690I-1536J0D01*
G01*
X336836Y184163D02*
G03*
X335894Y185914I-4665J-1382D01*
G01*
X335894Y177479D02*
G03*
X336836Y179250I-3870J3196D01*
G01*
X329258Y185914D02*
G03*
X328324Y184163I3650J-3072D01*
G01*
Y179250D02*
G03*
X329258Y177479I4736J1367D01*
G01*
X318174Y218913D02*
G03*
X318270Y219731I-572J481D01*
G01*
X305892Y183259D02*
G03*
X305789Y184874I-11532J74D01*
G01*
X307295Y183725D02*
G03*
X307016Y185794I-7188J85D01*
G01*
X307016D02*
G03*
X306123Y187358I-3666J-1054D01*
G01*
X305304Y186153D02*
G03*
X304188Y187004I-1997J-1463D01*
G01*
X301322Y218983D02*
G03*
X300908Y218811I0J-586D01*
G01*
X300018Y219690D02*
G03*
X299568Y218603I1086J-1086D01*
G01*
X299747Y186941D02*
G03*
X299530Y186841I1176J-2867D01*
G01*
X300136Y176169D02*
G03*
X300413Y176122I987J5062D01*
G01*
X297828Y178569D02*
G03*
X298765Y176724I2132J-79D01*
G01*
X296434Y178433D02*
G03*
X296755Y176896I3608J-49D01*
G01*
X292402Y187074D02*
G03*
X291346Y186446I1981J-4541D01*
G01*
X290411Y185571D02*
G03*
X289667Y184567I5033J-4511D01*
G01*
X282777Y178712D02*
G03*
X282900Y177395I5670J-135D01*
G01*
X281469Y177083D02*
G03*
X281843Y175840I3208J286D01*
G01*
X281383Y178829D02*
G03*
X281469Y177083I15187J-123D01*
G01*
X269870Y179445D02*
G03*
X270199Y182913I-16160J3283D01*
G01*
X268426Y179481D02*
G03*
X268805Y182969I-12721J3148D01*
G01*
X257108Y182969D02*
G03*
X257499Y179473I12920J-328D01*
G01*
X256790Y177401D02*
G03*
X258054Y175993I4074J2384D01*
G01*
X255715Y182730D02*
G03*
X255725Y182166I28637J209D01*
G01*
X372347Y184773D02*
G03*
X372305Y185080I-6473J-725D01*
G01*
X372252Y185365D02*
G03*
X372186Y185629I-4321J-934D01*
G01*
X373630Y185588D02*
G03*
X373444Y186315I-5741J-1082D01*
G01*
X372305Y185080D02*
G03*
X372252Y185365I-5308J-851D01*
G01*
X373741Y184765D02*
G03*
X373630Y185588I-7915J-651D01*
G01*
X372401Y183725D02*
G03*
X372377Y184445I-10268J20D01*
G01*
X371176Y187007D02*
G03*
X370973Y187099I-1006J-1948D01*
G01*
X370973D02*
G03*
X370753Y187174I-925J-2347D01*
G01*
Y187174D02*
G03*
X370515Y187232I-822J-2828D01*
G01*
D02*
G03*
X370260Y187274I-688J-3400D01*
G01*
X371954Y188252D02*
G03*
X371395Y188494I-1521J-2745D01*
G01*
X371361Y186898D02*
G03*
X371176Y187007I-1079J-1621D01*
G01*
X371395Y188494D02*
G03*
X370053Y188688I-1282J-4138D01*
G01*
X372108Y185872D02*
G03*
X372019Y186093I-2812J-1009D01*
G01*
X372019Y186093D02*
G03*
X371917Y186293I-2255J-1019D01*
G01*
D02*
G03*
X371804Y186471I-1809J-1024D01*
G01*
X369988Y187300D02*
G03*
X369699Y187308I-285J-4842D01*
G01*
X367672Y188192D02*
G03*
X366492Y187444I2437J-5152D01*
G01*
X362703Y187107D02*
G03*
X361448Y187313I-1156J-3113D01*
G01*
X360885Y188613D02*
G03*
X359845Y188295I732J-4254D01*
G01*
X352119Y184765D02*
G03*
X351995Y185588I-7168J-660D01*
G01*
X351995Y185588D02*
G03*
X351788Y186315I-5262J-1107D01*
G01*
X350008Y195740D02*
G03*
X350424Y195916I-3J586D01*
G01*
X350591Y196336D02*
G03*
X350008Y196922I-586J0D01*
G01*
X350424Y195916D02*
G03*
X350591Y196336I-419J409D01*
G01*
X350132Y188252D02*
G03*
X349511Y188494I-1649J-3312D01*
G01*
X350602Y185331D02*
G03*
X350067Y186446I-2626J-574D01*
G01*
X348020Y188688D02*
G03*
X346991Y188602I24J-6455D01*
G01*
X345848Y188275D02*
G03*
X344616Y187573I2172J-5242D01*
G01*
X343383Y197504D02*
G03*
X343555Y197091I583J-0D01*
G01*
X343555Y197091D02*
G03*
X343969Y196922I411J413D01*
G01*
X342215Y197279D02*
G03*
X343751Y195740I1539J0D01*
G01*
X324169Y220140D02*
G03*
X323083Y219690I0J-1536D01*
G01*
X324384Y218974D02*
G03*
X323801Y218389I3J-586D01*
G01*
X323357Y196197D02*
G03*
X323801Y197293I-1095J1081D01*
G01*
X322047Y196911D02*
G03*
X322461Y197080I3J583D01*
G01*
D02*
G03*
X322633Y197493I-411J413D01*
G01*
X318270Y219731D02*
G03*
X317555Y220140I-667J-337D01*
G01*
X316580Y218737D02*
G03*
X316593Y218899I-123J92D01*
G01*
X306973Y195911D02*
G03*
X307386Y195740I414J414D01*
G01*
X306973Y196739D02*
G03*
X306801Y196325I414J-414D01*
G01*
X307386Y196911D02*
G03*
X306973Y196739I0J-586D01*
G01*
X306801Y196325D02*
G03*
X306973Y195911I586J0D01*
G01*
X303962Y176835D02*
G03*
X305044Y177599I-3738J6441D01*
G01*
X302147Y188688D02*
G03*
X301654Y188679I-20J-12910D01*
G01*
X303533Y183247D02*
G03*
X302805Y183208I648J-19334D01*
G01*
X302805Y183208D02*
G03*
X302116Y183145I1174J-16472D01*
G01*
X302661Y181850D02*
G03*
X302134Y181807I893J-14199D01*
G01*
X302134Y181807D02*
G03*
X301639Y181747I1199J-11962D01*
G01*
X301891Y174775D02*
G03*
X303182Y175092I-812J6080D01*
G01*
X301105Y220140D02*
G03*
X300018Y219690I0J-1536D01*
G01*
X300908Y218811D02*
G03*
X300736Y218397I414J-414D01*
G01*
X299740Y202960D02*
G03*
X300154Y202788I414J414D01*
G01*
X299568Y203374D02*
G03*
X299740Y202960I586J0D01*
G01*
X300567Y202960D02*
G03*
X300736Y203374I-413J411D01*
G01*
X300154Y202788D02*
G03*
X300567Y202960I0J583D01*
G01*
X300408Y196925D02*
G03*
X300530Y196989I-77J297D01*
G01*
X300408Y195740D02*
G03*
X301464Y196297I-59J1393D01*
G01*
X300511Y187168D02*
G03*
X300238Y187104I1015J-4948D01*
G01*
X300238Y187104D02*
G03*
X299983Y187028I1091J-4135D01*
G01*
X299983Y187028D02*
G03*
X299747Y186940I1142J-3445D01*
G01*
X299929Y188460D02*
G03*
X299560Y188359I1395J-5819D01*
G01*
X300322Y188543D02*
G03*
X299929Y188460I1233J-6864D01*
G01*
X301445Y187290D02*
G03*
X301115Y187261I563J-8255D01*
G01*
Y187261D02*
G03*
X300804Y187220I759J-6996D01*
G01*
X301185Y188652D02*
G03*
X300741Y188607I750J-9482D01*
G01*
X300804Y187220D02*
G03*
X300511Y187168I907J-5898D01*
G01*
X300741Y188607D02*
G03*
X300322Y188543I1022J-8079D01*
G01*
X300288Y182801D02*
G03*
X299757Y182636I2288J-8284D01*
G01*
X301467Y183056D02*
G03*
X300858Y182941I1895J-11778D01*
G01*
X300858Y182941D02*
G03*
X300288Y182801I2124J-9894D01*
G01*
X300336Y181464D02*
G03*
X299963Y181335I1748J-5663D01*
G01*
D02*
G03*
X299620Y181189I1778J-4641D01*
G01*
X301174Y181670D02*
G03*
X300739Y181576I1583J-8327D01*
G01*
X300739D02*
G03*
X300336Y181464I1687J-6885D01*
G01*
X299388Y176386D02*
G03*
X299873Y176228I1439J3578D01*
G01*
X299873Y176228D02*
G03*
X300136Y176169I1138J4426D01*
G01*
X300704Y176089D02*
G03*
X301009Y176069I582J6599D01*
G01*
X301009Y176069D02*
G03*
X301328Y176063I315J7513D01*
G01*
X300413Y176122D02*
G03*
X300704Y176089I804J5783D01*
G01*
X299216Y188240D02*
G03*
X298898Y188102I1620J-4180D01*
G01*
X298336Y187771D02*
G03*
X297483Y186879I1931J-2701D01*
G01*
X298898Y188102D02*
G03*
X298336Y187771I1602J-3361D01*
G01*
X299331Y186731D02*
G03*
X298216Y184960I1239J-2017D01*
G01*
X299265Y182446D02*
G03*
X298400Y181988I2300J-5393D01*
G01*
X297630Y175709D02*
G03*
X298946Y174953I2573J2958D01*
G01*
X297069Y186007D02*
G03*
X296973Y185678I4305J-1424D01*
G01*
X297185Y186317D02*
G03*
X297069Y186007I3764J-1594D01*
G01*
X296973Y185678D02*
G03*
X296847Y184960I5270J-1299D01*
G01*
X293916Y188688D02*
G03*
X292999Y188613I50J-6234D01*
G01*
X294468Y187280D02*
G03*
X294053Y187313I-401J-2378D01*
G01*
X291951Y188295D02*
G03*
X290835Y187623I2545J-5486D01*
G01*
X285173Y176223D02*
G03*
X285206Y176225I-97J1717D01*
G01*
X285206Y176225D02*
G03*
X285272Y176231I-111J1493D01*
G01*
X285272D02*
G03*
X285306Y176236I-160J1335D01*
G01*
X284539Y174848D02*
G03*
X284715Y174858I-231J5771D01*
G01*
X282972Y219440D02*
G03*
X282390Y220025I-586J0D01*
G01*
X282972Y197507D02*
G03*
X283144Y197094I583J-0D01*
G01*
D02*
G03*
X283558Y196925I411J413D01*
G01*
X282900Y177395D02*
G03*
X283262Y176640I1662J333D01*
G01*
D02*
G03*
X283859Y176297I814J725D01*
G01*
X282680Y175092D02*
G03*
X284127Y174841I1307J3240D01*
G01*
X281976Y219854D02*
G03*
X281804Y219440I414J-414D01*
G01*
X255725Y182166D02*
G03*
X255745Y181592I32744J884D01*
G01*
X309882Y176852D02*
X322686Y192466D01*
X300530Y196989D02*
X316580Y218737D01*
X301464Y196297D02*
X318174Y218913D01*
X301322Y218983D02*
X316454D01*
X301105Y220140D02*
X317555D01*
X343751Y195740D02*
X350008D01*
X343969Y196922D02*
X350008D01*
X307386Y195740D02*
X322268D01*
X307386Y196911D02*
X322047D01*
X311009Y193843D02*
X324113D01*
X311009Y192466D02*
X322686D01*
X309882Y175031D02*
X324470D01*
X311287Y176406D02*
X324113Y192003D01*
X324169Y220140D02*
X341847D01*
X324384Y218974D02*
X341632D01*
X311287Y176406D02*
X324470D01*
X283341Y195740D02*
X300408D01*
X283558Y196925D02*
X300408D01*
X279668Y186970D02*
X281383D01*
X279668Y188345D02*
X281383D01*
X355983D02*
X357378D01*
X355983Y175031D02*
X357378D01*
X341925Y193843D02*
X343319D01*
X341925Y175031D02*
X343319D01*
X304300Y183259D02*
X305892D01*
X303806Y181885D02*
X305900D01*
X296847Y184960D02*
X298216D01*
X281383Y191836D02*
X282777D01*
X288273Y188345D02*
X289667D01*
X282777Y186973D02*
X284977D01*
X282777Y188348D02*
X284977D01*
X284303Y174842D02*
X284362Y174843D01*
X288273Y175031D02*
X289667D01*
X275040Y193843D02*
X276434D01*
X275040Y175031D02*
X276434D01*
X268805Y193843D02*
X270199D01*
X255714D02*
X257108D01*
X372401Y175031D02*
Y183725D01*
X373778Y183845D02*
X373795Y175031D01*
X364111Y175025D02*
Y183725D01*
X365505Y175025D02*
Y184715D01*
X357378Y175031D02*
Y184720D01*
X355983Y175031D02*
Y188345D01*
X350766Y175031D02*
Y183725D01*
X352161Y175031D02*
Y183845D01*
X343319Y175031D02*
Y184754D01*
X342215Y197279D02*
Y218389D01*
X343383Y197504D02*
Y218603D01*
X341925Y175031D02*
Y193843D01*
X323801Y197293D02*
Y218389D01*
X322633Y197493D02*
Y218603D01*
X307295Y175031D02*
Y183725D01*
X299568Y203374D02*
Y218603D01*
X300736Y203374D02*
Y218397D01*
X289667Y175031D02*
Y184567D01*
X288273Y175031D02*
Y188345D01*
X282777Y178712D02*
Y186973D01*
X282972Y197507D02*
Y219440D01*
X281383Y178829D02*
Y186970D01*
X281804Y197279D02*
Y219440D01*
X276434Y175031D02*
Y193843D01*
X275040Y175031D02*
Y193843D01*
X270199Y182913D02*
Y193843D01*
X268805Y182969D02*
Y193843D01*
X257108Y182969D02*
Y193843D01*
X255714Y182916D02*
Y193843D01*
X357378Y186368D02*
Y188345D01*
X343319Y193843D02*
X343327Y186368D01*
X305900Y178416D02*
Y181885D01*
X289667Y186508D02*
Y188345D01*
X324113Y192003D02*
Y193843D01*
X324470Y175031D02*
Y176406D01*
X311009Y192466D02*
Y193843D01*
X309882Y175031D02*
Y176852D01*
X305900Y175031D02*
Y176749D01*
X285303Y174911D02*
X285306Y176236D01*
X282777Y188348D02*
Y191836D01*
X281383Y188345D02*
Y191836D01*
X372401Y175031D02*
X373795D01*
X364111Y175025D02*
X365505D01*
X350766Y175031D02*
X352161D01*
X305900D02*
X307295D01*
X293548Y187313D02*
X294053D01*
X294176Y188688D02*
X294455Y188663D01*
X294468Y187280D01*
X293916Y188688D02*
X294176D01*
X284977Y186973D02*
Y188348D01*
X284665Y176219D02*
X284994D01*
X285051Y176219D01*
X285080Y176219D01*
X285111Y176220D01*
X285142Y176221D01*
X285173Y176223D01*
X285127Y174892D02*
X285303Y174911D01*
X285009Y174881D02*
X285127Y174892D01*
X284891Y174872D02*
X285009Y174881D01*
X284774Y174862D02*
X284891Y174872D01*
X284715Y174858D02*
X284774Y174862D01*
X284480Y174846D02*
X284539Y174848D01*
X284421Y174845D02*
X284480Y174846D01*
X284362Y174843D02*
X284421Y174845D01*
X284244Y174842D02*
X284303Y174842D01*
X284185Y174841D02*
X284244Y174842D01*
X284127Y174841D02*
X284185Y174841D01*
X279668Y186970D02*
Y188345D01*
X255714Y182916D02*
X255715Y182730D01*
X255745Y181592D02*
X255776Y181009D01*
D13*
X407047Y198425D02*
X414134D01*
X413346Y205118D02*
X414134D01*
Y191732D02*
Y205118D01*
X413346Y191732D02*
X414134D01*
X407047Y205118D02*
X407835D01*
X407047Y191732D02*
Y205118D01*
Y191732D02*
X407835D01*
X501535D02*
X502323D01*
X501535D02*
Y205118D01*
X502323D01*
X507835Y191732D02*
X508622D01*
Y205118D01*
X507835D02*
X508622D01*
X501535Y198425D02*
X508622D01*
X470039Y191732D02*
X470827D01*
X470039D02*
Y205118D01*
X470827D01*
X476339Y191732D02*
X477126D01*
Y205118D01*
X476339D02*
X477126D01*
X470039Y198425D02*
X477126D01*
X438543Y191732D02*
X439331D01*
X438543D02*
Y205118D01*
X439331D01*
X444842Y191732D02*
X445630D01*
Y205118D01*
X444842D02*
X445630D01*
X438543Y198425D02*
X445630D01*
D14*
X499272Y226476D02*
X509016D01*
X501142Y221555D02*
X509016D01*
X467776Y226476D02*
X477520D01*
X469646Y221555D02*
X477520D01*
X436279Y226476D02*
X446024D01*
X438150Y221555D02*
X446024D01*
X404783Y226476D02*
X414528D01*
X406653Y221555D02*
X414528D01*
X407500Y208200D02*
Y211349D01*
X409074D01*
X409599Y210824D01*
Y209774D01*
X409074Y209249D01*
X407500D01*
X408549D02*
X409599Y208200D01*
X410649D02*
X411698D01*
X411173D01*
Y211349D01*
X410649Y210824D01*
X226378Y80708D02*
Y80183D01*
X227428Y79133D01*
X228477Y80183D01*
Y80708D01*
X227428Y79133D02*
Y77559D01*
X229526Y80183D02*
X230051Y80708D01*
X231101D01*
X231626Y80183D01*
Y79658D01*
X231101Y79133D01*
X230576D01*
X231101D01*
X231626Y78609D01*
Y78084D01*
X231101Y77559D01*
X230051D01*
X229526Y78084D01*
X134646Y80708D02*
Y80183D01*
X135695Y79133D01*
X136745Y80183D01*
Y80708D01*
X135695Y79133D02*
Y77559D01*
X139893D02*
X137794D01*
X139893Y79658D01*
Y80183D01*
X139369Y80708D01*
X138319D01*
X137794Y80183D01*
X44488Y80708D02*
Y80183D01*
X45538Y79133D01*
X46587Y80183D01*
Y80708D01*
X45538Y79133D02*
Y77559D01*
X47637D02*
X48686D01*
X48162D01*
Y80708D01*
X47637Y80183D01*
X502000Y208200D02*
Y211349D01*
X503574D01*
X504099Y210824D01*
Y209774D01*
X503574Y209249D01*
X502000D01*
X503050D02*
X504099Y208200D01*
X506723D02*
Y211349D01*
X505149Y209774D01*
X507248D01*
X470500Y208200D02*
Y211349D01*
X472074D01*
X472599Y210824D01*
Y209774D01*
X472074Y209249D01*
X470500D01*
X471550D02*
X472599Y208200D01*
X473649Y210824D02*
X474173Y211349D01*
X475223D01*
X475748Y210824D01*
Y210299D01*
X475223Y209774D01*
X474698D01*
X475223D01*
X475748Y209249D01*
Y208725D01*
X475223Y208200D01*
X474173D01*
X473649Y208725D01*
X439000Y208200D02*
Y211349D01*
X440574D01*
X441099Y210824D01*
Y209774D01*
X440574Y209249D01*
X439000D01*
X440050D02*
X441099Y208200D01*
X444248D02*
X442149D01*
X444248Y210299D01*
Y210824D01*
X443723Y211349D01*
X442673D01*
X442149Y210824D01*
X499200Y233649D02*
Y230500D01*
X500774D01*
X501299Y231025D01*
Y233124D01*
X500774Y233649D01*
X499200D01*
X503923Y230500D02*
Y233649D01*
X502349Y232074D01*
X504448D01*
X467700Y233649D02*
Y230500D01*
X469274D01*
X469799Y231025D01*
Y233124D01*
X469274Y233649D01*
X467700D01*
X470849Y233124D02*
X471373Y233649D01*
X472423D01*
X472948Y233124D01*
Y232599D01*
X472423Y232074D01*
X471898D01*
X472423D01*
X472948Y231550D01*
Y231025D01*
X472423Y230500D01*
X471373D01*
X470849Y231025D01*
X436200Y233649D02*
Y230500D01*
X437774D01*
X438299Y231025D01*
Y233124D01*
X437774Y233649D01*
X436200D01*
X441448Y230500D02*
X439349D01*
X441448Y232599D01*
Y233124D01*
X440923Y233649D01*
X439873D01*
X439349Y233124D01*
X404700Y233649D02*
Y230500D01*
X406274D01*
X406799Y231025D01*
Y233124D01*
X406274Y233649D01*
X404700D01*
X407849Y230500D02*
X408898D01*
X408373D01*
Y233649D01*
X407849Y233124D01*
M02*
