G04*
G04 #@! TF.GenerationSoftware,Altium Limited,Altium Designer,21.1.1 (26)*
G04*
G04 Layer_Color=16711935*
%FSLAX25Y25*%
%MOIN*%
G70*
G04*
G04 #@! TF.SameCoordinates,022FA635-1C18-43D6-9117-3F95ACA47FE2*
G04*
G04*
G04 #@! TF.FilePolarity,Positive*
G04*
G01*
G75*
%ADD10C,0.01000*%
%ADD24C,0.00600*%
D10*
Y19685D02*
G03*
X19685Y0I19685J0D01*
G01*
Y86614D02*
G03*
X0Y66929I0J-19685D01*
G01*
X163386Y86614D02*
G03*
X183071Y106299I0J19685D01*
G01*
X255906Y0D02*
G03*
X275590Y19685I0J19685D01*
G01*
X295276Y168898D02*
G03*
X275590Y149213I0J-19685D01*
G01*
X532677Y168898D02*
G03*
X552362Y188583I0J19685D01*
G01*
Y233858D02*
G03*
X532677Y253543I-19685J0D01*
G01*
X202756D02*
G03*
X183071Y233858I0J-19685D01*
G01*
X0Y19685D02*
Y66929D01*
X183071Y106299D02*
Y233858D01*
X275590Y19685D02*
Y149213D01*
X552362Y188583D02*
Y233858D01*
X202756Y253543D02*
X532677D01*
X19291Y86614D02*
X163386Y86614D01*
X295276Y168898D02*
X532677Y168898D01*
X19685Y0D02*
X255906Y0D01*
X647213Y6000D02*
X649213Y0D01*
X651213Y6000D01*
X649213Y253543D02*
X651213Y247543D01*
X647213D02*
X649213Y253543D01*
Y0D02*
Y109576D01*
Y140767D02*
Y253543D01*
X257405Y0D02*
X650213D01*
X534177Y253543D02*
X650213D01*
X607087Y253543D02*
X609087Y247543D01*
X605087D02*
X607087Y253543D01*
X605087Y174898D02*
X607087Y168898D01*
X609087Y174898D01*
X607087Y224716D02*
Y253543D01*
Y168898D02*
Y194525D01*
X534177Y253543D02*
X608087D01*
X534177Y168898D02*
X608087D01*
X603905Y6000D02*
X605905Y0D01*
X607905Y6000D01*
X605905Y86614D02*
X607905Y80614D01*
X603905D02*
X605905Y86614D01*
Y0D02*
Y26112D01*
Y57303D02*
Y86614D01*
X21185Y0D02*
X606906D01*
X20791Y86614D02*
X606906D01*
X183071Y288976D02*
X189071Y290976D01*
X183071Y288976D02*
X189071Y286976D01*
X269590D02*
X275590Y288976D01*
X269590Y290976D02*
X275590Y288976D01*
X183071D02*
X212135D01*
X243326D02*
X275590D01*
X183071Y235358D02*
Y289976D01*
X275590Y150713D02*
Y289976D01*
X0Y288976D02*
X6000Y290976D01*
X0Y288976D02*
X6000Y286976D01*
X177071D02*
X183071Y288976D01*
X177071Y290976D02*
X183071Y288976D01*
X0D02*
X74340D01*
X105531D02*
X183071D01*
X0Y68429D02*
Y289976D01*
X183071Y235358D02*
Y289976D01*
X0Y336614D02*
X6000Y338614D01*
X0Y336614D02*
X6000Y334614D01*
X546362D02*
X552362Y336614D01*
X546362Y338614D02*
X552362Y336614D01*
X0D02*
X256486D01*
X292676D02*
X552362D01*
X0Y21185D02*
Y337614D01*
X552362Y235358D02*
Y337614D01*
D24*
X647813Y115175D02*
X648813Y113175D01*
X650812Y111176D01*
X652812D01*
X653811Y112176D01*
Y114175D01*
X652812Y115175D01*
X651812D01*
X650812Y114175D01*
Y111176D01*
X653811Y120173D02*
X647813D01*
X650812Y117174D01*
Y121173D01*
X654811Y124172D02*
X653811Y125172D01*
X652812D01*
Y124172D01*
X653811D01*
Y125172D01*
X654811Y124172D01*
X655811Y123172D01*
X653811Y132169D02*
X647813D01*
X650812Y129170D01*
Y133169D01*
X648813Y135168D02*
X647813Y136168D01*
Y138168D01*
X648813Y139167D01*
X652812D01*
X653811Y138168D01*
Y136168D01*
X652812Y135168D01*
X648813D01*
X611685Y200124D02*
Y196125D01*
X607687Y200124D01*
X606687D01*
X605687Y199124D01*
Y197125D01*
X606687Y196125D01*
X611685Y202123D02*
Y204122D01*
Y203123D01*
X605687D01*
X606687Y202123D01*
X612685Y208121D02*
X611685Y209121D01*
X610686D01*
Y208121D01*
X611685D01*
Y209121D01*
X612685Y208121D01*
X613685Y207121D01*
X605687Y217118D02*
Y213119D01*
X608686D01*
X607687Y215119D01*
Y216118D01*
X608686Y217118D01*
X610686D01*
X611685Y216118D01*
Y214119D01*
X610686Y213119D01*
X606687Y219117D02*
X605687Y220117D01*
Y222116D01*
X606687Y223116D01*
X610686D01*
X611685Y222116D01*
Y220117D01*
X610686Y219117D01*
X606687D01*
X610504Y31710D02*
Y27712D01*
X606505Y31710D01*
X605506D01*
X604506Y30711D01*
Y28711D01*
X605506Y27712D01*
X610504Y37708D02*
Y33710D01*
X606505Y37708D01*
X605506D01*
X604506Y36709D01*
Y34709D01*
X605506Y33710D01*
X611504Y40707D02*
X610504Y41707D01*
X609505D01*
Y40707D01*
X610504D01*
Y41707D01*
X611504Y40707D01*
X612504Y39708D01*
X605506Y45706D02*
X604506Y46705D01*
Y48705D01*
X605506Y49705D01*
X609505D01*
X610504Y48705D01*
Y46705D01*
X609505Y45706D01*
X605506D01*
Y51704D02*
X604506Y52703D01*
Y54703D01*
X605506Y55703D01*
X609505D01*
X610504Y54703D01*
Y52703D01*
X609505Y51704D01*
X605506D01*
X217734Y284378D02*
X213735D01*
X217734Y288376D01*
Y289376D01*
X216734Y290376D01*
X214735D01*
X213735Y289376D01*
X219733D02*
X220733Y290376D01*
X222732D01*
X223732Y289376D01*
Y288376D01*
X222732Y287377D01*
X221733D01*
X222732D01*
X223732Y286377D01*
Y285377D01*
X222732Y284378D01*
X220733D01*
X219733Y285377D01*
X226731Y283378D02*
X227731Y284378D01*
Y285377D01*
X226731D01*
Y284378D01*
X227731D01*
X226731Y283378D01*
X225731Y282378D01*
X235728Y290376D02*
X231729D01*
Y287377D01*
X233729Y288376D01*
X234728D01*
X235728Y287377D01*
Y285377D01*
X234728Y284378D01*
X232729D01*
X231729Y285377D01*
X237727Y289376D02*
X238727Y290376D01*
X240726D01*
X241726Y289376D01*
Y285377D01*
X240726Y284378D01*
X238727D01*
X237727Y285377D01*
Y289376D01*
X78939Y284378D02*
Y290376D01*
X75940Y287377D01*
X79939D01*
X85937Y290376D02*
X83937Y289376D01*
X81938Y287377D01*
Y285377D01*
X82938Y284378D01*
X84937D01*
X85937Y285377D01*
Y286377D01*
X84937Y287377D01*
X81938D01*
X88936Y283378D02*
X89935Y284378D01*
Y285377D01*
X88936D01*
Y284378D01*
X89935D01*
X88936Y283378D01*
X87936Y282378D01*
X97933Y290376D02*
X93934D01*
Y287377D01*
X95934Y288376D01*
X96933D01*
X97933Y287377D01*
Y285377D01*
X96933Y284378D01*
X94934D01*
X93934Y285377D01*
X99932Y289376D02*
X100932Y290376D01*
X102931D01*
X103931Y289376D01*
Y285377D01*
X102931Y284378D01*
X100932D01*
X99932Y285377D01*
Y289376D01*
X258086Y332015D02*
X260086D01*
X259086D01*
Y338014D01*
X258086Y337014D01*
X266084Y332015D02*
Y338014D01*
X263085Y335015D01*
X267084D01*
X269083Y337014D02*
X270083Y338014D01*
X272082D01*
X273082Y337014D01*
Y333015D01*
X272082Y332015D01*
X270083D01*
X269083Y333015D01*
Y337014D01*
X276081Y331016D02*
X277080Y332015D01*
Y333015D01*
X276081D01*
Y332015D01*
X277080D01*
X276081Y331016D01*
X275081Y330016D01*
X281079Y337014D02*
X282079Y338014D01*
X284078D01*
X285078Y337014D01*
Y336014D01*
X284078Y335015D01*
X283078D01*
X284078D01*
X285078Y334015D01*
Y333015D01*
X284078Y332015D01*
X282079D01*
X281079Y333015D01*
X287077Y337014D02*
X288077Y338014D01*
X290076D01*
X291076Y337014D01*
Y333015D01*
X290076Y332015D01*
X288077D01*
X287077Y333015D01*
Y337014D01*
M02*
