G04*
G04 #@! TF.GenerationSoftware,Altium Limited,Altium Designer,21.1.1 (26)*
G04*
G04 Layer_Color=32896*
%FSLAX25Y25*%
%MOIN*%
G70*
G04*
G04 #@! TF.SameCoordinates,022FA635-1C18-43D6-9117-3F95ACA47FE2*
G04*
G04*
G04 #@! TF.FilePolarity,Positive*
G04*
G01*
G75*
%ADD10C,0.01000*%
%ADD11C,0.00394*%
%ADD12C,0.00013*%
%ADD14C,0.00787*%
G36*
X305361Y220868D02*
X305729Y220715D01*
X306046Y220473D01*
X306046Y220472D01*
X306046Y220472D01*
X306289Y220156D01*
X306442Y219787D01*
X306477Y219518D01*
X306494Y219391D01*
X306494Y219257D01*
Y198281D01*
X306483D01*
X306528Y198051D01*
X306659Y197856D01*
X306854Y197726D01*
X307084Y197680D01*
X307087Y197680D01*
X307216Y197691D01*
X321747D01*
Y197689D01*
X321968Y197645D01*
X322155Y197520D01*
X322225Y197415D01*
X322280Y197333D01*
X322324Y197113D01*
X322280Y196892D01*
X322155Y196705D01*
X322050Y196635D01*
X321968Y196580D01*
X321747Y196536D01*
Y196534D01*
X306867D01*
X306866Y196535D01*
X306475Y196586D01*
X306106Y196739D01*
X305883Y196910D01*
X305783Y196990D01*
X305545Y197300D01*
X305392Y197669D01*
X305340Y198066D01*
X305342Y198080D01*
X305340Y198080D01*
X305340Y198080D01*
Y219047D01*
X305351Y219176D01*
X305351Y219176D01*
X305305Y219407D01*
X305174Y219603D01*
X304978Y219734D01*
X304750Y219779D01*
X304750Y219769D01*
X304750Y219769D01*
X287502D01*
X287502Y219769D01*
X287502Y219779D01*
X287274Y219734D01*
X287078Y219603D01*
X286947Y219407D01*
X286901Y219176D01*
X286912Y219176D01*
Y198199D01*
X286912Y198066D01*
X286895Y197936D01*
X286860Y197669D01*
X286707Y197300D01*
X286463Y196983D01*
X286146Y196739D01*
X285776Y196586D01*
X285383Y196534D01*
Y196534D01*
X279128D01*
X279126Y196537D01*
X279126D01*
X278908Y196580D01*
X278821Y196638D01*
X278717Y196711D01*
X278596Y196892D01*
X278574Y196999D01*
X278553Y197118D01*
X278554Y197123D01*
X278577Y197248D01*
X278596Y197344D01*
X278721Y197531D01*
X278908Y197656D01*
X279126Y197700D01*
X279126Y197700D01*
Y197700D01*
X279128Y197702D01*
X285035D01*
X285165Y197692D01*
X285168Y197691D01*
X285398Y197737D01*
X285592Y197866D01*
X285593Y197867D01*
X285723Y198062D01*
X285769Y198292D01*
X285769Y198292D01*
X285758Y198421D01*
Y219257D01*
Y219391D01*
X285775Y219521D01*
X285810Y219787D01*
X285963Y220156D01*
X286205Y220472D01*
X286206Y220472D01*
X286206Y220473D01*
X286522Y220715D01*
X286891Y220868D01*
X287287Y220920D01*
X287287Y220920D01*
X304965D01*
X304965Y220920D01*
X305361Y220868D01*
D02*
G37*
G36*
X328425D02*
X328794Y220715D01*
X329110Y220473D01*
X329111Y220472D01*
X329111Y220472D01*
X329354Y220156D01*
X329506Y219787D01*
X329559Y219391D01*
X329558Y219391D01*
Y204161D01*
X329557D01*
X329513Y203941D01*
X329458Y203858D01*
X329388Y203754D01*
X329201Y203629D01*
X329106Y203610D01*
X328980Y203585D01*
Y203585D01*
X328761Y203628D01*
X328574Y203753D01*
X328450Y203939D01*
X328406Y204158D01*
X328407Y204161D01*
X328405Y204161D01*
X328405Y204161D01*
Y219173D01*
X328416Y219184D01*
X328370Y219416D01*
X328239Y219612D01*
X328043Y219742D01*
X327812Y219788D01*
Y219777D01*
X312810D01*
X312680Y219789D01*
X312678Y219789D01*
X312677Y219790D01*
X312555Y219739D01*
X312504Y219617D01*
X312504Y219616D01*
X312545Y219517D01*
X312627Y219414D01*
X328598Y197772D01*
X328598Y197769D01*
X328598Y197769D01*
X328681Y197714D01*
X328725Y197705D01*
X328726Y197705D01*
X345446D01*
X345576Y197694D01*
X345579Y197694D01*
X345809Y197740D01*
X346002Y197869D01*
X346002D01*
X346004Y197870D01*
X346134Y198065D01*
X346180Y198295D01*
Y198295D01*
X346169Y198424D01*
Y220227D01*
X346170Y220227D01*
X346214Y220448D01*
X346339Y220635D01*
X346526Y220760D01*
X346744Y220803D01*
Y220803D01*
X346873Y220778D01*
X346965Y220760D01*
X347047Y220705D01*
X347152Y220635D01*
X347277Y220448D01*
X347321Y220227D01*
X347323D01*
Y198199D01*
Y198066D01*
X347323D01*
X347306Y197936D01*
X347271Y197669D01*
X347117Y197300D01*
X346874Y196983D01*
X346557Y196739D01*
X346187Y196586D01*
X345793Y196534D01*
Y196534D01*
X328734D01*
X328727Y196542D01*
X328727D01*
X328427Y196581D01*
X328093Y196720D01*
X327806Y196940D01*
X327686Y197097D01*
X327686D01*
X327668Y197099D01*
X310965Y219705D01*
X310965Y219705D01*
X310974Y219713D01*
X310896Y219815D01*
X310823Y219992D01*
X310798Y220181D01*
X310823Y220371D01*
X310896Y220548D01*
X311013Y220700D01*
X311165Y220817D01*
X311342Y220890D01*
X311531Y220915D01*
X311577Y220909D01*
X311578Y220920D01*
X328029D01*
X328030Y220920D01*
X328425Y220868D01*
D02*
G37*
G36*
X297432Y189416D02*
X298227Y189258D01*
X298970Y189006D01*
X298971Y189003D01*
Y189003D01*
X298971Y189003D01*
X299550Y188717D01*
X300108Y188345D01*
X300611Y187903D01*
X300848Y187633D01*
X300849Y187634D01*
X301057Y187396D01*
X301507Y186722D01*
X301866Y185995D01*
X302051Y185450D01*
Y185450D01*
X302059Y185445D01*
X302287Y184534D01*
X302438Y183516D01*
X302488Y182488D01*
X302438Y181460D01*
X302287Y180442D01*
X302059Y179532D01*
X302050Y179527D01*
X301992Y179325D01*
X301718Y178665D01*
X301373Y178039D01*
X300959Y177455D01*
X300841Y177324D01*
X300840Y177326D01*
X300586Y177037D01*
X300094Y176605D01*
X299549Y176241D01*
X298980Y175960D01*
X298969Y175964D01*
D01*
X298969D01*
X298969D01*
X298727Y175865D01*
X298007Y175657D01*
X297269Y175532D01*
X296520Y175490D01*
X295772Y175532D01*
X295034Y175657D01*
X294313Y175865D01*
X294072Y175964D01*
X294072D01*
X294072D01*
D01*
X294063Y175961D01*
X293500Y176238D01*
X292940Y176612D01*
X292434Y177056D01*
X292190Y177334D01*
X292188Y177332D01*
X292081Y177451D01*
X291672Y178029D01*
X291329Y178648D01*
X291058Y179303D01*
X290991Y179535D01*
X290991D01*
X290983Y179540D01*
X290760Y180430D01*
X290609Y181450D01*
X290558Y182480D01*
X290609Y183509D01*
X290760Y184529D01*
X290983Y185421D01*
X290990Y185424D01*
X290990D01*
X290990Y185424D01*
X291174Y185967D01*
X291534Y186697D01*
X291986Y187373D01*
X292195Y187611D01*
X292196Y187611D01*
X292446Y187896D01*
X292948Y188336D01*
X293503Y188707D01*
X294064Y188984D01*
X294076Y188980D01*
X294399Y189114D01*
X295075Y189309D01*
X295767Y189426D01*
X296416Y189463D01*
X296550Y189461D01*
X296683Y189465D01*
X297432Y189416D01*
D02*
G37*
G36*
X326986Y189459D02*
X327120Y189463D01*
X327480Y189447D01*
X327613Y189441D01*
X327947Y189425D01*
X327948Y189424D01*
X328131Y189415D01*
X328391Y189376D01*
X328523Y189359D01*
X328808Y189311D01*
X328808Y189311D01*
Y189311D01*
X329072Y189266D01*
X329202Y189232D01*
X329357Y189202D01*
X329569Y189130D01*
X329569Y189129D01*
X329787Y189055D01*
X329912Y189012D01*
X329928Y189006D01*
X330037Y188965D01*
X330227Y188871D01*
X330351Y188819D01*
X330682Y188616D01*
X330791Y188549D01*
X330893Y188467D01*
X331207Y188198D01*
X331545Y187803D01*
X331831Y187337D01*
X331930Y187097D01*
X331930D01*
X331981Y186974D01*
X332052Y186802D01*
X332046Y186788D01*
X332113Y186591D01*
X332146Y186461D01*
X332172Y186335D01*
X332260Y185889D01*
X332246Y185832D01*
X332173Y185755D01*
X330924D01*
X330903Y185966D01*
X330767Y186414D01*
X330547Y186826D01*
X330250Y187188D01*
X329920Y187459D01*
X329889Y187484D01*
X329809Y187528D01*
Y187528D01*
X329608Y187636D01*
X329611Y187642D01*
X329390Y187734D01*
Y187734D01*
X329156Y187831D01*
X329157Y187832D01*
X329133Y187842D01*
X329029Y187867D01*
X328906Y187897D01*
X328900Y187907D01*
X328748Y187937D01*
X328624Y187962D01*
X328623Y187962D01*
X328622Y187962D01*
X328500Y187986D01*
X328332Y188020D01*
X328326Y188016D01*
X328151Y188046D01*
X328050Y188063D01*
X328021Y188066D01*
Y188066D01*
X327823Y188077D01*
X327690Y188086D01*
X327104Y188115D01*
X326990Y188120D01*
X326973Y188119D01*
X326839Y188118D01*
X326759Y188123D01*
X326052Y188077D01*
X325357Y187939D01*
X324943Y187798D01*
X324941Y187803D01*
X324941Y187803D01*
X324873Y187783D01*
X324817Y187753D01*
X324442Y187552D01*
X324064Y187242D01*
X323904Y187047D01*
X323821Y186947D01*
X323624Y186624D01*
X323450Y186204D01*
X323351Y185795D01*
X323343Y185762D01*
X323336Y185662D01*
X323321Y185529D01*
X323268Y185127D01*
X323226Y184167D01*
X323224Y184120D01*
Y184120D01*
X323227Y184047D01*
X323236Y184042D01*
X323237Y184042D01*
X323242Y184039D01*
X323242Y184039D01*
X323242D01*
X324834Y184039D01*
Y184038D01*
X324844Y184039D01*
X325467Y184018D01*
X325600Y184014D01*
X325734Y184009D01*
X326195Y183993D01*
X326328Y183984D01*
X326460Y183978D01*
X326462Y183978D01*
X326883Y183928D01*
X327015Y183913D01*
X327148Y183897D01*
X327663Y183829D01*
X327664Y183828D01*
X327841Y183805D01*
X328272Y183709D01*
Y183709D01*
X328403Y183682D01*
X328841Y183572D01*
X328842Y183572D01*
Y183572D01*
X329051Y183520D01*
X329371Y183405D01*
X329499Y183365D01*
X329861Y183215D01*
X329985Y183163D01*
X330497Y182911D01*
X330615Y182832D01*
X330724Y182758D01*
X331044Y182562D01*
X331521Y182155D01*
X331929Y181677D01*
X332257Y181142D01*
X332497Y180561D01*
X332644Y179951D01*
X332691Y179354D01*
X332688Y179263D01*
X332685Y179220D01*
X332685D01*
X332684Y179087D01*
X332647Y178609D01*
X332515Y178059D01*
X332413Y177813D01*
X332362Y177691D01*
X332362D01*
X332299Y177538D01*
X332011Y177068D01*
X331653Y176649D01*
X331491Y176511D01*
X331490Y176511D01*
X331230Y176289D01*
X330707Y175968D01*
X330308Y175803D01*
X330181Y175759D01*
X329873Y175655D01*
X329233Y175527D01*
X328674Y175491D01*
X328542Y175487D01*
X328409Y175490D01*
X327590Y175530D01*
X327246Y175581D01*
X327113Y175596D01*
X326470Y175724D01*
X326082Y175855D01*
X325958Y175897D01*
X325833Y175943D01*
X325269Y176176D01*
X324752Y176462D01*
X324638Y176533D01*
X324638D01*
X324241Y176770D01*
X323502Y177319D01*
X323452Y177364D01*
X323360Y177447D01*
X323246Y177551D01*
X323228Y177541D01*
X323226Y177536D01*
X323226Y177388D01*
Y177264D01*
Y175826D01*
X321847D01*
Y184512D01*
X321847Y184512D01*
X321852Y184512D01*
X321848Y184597D01*
X321893Y185401D01*
X322028Y186194D01*
X322137Y186576D01*
X322134Y186577D01*
X322164Y186703D01*
X322393Y187255D01*
X322705Y187764D01*
X323022Y188135D01*
X323115Y188228D01*
X323509Y188564D01*
X324040Y188889D01*
X324600Y189121D01*
X324610Y189116D01*
X325204Y189287D01*
X326004Y189423D01*
X326815Y189469D01*
X326986Y189459D01*
D02*
G37*
G36*
X287202Y175826D02*
X285822D01*
Y185541D01*
X285820Y185546D01*
X285824Y185549D01*
X285259Y186173D01*
X284520Y186843D01*
X283812Y187368D01*
X283719Y187437D01*
X283703Y187447D01*
X283698Y187440D01*
X283303Y187681D01*
X282720Y187923D01*
X282106Y188070D01*
X281502Y188118D01*
Y188118D01*
X281386Y188122D01*
X281369Y188121D01*
X280708Y188069D01*
X280161Y187938D01*
X280047Y187910D01*
X280032Y187904D01*
X279907Y187855D01*
X279897Y187852D01*
X279505Y187642D01*
X279161Y187360D01*
X279062Y187239D01*
X279062Y187238D01*
X278978Y187135D01*
X278906Y187048D01*
X278656Y186580D01*
X278517Y186122D01*
X278517Y186122D01*
X278393Y185392D01*
X278351Y184645D01*
X278349Y184610D01*
X278355Y184512D01*
X278360Y184380D01*
Y175826D01*
X276980D01*
Y184632D01*
X276980Y184632D01*
X276983Y184632D01*
X276982Y184655D01*
X277019Y185418D01*
X277030Y185551D01*
X277030D01*
X277038Y185697D01*
X277131Y186241D01*
X277158Y186372D01*
X277215Y186658D01*
X277364Y187096D01*
X277407Y187223D01*
X277553Y187575D01*
X277827Y188021D01*
X278167Y188420D01*
X278565Y188760D01*
X279006Y189030D01*
X279007Y189030D01*
X279007Y189030D01*
Y189030D01*
X279500Y189234D01*
X279628Y189266D01*
X279756Y189303D01*
X280354Y189422D01*
X280981Y189463D01*
X281094Y189464D01*
X281114Y189463D01*
Y189463D01*
X281246Y189457D01*
X281811Y189425D01*
X282139Y189369D01*
X282271Y189346D01*
X282643Y189272D01*
X283157Y189098D01*
X283282Y189053D01*
X283401Y188997D01*
X283947Y188728D01*
X284507Y188353D01*
X284508Y188347D01*
X284688Y188219D01*
X285392Y187590D01*
X285598Y187361D01*
X285680Y187268D01*
X285792Y187143D01*
X285806Y187148D01*
X285806Y187148D01*
X285812Y187151D01*
X285814Y187156D01*
X285814Y187320D01*
Y187320D01*
X285814Y187443D01*
X285822Y194624D01*
X287202D01*
Y175826D01*
D02*
G37*
G36*
X267306Y189460D02*
Y189460D01*
X267440Y189456D01*
X267980Y189426D01*
X268246Y189381D01*
X268246Y189381D01*
X268246Y189381D01*
D01*
X268255Y189387D01*
X268849Y189245D01*
X269281Y189066D01*
X269281D01*
X269282Y189066D01*
X269791Y188815D01*
X270435Y188385D01*
X270437Y188370D01*
Y188370D01*
X270676Y188193D01*
X271324Y187606D01*
X271547Y187360D01*
X271630Y187268D01*
X271630D01*
X271743Y187144D01*
X271756Y187148D01*
X271756Y187148D01*
X271756Y187148D01*
X271761Y187150D01*
X271761Y187151D01*
X271764Y187156D01*
Y187320D01*
X271764Y187444D01*
Y189125D01*
X273143D01*
Y175826D01*
X271764D01*
Y185508D01*
Y185508D01*
X271762Y185512D01*
X271764Y185514D01*
X271619Y185710D01*
X270976Y186418D01*
X270267Y187061D01*
X269770Y187429D01*
X269775Y187436D01*
X269309Y187722D01*
X268781Y187941D01*
X268225Y188074D01*
X267686Y188117D01*
Y188117D01*
X267587Y188119D01*
X267552Y188117D01*
X267065Y188078D01*
X266556Y187956D01*
X266550Y187954D01*
X266427Y187904D01*
X266367Y187886D01*
X266304Y187853D01*
X266048Y187715D01*
X265768Y187486D01*
X265586Y187265D01*
X265580Y187269D01*
X265580Y187269D01*
X265564Y187250D01*
X265512Y187153D01*
X265307Y186770D01*
X265158Y186277D01*
X265149Y186249D01*
X265139Y186145D01*
X265142Y186145D01*
X265048Y185508D01*
X265005Y184644D01*
X265004Y184630D01*
X265010Y184512D01*
X265016Y184380D01*
Y175820D01*
X263636D01*
Y185502D01*
X263634Y185506D01*
X263635Y185507D01*
X263467Y185733D01*
X262890Y186369D01*
X262254Y186946D01*
X261601Y187430D01*
X261599Y187427D01*
X261180Y187684D01*
X260607Y187921D01*
X260004Y188066D01*
X259562Y188101D01*
X259435Y188112D01*
Y188112D01*
X259431Y188112D01*
X259279Y188102D01*
X259146Y188094D01*
X258873Y188073D01*
Y188073D01*
X258762Y188064D01*
X258741Y188058D01*
X258617Y188029D01*
X258617Y188028D01*
X258378Y187971D01*
X258379Y187968D01*
X258254Y187930D01*
X258155Y187900D01*
X258119Y187888D01*
X257955Y187800D01*
X257955D01*
X257953Y187799D01*
X257953Y187799D01*
X257838Y187738D01*
X257765Y187698D01*
Y187698D01*
X257757Y187693D01*
X257668Y187619D01*
X257665Y187617D01*
X257661Y187614D01*
X257498Y187480D01*
X257322Y187265D01*
X257320Y187266D01*
X257320Y187266D01*
X257283Y187221D01*
X257210Y187084D01*
X257210Y187084D01*
X257210D01*
X257104Y186885D01*
X257108Y186884D01*
X257016Y186662D01*
X257015Y186663D01*
X256973Y186560D01*
X256970Y186548D01*
X256970Y186548D01*
X256967Y186539D01*
X256936Y186420D01*
X256918Y186367D01*
X256901Y186284D01*
X256875Y186154D01*
X256818Y185869D01*
X256818D01*
X256799Y185736D01*
X256792Y185691D01*
X256768Y185563D01*
X256757Y185366D01*
X256749Y185233D01*
X256719Y184644D01*
X256714Y184532D01*
X256715Y184512D01*
X256726Y184383D01*
Y175826D01*
X255441D01*
X255346Y175920D01*
X255363Y184632D01*
X255364Y184632D01*
X255363Y184661D01*
X255400Y185418D01*
X255410Y185551D01*
X255423Y185789D01*
X255500Y186241D01*
X255523Y186372D01*
X255549Y186502D01*
X255609Y186803D01*
X255709Y187096D01*
X255709Y187096D01*
X255709Y187096D01*
X255818Y187419D01*
X255968Y187723D01*
X256026Y187844D01*
X256231Y188178D01*
X256539Y188538D01*
X256899Y188846D01*
X257189Y189024D01*
X257189D01*
X257304Y189091D01*
X257621Y189222D01*
X257742Y189271D01*
X257866Y189301D01*
X258345Y189416D01*
X258948Y189463D01*
X259078Y189465D01*
X259081Y189464D01*
Y189464D01*
X259212Y189457D01*
X259784Y189425D01*
X260253Y189345D01*
X260254Y189344D01*
X260632Y189269D01*
X261277Y189050D01*
X261454Y188963D01*
X261454Y188962D01*
X261870Y188756D01*
X262489Y188343D01*
X262631Y188219D01*
X262630Y188218D01*
X263043Y187856D01*
X263578Y187246D01*
X263725Y187025D01*
X263755Y187031D01*
X263777Y187120D01*
X263789Y187152D01*
X263794Y187163D01*
X263981Y187614D01*
X264258Y188067D01*
X264603Y188470D01*
X264974Y188787D01*
X265086Y188859D01*
X265200Y188929D01*
X265378Y189038D01*
X265952Y189276D01*
X266557Y189421D01*
X267176Y189470D01*
X267306Y189460D01*
D02*
G37*
G36*
X318118Y193261D02*
X306448D01*
X306446Y193260D01*
X306444Y193259D01*
X306443Y193259D01*
X306443Y193259D01*
X306443Y193259D01*
X306442Y193256D01*
X306441Y193254D01*
X306441Y193254D01*
X306441Y193254D01*
X306442Y193251D01*
X306442Y193249D01*
X306542Y193127D01*
X306621Y193031D01*
X319245Y177637D01*
Y175826D01*
X304671D01*
Y177186D01*
X317565D01*
X317689Y177186D01*
X317846D01*
X317849Y177187D01*
X317851Y177188D01*
X317851Y177188D01*
X317851Y177188D01*
X317852Y177188D01*
X317853Y177190D01*
X317854Y177192D01*
X317854Y177192D01*
X317854Y177193D01*
X317854Y177193D01*
X317853Y177195D01*
X317852Y177198D01*
X317752Y177320D01*
Y177320D01*
X317673Y177415D01*
X305028Y192793D01*
Y194624D01*
X318118D01*
Y193261D01*
D02*
G37*
G36*
X347744Y189132D02*
X347746Y189127D01*
X347751Y189125D01*
X349458D01*
Y187765D01*
X347751D01*
X347746Y187763D01*
X347744Y187758D01*
Y179616D01*
X347744Y179616D01*
X347738Y179616D01*
X347743Y179493D01*
X347696Y178302D01*
X347645Y177873D01*
X347644Y177872D01*
X347627Y177654D01*
X347510Y177164D01*
X347339Y176753D01*
X347274Y176637D01*
X347274D01*
X347214Y176524D01*
X346997Y176261D01*
X346734Y176044D01*
X346455Y175895D01*
X346447Y175898D01*
X346224Y175806D01*
X345692Y175678D01*
X345147Y175635D01*
X345008Y175646D01*
X344880Y175637D01*
X344831Y175637D01*
X344772Y175638D01*
X344772D01*
X344729Y175639D01*
X344596Y175654D01*
X344596Y175654D01*
X344420Y175666D01*
X344286Y175663D01*
X344243Y175666D01*
X344125Y175676D01*
X344007Y175687D01*
X343838Y175705D01*
X343835Y176884D01*
X343886Y176950D01*
X343959Y177001D01*
X343964Y177002D01*
X344023Y177000D01*
X344023Y177000D01*
X344053Y176999D01*
X344053Y176999D01*
X344083Y176999D01*
X344140Y176999D01*
X344338D01*
X344469Y176991D01*
X344515Y176988D01*
X344603Y176995D01*
X345100Y177034D01*
X345148Y177045D01*
X345277Y177075D01*
X345344Y177084D01*
X345404Y177109D01*
X345611Y177195D01*
X345785Y177328D01*
X345840Y177370D01*
X345879Y177421D01*
X345877Y177423D01*
X345877Y177423D01*
X345877Y177423D01*
X345877Y177424D01*
X345994Y177566D01*
X346152Y177861D01*
X346248Y178180D01*
X346241Y178182D01*
X346328Y178621D01*
X346377Y179364D01*
X346368Y179499D01*
X346368Y179499D01*
X346368D01*
X346364Y179504D01*
Y187761D01*
X346362Y187766D01*
X346357Y187768D01*
X344164D01*
Y189128D01*
X346357D01*
X346362Y189130D01*
X346364Y189135D01*
Y192616D01*
X347744D01*
Y189132D01*
D02*
G37*
G36*
X373412Y183704D02*
X373412Y183523D01*
X373406Y183518D01*
X373389Y182953D01*
X373389D01*
X373386Y182820D01*
X373373Y182380D01*
X373373Y182380D01*
X373373D01*
X373381Y182371D01*
X373352Y181809D01*
X373339Y181798D01*
X373321Y181437D01*
X373181Y180491D01*
X373036Y179911D01*
X373036Y179911D01*
X373036D01*
X373036Y179910D01*
X372887Y179393D01*
X372586Y178667D01*
X372327Y178198D01*
X372327D01*
Y178198D01*
X372329Y178189D01*
X372006Y177705D01*
X371600Y177242D01*
X371179Y176872D01*
X371071Y176793D01*
X371071D01*
X370961Y176720D01*
X370550Y176445D01*
X369828Y176089D01*
X369087Y175838D01*
X369073Y175845D01*
X368421Y175681D01*
X367408Y175531D01*
X366385Y175481D01*
X366179Y175491D01*
X366178Y175494D01*
X365889Y175480D01*
X364937Y175526D01*
X363994Y175666D01*
X363070Y175898D01*
X362638Y176052D01*
X362638Y176050D01*
X362450Y176114D01*
X361854Y176408D01*
X361301Y176777D01*
X360802Y177215D01*
X360421Y177650D01*
X360421Y177656D01*
X360421Y177656D01*
X360421D01*
X360128Y178069D01*
X359785Y178690D01*
X359514Y179345D01*
X359317Y180027D01*
X359282Y180236D01*
X359283Y180236D01*
X359144Y180937D01*
X358992Y182222D01*
X358941Y183515D01*
X358948Y183701D01*
X358942Y183701D01*
X358942Y183701D01*
Y194624D01*
X360321D01*
Y183758D01*
X360320Y183757D01*
Y183757D01*
X360305Y183416D01*
X360355Y182272D01*
X360504Y181137D01*
X360698Y180266D01*
X360696Y180266D01*
X360715Y180170D01*
X360727Y180136D01*
X360923Y179560D01*
X361207Y178982D01*
X361565Y178447D01*
X361732Y178257D01*
X361818Y178159D01*
X361818Y178159D01*
X361818Y178158D01*
X361813Y178153D01*
X361848Y178112D01*
X361909Y178060D01*
X362299Y177727D01*
X362804Y177417D01*
X363352Y177191D01*
X363659Y177117D01*
X363659Y177117D01*
X363659Y177116D01*
X364011Y177028D01*
X365036Y176875D01*
X366037Y176826D01*
X366071Y176825D01*
X366170Y176830D01*
X366278Y176825D01*
X367284Y176874D01*
X368281Y177022D01*
X368656Y177116D01*
X368786Y177148D01*
X368945Y177186D01*
X369514Y177422D01*
X370039Y177743D01*
X370505Y178142D01*
X370498Y178149D01*
X370800Y178493D01*
X371150Y179017D01*
X371429Y179583D01*
X371614Y180128D01*
X371632Y180181D01*
X371647Y180257D01*
X371647Y180257D01*
X371852Y181182D01*
X371999Y182301D01*
X372049Y183429D01*
X372034Y183757D01*
X372034Y183757D01*
X372034D01*
X372033Y183758D01*
Y194624D01*
X373412D01*
Y183704D01*
D02*
G37*
G36*
X354087Y175826D02*
X352707D01*
Y194624D01*
X354087D01*
Y175826D01*
D02*
G37*
G36*
X335217Y189466D02*
X335217D01*
X335981Y189416D01*
X336133Y189385D01*
X336138Y189389D01*
X336749Y189242D01*
X337175Y189066D01*
X337175Y189066D01*
X337658Y188828D01*
X338182Y188478D01*
X338289Y188397D01*
X338428Y188299D01*
X339027Y187763D01*
X339258Y187505D01*
X339340Y187413D01*
X339455Y187285D01*
X339467Y187288D01*
X339467Y187288D01*
X339472Y187290D01*
X339474Y187295D01*
Y187298D01*
X339475Y187302D01*
X339474Y187303D01*
Y187464D01*
X339474Y187587D01*
Y189125D01*
X340854D01*
Y175826D01*
X339474D01*
Y185354D01*
X339473Y185358D01*
X339477Y185361D01*
X339427Y185452D01*
X339410Y185476D01*
X338987Y186072D01*
X338816Y186263D01*
X338728Y186363D01*
X338727Y186363D01*
X338727Y186363D01*
X338638Y186462D01*
X338441Y186683D01*
X337890Y187175D01*
X337798Y187246D01*
X337777Y187264D01*
X337689Y187323D01*
X337236Y187626D01*
X336736Y187872D01*
X336734Y187868D01*
X336471Y187977D01*
X336036Y188081D01*
X335715Y188106D01*
X335590Y188116D01*
X335585Y188116D01*
X335455Y188108D01*
X335211D01*
X335081Y188118D01*
X335066Y188119D01*
X334948Y188108D01*
X334772Y188090D01*
X334674Y188181D01*
X334686Y189444D01*
X334959Y189468D01*
X335215D01*
X335217Y189466D01*
D02*
G37*
G36*
X518110Y198944D02*
X478359D01*
Y200545D01*
Y199666D01*
X473743D01*
Y198944D01*
X377559D01*
Y217176D01*
X518110D01*
Y198944D01*
D02*
G37*
G36*
Y191988D02*
X377559D01*
Y198944D01*
X518110D01*
Y191988D01*
D02*
G37*
G36*
Y174016D02*
X377559D01*
Y191988D01*
X518110D01*
Y174016D01*
D02*
G37*
G36*
X546890Y209095D02*
X520001D01*
Y216952D01*
X546890D01*
Y209095D01*
D02*
G37*
%LPC*%
G36*
X296558Y188119D02*
X295882Y188074D01*
X295218Y187942D01*
X294683Y187760D01*
X294685Y187756D01*
X294407Y187641D01*
X293887Y187322D01*
X293423Y186926D01*
X293321Y186807D01*
X293234Y186706D01*
X293234D01*
Y186706D01*
X293089Y186541D01*
X292734Y186010D01*
X292452Y185437D01*
X292288Y184953D01*
X292287Y184953D01*
X292114Y184261D01*
X291983Y183381D01*
X291940Y182494D01*
X291983Y181606D01*
X292114Y180727D01*
X292287Y180034D01*
X292330Y179910D01*
X292457Y179535D01*
X292748Y178944D01*
X293114Y178397D01*
X293233Y178261D01*
X293235Y178261D01*
X293236Y178261D01*
X293453Y178007D01*
X293908Y177618D01*
X294418Y177306D01*
X294685Y177195D01*
X294682Y177188D01*
X295245Y176997D01*
X295861Y176874D01*
X296417Y176837D01*
X296488Y176833D01*
X296550Y176837D01*
X296619Y176832D01*
X297252Y176874D01*
X297874Y176998D01*
X298434Y177188D01*
X298432Y177195D01*
X298699Y177306D01*
X299208Y177618D01*
X299663Y178007D01*
X299881Y178261D01*
X299881Y178261D01*
X299882Y178262D01*
X299883Y178261D01*
X299998Y178393D01*
X300358Y178931D01*
X300644Y179511D01*
X300822Y180034D01*
X300819Y180035D01*
X300977Y180669D01*
X301112Y181577D01*
X301157Y182494D01*
X301112Y183410D01*
X300977Y184318D01*
X300819Y184952D01*
X300822Y184953D01*
X300649Y185461D01*
X300372Y186023D01*
X300024Y186544D01*
X299882Y186706D01*
X299795Y186806D01*
X299794Y186807D01*
X299693Y186926D01*
X299229Y187322D01*
X298709Y187641D01*
X298432Y187756D01*
X298433Y187760D01*
X297898Y187942D01*
X297234Y188074D01*
X296558Y188119D01*
D02*
G37*
G36*
X332046Y186788D02*
Y186788D01*
D01*
Y186788D01*
D02*
G37*
G36*
X325357Y182690D02*
X325327Y182689D01*
X325198Y182679D01*
X323234D01*
X323228Y182677D01*
X323226Y182672D01*
Y179203D01*
X323228Y179199D01*
X323228Y179198D01*
X323472Y178929D01*
X324081Y178377D01*
X324086Y178377D01*
X324254Y178227D01*
X324937Y177742D01*
X325167Y177615D01*
X325167Y177615D01*
X325596Y177378D01*
X326257Y177104D01*
X326426Y177056D01*
Y177056D01*
X326426D01*
X326429Y177057D01*
X326643Y176985D01*
X327210Y176872D01*
X327787Y176834D01*
X327806Y176832D01*
X327810Y176832D01*
X327993Y176842D01*
X328125Y176849D01*
Y176849D01*
X328430Y176866D01*
X328563Y176877D01*
X328681Y176885D01*
X328723Y176893D01*
X328723Y176894D01*
X328868Y176923D01*
X328997Y176949D01*
X328998Y176949D01*
X328999Y176949D01*
Y176949D01*
X328999Y176949D01*
X329130Y176975D01*
X329264Y177002D01*
X329269Y177010D01*
X329505Y177067D01*
X329749Y177167D01*
X329749Y177167D01*
Y177167D01*
X330007Y177275D01*
X330376Y177500D01*
X330378Y177498D01*
X330694Y177758D01*
X330962Y178084D01*
X331160Y178455D01*
X331283Y178858D01*
X331324Y179278D01*
X331321Y179357D01*
X331326Y179405D01*
X331317Y179490D01*
X331274Y179935D01*
X331119Y180445D01*
X330868Y180915D01*
X330529Y181327D01*
X330117Y181665D01*
X329829Y181819D01*
X329829Y181820D01*
X329638Y181937D01*
X329518Y181987D01*
X329397Y182042D01*
X329302Y182089D01*
X329176Y182132D01*
X329175Y182133D01*
X328801Y182260D01*
X328801Y182259D01*
X328398Y182375D01*
X328398Y182376D01*
X328268Y182414D01*
X327969Y182464D01*
X327963Y182472D01*
X327496Y182541D01*
X327496Y182542D01*
X327496Y182542D01*
X327001Y182607D01*
Y182607D01*
X326997Y182604D01*
X326698Y182640D01*
X326607Y182643D01*
X326473Y182650D01*
X325460Y182687D01*
X325357Y182690D01*
D02*
G37*
G36*
X410767Y206361D02*
D01*
Y204156D01*
Y206361D01*
D01*
D02*
G37*
G36*
X409725D02*
X407181D01*
Y200545D01*
X408293D01*
Y204721D01*
X408299Y204715D01*
X408318Y204696D01*
X408355Y204665D01*
X408399Y204627D01*
X408456Y204583D01*
X408531Y204527D01*
X408607Y204464D01*
X408701Y204401D01*
X408801Y204332D01*
X408908Y204263D01*
X409027Y204194D01*
X409153Y204125D01*
X409285Y204056D01*
X409429Y203993D01*
X409574Y203936D01*
X409725Y203880D01*
Y204897D01*
Y204891D01*
X409718D01*
X409706Y204897D01*
X409681Y204904D01*
X409649Y204916D01*
X409605Y204935D01*
X409561Y204954D01*
X409505Y204979D01*
X409442Y205010D01*
X409304Y205079D01*
X409147Y205174D01*
X408971Y205287D01*
X408782Y205425D01*
X408776Y205431D01*
X408757Y205444D01*
X408732Y205462D01*
X408701Y205494D01*
X408657Y205532D01*
X408613Y205582D01*
X408563Y205632D01*
X408506Y205695D01*
X408387Y205833D01*
X408274Y205990D01*
X408167Y206166D01*
X408123Y206260D01*
X408085Y206361D01*
X409725D01*
D01*
D02*
G37*
G36*
X447875Y204841D02*
X443932D01*
D01*
X445816D01*
X445759Y204835D01*
X445684D01*
X445608Y204828D01*
X445520Y204816D01*
X445338Y204797D01*
X445156Y204765D01*
X444980Y204721D01*
X444905Y204690D01*
X444830Y204659D01*
X444823D01*
X444811Y204652D01*
X444792Y204640D01*
X444773Y204627D01*
X444704Y204590D01*
X444629Y204539D01*
X444541Y204470D01*
X444459Y204395D01*
X444378Y204307D01*
X444315Y204213D01*
X444308Y204200D01*
X444302Y204181D01*
X444290Y204163D01*
X444277Y204131D01*
X444265Y204087D01*
X444252Y204043D01*
X444239Y203987D01*
X444227Y203924D01*
X444214Y203855D01*
X444202Y203773D01*
X444189Y203679D01*
X444177Y203578D01*
X444170Y203472D01*
X444164Y203352D01*
Y203221D01*
X444183Y201921D01*
Y201914D01*
Y201895D01*
Y201870D01*
Y201833D01*
Y201782D01*
Y201732D01*
X444177Y201613D01*
X444170Y201481D01*
X444164Y201343D01*
X444151Y201217D01*
X444139Y201154D01*
X444133Y201104D01*
Y201092D01*
X444120Y201060D01*
X444107Y201004D01*
X444089Y200935D01*
X444064Y200853D01*
X444026Y200759D01*
X443982Y200652D01*
X443932Y200545D01*
X445031D01*
Y200552D01*
X445037Y200564D01*
X445049Y200589D01*
X445062Y200627D01*
X445075Y200671D01*
X445100Y200727D01*
X445119Y200796D01*
X445144Y200872D01*
Y200878D01*
X445150Y200891D01*
X445156Y200928D01*
X445169Y200972D01*
X445175Y200991D01*
X445181Y201004D01*
X445194Y200991D01*
X445232Y200960D01*
X445288Y200909D01*
X445364Y200847D01*
X445451Y200784D01*
X445558Y200715D01*
X445671Y200646D01*
X445790Y200589D01*
X445797D01*
X445803Y200583D01*
X445822Y200577D01*
X445847Y200570D01*
X445910Y200545D01*
X445998Y200520D01*
X446098Y200495D01*
X446218Y200470D01*
X446343Y200457D01*
X446481Y200451D01*
X445985D01*
X447875D01*
Y201751D01*
X447869Y201814D01*
X447857Y201902D01*
X447831Y202002D01*
X447806Y202109D01*
X447762Y202216D01*
X447706Y202323D01*
Y202329D01*
X447700Y202335D01*
X447675Y202366D01*
X447637Y202417D01*
X447580Y202480D01*
X447517Y202549D01*
X447436Y202618D01*
X447342Y202687D01*
X447235Y202743D01*
X447229D01*
X447222Y202749D01*
X447203Y202756D01*
X447178Y202768D01*
X447147Y202781D01*
X447109Y202800D01*
X447059Y202812D01*
X447009Y202831D01*
X446952Y202850D01*
X446883Y202875D01*
X446808Y202894D01*
X446733Y202919D01*
X446645Y202938D01*
X446550Y202963D01*
X446456Y202988D01*
X446349Y203007D01*
X446343D01*
X446318Y203013D01*
X446274Y203019D01*
X446224Y203032D01*
X446161Y203045D01*
X446086Y203057D01*
X446004Y203076D01*
X445916Y203095D01*
X445740Y203139D01*
X445558Y203183D01*
X445476Y203208D01*
X445395Y203233D01*
X445326Y203258D01*
X445263Y203283D01*
Y203390D01*
Y203396D01*
Y203403D01*
Y203447D01*
X445269Y203503D01*
X445282Y203572D01*
X445301Y203647D01*
X445332Y203723D01*
X445370Y203798D01*
X445426Y203855D01*
X445433Y203861D01*
X445458Y203874D01*
X445502Y203899D01*
X445558Y203924D01*
X445640Y203949D01*
X445747Y203974D01*
X445809Y203980D01*
X445872Y203987D01*
X445948Y203993D01*
X446079D01*
X446136Y203987D01*
X446199Y203980D01*
X446274Y203961D01*
X446356Y203943D01*
X446431Y203911D01*
X446500Y203874D01*
X446506Y203867D01*
X446525Y203849D01*
X446557Y203823D01*
X446594Y203779D01*
X446638Y203723D01*
X446682Y203647D01*
X446726Y203560D01*
X446764Y203459D01*
X447762Y203641D01*
Y203647D01*
X447756Y203666D01*
X447744Y203698D01*
X447731Y203742D01*
X447712Y203792D01*
X447687Y203849D01*
X447624Y203980D01*
X447543Y204131D01*
X447442Y204282D01*
X447323Y204420D01*
X447254Y204489D01*
X447178Y204546D01*
X447172Y204552D01*
X447160Y204558D01*
X447134Y204571D01*
X447103Y204590D01*
X447059Y204615D01*
X447003Y204640D01*
X446940Y204665D01*
X446871Y204696D01*
X446783Y204721D01*
X446695Y204747D01*
X446594Y204772D01*
X446481Y204797D01*
X446362Y204816D01*
X446230Y204828D01*
X446092Y204841D01*
X447875D01*
D02*
G37*
G36*
X465359D02*
Y202756D01*
X465353Y202794D01*
Y202844D01*
X465346Y202906D01*
X465334Y202969D01*
X465328Y203045D01*
X465290Y203208D01*
X465246Y203390D01*
X465177Y203578D01*
X465139Y203679D01*
X465089Y203773D01*
X465083Y203779D01*
X465076Y203798D01*
X465058Y203823D01*
X465039Y203861D01*
X465014Y203905D01*
X464976Y203955D01*
X464894Y204068D01*
X464781Y204194D01*
X464649Y204326D01*
X464499Y204451D01*
X464323Y204564D01*
X464317Y204571D01*
X464298Y204577D01*
X464272Y204590D01*
X464235Y204608D01*
X464185Y204627D01*
X464128Y204652D01*
X464065Y204678D01*
X463996Y204703D01*
X463915Y204728D01*
X463827Y204753D01*
X463638Y204797D01*
X463431Y204828D01*
X463318Y204841D01*
X465359D01*
X463161D01*
X463111Y204835D01*
X463048Y204828D01*
X462966Y204822D01*
X462872Y204809D01*
X462765Y204790D01*
X462652Y204765D01*
X462533Y204728D01*
X462407Y204690D01*
X462276Y204640D01*
X462150Y204577D01*
X462018Y204508D01*
X461886Y204426D01*
X461767Y204326D01*
X461648Y204219D01*
X461641Y204213D01*
X461622Y204188D01*
X461591Y204156D01*
X461553Y204106D01*
X461503Y204043D01*
X461453Y203974D01*
X461403Y203886D01*
X461340Y203792D01*
X461283Y203685D01*
X461233Y203566D01*
X461176Y203434D01*
X461132Y203296D01*
X461095Y203151D01*
X461063Y202994D01*
X461045Y202831D01*
X461038Y202655D01*
Y202611D01*
X461045Y202561D01*
Y202498D01*
X461057Y202417D01*
X461070Y202323D01*
X461089Y202216D01*
X461114Y202103D01*
X461145Y201977D01*
X461189Y201852D01*
X461239Y201720D01*
X461296Y201588D01*
X461371Y201449D01*
X461453Y201324D01*
X461547Y201192D01*
X461654Y201073D01*
X461660Y201066D01*
X461679Y201048D01*
X461717Y201016D01*
X461767Y200978D01*
X461823Y200928D01*
X461899Y200878D01*
X461980Y200821D01*
X462075Y200765D01*
X462181Y200702D01*
X462301Y200646D01*
X462426Y200595D01*
X462564Y200552D01*
X462709Y200507D01*
X462866Y200476D01*
X463029Y200457D01*
X463199Y200451D01*
X463255D01*
X463299Y200457D01*
X463349D01*
X463406Y200464D01*
X463475Y200470D01*
X463550Y200482D01*
X463720Y200514D01*
X463908Y200558D01*
X464103Y200621D01*
X464298Y200709D01*
X464304Y200715D01*
X464323Y200721D01*
X464348Y200734D01*
X464386Y200759D01*
X464430Y200784D01*
X464473Y200821D01*
X464593Y200903D01*
X464718Y201010D01*
X464850Y201142D01*
X464976Y201299D01*
X465089Y201475D01*
Y201481D01*
X465101Y201500D01*
X465114Y201525D01*
X465133Y201563D01*
X465152Y201613D01*
X465177Y201669D01*
X465196Y201738D01*
X465221Y201814D01*
X465246Y201902D01*
X465271Y201996D01*
X465296Y202096D01*
X465315Y202203D01*
X465334Y202316D01*
X465346Y202442D01*
X465353Y202567D01*
X465359Y202699D01*
Y200765D01*
Y204841D01*
D02*
G37*
G36*
X482786Y206342D02*
X478434D01*
D01*
X478560D01*
Y205431D01*
X481725Y201525D01*
X478434D01*
Y201544D01*
Y200545D01*
X483138D01*
Y201600D01*
X480092Y205362D01*
X482786D01*
Y206342D01*
D02*
G37*
G36*
X455675Y206235D02*
X453207D01*
X454055D01*
Y204747D01*
X453295D01*
Y203861D01*
X454055D01*
Y202166D01*
Y202159D01*
Y202140D01*
Y202115D01*
Y202084D01*
Y202046D01*
Y201996D01*
Y201895D01*
X454049Y201795D01*
Y201694D01*
X454042Y201651D01*
Y201613D01*
X454036Y201581D01*
Y201563D01*
Y201556D01*
X454030Y201550D01*
X454017Y201512D01*
X453986Y201468D01*
X453942Y201424D01*
X453936D01*
X453929Y201418D01*
X453910Y201412D01*
X453885Y201399D01*
X453829Y201380D01*
X453754Y201374D01*
X453722D01*
X453691Y201380D01*
X453641Y201387D01*
X453578Y201399D01*
X453496Y201418D01*
X453408Y201443D01*
X453308Y201475D01*
X453207Y200614D01*
D01*
X453214D01*
X453226Y200608D01*
X453245Y200602D01*
X453276Y200589D01*
X453314Y200577D01*
X453358Y200564D01*
X453408Y200545D01*
X453465Y200533D01*
X453590Y200501D01*
X453741Y200476D01*
X453910Y200457D01*
X454086Y200451D01*
X454137D01*
X454193Y200457D01*
X454269Y200464D01*
X454350Y200476D01*
X454438Y200495D01*
X454532Y200520D01*
X454627Y200552D01*
X454639Y200558D01*
X454664Y200570D01*
X454708Y200589D01*
X454758Y200621D01*
X454815Y200658D01*
X454878Y200702D01*
X454928Y200752D01*
X454978Y200809D01*
X454984Y200815D01*
X454997Y200840D01*
X455016Y200878D01*
X455041Y200922D01*
X455066Y200985D01*
X455091Y201060D01*
X455116Y201148D01*
X455135Y201242D01*
Y201255D01*
X455141Y201280D01*
Y201305D01*
X455148Y201337D01*
Y201374D01*
Y201412D01*
X455154Y201462D01*
Y201519D01*
X455160Y201581D01*
Y201657D01*
X455167Y201738D01*
Y201826D01*
Y201921D01*
Y202027D01*
Y203861D01*
X455675D01*
Y204765D01*
Y204747D01*
X455167D01*
Y205582D01*
X454055Y206235D01*
X455675D01*
D02*
G37*
G36*
X414529Y206361D02*
X412613D01*
X412569Y206354D01*
X412513D01*
X412444Y206342D01*
X412362Y206329D01*
X412268Y206310D01*
X412167Y206285D01*
X412067Y206254D01*
X411960Y206216D01*
X411847Y206166D01*
X411740Y206109D01*
X411634Y206040D01*
X411527Y205959D01*
X411426Y205864D01*
X411332Y205758D01*
X411326Y205751D01*
X411307Y205726D01*
X411282Y205682D01*
X411244Y205620D01*
X411200Y205544D01*
X411150Y205444D01*
X411100Y205331D01*
X411050Y205192D01*
X410999Y205042D01*
X410943Y204866D01*
X410899Y204671D01*
X410855Y204458D01*
X410817Y204225D01*
X410792Y203968D01*
X410773Y203692D01*
X410767Y203396D01*
Y203396D01*
Y200438D01*
Y203283D01*
X410773Y203239D01*
Y203189D01*
Y203126D01*
X410786Y202994D01*
X410798Y202837D01*
X410817Y202668D01*
X410836Y202486D01*
X410867Y202291D01*
X410905Y202096D01*
X410955Y201895D01*
X411006Y201701D01*
X411075Y201519D01*
X411150Y201337D01*
X411238Y201173D01*
X411338Y201029D01*
X411345Y201023D01*
X411357Y201004D01*
X411389Y200972D01*
X411426Y200935D01*
X411470Y200891D01*
X411533Y200840D01*
X411602Y200790D01*
X411678Y200734D01*
X411765Y200677D01*
X411866Y200627D01*
X411973Y200577D01*
X412092Y200533D01*
X412218Y200495D01*
X412356Y200464D01*
X412500Y200445D01*
X412651Y200438D01*
X412689D01*
X412733Y200445D01*
X412789Y200451D01*
X412864Y200457D01*
X412946Y200470D01*
X413040Y200495D01*
X413141Y200520D01*
X413247Y200552D01*
X413354Y200595D01*
X413467Y200652D01*
X413580Y200709D01*
X413693Y200784D01*
X413806Y200872D01*
X413913Y200972D01*
X414014Y201085D01*
X414020Y201092D01*
X414033Y201117D01*
X414064Y201154D01*
X414095Y201211D01*
X414133Y201286D01*
X414177Y201380D01*
X414221Y201494D01*
X414271Y201619D01*
X414321Y201770D01*
X414365Y201939D01*
X414409Y202128D01*
X414447Y202341D01*
X414478Y202574D01*
X414503Y202831D01*
X414522Y203107D01*
X414529Y203409D01*
Y200752D01*
Y203522D01*
X414522Y203566D01*
Y203616D01*
Y203673D01*
X414510Y203811D01*
X414497Y203961D01*
X414478Y204131D01*
X414460Y204313D01*
X414428Y204508D01*
X414391Y204703D01*
X414347Y204897D01*
X414290Y205092D01*
X414227Y205280D01*
X414152Y205456D01*
X414064Y205620D01*
X413964Y205764D01*
X413957Y205770D01*
X413938Y205789D01*
X413913Y205820D01*
X413876Y205858D01*
X413825Y205902D01*
X413769Y205952D01*
X413700Y206009D01*
X413624Y206065D01*
X413536Y206116D01*
X413436Y206172D01*
X413329Y206222D01*
X413210Y206266D01*
X413084Y206304D01*
X412946Y206335D01*
X412802Y206354D01*
X412651Y206361D01*
X414529D01*
D02*
G37*
G36*
X438462Y204841D02*
X434543D01*
D01*
X436496D01*
X436452Y204835D01*
X436383Y204828D01*
X436308Y204822D01*
X436213Y204809D01*
X436113Y204790D01*
X436006Y204765D01*
X435887Y204728D01*
X435768Y204690D01*
X435648Y204640D01*
X435523Y204577D01*
X435403Y204508D01*
X435284Y204426D01*
X435171Y204326D01*
X435064Y204219D01*
X435058Y204213D01*
X435039Y204188D01*
X435014Y204156D01*
X434983Y204106D01*
X434939Y204037D01*
X434895Y203955D01*
X434844Y203861D01*
X434794Y203754D01*
X434744Y203629D01*
X434700Y203484D01*
X434656Y203333D01*
X434618Y203164D01*
X434587Y202976D01*
X434562Y202775D01*
X434543Y202561D01*
Y202574D01*
Y202329D01*
X437325D01*
Y202323D01*
Y202310D01*
Y202278D01*
X437319Y202247D01*
X437313Y202203D01*
X437306Y202153D01*
X437287Y202046D01*
X437256Y201921D01*
X437212Y201789D01*
X437149Y201663D01*
X437061Y201550D01*
X437055D01*
X437049Y201537D01*
X437017Y201506D01*
X436961Y201462D01*
X436885Y201418D01*
X436791Y201368D01*
X436678Y201324D01*
X436553Y201292D01*
X436484Y201286D01*
X436414Y201280D01*
X436371D01*
X436327Y201286D01*
X436264Y201299D01*
X436195Y201311D01*
X436126Y201337D01*
X436050Y201374D01*
X435981Y201418D01*
X435975Y201424D01*
X435950Y201443D01*
X435918Y201481D01*
X435881Y201531D01*
X435830Y201594D01*
X435786Y201676D01*
X435743Y201770D01*
X435705Y201883D01*
X434599Y201694D01*
Y201688D01*
X434612Y201669D01*
X434625Y201638D01*
X434637Y201594D01*
X434662Y201544D01*
X434694Y201487D01*
X434725Y201418D01*
X434763Y201349D01*
X434857Y201198D01*
X434976Y201048D01*
X435114Y200897D01*
X435196Y200828D01*
X435278Y200765D01*
X435284Y200759D01*
X435297Y200752D01*
X435322Y200734D01*
X435359Y200715D01*
X435403Y200690D01*
X435460Y200664D01*
X435523Y200639D01*
X435592Y200608D01*
X435673Y200577D01*
X435761Y200552D01*
X435856Y200526D01*
X435956Y200501D01*
X436063Y200482D01*
X436182Y200464D01*
X436301Y200457D01*
X436427Y200451D01*
X436477D01*
X436534Y200457D01*
X436609Y200464D01*
X436697Y200470D01*
X436804Y200489D01*
X436917Y200507D01*
X437043Y200539D01*
X437174Y200577D01*
X437306Y200627D01*
X437438Y200683D01*
X437576Y200752D01*
X437702Y200834D01*
X437827Y200928D01*
X437941Y201035D01*
X438047Y201161D01*
X438054Y201167D01*
X438066Y201186D01*
X438085Y201217D01*
X438110Y201267D01*
X438141Y201324D01*
X438179Y201387D01*
X438217Y201468D01*
X438254Y201556D01*
X438292Y201657D01*
X438330Y201770D01*
X438368Y201889D01*
X438399Y202015D01*
X438424Y202153D01*
X438443Y202297D01*
X438455Y202454D01*
X438462Y202611D01*
Y200671D01*
Y202655D01*
X438455Y202712D01*
Y202781D01*
X438443Y202869D01*
X438430Y202976D01*
X438418Y203082D01*
X438393Y203208D01*
X438368Y203333D01*
X438330Y203465D01*
X438286Y203604D01*
X438236Y203742D01*
X438173Y203874D01*
X438097Y204006D01*
X438016Y204131D01*
X437922Y204244D01*
X437915Y204250D01*
X437897Y204269D01*
X437865Y204301D01*
X437821Y204338D01*
X437771Y204382D01*
X437702Y204433D01*
X437627Y204489D01*
X437545Y204546D01*
X437451Y204596D01*
X437344Y204652D01*
X437231Y204703D01*
X437105Y204747D01*
X436980Y204784D01*
X436841Y204816D01*
X436691Y204835D01*
X436540Y204841D01*
X438462D01*
D01*
D02*
G37*
G36*
X423616Y204841D02*
X419697D01*
D01*
X421650D01*
X421606Y204835D01*
X421537Y204828D01*
X421462Y204822D01*
X421368Y204809D01*
X421267Y204790D01*
X421160Y204765D01*
X421041Y204728D01*
X420922Y204690D01*
X420802Y204640D01*
X420677Y204577D01*
X420557Y204508D01*
X420438Y204426D01*
X420325Y204326D01*
X420218Y204219D01*
X420212Y204213D01*
X420193Y204188D01*
X420168Y204156D01*
X420137Y204106D01*
X420093Y204037D01*
X420049Y203955D01*
X419999Y203861D01*
X419948Y203754D01*
X419898Y203629D01*
X419854Y203484D01*
X419810Y203333D01*
X419772Y203164D01*
X419741Y202976D01*
X419716Y202775D01*
X419697Y202561D01*
Y202567D01*
Y202329D01*
X422479D01*
Y202323D01*
Y202310D01*
Y202278D01*
X422473Y202247D01*
X422467Y202203D01*
X422460Y202153D01*
X422441Y202046D01*
X422410Y201921D01*
X422366Y201789D01*
X422303Y201663D01*
X422215Y201550D01*
X422209D01*
X422203Y201537D01*
X422171Y201506D01*
X422115Y201462D01*
X422040Y201418D01*
X421945Y201368D01*
X421832Y201324D01*
X421707Y201292D01*
X421638Y201286D01*
X421568Y201280D01*
X421525D01*
X421481Y201286D01*
X421418Y201299D01*
X421349Y201311D01*
X421280Y201337D01*
X421204Y201374D01*
X421135Y201418D01*
X421129Y201424D01*
X421104Y201443D01*
X421072Y201481D01*
X421035Y201531D01*
X420985Y201594D01*
X420940Y201676D01*
X420897Y201770D01*
X420859Y201883D01*
X419754Y201694D01*
Y201688D01*
X419766Y201669D01*
X419779Y201638D01*
X419791Y201594D01*
X419816Y201544D01*
X419848Y201487D01*
X419879Y201418D01*
X419917Y201349D01*
X420011Y201198D01*
X420130Y201048D01*
X420269Y200897D01*
X420350Y200828D01*
X420432Y200765D01*
X420438Y200759D01*
X420451Y200752D01*
X420476Y200734D01*
X420513Y200715D01*
X420557Y200690D01*
X420614Y200664D01*
X420677Y200639D01*
X420746Y200608D01*
X420827Y200577D01*
X420915Y200552D01*
X421010Y200526D01*
X421110Y200501D01*
X421217Y200482D01*
X421336Y200464D01*
X421455Y200457D01*
X421581Y200451D01*
X421631D01*
X421688Y200457D01*
X421763Y200464D01*
X421851Y200470D01*
X421958Y200489D01*
X422071Y200507D01*
X422197Y200539D01*
X422328Y200577D01*
X422460Y200627D01*
X422592Y200683D01*
X422730Y200752D01*
X422856Y200834D01*
X422982Y200928D01*
X423095Y201035D01*
X423201Y201161D01*
X423208Y201167D01*
X423220Y201186D01*
X423239Y201217D01*
X423264Y201267D01*
X423296Y201324D01*
X423333Y201387D01*
X423371Y201468D01*
X423409Y201556D01*
X423446Y201657D01*
X423484Y201770D01*
X423522Y201889D01*
X423553Y202015D01*
X423578Y202153D01*
X423597Y202297D01*
X423610Y202454D01*
X423616Y202611D01*
Y200608D01*
Y202655D01*
X423610Y202712D01*
Y202781D01*
X423597Y202869D01*
X423584Y202976D01*
X423572Y203082D01*
X423547Y203208D01*
X423522Y203333D01*
X423484Y203465D01*
X423440Y203604D01*
X423390Y203742D01*
X423327Y203874D01*
X423252Y204006D01*
X423170Y204131D01*
X423076Y204244D01*
X423069Y204250D01*
X423051Y204269D01*
X423019Y204301D01*
X422975Y204338D01*
X422925Y204382D01*
X422856Y204433D01*
X422781Y204489D01*
X422699Y204546D01*
X422605Y204596D01*
X422498Y204652D01*
X422385Y204703D01*
X422259Y204747D01*
X422134Y204784D01*
X421996Y204816D01*
X421845Y204835D01*
X421694Y204841D01*
X423616D01*
D01*
D02*
G37*
G36*
X473190Y206342D02*
X469215D01*
Y200545D01*
Y205362D01*
X472022D01*
Y203987D01*
X469598D01*
Y203007D01*
X472022D01*
Y200545D01*
X473190D01*
Y206342D01*
D02*
G37*
G36*
X468304Y204841D02*
X465585D01*
D01*
X466257D01*
X466219Y204835D01*
X466182Y204828D01*
X466087Y204816D01*
X465974Y204790D01*
X465849Y204753D01*
X465717Y204696D01*
X465585Y204627D01*
X465931Y203660D01*
X465943Y203666D01*
X465981Y203692D01*
X466031Y203717D01*
X466100Y203754D01*
X466182Y203786D01*
X466270Y203817D01*
X466358Y203836D01*
X466452Y203842D01*
X466489D01*
X466533Y203836D01*
X466590Y203823D01*
X466653Y203811D01*
X466715Y203786D01*
X466785Y203754D01*
X466847Y203710D01*
X466854Y203704D01*
X466873Y203685D01*
X466904Y203654D01*
X466942Y203604D01*
X466979Y203541D01*
X467023Y203459D01*
X467067Y203365D01*
X467105Y203246D01*
Y203239D01*
X467111Y203227D01*
Y203208D01*
X467117Y203176D01*
X467124Y203139D01*
X467130Y203082D01*
X467142Y203019D01*
X467149Y202944D01*
X467155Y202856D01*
X467168Y202756D01*
X467174Y202643D01*
X467180Y202511D01*
X467186Y202366D01*
Y202209D01*
X467193Y202034D01*
Y201839D01*
Y200545D01*
X468304D01*
Y204765D01*
Y204747D01*
X467274D01*
Y204144D01*
X467268Y204150D01*
X467262Y204163D01*
X467249Y204181D01*
X467230Y204213D01*
X467180Y204288D01*
X467117Y204376D01*
X467042Y204470D01*
X466967Y204558D01*
X466885Y204640D01*
X466841Y204678D01*
X466803Y204703D01*
X466791Y204709D01*
X466766Y204721D01*
X466722Y204747D01*
X466665Y204772D01*
X466590Y204797D01*
X466508Y204822D01*
X466420Y204835D01*
X466320Y204841D01*
X468304D01*
D01*
D02*
G37*
G36*
X460172D02*
X456354D01*
X457704D01*
X457635Y204835D01*
X457540Y204822D01*
X457440Y204809D01*
X457327Y204784D01*
X457207Y204747D01*
X457094Y204703D01*
X457088D01*
X457082Y204696D01*
X457044Y204678D01*
X456988Y204652D01*
X456925Y204608D01*
X456850Y204564D01*
X456774Y204502D01*
X456699Y204439D01*
X456636Y204363D01*
X456630Y204357D01*
X456611Y204326D01*
X456586Y204288D01*
X456548Y204232D01*
X456510Y204163D01*
X456479Y204081D01*
X456441Y203993D01*
X456416Y203899D01*
Y203886D01*
X456404Y203849D01*
X456397Y203792D01*
X456385Y203710D01*
X456372Y203604D01*
X456366Y203478D01*
X456354Y203327D01*
Y200545D01*
X457465D01*
Y202687D01*
Y202693D01*
Y202718D01*
Y202749D01*
Y202800D01*
Y202850D01*
X457471Y202913D01*
Y203051D01*
X457484Y203202D01*
X457496Y203346D01*
X457503Y203415D01*
X457515Y203472D01*
X457528Y203522D01*
X457540Y203566D01*
Y203572D01*
X457553Y203597D01*
X457572Y203635D01*
X457597Y203679D01*
X457628Y203729D01*
X457666Y203786D01*
X457716Y203836D01*
X457773Y203880D01*
X457779Y203886D01*
X457798Y203899D01*
X457835Y203918D01*
X457879Y203936D01*
X457936Y203955D01*
X457999Y203974D01*
X458068Y203987D01*
X458149Y203993D01*
X458200D01*
X458250Y203987D01*
X458325Y203974D01*
X458401Y203955D01*
X458489Y203924D01*
X458583Y203886D01*
X458671Y203830D01*
X458683Y203823D01*
X458708Y203798D01*
X458746Y203767D01*
X458796Y203717D01*
X458847Y203660D01*
X458897Y203585D01*
X458941Y203503D01*
X458979Y203409D01*
X458985Y203396D01*
Y203384D01*
X458991Y203359D01*
X458997Y203327D01*
X459004Y203290D01*
X459010Y203246D01*
X459016Y203195D01*
X459029Y203133D01*
X459035Y203064D01*
X459041Y202982D01*
X459048Y202894D01*
X459054Y202800D01*
Y202693D01*
X459060Y202574D01*
Y202448D01*
Y200545D01*
X458263D01*
X460172D01*
Y204747D01*
D01*
X459142D01*
Y204125D01*
X459135Y204131D01*
X459117Y204156D01*
X459085Y204194D01*
X459041Y204238D01*
X458991Y204288D01*
X458922Y204351D01*
X458853Y204414D01*
X458765Y204483D01*
X458671Y204552D01*
X458564Y204615D01*
X458451Y204678D01*
X458332Y204728D01*
X458200Y204778D01*
X458062Y204809D01*
X457917Y204835D01*
X457766Y204841D01*
X460172D01*
D02*
G37*
G36*
X443090D02*
X439272D01*
D01*
X440622D01*
X440553Y204835D01*
X440459Y204822D01*
X440358Y204809D01*
X440245Y204784D01*
X440126Y204747D01*
X440013Y204703D01*
X440007D01*
X440000Y204696D01*
X439963Y204678D01*
X439906Y204652D01*
X439843Y204608D01*
X439768Y204564D01*
X439693Y204502D01*
X439617Y204439D01*
X439555Y204363D01*
X439548Y204357D01*
X439529Y204326D01*
X439504Y204288D01*
X439467Y204232D01*
X439429Y204163D01*
X439397Y204081D01*
X439360Y203993D01*
X439335Y203899D01*
Y203886D01*
X439322Y203849D01*
X439316Y203792D01*
X439303Y203710D01*
X439291Y203604D01*
X439284Y203478D01*
X439272Y203327D01*
Y200545D01*
X440383D01*
Y202687D01*
Y202693D01*
Y202718D01*
Y202749D01*
Y202800D01*
Y202850D01*
X440390Y202913D01*
Y203051D01*
X440402Y203202D01*
X440415Y203346D01*
X440421Y203415D01*
X440434Y203472D01*
X440446Y203522D01*
X440459Y203566D01*
Y203572D01*
X440471Y203597D01*
X440490Y203635D01*
X440515Y203679D01*
X440547Y203729D01*
X440584Y203786D01*
X440635Y203836D01*
X440691Y203880D01*
X440697Y203886D01*
X440716Y203899D01*
X440754Y203918D01*
X440798Y203936D01*
X440854Y203955D01*
X440917Y203974D01*
X440986Y203987D01*
X441068Y203993D01*
X441118D01*
X441168Y203987D01*
X441244Y203974D01*
X441319Y203955D01*
X441407Y203924D01*
X441501Y203886D01*
X441589Y203830D01*
X441602Y203823D01*
X441627Y203798D01*
X441665Y203767D01*
X441715Y203717D01*
X441765Y203660D01*
X441815Y203585D01*
X441859Y203503D01*
X441897Y203409D01*
X441903Y203396D01*
Y203384D01*
X441910Y203359D01*
X441916Y203327D01*
X441922Y203290D01*
X441928Y203246D01*
X441935Y203195D01*
X441947Y203133D01*
X441953Y203064D01*
X441960Y202982D01*
X441966Y202894D01*
X441972Y202800D01*
Y202693D01*
X441979Y202574D01*
Y202448D01*
Y200545D01*
X443090D01*
Y204747D01*
X442060D01*
Y204125D01*
X442054Y204131D01*
X442035Y204156D01*
X442004Y204194D01*
X441960Y204238D01*
X441910Y204288D01*
X441840Y204351D01*
X441771Y204414D01*
X441683Y204483D01*
X441589Y204552D01*
X441482Y204615D01*
X441369Y204678D01*
X441250Y204728D01*
X441118Y204778D01*
X440980Y204809D01*
X440836Y204835D01*
X440685Y204841D01*
X443090D01*
D01*
D02*
G37*
G36*
X488488Y206342D02*
X483872D01*
Y203032D01*
X483879Y202938D01*
Y202831D01*
X483885Y202712D01*
X483897Y202473D01*
X483916Y202228D01*
X483929Y202109D01*
X483942Y202002D01*
X483954Y201902D01*
X483973Y201814D01*
Y201807D01*
X483979Y201795D01*
X483986Y201770D01*
X483992Y201745D01*
X484004Y201707D01*
X484017Y201663D01*
X484055Y201563D01*
X484098Y201443D01*
X484161Y201324D01*
X484237Y201205D01*
X484325Y201085D01*
Y201079D01*
X484337Y201073D01*
X484369Y201035D01*
X484425Y200985D01*
X484500Y200916D01*
X484601Y200840D01*
X484714Y200765D01*
X484852Y200683D01*
X485003Y200614D01*
X485009D01*
X485022Y200608D01*
X485047Y200595D01*
X485078Y200589D01*
X485122Y200577D01*
X485172Y200558D01*
X485235Y200545D01*
X485304Y200526D01*
X485380Y200507D01*
X485461Y200495D01*
X485556Y200482D01*
X485650Y200464D01*
X485756Y200457D01*
X485870Y200445D01*
X485989Y200438D01*
X486196D01*
X486252Y200445D01*
X486322D01*
X486397Y200451D01*
X486485Y200457D01*
X486579Y200464D01*
X486786Y200482D01*
X486994Y200520D01*
X487194Y200564D01*
X487289Y200595D01*
X487370Y200627D01*
X487377D01*
X487389Y200633D01*
X487414Y200646D01*
X487439Y200664D01*
X487477Y200683D01*
X487521Y200702D01*
X487615Y200765D01*
X487722Y200834D01*
X487835Y200916D01*
X487948Y201016D01*
X488049Y201123D01*
Y201129D01*
X488061Y201135D01*
X488074Y201154D01*
X488086Y201180D01*
X488130Y201236D01*
X488180Y201318D01*
X488237Y201418D01*
X488294Y201525D01*
X488338Y201644D01*
X488375Y201770D01*
Y201776D01*
X488381Y201795D01*
X488388Y201820D01*
X488394Y201864D01*
X488400Y201914D01*
X488413Y201977D01*
X488419Y202052D01*
X488432Y202140D01*
X488444Y202235D01*
X488451Y202348D01*
X488463Y202467D01*
X488469Y202599D01*
X488476Y202743D01*
X488482Y202894D01*
X488488Y203064D01*
Y200545D01*
Y206342D01*
D02*
G37*
G36*
X433632D02*
X432521D01*
Y200545D01*
X433632D01*
Y206342D01*
D02*
G37*
G36*
X429130Y206342D02*
X423917D01*
D01*
X426517D01*
X426442Y206335D01*
X426354D01*
X426253Y206329D01*
X426153Y206323D01*
X425927Y206304D01*
X425707Y206273D01*
X425600Y206260D01*
X425493Y206235D01*
X425399Y206210D01*
X425318Y206185D01*
X425311D01*
X425299Y206178D01*
X425280Y206166D01*
X425249Y206153D01*
X425211Y206134D01*
X425173Y206116D01*
X425073Y206059D01*
X424966Y205977D01*
X424859Y205883D01*
X424746Y205764D01*
X424646Y205626D01*
Y205620D01*
X424633Y205607D01*
X424621Y205588D01*
X424608Y205557D01*
X424583Y205519D01*
X424564Y205475D01*
X424539Y205418D01*
X424514Y205362D01*
X424470Y205230D01*
X424426Y205073D01*
X424401Y204904D01*
X424388Y204715D01*
Y204709D01*
Y204684D01*
Y204652D01*
X424395Y204608D01*
X424401Y204552D01*
X424407Y204489D01*
X424420Y204414D01*
X424438Y204338D01*
X424482Y204163D01*
X424514Y204075D01*
X424552Y203987D01*
X424595Y203892D01*
X424646Y203804D01*
X424702Y203717D01*
X424771Y203635D01*
X424778Y203629D01*
X424790Y203616D01*
X424809Y203597D01*
X424840Y203566D01*
X424884Y203535D01*
X424935Y203497D01*
X424991Y203453D01*
X425060Y203409D01*
X425136Y203359D01*
X425217Y203315D01*
X425311Y203271D01*
X425418Y203227D01*
X425531Y203189D01*
X425651Y203151D01*
X425782Y203120D01*
X425921Y203095D01*
X425914D01*
X425902Y203082D01*
X425883Y203076D01*
X425858Y203057D01*
X425789Y203013D01*
X425701Y202951D01*
X425600Y202881D01*
X425493Y202800D01*
X425387Y202706D01*
X425293Y202611D01*
X425280Y202599D01*
X425268Y202580D01*
X425249Y202561D01*
X425223Y202530D01*
X425192Y202492D01*
X425154Y202448D01*
X425117Y202398D01*
X425073Y202335D01*
X425023Y202266D01*
X424966Y202191D01*
X424909Y202103D01*
X424847Y202008D01*
X424778Y201902D01*
X424702Y201795D01*
X424627Y201669D01*
X423917Y200545D01*
X425318D01*
X426165Y201807D01*
X426172Y201814D01*
X426184Y201839D01*
X426209Y201870D01*
X426241Y201914D01*
X426272Y201971D01*
X426316Y202027D01*
X426410Y202166D01*
X426517Y202310D01*
X426618Y202448D01*
X426668Y202511D01*
X426712Y202567D01*
X426750Y202618D01*
X426787Y202655D01*
X426793Y202662D01*
X426812Y202687D01*
X426850Y202712D01*
X426894Y202749D01*
X426944Y202794D01*
X427007Y202831D01*
X427070Y202869D01*
X427139Y202894D01*
X427145Y202900D01*
X427177Y202906D01*
X427221Y202919D01*
X427283Y202932D01*
X427365Y202944D01*
X427465Y202951D01*
X427585Y202963D01*
X427962D01*
Y200545D01*
X429130D01*
Y206342D01*
D02*
G37*
G36*
X419333Y204747D02*
X414974D01*
X416645Y200545D01*
X417643D01*
X419333Y204747D01*
D02*
G37*
G36*
X452560Y204841D02*
X450186D01*
X450149Y204835D01*
X450092D01*
X450030Y204822D01*
X449960Y204809D01*
X449879Y204790D01*
X449785Y204772D01*
X449690Y204740D01*
X449590Y204703D01*
X449489Y204652D01*
X449383Y204596D01*
X449276Y204533D01*
X449175Y204451D01*
X449075Y204363D01*
X448975Y204263D01*
X448968Y204257D01*
X448949Y204238D01*
X448924Y204206D01*
X448893Y204156D01*
X448855Y204100D01*
X448811Y204031D01*
X448767Y203943D01*
X448717Y203849D01*
X448667Y203742D01*
X448623Y203622D01*
X448579Y203490D01*
X448541Y203346D01*
X448510Y203195D01*
X448478Y203032D01*
X448466Y202856D01*
X448459Y202668D01*
Y202624D01*
X448466Y202567D01*
Y202492D01*
X448472Y202404D01*
X448485Y202304D01*
X448503Y202191D01*
X448522Y202065D01*
X448554Y201939D01*
X448585Y201801D01*
X448629Y201669D01*
X448679Y201531D01*
X448736Y201399D01*
X448805Y201267D01*
X448886Y201142D01*
X448975Y201029D01*
X448981Y201023D01*
X449000Y201004D01*
X449025Y200978D01*
X449069Y200941D01*
X449119Y200897D01*
X449175Y200847D01*
X449244Y200796D01*
X449326Y200740D01*
X449408Y200683D01*
X449508Y200633D01*
X449609Y200583D01*
X449722Y200539D01*
X449835Y200507D01*
X449960Y200476D01*
X450086Y200457D01*
X450224Y200451D01*
X450281D01*
X450350Y200457D01*
X450438Y200470D01*
X450532Y200482D01*
X450639Y200507D01*
X450752Y200545D01*
X450858Y200589D01*
X450871Y200595D01*
X450909Y200614D01*
X450965Y200652D01*
X451041Y200702D01*
X451128Y200765D01*
X451229Y200847D01*
X451336Y200947D01*
X451449Y201060D01*
Y198950D01*
X452560D01*
Y204747D01*
X451524D01*
Y204131D01*
X451512Y204137D01*
X451486Y204175D01*
X451442Y204238D01*
X451380Y204307D01*
X451304Y204389D01*
X451210Y204476D01*
X451103Y204564D01*
X450984Y204640D01*
X450978D01*
X450965Y204646D01*
X450946Y204659D01*
X450921Y204671D01*
X450890Y204684D01*
X450852Y204703D01*
X450758Y204740D01*
X450645Y204778D01*
X450513Y204809D01*
X450369Y204835D01*
X450218Y204841D01*
X452560D01*
D01*
D02*
G37*
%LPD*%
G36*
X445276Y202555D02*
X445307Y202549D01*
X445357Y202530D01*
X445433Y202511D01*
X445527Y202486D01*
X445646Y202454D01*
X445784Y202423D01*
X445948Y202385D01*
X445954D01*
X445966Y202379D01*
X445992D01*
X446023Y202366D01*
X446098Y202348D01*
X446192Y202329D01*
X446293Y202297D01*
X446393Y202266D01*
X446481Y202235D01*
X446519Y202216D01*
X446550Y202197D01*
X446557Y202191D01*
X446582Y202172D01*
X446620Y202134D01*
X446657Y202090D01*
X446695Y202034D01*
X446733Y201964D01*
X446758Y201889D01*
X446764Y201807D01*
Y201795D01*
Y201770D01*
X446758Y201726D01*
X446745Y201669D01*
X446720Y201606D01*
X446695Y201537D01*
X446651Y201475D01*
X446594Y201406D01*
X446588Y201399D01*
X446563Y201380D01*
X446525Y201349D01*
X446475Y201324D01*
X446406Y201292D01*
X446331Y201261D01*
X446243Y201242D01*
X446148Y201236D01*
X446136D01*
X446098Y201242D01*
X446042Y201249D01*
X445966Y201261D01*
X445878Y201286D01*
X445778Y201318D01*
X445678Y201368D01*
X445577Y201431D01*
X445571Y201437D01*
X445546Y201456D01*
X445508Y201487D01*
X445470Y201531D01*
X445420Y201588D01*
X445376Y201651D01*
X445338Y201720D01*
X445307Y201795D01*
Y201801D01*
X445301Y201826D01*
X445294Y201864D01*
X445282Y201914D01*
X445276Y201990D01*
X445269Y202084D01*
X445263Y202197D01*
Y202335D01*
Y202561D01*
X445276Y202555D01*
D02*
G37*
G36*
X447875Y200451D02*
X446544D01*
X446588Y200457D01*
X446645Y200464D01*
X446707Y200470D01*
X446776Y200482D01*
X446852Y200495D01*
X447015Y200533D01*
X447185Y200595D01*
X447273Y200639D01*
X447354Y200683D01*
X447430Y200734D01*
X447505Y200796D01*
X447511Y200803D01*
X447524Y200815D01*
X447536Y200834D01*
X447562Y200859D01*
X447593Y200897D01*
X447624Y200935D01*
X447656Y200985D01*
X447687Y201041D01*
X447725Y201104D01*
X447756Y201167D01*
X447819Y201324D01*
X447844Y201406D01*
X447857Y201494D01*
X447869Y201588D01*
X447875Y201688D01*
Y200451D01*
D02*
G37*
G36*
X463274Y203930D02*
X463312Y203924D01*
X463356Y203918D01*
X463456Y203892D01*
X463576Y203855D01*
X463695Y203798D01*
X463758Y203761D01*
X463814Y203717D01*
X463877Y203660D01*
X463933Y203604D01*
Y203597D01*
X463946Y203591D01*
X463959Y203566D01*
X463977Y203541D01*
X464003Y203509D01*
X464028Y203465D01*
X464053Y203415D01*
X464078Y203359D01*
X464103Y203296D01*
X464128Y203221D01*
X464153Y203145D01*
X464178Y203057D01*
X464197Y202963D01*
X464210Y202863D01*
X464216Y202756D01*
X464222Y202643D01*
Y202637D01*
Y202618D01*
Y202580D01*
X464216Y202542D01*
Y202486D01*
X464210Y202429D01*
X464197Y202360D01*
X464185Y202285D01*
X464153Y202134D01*
X464103Y201971D01*
X464028Y201820D01*
X463984Y201745D01*
X463933Y201682D01*
X463927Y201676D01*
X463921Y201669D01*
X463902Y201651D01*
X463883Y201632D01*
X463814Y201581D01*
X463732Y201519D01*
X463626Y201456D01*
X463500Y201406D01*
X463362Y201368D01*
X463287Y201362D01*
X463205Y201355D01*
X463161D01*
X463130Y201362D01*
X463098Y201368D01*
X463054Y201374D01*
X462954Y201399D01*
X462834Y201437D01*
X462715Y201494D01*
X462652Y201531D01*
X462590Y201575D01*
X462533Y201625D01*
X462476Y201682D01*
X462470Y201688D01*
X462464Y201701D01*
X462451Y201720D01*
X462432Y201745D01*
X462407Y201776D01*
X462382Y201820D01*
X462357Y201870D01*
X462326Y201927D01*
X462301Y201990D01*
X462276Y202065D01*
X462250Y202147D01*
X462225Y202228D01*
X462206Y202323D01*
X462194Y202423D01*
X462181Y202536D01*
Y202649D01*
Y202655D01*
Y202674D01*
Y202712D01*
X462188Y202749D01*
Y202806D01*
X462194Y202863D01*
X462206Y202932D01*
X462219Y203001D01*
X462250Y203158D01*
X462307Y203315D01*
X462376Y203465D01*
X462426Y203541D01*
X462476Y203604D01*
X462483Y203610D01*
X462489Y203616D01*
X462508Y203635D01*
X462527Y203654D01*
X462590Y203710D01*
X462677Y203773D01*
X462784Y203830D01*
X462910Y203886D01*
X463048Y203924D01*
X463123Y203930D01*
X463205Y203936D01*
X463249D01*
X463274Y203930D01*
D02*
G37*
G36*
X412720Y205431D02*
X412770Y205418D01*
X412827Y205406D01*
X412890Y205381D01*
X412946Y205349D01*
X413009Y205306D01*
X413015Y205299D01*
X413034Y205280D01*
X413065Y205249D01*
X413097Y205199D01*
X413134Y205136D01*
X413178Y205061D01*
X413216Y204960D01*
X413254Y204847D01*
Y204841D01*
X413260Y204828D01*
X413266Y204803D01*
X413273Y204765D01*
X413279Y204715D01*
X413292Y204659D01*
X413298Y204583D01*
X413310Y204502D01*
X413323Y204407D01*
X413329Y204301D01*
X413342Y204181D01*
X413348Y204049D01*
X413354Y203911D01*
X413361Y203748D01*
X413367Y203578D01*
Y203396D01*
Y203384D01*
Y203352D01*
Y203302D01*
Y203233D01*
X413361Y203145D01*
Y203051D01*
Y202951D01*
X413354Y202837D01*
X413342Y202605D01*
X413323Y202373D01*
X413310Y202260D01*
X413298Y202159D01*
X413285Y202071D01*
X413266Y201990D01*
Y201983D01*
X413260Y201971D01*
X413254Y201952D01*
X413247Y201927D01*
X413229Y201864D01*
X413197Y201789D01*
X413160Y201701D01*
X413116Y201619D01*
X413065Y201544D01*
X413009Y201487D01*
X413003Y201481D01*
X412984Y201468D01*
X412946Y201449D01*
X412902Y201424D01*
X412852Y201399D01*
X412789Y201380D01*
X412726Y201368D01*
X412651Y201362D01*
X412619D01*
X412582Y201368D01*
X412532Y201380D01*
X412475Y201393D01*
X412412Y201412D01*
X412356Y201443D01*
X412293Y201487D01*
X412287Y201494D01*
X412268Y201512D01*
X412236Y201544D01*
X412205Y201594D01*
X412161Y201657D01*
X412123Y201732D01*
X412086Y201833D01*
X412048Y201946D01*
Y201952D01*
X412042Y201964D01*
X412036Y201990D01*
X412029Y202027D01*
X412023Y202078D01*
X412010Y202134D01*
X411998Y202203D01*
X411985Y202285D01*
X411979Y202379D01*
X411966Y202486D01*
X411954Y202605D01*
X411948Y202737D01*
X411941Y202881D01*
X411935Y203038D01*
X411929Y203214D01*
Y203396D01*
Y203409D01*
Y203440D01*
Y203490D01*
Y203560D01*
Y203641D01*
X411935Y203742D01*
Y203842D01*
X411941Y203955D01*
X411954Y204188D01*
X411973Y204414D01*
X411985Y204527D01*
X411998Y204627D01*
X412017Y204715D01*
X412036Y204797D01*
Y204803D01*
X412042Y204816D01*
X412048Y204835D01*
X412054Y204860D01*
X412073Y204922D01*
X412105Y205004D01*
X412142Y205092D01*
X412186Y205174D01*
X412236Y205249D01*
X412293Y205306D01*
X412299Y205312D01*
X412318Y205324D01*
X412356Y205349D01*
X412394Y205375D01*
X412450Y205393D01*
X412513Y205418D01*
X412576Y205431D01*
X412651Y205437D01*
X412682D01*
X412720Y205431D01*
D02*
G37*
G36*
X436540Y203987D02*
X436603Y203980D01*
X436691Y203961D01*
X436785Y203930D01*
X436885Y203880D01*
X436980Y203811D01*
X437030Y203773D01*
X437074Y203723D01*
X437086Y203710D01*
X437112Y203673D01*
X437149Y203616D01*
X437193Y203535D01*
X437237Y203434D01*
X437275Y203308D01*
X437300Y203170D01*
X437306Y203007D01*
X435648D01*
Y203013D01*
Y203026D01*
Y203051D01*
X435655Y203089D01*
X435661Y203126D01*
X435667Y203170D01*
X435686Y203277D01*
X435717Y203396D01*
X435761Y203516D01*
X435818Y203635D01*
X435899Y203735D01*
X435912Y203748D01*
X435944Y203773D01*
X435994Y203817D01*
X436063Y203867D01*
X436144Y203911D01*
X436245Y203955D01*
X436358Y203980D01*
X436477Y203993D01*
X436515D01*
X436540Y203987D01*
D02*
G37*
G36*
X421694Y203987D02*
X421757Y203980D01*
X421845Y203961D01*
X421939Y203930D01*
X422040Y203880D01*
X422134Y203811D01*
X422184Y203773D01*
X422228Y203723D01*
X422240Y203710D01*
X422266Y203673D01*
X422303Y203616D01*
X422347Y203535D01*
X422391Y203434D01*
X422429Y203308D01*
X422454Y203170D01*
X422460Y203007D01*
X420802D01*
Y203013D01*
Y203026D01*
Y203051D01*
X420809Y203089D01*
X420815Y203126D01*
X420821Y203170D01*
X420840Y203277D01*
X420871Y203396D01*
X420915Y203516D01*
X420972Y203635D01*
X421054Y203735D01*
X421066Y203748D01*
X421098Y203773D01*
X421148Y203817D01*
X421217Y203867D01*
X421299Y203911D01*
X421399Y203955D01*
X421512Y203980D01*
X421631Y203993D01*
X421669D01*
X421694Y203987D01*
D02*
G37*
G36*
X487320Y203195D02*
Y203189D01*
Y203164D01*
Y203126D01*
Y203076D01*
Y203013D01*
Y202944D01*
X487314Y202869D01*
Y202794D01*
Y202624D01*
X487301Y202467D01*
Y202392D01*
X487295Y202329D01*
X487289Y202272D01*
X487283Y202222D01*
Y202216D01*
X487276Y202209D01*
Y202191D01*
X487264Y202166D01*
X487245Y202096D01*
X487207Y202015D01*
X487163Y201927D01*
X487100Y201833D01*
X487019Y201738D01*
X486925Y201651D01*
X486918D01*
X486912Y201644D01*
X486893Y201632D01*
X486874Y201619D01*
X486811Y201581D01*
X486724Y201544D01*
X486611Y201506D01*
X486479Y201468D01*
X486328Y201443D01*
X486152Y201437D01*
X486102D01*
X486070Y201443D01*
X486026D01*
X485983Y201449D01*
X485870Y201462D01*
X485750Y201487D01*
X485625Y201525D01*
X485505Y201569D01*
X485398Y201638D01*
X485386Y201644D01*
X485361Y201676D01*
X485317Y201720D01*
X485267Y201776D01*
X485216Y201845D01*
X485166Y201933D01*
X485122Y202027D01*
X485097Y202134D01*
Y202140D01*
Y202147D01*
X485091Y202166D01*
Y202191D01*
X485084Y202228D01*
X485078Y202266D01*
X485072Y202316D01*
X485066Y202373D01*
Y202435D01*
X485059Y202511D01*
X485053Y202592D01*
X485047Y202680D01*
Y202781D01*
X485041Y202888D01*
Y203001D01*
Y203126D01*
Y206342D01*
X487320D01*
Y203195D01*
D02*
G37*
G36*
X427962Y203886D02*
X426894D01*
X426819Y203892D01*
X426649D01*
X426467Y203905D01*
X426297Y203918D01*
X426222Y203924D01*
X426153Y203930D01*
X426090Y203943D01*
X426046Y203955D01*
X426034Y203961D01*
X426009Y203968D01*
X425971Y203987D01*
X425927Y204012D01*
X425870Y204043D01*
X425814Y204087D01*
X425764Y204137D01*
X425713Y204200D01*
X425707Y204206D01*
X425695Y204232D01*
X425676Y204269D01*
X425651Y204320D01*
X425632Y204382D01*
X425613Y204458D01*
X425600Y204546D01*
X425594Y204640D01*
Y204646D01*
Y204652D01*
Y204690D01*
X425600Y204740D01*
X425613Y204809D01*
X425632Y204885D01*
X425663Y204960D01*
X425701Y205035D01*
X425751Y205111D01*
X425757Y205117D01*
X425782Y205142D01*
X425814Y205174D01*
X425864Y205205D01*
X425927Y205249D01*
X426002Y205280D01*
X426096Y205312D01*
X426197Y205337D01*
X426203D01*
X426228Y205343D01*
X426278D01*
X426310Y205349D01*
X426404D01*
X426467Y205356D01*
X426618D01*
X426706Y205362D01*
X427962D01*
Y203886D01*
D02*
G37*
G36*
X417374Y202599D02*
X417147Y201883D01*
Y201889D01*
X417141Y201895D01*
X417135Y201927D01*
X417116Y201977D01*
X417097Y202034D01*
X417078Y202090D01*
X417060Y202153D01*
X417047Y202203D01*
X417034Y202241D01*
Y202247D01*
X417022Y202272D01*
X417016Y202310D01*
X416997Y202354D01*
X416978Y202410D01*
X416959Y202467D01*
X416915Y202599D01*
X416117Y204747D01*
X418165D01*
X417374Y202599D01*
D02*
G37*
G36*
X450595Y203955D02*
X450626Y203949D01*
X450670Y203943D01*
X450764Y203924D01*
X450871Y203886D01*
X450984Y203830D01*
X451041Y203792D01*
X451097Y203748D01*
X451154Y203698D01*
X451204Y203641D01*
Y203635D01*
X451216Y203629D01*
X451229Y203610D01*
X451248Y203585D01*
X451267Y203547D01*
X451286Y203509D01*
X451311Y203459D01*
X451336Y203409D01*
X451361Y203346D01*
X451386Y203277D01*
X451405Y203202D01*
X451424Y203120D01*
X451442Y203026D01*
X451455Y202932D01*
X451461Y202825D01*
X451468Y202712D01*
Y202706D01*
Y202680D01*
Y202643D01*
X451461Y202599D01*
Y202536D01*
X451455Y202467D01*
X451442Y202398D01*
X451430Y202316D01*
X451399Y202147D01*
X451348Y201971D01*
X451279Y201807D01*
X451242Y201732D01*
X451191Y201663D01*
X451185Y201657D01*
X451179Y201651D01*
X451141Y201613D01*
X451078Y201556D01*
X450997Y201500D01*
X450896Y201437D01*
X450783Y201380D01*
X450645Y201343D01*
X450576Y201337D01*
X450500Y201330D01*
X450463D01*
X450438Y201337D01*
X450369Y201349D01*
X450274Y201368D01*
X450174Y201406D01*
X450067Y201462D01*
X450017Y201494D01*
X449960Y201537D01*
X449910Y201581D01*
X449860Y201638D01*
X449854Y201644D01*
X449847Y201651D01*
X449835Y201669D01*
X449816Y201694D01*
X449797Y201732D01*
X449778Y201770D01*
X449753Y201820D01*
X449728Y201883D01*
X449703Y201946D01*
X449678Y202021D01*
X449659Y202103D01*
X449640Y202197D01*
X449621Y202297D01*
X449609Y202410D01*
X449596Y202530D01*
Y202655D01*
Y202662D01*
Y202687D01*
Y202718D01*
X449603Y202762D01*
Y202819D01*
X449609Y202881D01*
X449621Y202951D01*
X449628Y203026D01*
X449659Y203183D01*
X449709Y203346D01*
X449778Y203503D01*
X449816Y203572D01*
X449866Y203635D01*
Y203641D01*
X449879Y203647D01*
X449917Y203685D01*
X449973Y203735D01*
X450048Y203798D01*
X450143Y203861D01*
X450256Y203911D01*
X450381Y203949D01*
X450450Y203955D01*
X450526Y203961D01*
X450563D01*
X450595Y203955D01*
D02*
G37*
%LPC*%
G36*
X461487Y190753D02*
Y189284D01*
X461481D01*
X461469Y189290D01*
X461443Y189296D01*
X461412Y189309D01*
X461368Y189328D01*
X461324Y189347D01*
X461268Y189372D01*
X461205Y189403D01*
X461067Y189472D01*
X460910Y189567D01*
X460734Y189680D01*
X460545Y189818D01*
X460539Y189824D01*
X460520Y189837D01*
X460495Y189855D01*
X460464Y189887D01*
X460420Y189925D01*
X460376Y189975D01*
X460326Y190025D01*
X460269Y190088D01*
X460150Y190226D01*
X460037Y190383D01*
X459930Y190559D01*
X459886Y190653D01*
X459848Y190753D01*
X458944D01*
Y184938D01*
X460055D01*
Y189114D01*
X460062Y189108D01*
X460081Y189089D01*
X460118Y189058D01*
X460162Y189020D01*
X460219Y188976D01*
X460294Y188920D01*
X460369Y188857D01*
X460464Y188794D01*
X460564Y188725D01*
X460671Y188656D01*
X460790Y188587D01*
X460916Y188518D01*
X461048Y188449D01*
X461192Y188386D01*
X461337Y188329D01*
X461487Y188273D01*
Y185152D01*
Y190753D01*
D02*
G37*
G36*
X450673D02*
X446780D01*
X448538D01*
X448475Y190747D01*
X448406Y190741D01*
X448324Y190728D01*
X448230Y190716D01*
X448130Y190697D01*
X448023Y190672D01*
X447916Y190640D01*
X447803Y190603D01*
X447690Y190559D01*
X447583Y190502D01*
X447477Y190439D01*
X447370Y190370D01*
X447276Y190289D01*
X447269Y190282D01*
X447257Y190270D01*
X447232Y190238D01*
X447200Y190207D01*
X447163Y190163D01*
X447119Y190107D01*
X447075Y190044D01*
X447024Y189968D01*
X446981Y189893D01*
X446937Y189805D01*
X446893Y189711D01*
X446855Y189611D01*
X446824Y189497D01*
X446798Y189384D01*
X446786Y189265D01*
X446780Y189139D01*
Y189070D01*
X446786Y189039D01*
Y188995D01*
X446798Y188901D01*
X446817Y188781D01*
X446842Y188656D01*
X446874Y188524D01*
X446924Y188392D01*
Y188386D01*
X446930Y188380D01*
X446937Y188355D01*
X446949Y188329D01*
X446968Y188298D01*
X446987Y188260D01*
X447031Y188166D01*
X447094Y188059D01*
X447169Y187934D01*
X447263Y187796D01*
X447370Y187651D01*
X447382Y187639D01*
X447408Y187601D01*
X447464Y187544D01*
X447533Y187463D01*
X447583Y187413D01*
X447634Y187356D01*
X447696Y187299D01*
X447759Y187230D01*
X447835Y187161D01*
X447916Y187080D01*
X448004Y186998D01*
X448098Y186910D01*
X448105Y186904D01*
X448124Y186891D01*
X448149Y186866D01*
X448180Y186835D01*
X448224Y186797D01*
X448274Y186753D01*
X448381Y186653D01*
X448494Y186546D01*
X448601Y186439D01*
X448651Y186389D01*
X448695Y186345D01*
X448733Y186301D01*
X448764Y186269D01*
X448770Y186263D01*
X448789Y186244D01*
X448814Y186213D01*
X448846Y186175D01*
X448877Y186125D01*
X448915Y186075D01*
X448990Y185968D01*
X446780D01*
Y184938D01*
X450673D01*
Y184944D01*
X450667Y184963D01*
Y184995D01*
X450661Y185039D01*
X450648Y185089D01*
X450635Y185152D01*
X450623Y185221D01*
X450604Y185296D01*
X450554Y185466D01*
X450485Y185654D01*
X450403Y185849D01*
X450296Y186043D01*
X450290Y186050D01*
X450284Y186069D01*
X450259Y186100D01*
X450234Y186138D01*
X450196Y186188D01*
X450146Y186257D01*
X450089Y186326D01*
X450020Y186414D01*
X449945Y186508D01*
X449851Y186609D01*
X449750Y186728D01*
X449637Y186847D01*
X449511Y186979D01*
X449367Y187124D01*
X449216Y187274D01*
X449047Y187431D01*
X449040Y187438D01*
X449015Y187463D01*
X448978Y187500D01*
X448927Y187544D01*
X448865Y187601D01*
X448802Y187664D01*
X448726Y187739D01*
X448651Y187814D01*
X448488Y187971D01*
X448337Y188128D01*
X448274Y188198D01*
X448211Y188267D01*
X448161Y188329D01*
X448124Y188380D01*
Y188386D01*
X448111Y188392D01*
X448105Y188411D01*
X448086Y188436D01*
X448048Y188505D01*
X448004Y188593D01*
X447966Y188694D01*
X447929Y188807D01*
X447904Y188932D01*
X447891Y189058D01*
Y189064D01*
Y189077D01*
Y189095D01*
Y189121D01*
X447904Y189183D01*
X447916Y189271D01*
X447941Y189359D01*
X447973Y189453D01*
X448023Y189548D01*
X448092Y189629D01*
X448098Y189636D01*
X448130Y189661D01*
X448174Y189692D01*
X448237Y189730D01*
X448318Y189768D01*
X448412Y189799D01*
X448519Y189824D01*
X448645Y189830D01*
X448701D01*
X448764Y189818D01*
X448846Y189805D01*
X448934Y189780D01*
X449028Y189742D01*
X449122Y189686D01*
X449204Y189617D01*
X449210Y189604D01*
X449235Y189579D01*
X449266Y189529D01*
X449310Y189453D01*
X449348Y189359D01*
X449386Y189240D01*
X449417Y189095D01*
X449430Y189014D01*
X449436Y188926D01*
X450541Y189033D01*
Y189045D01*
X450535Y189070D01*
X450529Y189121D01*
X450516Y189183D01*
X450504Y189259D01*
X450485Y189347D01*
X450460Y189441D01*
X450428Y189541D01*
X450391Y189648D01*
X450347Y189755D01*
X450296Y189868D01*
X450240Y189975D01*
X450177Y190082D01*
X450102Y190182D01*
X450020Y190270D01*
X449926Y190351D01*
X449920Y190358D01*
X449901Y190370D01*
X449869Y190389D01*
X449832Y190414D01*
X449782Y190446D01*
X449719Y190477D01*
X449650Y190515D01*
X449568Y190552D01*
X449474Y190590D01*
X449379Y190628D01*
X449273Y190659D01*
X449153Y190691D01*
X449034Y190716D01*
X448902Y190735D01*
X448764Y190747D01*
X448620Y190753D01*
X450673D01*
D01*
D02*
G37*
G36*
X441668D02*
X437774D01*
X439533D01*
X439470Y190747D01*
X439401Y190741D01*
X439319Y190728D01*
X439225Y190716D01*
X439124Y190697D01*
X439017Y190672D01*
X438911Y190640D01*
X438798Y190603D01*
X438685Y190559D01*
X438578Y190502D01*
X438471Y190439D01*
X438364Y190370D01*
X438270Y190289D01*
X438264Y190282D01*
X438251Y190270D01*
X438226Y190238D01*
X438195Y190207D01*
X438157Y190163D01*
X438113Y190107D01*
X438069Y190044D01*
X438019Y189968D01*
X437975Y189893D01*
X437931Y189805D01*
X437887Y189711D01*
X437849Y189611D01*
X437818Y189497D01*
X437793Y189384D01*
X437780Y189265D01*
X437774Y189139D01*
Y189070D01*
X437780Y189039D01*
Y188995D01*
X437793Y188901D01*
X437812Y188781D01*
X437837Y188656D01*
X437868Y188524D01*
X437919Y188392D01*
Y188386D01*
X437925Y188380D01*
X437931Y188355D01*
X437944Y188329D01*
X437962Y188298D01*
X437981Y188260D01*
X438025Y188166D01*
X438088Y188059D01*
X438164Y187934D01*
X438258Y187796D01*
X438364Y187651D01*
X438377Y187639D01*
X438402Y187601D01*
X438459Y187544D01*
X438528Y187463D01*
X438578Y187413D01*
X438628Y187356D01*
X438691Y187299D01*
X438754Y187230D01*
X438829Y187161D01*
X438911Y187080D01*
X438999Y186998D01*
X439093Y186910D01*
X439099Y186904D01*
X439118Y186891D01*
X439143Y186866D01*
X439175Y186835D01*
X439219Y186797D01*
X439269Y186753D01*
X439375Y186653D01*
X439489Y186546D01*
X439595Y186439D01*
X439645Y186389D01*
X439689Y186345D01*
X439727Y186301D01*
X439759Y186269D01*
X439765Y186263D01*
X439784Y186244D01*
X439809Y186213D01*
X439840Y186175D01*
X439872Y186125D01*
X439909Y186075D01*
X439985Y185968D01*
X437774D01*
Y184938D01*
X441668D01*
Y184944D01*
X441661Y184963D01*
Y184995D01*
X441655Y185039D01*
X441643Y185089D01*
X441630Y185152D01*
X441617Y185221D01*
X441599Y185296D01*
X441548Y185466D01*
X441479Y185654D01*
X441398Y185849D01*
X441291Y186043D01*
X441285Y186050D01*
X441278Y186069D01*
X441253Y186100D01*
X441228Y186138D01*
X441190Y186188D01*
X441140Y186257D01*
X441084Y186326D01*
X441015Y186414D01*
X440939Y186508D01*
X440845Y186609D01*
X440744Y186728D01*
X440631Y186847D01*
X440506Y186979D01*
X440361Y187124D01*
X440211Y187274D01*
X440041Y187431D01*
X440035Y187438D01*
X440010Y187463D01*
X439972Y187500D01*
X439922Y187544D01*
X439859Y187601D01*
X439796Y187664D01*
X439721Y187739D01*
X439645Y187814D01*
X439482Y187971D01*
X439331Y188128D01*
X439269Y188198D01*
X439206Y188267D01*
X439156Y188329D01*
X439118Y188380D01*
Y188386D01*
X439106Y188392D01*
X439099Y188411D01*
X439080Y188436D01*
X439043Y188505D01*
X438999Y188593D01*
X438961Y188694D01*
X438923Y188807D01*
X438898Y188932D01*
X438886Y189058D01*
Y189064D01*
Y189077D01*
Y189095D01*
Y189121D01*
X438898Y189183D01*
X438911Y189271D01*
X438936Y189359D01*
X438967Y189453D01*
X439017Y189548D01*
X439087Y189629D01*
X439093Y189636D01*
X439124Y189661D01*
X439168Y189692D01*
X439231Y189730D01*
X439313Y189768D01*
X439407Y189799D01*
X439514Y189824D01*
X439639Y189830D01*
X439696D01*
X439759Y189818D01*
X439840Y189805D01*
X439928Y189780D01*
X440022Y189742D01*
X440117Y189686D01*
X440198Y189617D01*
X440204Y189604D01*
X440230Y189579D01*
X440261Y189529D01*
X440305Y189453D01*
X440343Y189359D01*
X440380Y189240D01*
X440412Y189095D01*
X440424Y189014D01*
X440430Y188926D01*
X441536Y189033D01*
Y189045D01*
X441530Y189070D01*
X441523Y189121D01*
X441511Y189183D01*
X441498Y189259D01*
X441479Y189347D01*
X441454Y189441D01*
X441423Y189541D01*
X441385Y189648D01*
X441341Y189755D01*
X441291Y189868D01*
X441234Y189975D01*
X441172Y190082D01*
X441096Y190182D01*
X441015Y190270D01*
X440920Y190351D01*
X440914Y190358D01*
X440895Y190370D01*
X440864Y190389D01*
X440826Y190414D01*
X440776Y190446D01*
X440713Y190477D01*
X440644Y190515D01*
X440562Y190552D01*
X440468Y190590D01*
X440374Y190628D01*
X440267Y190659D01*
X440148Y190691D01*
X440029Y190716D01*
X439897Y190735D01*
X439759Y190747D01*
X439614Y190753D01*
X441668D01*
D01*
D02*
G37*
G36*
X446032D02*
Y187915D01*
X446026Y187959D01*
Y188009D01*
Y188066D01*
X446013Y188204D01*
X446001Y188355D01*
X445982Y188524D01*
X445963Y188706D01*
X445932Y188901D01*
X445894Y189095D01*
X445850Y189290D01*
X445794Y189485D01*
X445731Y189673D01*
X445655Y189849D01*
X445568Y190012D01*
X445467Y190157D01*
X445461Y190163D01*
X445442Y190182D01*
X445417Y190213D01*
X445379Y190251D01*
X445329Y190295D01*
X445272Y190345D01*
X445203Y190402D01*
X445128Y190458D01*
X445040Y190508D01*
X444940Y190565D01*
X444833Y190615D01*
X444713Y190659D01*
X444588Y190697D01*
X444450Y190728D01*
X444305Y190747D01*
X444155Y190753D01*
X446032D01*
X444117D01*
X444073Y190747D01*
X444016D01*
X443947Y190735D01*
X443866Y190722D01*
X443772Y190703D01*
X443671Y190678D01*
X443571Y190647D01*
X443464Y190609D01*
X443351Y190559D01*
X443244Y190502D01*
X443137Y190433D01*
X443031Y190351D01*
X442930Y190257D01*
X442836Y190151D01*
X442830Y190144D01*
X442811Y190119D01*
X442786Y190075D01*
X442748Y190012D01*
X442704Y189937D01*
X442654Y189837D01*
X442603Y189724D01*
X442553Y189585D01*
X442503Y189435D01*
X442446Y189259D01*
X442403Y189064D01*
X442358Y188851D01*
X442321Y188618D01*
X442296Y188361D01*
X442277Y188084D01*
X442271Y187789D01*
Y187676D01*
X442277Y187632D01*
Y187582D01*
Y187519D01*
X442289Y187387D01*
X442302Y187230D01*
X442321Y187061D01*
X442340Y186879D01*
X442371Y186684D01*
X442409Y186489D01*
X442459Y186288D01*
X442509Y186094D01*
X442578Y185912D01*
X442654Y185729D01*
X442742Y185566D01*
X442842Y185422D01*
X442848Y185415D01*
X442861Y185397D01*
X442892Y185365D01*
X442930Y185327D01*
X442974Y185284D01*
X443037Y185233D01*
X443106Y185183D01*
X443181Y185127D01*
X443269Y185070D01*
X443370Y185020D01*
X443476Y184970D01*
X443596Y184926D01*
X443721Y184888D01*
X443859Y184856D01*
X444004Y184838D01*
X444155Y184831D01*
X444192D01*
X444236Y184838D01*
X444293Y184844D01*
X444368Y184850D01*
X444450Y184863D01*
X444544Y184888D01*
X444644Y184913D01*
X444751Y184944D01*
X444858Y184988D01*
X444971Y185045D01*
X445084Y185101D01*
X445197Y185177D01*
X445310Y185265D01*
X445417Y185365D01*
X445517Y185478D01*
X445524Y185485D01*
X445536Y185510D01*
X445568Y185547D01*
X445599Y185604D01*
X445637Y185679D01*
X445681Y185773D01*
X445725Y185886D01*
X445775Y186012D01*
X445825Y186163D01*
X445869Y186332D01*
X445913Y186521D01*
X445951Y186734D01*
X445982Y186967D01*
X446007Y187224D01*
X446026Y187500D01*
X446032Y187802D01*
Y184988D01*
Y190753D01*
D02*
G37*
G36*
X453135Y190829D02*
X450868D01*
D01*
X452319Y184838D01*
X453135D01*
X451703Y190829D01*
X453135D01*
Y186175D01*
Y190829D01*
D02*
G37*
G36*
X456985Y190753D02*
X454441D01*
Y184938D01*
X455553D01*
Y189114D01*
X455559Y189108D01*
X455578Y189089D01*
X455616Y189058D01*
X455659Y189020D01*
X455716Y188976D01*
X455791Y188920D01*
X455867Y188857D01*
X455961Y188794D01*
X456061Y188725D01*
X456168Y188656D01*
X456287Y188587D01*
X456413Y188518D01*
X456545Y188449D01*
X456690Y188386D01*
X456834Y188329D01*
X456985Y188273D01*
Y185466D01*
Y190753D01*
D02*
G37*
G36*
X436725D02*
X434182D01*
Y184938D01*
X435293D01*
Y189114D01*
X435300Y189108D01*
X435319Y189089D01*
X435356Y189058D01*
X435400Y189020D01*
X435457Y188976D01*
X435532Y188920D01*
X435607Y188857D01*
X435702Y188794D01*
X435802Y188725D01*
X435909Y188656D01*
X436028Y188587D01*
X436154Y188518D01*
X436286Y188449D01*
X436430Y188386D01*
X436575Y188329D01*
X436725Y188273D01*
Y185177D01*
Y190753D01*
D02*
G37*
%LPD*%
G36*
X444224Y189824D02*
X444274Y189811D01*
X444330Y189799D01*
X444393Y189774D01*
X444450Y189742D01*
X444513Y189698D01*
X444519Y189692D01*
X444538Y189673D01*
X444569Y189642D01*
X444600Y189592D01*
X444638Y189529D01*
X444682Y189453D01*
X444720Y189353D01*
X444757Y189240D01*
Y189234D01*
X444764Y189221D01*
X444770Y189196D01*
X444776Y189158D01*
X444783Y189108D01*
X444795Y189052D01*
X444801Y188976D01*
X444814Y188895D01*
X444827Y188800D01*
X444833Y188694D01*
X444845Y188574D01*
X444852Y188442D01*
X444858Y188304D01*
X444864Y188141D01*
X444871Y187971D01*
Y187789D01*
Y187777D01*
Y187745D01*
Y187695D01*
Y187626D01*
X444864Y187538D01*
Y187444D01*
Y187343D01*
X444858Y187230D01*
X444845Y186998D01*
X444827Y186766D01*
X444814Y186653D01*
X444801Y186552D01*
X444789Y186464D01*
X444770Y186383D01*
Y186376D01*
X444764Y186364D01*
X444757Y186345D01*
X444751Y186320D01*
X444732Y186257D01*
X444701Y186182D01*
X444663Y186094D01*
X444619Y186012D01*
X444569Y185937D01*
X444513Y185880D01*
X444506Y185874D01*
X444487Y185861D01*
X444450Y185843D01*
X444406Y185817D01*
X444355Y185792D01*
X444293Y185773D01*
X444230Y185761D01*
X444155Y185755D01*
X444123D01*
X444086Y185761D01*
X444035Y185773D01*
X443979Y185786D01*
X443916Y185805D01*
X443859Y185836D01*
X443797Y185880D01*
X443790Y185886D01*
X443772Y185905D01*
X443740Y185937D01*
X443709Y185987D01*
X443665Y186050D01*
X443627Y186125D01*
X443589Y186226D01*
X443552Y186339D01*
Y186345D01*
X443545Y186357D01*
X443539Y186383D01*
X443533Y186420D01*
X443527Y186470D01*
X443514Y186527D01*
X443502Y186596D01*
X443489Y186678D01*
X443483Y186772D01*
X443470Y186879D01*
X443458Y186998D01*
X443451Y187130D01*
X443445Y187274D01*
X443439Y187431D01*
X443432Y187607D01*
Y187789D01*
Y187802D01*
Y187833D01*
Y187883D01*
Y187953D01*
Y188034D01*
X443439Y188135D01*
Y188235D01*
X443445Y188348D01*
X443458Y188581D01*
X443476Y188807D01*
X443489Y188920D01*
X443502Y189020D01*
X443520Y189108D01*
X443539Y189190D01*
Y189196D01*
X443545Y189209D01*
X443552Y189227D01*
X443558Y189252D01*
X443577Y189315D01*
X443608Y189397D01*
X443646Y189485D01*
X443690Y189567D01*
X443740Y189642D01*
X443797Y189698D01*
X443803Y189705D01*
X443822Y189717D01*
X443859Y189742D01*
X443897Y189768D01*
X443954Y189786D01*
X444016Y189811D01*
X444079Y189824D01*
X444155Y189830D01*
X444186D01*
X444224Y189824D01*
D02*
G37*
G36*
X456985Y189284D02*
X456978D01*
X456966Y189290D01*
X456941Y189296D01*
X456909Y189309D01*
X456865Y189328D01*
X456821Y189347D01*
X456765Y189372D01*
X456702Y189403D01*
X456564Y189472D01*
X456407Y189567D01*
X456231Y189680D01*
X456043Y189818D01*
X456036Y189824D01*
X456017Y189837D01*
X455992Y189855D01*
X455961Y189887D01*
X455917Y189925D01*
X455873Y189975D01*
X455823Y190025D01*
X455766Y190088D01*
X455647Y190226D01*
X455534Y190383D01*
X455427Y190559D01*
X455383Y190653D01*
X455345Y190753D01*
X456985D01*
Y189284D01*
D02*
G37*
G36*
X436725D02*
X436719D01*
X436706Y189290D01*
X436681Y189296D01*
X436650Y189309D01*
X436606Y189328D01*
X436562Y189347D01*
X436506Y189372D01*
X436443Y189403D01*
X436305Y189472D01*
X436148Y189567D01*
X435972Y189680D01*
X435783Y189818D01*
X435777Y189824D01*
X435758Y189837D01*
X435733Y189855D01*
X435702Y189887D01*
X435658Y189925D01*
X435614Y189975D01*
X435564Y190025D01*
X435507Y190088D01*
X435388Y190226D01*
X435275Y190383D01*
X435168Y190559D01*
X435124Y190653D01*
X435086Y190753D01*
X436725D01*
Y189284D01*
D02*
G37*
%LPC*%
G36*
X543396Y214981D02*
X543326D01*
D01*
X541838D01*
X543326D01*
X543281Y214977D01*
X543220Y214973D01*
X543154Y214965D01*
X543076Y214956D01*
X542994Y214940D01*
X542912Y214924D01*
X542822Y214903D01*
X542732Y214878D01*
X542646Y214850D01*
X542560Y214813D01*
X542474Y214768D01*
X542396Y214723D01*
X542326Y214665D01*
X542322Y214661D01*
X542310Y214653D01*
X542293Y214632D01*
X542269Y214608D01*
X542240Y214579D01*
X542211Y214538D01*
X542178Y214493D01*
X542141Y214444D01*
X542109Y214386D01*
X542076Y214325D01*
X542043Y214255D01*
X542014Y214181D01*
X541986Y214104D01*
X541965Y214017D01*
X541953Y213927D01*
X541945Y213833D01*
X542707Y213804D01*
Y213808D01*
X542711Y213816D01*
Y213833D01*
X542716Y213849D01*
X542724Y213874D01*
X542732Y213903D01*
X542752Y213964D01*
X542781Y214030D01*
X542818Y214099D01*
X542863Y214165D01*
X542920Y214218D01*
X542929Y214222D01*
X542949Y214239D01*
X542986Y214259D01*
X543039Y214284D01*
X543109Y214309D01*
X543191Y214329D01*
X543290Y214345D01*
X543404Y214350D01*
X543458D01*
X543486Y214345D01*
X543519Y214341D01*
X543597Y214333D01*
X543679Y214317D01*
X543769Y214292D01*
X543851Y214255D01*
X543929Y214210D01*
X543933Y214206D01*
X543946Y214194D01*
X543966Y214173D01*
X543987Y214149D01*
X544011Y214116D01*
X544028Y214075D01*
X544044Y214030D01*
X544048Y213976D01*
Y213972D01*
Y213956D01*
X544044Y213927D01*
X544036Y213898D01*
X544019Y213862D01*
X544003Y213821D01*
X543974Y213784D01*
X543937Y213747D01*
X543929Y213743D01*
X543921Y213735D01*
X543904Y213726D01*
X543888Y213714D01*
X543863Y213702D01*
X543831Y213685D01*
X543794Y213669D01*
X543753Y213652D01*
X543704Y213632D01*
X543646Y213612D01*
X543581Y213591D01*
X543507Y213566D01*
X543425Y213542D01*
X543335Y213517D01*
X543236Y213493D01*
X543228D01*
X543212Y213489D01*
X543183Y213480D01*
X543146Y213472D01*
X543097Y213460D01*
X543048Y213443D01*
X542986Y213427D01*
X542925Y213411D01*
X542789Y213370D01*
X542654Y213324D01*
X542588Y213300D01*
X542523Y213275D01*
X542465Y213247D01*
X542412Y213222D01*
X542408D01*
X542400Y213214D01*
X542387Y213206D01*
X542367Y213197D01*
X542318Y213165D01*
X542256Y213124D01*
X542191Y213066D01*
X542121Y213001D01*
X542051Y212923D01*
X541990Y212837D01*
Y212832D01*
X541982Y212824D01*
X541978Y212812D01*
X541965Y212791D01*
X541953Y212767D01*
X541941Y212738D01*
X541928Y212705D01*
X541912Y212668D01*
X541900Y212628D01*
X541887Y212582D01*
X541863Y212480D01*
X541846Y212361D01*
X541838Y212234D01*
Y212254D01*
Y212201D01*
X541842Y212181D01*
Y212152D01*
X541846Y212115D01*
X541854Y212078D01*
X541863Y212037D01*
X541883Y211943D01*
X541916Y211840D01*
X541961Y211734D01*
X541990Y211676D01*
X542023Y211623D01*
Y211619D01*
X542031Y211611D01*
X542043Y211594D01*
X542055Y211578D01*
X542076Y211553D01*
X542096Y211525D01*
X542154Y211463D01*
X542228Y211398D01*
X542314Y211324D01*
X542416Y211258D01*
X542535Y211201D01*
X542539D01*
X542552Y211197D01*
X542568Y211188D01*
X542592Y211180D01*
X542625Y211168D01*
X542666Y211160D01*
X542711Y211147D01*
X542761Y211135D01*
X542818Y211119D01*
X542879Y211106D01*
X542949Y211098D01*
X543023Y211086D01*
X543097Y211078D01*
X543183Y211069D01*
X543269Y211065D01*
X541838D01*
X543392D01*
X543429Y211069D01*
X543478D01*
X543536Y211074D01*
X543605Y211082D01*
X543683Y211094D01*
X543765Y211106D01*
X543855Y211123D01*
X543946Y211147D01*
X544036Y211172D01*
X544126Y211205D01*
X544216Y211242D01*
X544302Y211287D01*
X544384Y211336D01*
X544462Y211393D01*
X544466Y211398D01*
X544479Y211410D01*
X544499Y211430D01*
X544524Y211455D01*
X544552Y211492D01*
X544589Y211533D01*
X544626Y211582D01*
X544663Y211639D01*
X544704Y211705D01*
X544745Y211775D01*
X544782Y211857D01*
X544819Y211943D01*
X544852Y212037D01*
X544880Y212136D01*
X544905Y212246D01*
X544921Y212361D01*
X544179Y212435D01*
Y212431D01*
X544175Y212418D01*
X544171Y212398D01*
X544167Y212373D01*
X544159Y212340D01*
X544146Y212308D01*
X544122Y212226D01*
X544085Y212136D01*
X544036Y212041D01*
X543978Y211955D01*
X543946Y211918D01*
X543909Y211881D01*
X543904D01*
X543900Y211873D01*
X543888Y211865D01*
X543872Y211853D01*
X543851Y211840D01*
X543822Y211828D01*
X543794Y211812D01*
X543761Y211795D01*
X543679Y211762D01*
X543585Y211738D01*
X543474Y211717D01*
X543351Y211709D01*
X543314D01*
X543290Y211713D01*
X543257D01*
X543224Y211717D01*
X543142Y211730D01*
X543052Y211746D01*
X542957Y211775D01*
X542867Y211812D01*
X542826Y211836D01*
X542789Y211865D01*
X542785D01*
X542781Y211873D01*
X542761Y211894D01*
X542728Y211926D01*
X542695Y211967D01*
X542662Y212021D01*
X542629Y212086D01*
X542609Y212156D01*
X542601Y212193D01*
Y212230D01*
Y212234D01*
Y212254D01*
X542605Y212279D01*
X542609Y212308D01*
X542621Y212345D01*
X542633Y212386D01*
X542654Y212422D01*
X542683Y212459D01*
X542687Y212463D01*
X542699Y212476D01*
X542720Y212492D01*
X542744Y212517D01*
X542785Y212541D01*
X542830Y212570D01*
X542888Y212595D01*
X542957Y212623D01*
X542966Y212628D01*
X542974D01*
X542986Y212632D01*
X543003Y212636D01*
X543027Y212644D01*
X543052Y212652D01*
X543084Y212660D01*
X543121Y212673D01*
X543166Y212685D01*
X543216Y212697D01*
X543273Y212714D01*
X543335Y212730D01*
X543404Y212746D01*
X543482Y212767D01*
X543568Y212787D01*
X543576D01*
X543597Y212796D01*
X543626Y212804D01*
X543667Y212816D01*
X543720Y212828D01*
X543777Y212849D01*
X543839Y212869D01*
X543904Y212890D01*
X544048Y212947D01*
X544192Y213009D01*
X544257Y213046D01*
X544323Y213083D01*
X544380Y213120D01*
X544429Y213160D01*
X544433Y213165D01*
X544446Y213177D01*
X544462Y213193D01*
X544483Y213218D01*
X544511Y213247D01*
X544540Y213283D01*
X544573Y213324D01*
X544601Y213374D01*
X544634Y213427D01*
X544667Y213484D01*
X544696Y213550D01*
X544725Y213616D01*
X544745Y213685D01*
X544761Y213763D01*
X544774Y213841D01*
X544778Y213923D01*
Y213927D01*
Y213935D01*
Y213952D01*
X544774Y213972D01*
Y213997D01*
X544770Y214030D01*
X544757Y214099D01*
X544737Y214181D01*
X544708Y214276D01*
X544667Y214370D01*
X544614Y214464D01*
Y214468D01*
X544606Y214477D01*
X544597Y214489D01*
X544585Y214505D01*
X544544Y214550D01*
X544495Y214608D01*
X544425Y214669D01*
X544347Y214731D01*
X544249Y214792D01*
X544142Y214846D01*
X544138D01*
X544130Y214850D01*
X544109Y214858D01*
X544089Y214866D01*
X544056Y214878D01*
X544023Y214887D01*
X543982Y214899D01*
X543933Y214915D01*
X543880Y214928D01*
X543827Y214940D01*
X543765Y214948D01*
X543700Y214960D01*
X543626Y214969D01*
X543556Y214977D01*
X543396Y214981D01*
D02*
G37*
G36*
X536201Y214919D02*
X535475D01*
Y214247D01*
X536201D01*
Y213878D01*
X535475D01*
D01*
Y211135D01*
X536201D01*
Y214919D01*
D02*
G37*
G36*
X538292Y213939D02*
Y213878D01*
X537619D01*
Y213484D01*
X537615Y213489D01*
X537611Y213497D01*
X537603Y213509D01*
X537591Y213529D01*
X537558Y213579D01*
X537517Y213636D01*
X537467Y213698D01*
X537418Y213755D01*
X537365Y213808D01*
X537336Y213833D01*
X537312Y213849D01*
X537303Y213853D01*
X537287Y213862D01*
X537258Y213878D01*
X537221Y213894D01*
X537172Y213911D01*
X537119Y213927D01*
X537062Y213935D01*
X536996Y213939D01*
X536955D01*
X536930Y213935D01*
X536906Y213931D01*
X536844Y213923D01*
X536770Y213907D01*
X536689Y213882D01*
X536602Y213845D01*
X536516Y213800D01*
X536742Y213169D01*
X536750Y213173D01*
X536775Y213189D01*
X536807Y213206D01*
X536853Y213230D01*
X536906Y213251D01*
X536963Y213271D01*
X537021Y213283D01*
X537082Y213288D01*
X537107D01*
X537135Y213283D01*
X537172Y213275D01*
X537213Y213267D01*
X537254Y213251D01*
X537299Y213230D01*
X537340Y213201D01*
X537345Y213197D01*
X537357Y213185D01*
X537377Y213165D01*
X537402Y213132D01*
X537427Y213091D01*
X537455Y213037D01*
X537484Y212976D01*
X537508Y212898D01*
Y212894D01*
X537513Y212886D01*
Y212874D01*
X537517Y212853D01*
X537521Y212828D01*
X537525Y212791D01*
X537533Y212751D01*
X537537Y212701D01*
X537541Y212644D01*
X537549Y212578D01*
X537554Y212505D01*
X537558Y212418D01*
X537562Y212324D01*
Y212222D01*
X537566Y212107D01*
Y211980D01*
Y211135D01*
X536516D01*
D01*
X538292D01*
Y213939D01*
D02*
G37*
G36*
X524782D02*
Y213878D01*
X524110D01*
Y213484D01*
X524106Y213489D01*
X524101Y213497D01*
X524093Y213509D01*
X524081Y213529D01*
X524048Y213579D01*
X524007Y213636D01*
X523958Y213698D01*
X523909Y213755D01*
X523855Y213808D01*
X523827Y213833D01*
X523802Y213849D01*
X523794Y213853D01*
X523778Y213862D01*
X523749Y213878D01*
X523712Y213894D01*
X523663Y213911D01*
X523609Y213927D01*
X523552Y213935D01*
X523487Y213939D01*
X524782D01*
X523007D01*
X523446D01*
X523421Y213935D01*
X523396Y213931D01*
X523335Y213923D01*
X523261Y213907D01*
X523179Y213882D01*
X523093Y213845D01*
X523007Y213800D01*
X523232Y213169D01*
X523241Y213173D01*
X523265Y213189D01*
X523298Y213206D01*
X523343Y213230D01*
X523396Y213251D01*
X523454Y213271D01*
X523511Y213283D01*
X523573Y213288D01*
X523597D01*
X523626Y213283D01*
X523663Y213275D01*
X523704Y213267D01*
X523745Y213251D01*
X523790Y213230D01*
X523831Y213201D01*
X523835Y213197D01*
X523847Y213185D01*
X523868Y213165D01*
X523892Y213132D01*
X523917Y213091D01*
X523946Y213037D01*
X523974Y212976D01*
X523999Y212898D01*
Y212894D01*
X524003Y212886D01*
Y212874D01*
X524007Y212853D01*
X524011Y212828D01*
X524015Y212791D01*
X524024Y212751D01*
X524028Y212701D01*
X524032Y212644D01*
X524040Y212578D01*
X524044Y212505D01*
X524048Y212418D01*
X524052Y212324D01*
Y212222D01*
X524056Y212107D01*
Y211980D01*
Y211135D01*
X523007D01*
X524782D01*
Y213939D01*
D02*
G37*
G36*
X534926D02*
X532351D01*
D01*
X533581D01*
X533544Y213935D01*
X533495D01*
X533445Y213931D01*
X533388Y213923D01*
X533269Y213911D01*
X533150Y213890D01*
X533035Y213862D01*
X532986Y213841D01*
X532937Y213821D01*
X532933D01*
X532925Y213816D01*
X532912Y213808D01*
X532900Y213800D01*
X532855Y213775D01*
X532806Y213743D01*
X532748Y213698D01*
X532695Y213648D01*
X532642Y213591D01*
X532601Y213529D01*
X532597Y213521D01*
X532593Y213509D01*
X532584Y213497D01*
X532576Y213476D01*
X532568Y213447D01*
X532560Y213419D01*
X532552Y213382D01*
X532543Y213341D01*
X532535Y213296D01*
X532527Y213243D01*
X532519Y213181D01*
X532511Y213115D01*
X532507Y213046D01*
X532502Y212968D01*
Y212882D01*
X532515Y212033D01*
Y212029D01*
Y212017D01*
Y212000D01*
Y211976D01*
Y211943D01*
Y211910D01*
X532511Y211832D01*
X532507Y211746D01*
X532502Y211656D01*
X532494Y211574D01*
X532486Y211533D01*
X532482Y211500D01*
Y211492D01*
X532474Y211471D01*
X532466Y211434D01*
X532453Y211389D01*
X532437Y211336D01*
X532412Y211275D01*
X532383Y211205D01*
X532351Y211135D01*
X533068D01*
Y211139D01*
X533072Y211147D01*
X533080Y211164D01*
X533089Y211188D01*
X533097Y211217D01*
X533113Y211254D01*
X533126Y211299D01*
X533142Y211348D01*
Y211352D01*
X533146Y211361D01*
X533150Y211385D01*
X533158Y211414D01*
X533162Y211426D01*
X533167Y211434D01*
X533175Y211426D01*
X533199Y211406D01*
X533236Y211373D01*
X533286Y211332D01*
X533343Y211291D01*
X533413Y211246D01*
X533486Y211201D01*
X533564Y211164D01*
X533568D01*
X533572Y211160D01*
X533585Y211156D01*
X533601Y211152D01*
X533642Y211135D01*
X533700Y211119D01*
X533765Y211102D01*
X533843Y211086D01*
X533925Y211078D01*
X534015Y211074D01*
X534056D01*
X534085Y211078D01*
X534122Y211082D01*
X534163Y211086D01*
X534208Y211094D01*
X534257Y211102D01*
X534364Y211127D01*
X534475Y211168D01*
X534532Y211197D01*
X534585Y211225D01*
X534634Y211258D01*
X534684Y211299D01*
X534688Y211303D01*
X534696Y211311D01*
X534704Y211324D01*
X534721Y211340D01*
X534741Y211365D01*
X534761Y211389D01*
X534782Y211422D01*
X534802Y211459D01*
X534827Y211500D01*
X534848Y211541D01*
X534889Y211644D01*
X534905Y211697D01*
X534913Y211754D01*
X534921Y211816D01*
X534926Y211881D01*
Y211922D01*
X534921Y211963D01*
X534913Y212021D01*
X534897Y212086D01*
X534880Y212156D01*
X534852Y212226D01*
X534815Y212295D01*
Y212299D01*
X534811Y212304D01*
X534794Y212324D01*
X534770Y212357D01*
X534733Y212398D01*
X534692Y212443D01*
X534639Y212488D01*
X534577Y212533D01*
X534507Y212570D01*
X534503D01*
X534499Y212574D01*
X534487Y212578D01*
X534470Y212586D01*
X534450Y212595D01*
X534425Y212607D01*
X534392Y212615D01*
X534360Y212628D01*
X534323Y212640D01*
X534278Y212656D01*
X534229Y212668D01*
X534179Y212685D01*
X534122Y212697D01*
X534060Y212714D01*
X533999Y212730D01*
X533929Y212742D01*
X533925D01*
X533909Y212746D01*
X533880Y212751D01*
X533847Y212759D01*
X533806Y212767D01*
X533757Y212775D01*
X533704Y212787D01*
X533646Y212800D01*
X533532Y212828D01*
X533413Y212857D01*
X533359Y212874D01*
X533306Y212890D01*
X533261Y212906D01*
X533220Y212923D01*
Y212992D01*
Y212997D01*
Y213001D01*
Y213029D01*
X533224Y213066D01*
X533232Y213111D01*
X533245Y213160D01*
X533265Y213210D01*
X533290Y213259D01*
X533326Y213296D01*
X533331Y213300D01*
X533347Y213308D01*
X533376Y213324D01*
X533413Y213341D01*
X533466Y213357D01*
X533536Y213374D01*
X533577Y213378D01*
X533618Y213382D01*
X533667Y213386D01*
X533753D01*
X533790Y213382D01*
X533831Y213378D01*
X533880Y213366D01*
X533933Y213353D01*
X533983Y213333D01*
X534028Y213308D01*
X534032Y213304D01*
X534044Y213292D01*
X534064Y213275D01*
X534089Y213247D01*
X534118Y213210D01*
X534146Y213160D01*
X534175Y213103D01*
X534200Y213037D01*
X534852Y213156D01*
Y213160D01*
X534848Y213173D01*
X534839Y213193D01*
X534831Y213222D01*
X534819Y213255D01*
X534802Y213292D01*
X534761Y213378D01*
X534708Y213476D01*
X534643Y213575D01*
X534565Y213665D01*
X534520Y213710D01*
X534470Y213747D01*
X534466Y213751D01*
X534458Y213755D01*
X534442Y213763D01*
X534421Y213775D01*
X534392Y213792D01*
X534356Y213808D01*
X534315Y213825D01*
X534270Y213845D01*
X534212Y213862D01*
X534155Y213878D01*
X534089Y213894D01*
X534015Y213911D01*
X533937Y213923D01*
X533851Y213931D01*
X533761Y213939D01*
X534926D01*
D02*
G37*
G36*
X528554Y214919D02*
X527816D01*
X526258Y212377D01*
Y214919D01*
X525553D01*
Y211135D01*
X528554D01*
Y214919D01*
D02*
G37*
G36*
X530411Y212869D02*
X528985D01*
Y212144D01*
X530411D01*
Y212869D01*
D02*
G37*
G36*
X540157Y213939D02*
X538853D01*
X540128D01*
X540100Y213935D01*
X540055Y213931D01*
X540005Y213927D01*
X539944Y213919D01*
X539878Y213907D01*
X539809Y213890D01*
X539731Y213866D01*
X539653Y213841D01*
X539575Y213808D01*
X539493Y213767D01*
X539415Y213722D01*
X539337Y213669D01*
X539263Y213603D01*
X539194Y213534D01*
X539189Y213529D01*
X539177Y213513D01*
X539161Y213493D01*
X539140Y213460D01*
X539112Y213415D01*
X539083Y213361D01*
X539050Y213300D01*
X539017Y213230D01*
X538984Y213148D01*
X538956Y213054D01*
X538927Y212955D01*
X538903Y212845D01*
X538882Y212722D01*
X538866Y212591D01*
X538853Y212451D01*
Y212299D01*
X540670D01*
Y212295D01*
Y212287D01*
Y212267D01*
X540665Y212246D01*
X540661Y212217D01*
X540657Y212185D01*
X540645Y212115D01*
X540625Y212033D01*
X540596Y211947D01*
X540555Y211865D01*
X540497Y211791D01*
X540493D01*
X540489Y211783D01*
X540469Y211762D01*
X540432Y211734D01*
X540383Y211705D01*
X540321Y211672D01*
X540247Y211644D01*
X540165Y211623D01*
X540120Y211619D01*
X540075Y211615D01*
X540046D01*
X540018Y211619D01*
X539977Y211627D01*
X539932Y211635D01*
X539887Y211652D01*
X539837Y211676D01*
X539792Y211705D01*
X539788Y211709D01*
X539772Y211721D01*
X539751Y211746D01*
X539727Y211779D01*
X539694Y211820D01*
X539665Y211873D01*
X539636Y211935D01*
X539612Y212008D01*
X538890Y211885D01*
Y211881D01*
X538898Y211869D01*
X538907Y211848D01*
X538915Y211820D01*
X538931Y211787D01*
X538952Y211750D01*
X538972Y211705D01*
X538997Y211660D01*
X539058Y211561D01*
X539136Y211463D01*
X539226Y211365D01*
X539280Y211320D01*
X539333Y211279D01*
X539337Y211275D01*
X539345Y211270D01*
X539362Y211258D01*
X539386Y211246D01*
X539415Y211229D01*
X539452Y211213D01*
X539493Y211197D01*
X539538Y211176D01*
X539591Y211156D01*
X539649Y211139D01*
X539710Y211123D01*
X539776Y211106D01*
X539846Y211094D01*
X539923Y211082D01*
X540001Y211078D01*
X540083Y211074D01*
X540116D01*
X540153Y211078D01*
X540202Y211082D01*
X540260Y211086D01*
X540329Y211098D01*
X540403Y211110D01*
X540485Y211131D01*
X540571Y211156D01*
X540657Y211188D01*
X540743Y211225D01*
X540834Y211270D01*
X540916Y211324D01*
X540998Y211385D01*
X541071Y211455D01*
X541141Y211537D01*
X541145Y211541D01*
X541153Y211553D01*
X541166Y211574D01*
X541182Y211607D01*
X541203Y211644D01*
X541227Y211684D01*
X541252Y211738D01*
X541276Y211795D01*
X541301Y211861D01*
X541326Y211935D01*
X541350Y212013D01*
X541371Y212094D01*
X541387Y212185D01*
X541399Y212279D01*
X541408Y212382D01*
X541412Y212484D01*
Y212513D01*
X541408Y212550D01*
Y212595D01*
X541399Y212652D01*
X541391Y212722D01*
X541383Y212791D01*
X541367Y212874D01*
X541350Y212955D01*
X541326Y213042D01*
X541297Y213132D01*
X541264Y213222D01*
X541223Y213308D01*
X541174Y213394D01*
X541121Y213476D01*
X541059Y213550D01*
X541055Y213554D01*
X541043Y213566D01*
X541022Y213587D01*
X540993Y213612D01*
X540961Y213640D01*
X540916Y213673D01*
X540866Y213710D01*
X540813Y213747D01*
X540752Y213780D01*
X540682Y213816D01*
X540608Y213849D01*
X540526Y213878D01*
X540444Y213903D01*
X540354Y213923D01*
X540255Y213935D01*
X540157Y213939D01*
D02*
G37*
G36*
X531793Y214919D02*
X531067D01*
Y211135D01*
X531793D01*
Y214919D01*
D02*
G37*
G36*
X522695Y211861D02*
X521970D01*
Y211135D01*
X522695D01*
Y211861D01*
D02*
G37*
G36*
X538853Y212299D02*
D01*
Y211074D01*
Y212299D01*
D02*
G37*
%LPD*%
G36*
X533228Y212447D02*
X533249Y212443D01*
X533281Y212431D01*
X533331Y212418D01*
X533392Y212402D01*
X533470Y212382D01*
X533560Y212361D01*
X533667Y212336D01*
X533671D01*
X533679Y212332D01*
X533696D01*
X533716Y212324D01*
X533765Y212312D01*
X533827Y212299D01*
X533892Y212279D01*
X533958Y212259D01*
X534015Y212238D01*
X534040Y212226D01*
X534060Y212213D01*
X534064Y212209D01*
X534081Y212197D01*
X534105Y212172D01*
X534130Y212144D01*
X534155Y212107D01*
X534179Y212062D01*
X534196Y212013D01*
X534200Y211959D01*
Y211951D01*
Y211935D01*
X534196Y211906D01*
X534188Y211869D01*
X534171Y211828D01*
X534155Y211783D01*
X534126Y211742D01*
X534089Y211697D01*
X534085Y211693D01*
X534069Y211680D01*
X534044Y211660D01*
X534011Y211644D01*
X533966Y211623D01*
X533917Y211602D01*
X533859Y211590D01*
X533798Y211586D01*
X533790D01*
X533765Y211590D01*
X533728Y211594D01*
X533679Y211602D01*
X533622Y211619D01*
X533556Y211639D01*
X533491Y211672D01*
X533425Y211713D01*
X533421Y211717D01*
X533404Y211730D01*
X533380Y211750D01*
X533355Y211779D01*
X533322Y211816D01*
X533294Y211857D01*
X533269Y211902D01*
X533249Y211951D01*
Y211955D01*
X533245Y211971D01*
X533240Y211996D01*
X533232Y212029D01*
X533228Y212078D01*
X533224Y212140D01*
X533220Y212213D01*
Y212304D01*
Y212451D01*
X533228Y212447D01*
D02*
G37*
G36*
X527849Y211135D02*
X526315D01*
X527849Y213620D01*
Y211135D01*
D02*
G37*
G36*
X540157Y213382D02*
X540198Y213378D01*
X540255Y213366D01*
X540317Y213345D01*
X540383Y213312D01*
X540444Y213267D01*
X540477Y213243D01*
X540506Y213210D01*
X540514Y213201D01*
X540530Y213177D01*
X540555Y213140D01*
X540584Y213087D01*
X540612Y213021D01*
X540637Y212939D01*
X540653Y212849D01*
X540657Y212742D01*
X539575D01*
Y212746D01*
Y212755D01*
Y212771D01*
X539579Y212796D01*
X539583Y212820D01*
X539587Y212849D01*
X539600Y212919D01*
X539620Y212997D01*
X539649Y213074D01*
X539686Y213152D01*
X539739Y213218D01*
X539747Y213226D01*
X539768Y213243D01*
X539800Y213271D01*
X539846Y213304D01*
X539899Y213333D01*
X539964Y213361D01*
X540038Y213378D01*
X540116Y213386D01*
X540141D01*
X540157Y213382D01*
D02*
G37*
D10*
X452756Y240158D02*
Y246156D01*
X449757D01*
X448757Y245156D01*
Y243157D01*
X449757Y242157D01*
X452756D01*
X450757D02*
X448757Y240158D01*
X446758Y244156D02*
Y241157D01*
X445758Y240158D01*
X442759D01*
Y244156D01*
X440760Y240158D02*
Y244156D01*
X437761D01*
X436761Y243157D01*
Y240158D01*
X434762D02*
Y244156D01*
X431763D01*
X430763Y243157D01*
Y240158D01*
X428764D02*
X426764D01*
X427764D01*
Y244156D01*
X428764D01*
X423765Y240158D02*
Y244156D01*
X420766D01*
X419767Y243157D01*
Y240158D01*
X415768Y238158D02*
X414768D01*
X413768Y239158D01*
Y244156D01*
X416768D01*
X417767Y243157D01*
Y241157D01*
X416768Y240158D01*
X413768D01*
X488127Y246156D02*
X492126D01*
Y240158D01*
X488127D01*
X492126Y243157D02*
X490127D01*
X486128Y244156D02*
Y240158D01*
Y242157D01*
X485128Y243157D01*
X484129Y244156D01*
X483129D01*
X480130D02*
Y240158D01*
Y242157D01*
X479130Y243157D01*
X478130Y244156D01*
X477131D01*
X473132Y240158D02*
X471133D01*
X470133Y241157D01*
Y243157D01*
X471133Y244156D01*
X473132D01*
X474132Y243157D01*
Y241157D01*
X473132Y240158D01*
X468134Y244156D02*
Y240158D01*
Y242157D01*
X467134Y243157D01*
X466134Y244156D01*
X465135D01*
X526772Y246156D02*
Y241157D01*
X525772Y240158D01*
X523773D01*
X522773Y241157D01*
Y246156D01*
X520774Y240158D02*
X517775D01*
X516775Y241157D01*
X517775Y242157D01*
X519774D01*
X520774Y243157D01*
X519774Y244156D01*
X516775D01*
X511776Y240158D02*
X513776D01*
X514776Y241157D01*
Y243157D01*
X513776Y244156D01*
X511776D01*
X510777Y243157D01*
Y242157D01*
X514776D01*
X508778Y244156D02*
Y240158D01*
Y242157D01*
X507778Y243157D01*
X506778Y244156D01*
X505778D01*
X401575Y234345D02*
Y228346D01*
X397576D01*
X391578Y234345D02*
X395577D01*
Y228346D01*
X391578D01*
X395577Y231346D02*
X393577D01*
X389579Y234345D02*
Y228346D01*
X386580D01*
X385580Y229346D01*
Y233345D01*
X386580Y234345D01*
X389579D01*
X377583Y228346D02*
X375583D01*
X376583D01*
Y234345D01*
X377583Y233345D01*
X527165Y234345D02*
Y228346D01*
X523167D01*
X517169Y234345D02*
X521167D01*
Y228346D01*
X517169D01*
X521167Y231346D02*
X519168D01*
X515169Y234345D02*
Y228346D01*
X512170D01*
X511170Y229346D01*
Y233345D01*
X512170Y234345D01*
X515169D01*
X506172Y228346D02*
Y234345D01*
X509171Y231346D01*
X505172D01*
X452756Y234345D02*
Y228346D01*
X448757D01*
X442759Y234345D02*
X446758D01*
Y228346D01*
X442759D01*
X446758Y231346D02*
X444759D01*
X440760Y234345D02*
Y228346D01*
X437761D01*
X436761Y229346D01*
Y233345D01*
X437761Y234345D01*
X440760D01*
X424765Y228346D02*
X428764D01*
X424765Y232345D01*
Y233345D01*
X425765Y234345D01*
X427764D01*
X428764Y233345D01*
X492126Y234345D02*
Y228346D01*
X488127D01*
X482129Y234345D02*
X486128D01*
Y228346D01*
X482129D01*
X486128Y231346D02*
X484129D01*
X480130Y234345D02*
Y228346D01*
X477131D01*
X476131Y229346D01*
Y233345D01*
X477131Y234345D01*
X480130D01*
X468134Y233345D02*
X467134Y234345D01*
X465135D01*
X464135Y233345D01*
Y232345D01*
X465135Y231346D01*
X466134D01*
X465135D01*
X464135Y230346D01*
Y229346D01*
X465135Y228346D01*
X467134D01*
X468134Y229346D01*
X173954Y31589D02*
X177953D01*
Y25591D01*
X173954D01*
X177953Y28590D02*
X175953D01*
X171955Y25591D02*
Y29589D01*
X168956D01*
X167956Y28590D01*
Y25591D01*
X164957Y29589D02*
X162958D01*
X161958Y28590D01*
Y25591D01*
X164957D01*
X165957Y26590D01*
X164957Y27590D01*
X161958D01*
X159959Y31589D02*
Y25591D01*
X156959D01*
X155960Y26590D01*
Y27590D01*
Y28590D01*
X156959Y29589D01*
X159959D01*
X153961Y25591D02*
X151961D01*
X152961D01*
Y31589D01*
X153961D01*
X145963Y25591D02*
X147962D01*
X148962Y26590D01*
Y28590D01*
X147962Y29589D01*
X145963D01*
X144963Y28590D01*
Y27590D01*
X148962D01*
X132967Y30589D02*
X133967Y31589D01*
X135966D01*
X136966Y30589D01*
Y26590D01*
X135966Y25591D01*
X133967D01*
X132967Y26590D01*
X129968Y25591D02*
X127969D01*
X126969Y26590D01*
Y28590D01*
X127969Y29589D01*
X129968D01*
X130968Y28590D01*
Y26590D01*
X129968Y25591D01*
X124970D02*
Y29589D01*
X121971D01*
X120971Y28590D01*
Y25591D01*
X117972Y30589D02*
Y29589D01*
X118972D01*
X116972D01*
X117972D01*
Y26590D01*
X116972Y25591D01*
X113973Y29589D02*
Y25591D01*
Y27590D01*
X112974Y28590D01*
X111974Y29589D01*
X110974D01*
X106976Y25591D02*
X104976D01*
X103977Y26590D01*
Y28590D01*
X104976Y29589D01*
X106976D01*
X107975Y28590D01*
Y26590D01*
X106976Y25591D01*
X101977D02*
X99978D01*
X100978D01*
Y31589D01*
X101977D01*
X234584Y30589D02*
X235584Y31589D01*
X237583D01*
X238583Y30589D01*
Y29589D01*
X237583Y28590D01*
X235584D01*
X234584Y27590D01*
Y26590D01*
X235584Y25591D01*
X237583D01*
X238583Y26590D01*
X232585Y31589D02*
X228586D01*
X230585D01*
Y25591D01*
X223587Y31589D02*
X225587D01*
X226587Y30589D01*
Y26590D01*
X225587Y25591D01*
X223587D01*
X222588Y26590D01*
Y30589D01*
X223587Y31589D01*
X220588Y25591D02*
Y31589D01*
X217589D01*
X216590Y30589D01*
Y28590D01*
X217589Y27590D01*
X220588D01*
X79860Y33557D02*
X83858D01*
Y27559D01*
X79860D01*
X83858Y30558D02*
X81859D01*
X77860Y27559D02*
Y31558D01*
X74861D01*
X73861Y30558D01*
Y27559D01*
X70863Y31558D02*
X68863D01*
X67863Y30558D01*
Y27559D01*
X70863D01*
X71862Y28559D01*
X70863Y29558D01*
X67863D01*
X65864Y33557D02*
Y27559D01*
X62865D01*
X61865Y28559D01*
Y29558D01*
Y30558D01*
X62865Y31558D01*
X65864D01*
X59866Y27559D02*
X57867D01*
X58866D01*
Y33557D01*
X59866D01*
X51869Y27559D02*
X53868D01*
X54868Y28559D01*
Y30558D01*
X53868Y31558D01*
X51869D01*
X50869Y30558D01*
Y29558D01*
X54868D01*
X38873Y32557D02*
X39873Y33557D01*
X41872D01*
X42871Y32557D01*
Y31558D01*
X41872Y30558D01*
X39873D01*
X38873Y29558D01*
Y28559D01*
X39873Y27559D01*
X41872D01*
X42871Y28559D01*
X36873Y31558D02*
Y28559D01*
X35874Y27559D01*
X32875D01*
Y26559D01*
X33874Y25560D01*
X34874D01*
X32875Y27559D02*
Y31558D01*
X30875Y27559D02*
X27876D01*
X26877Y28559D01*
X27876Y29558D01*
X29876D01*
X30875Y30558D01*
X29876Y31558D01*
X26877D01*
X23878Y32557D02*
Y31558D01*
X24877D01*
X22878D01*
X23878D01*
Y28559D01*
X22878Y27559D01*
X16880D02*
X18879D01*
X19879Y28559D01*
Y30558D01*
X18879Y31558D01*
X16880D01*
X15880Y30558D01*
Y29558D01*
X19879D01*
X13881Y27559D02*
Y31558D01*
X12881D01*
X11882Y30558D01*
Y27559D01*
Y30558D01*
X10882Y31558D01*
X9882Y30558D01*
Y27559D01*
X231828Y44762D02*
X232828Y45762D01*
X234827D01*
X235827Y44762D01*
Y43762D01*
X234827Y42763D01*
X232828D01*
X231828Y41763D01*
Y40764D01*
X232828Y39764D01*
X234827D01*
X235827Y40764D01*
X229829Y45762D02*
Y39764D01*
X227829Y41763D01*
X225830Y39764D01*
Y45762D01*
X223831Y44762D02*
X222831Y45762D01*
X220832D01*
X219832Y44762D01*
Y43762D01*
X220832Y42763D01*
X221831D01*
X220832D01*
X219832Y41763D01*
Y40764D01*
X220832Y39764D01*
X222831D01*
X223831Y40764D01*
X142852Y44762D02*
X143851Y45762D01*
X145851D01*
X146850Y44762D01*
Y43762D01*
X145851Y42763D01*
X143851D01*
X142852Y41763D01*
Y40764D01*
X143851Y39764D01*
X145851D01*
X146850Y40764D01*
X140852Y45762D02*
Y39764D01*
X138853Y41763D01*
X136854Y39764D01*
Y45762D01*
X130856Y39764D02*
X134854D01*
X130856Y43762D01*
Y44762D01*
X131855Y45762D01*
X133855D01*
X134854Y44762D01*
X49151D02*
X50151Y45762D01*
X52150D01*
X53150Y44762D01*
Y43762D01*
X52150Y42763D01*
X50151D01*
X49151Y41763D01*
Y40764D01*
X50151Y39764D01*
X52150D01*
X53150Y40764D01*
X47151Y45762D02*
Y39764D01*
X45152Y41763D01*
X43153Y39764D01*
Y45762D01*
X41153Y39764D02*
X39154D01*
X40154D01*
Y45762D01*
X41153Y44762D01*
X401575Y240158D02*
Y246156D01*
X398576D01*
X397576Y245156D01*
Y243157D01*
X398576Y242157D01*
X401575D01*
X399575D02*
X397576Y240158D01*
X392578D02*
X394577D01*
X395577Y241157D01*
Y243157D01*
X394577Y244156D01*
X392578D01*
X391578Y243157D01*
Y242157D01*
X395577D01*
X388579Y244156D02*
X386580D01*
X385580Y243157D01*
Y240158D01*
X388579D01*
X389579Y241157D01*
X388579Y242157D01*
X385580D01*
X379582Y246156D02*
Y240158D01*
X382581D01*
X383581Y241157D01*
Y243157D01*
X382581Y244156D01*
X379582D01*
X377583D02*
Y241157D01*
X376583Y240158D01*
X373584D01*
Y239158D01*
X374584Y238158D01*
X375583D01*
X373584Y240158D02*
Y244156D01*
D11*
X243721Y89252D02*
Y225236D01*
X218721D02*
X243721D01*
X218721Y89252D02*
Y225236D01*
Y89252D02*
X243721D01*
D12*
X332700Y179220D02*
G03*
X330734Y182775I-4008J105D01*
G01*
X271756Y185508D02*
G03*
X269765Y187423I-7672J-5981D01*
G01*
X263629Y185502D02*
G03*
X261593Y187418I-6929J-5324D01*
G01*
X296550Y176850D02*
G03*
X298429Y177201I69J4832D01*
G01*
X339467Y187295D02*
G03*
X338299Y188410I-5507J-4599D01*
G01*
X363661Y177123D02*
G03*
X366170Y176845I2411J10263D01*
G01*
X298975Y189013D02*
G03*
X296550Y189475I-2353J-5743D01*
G01*
X298429Y187750D02*
G03*
X294687Y187750I-1871J-4807D01*
G01*
X294065Y175947D02*
G03*
X298975Y175947I2455J6225D01*
G01*
X362632Y176033D02*
G03*
X366178Y175476I3257J9155D01*
G01*
X279002Y189040D02*
G03*
X277346Y187102I1525J-2981D01*
G01*
X294068Y188999D02*
G03*
X292180Y187624I1987J-4712D01*
G01*
X300863Y187646D02*
G03*
X298975Y189013I-3875J-3367D01*
G01*
X359263Y180232D02*
G03*
X360407Y177645I6220J1202D01*
G01*
X261593Y187418D02*
G03*
X259435Y188095I-2207J-3254D01*
G01*
X263740Y187036D02*
G03*
X262642Y188232I-5083J-3566D01*
G01*
X269765Y187423D02*
G03*
X267686Y188101I-2110J-2947D01*
G01*
X278532Y186118D02*
G03*
X278367Y184512I6805J-1508D01*
G01*
X283693Y187432D02*
G03*
X281501Y188101I-2216J-3335D01*
G01*
X285806Y187156D02*
G03*
X284518Y188360I-6366J-5517D01*
G01*
X294687Y187750D02*
G03*
X293240Y186701I1484J-3571D01*
G01*
X292180Y187624D02*
G03*
X290973Y185430I4742J-4039D01*
G01*
X290973Y179530D02*
G03*
X292175Y177321I6045J1858D01*
G01*
D02*
G03*
X294065Y175947I3898J3374D01*
G01*
X294687Y177201D02*
G03*
X296550Y176850I1801J4436D01*
G01*
X302068Y185455D02*
G03*
X300863Y187646I-5928J-1831D01*
G01*
X299876Y186701D02*
G03*
X298429Y187750I-2931J-2523D01*
G01*
X300855Y177313D02*
G03*
X302068Y179521I-4883J4119D01*
G01*
X298975Y175947D02*
G03*
X300855Y177313I-1932J4632D01*
G01*
X312680Y219770D02*
G03*
X312541Y219687I-3J-153D01*
G01*
X306501Y219391D02*
G03*
X306051Y220477I-1536J0D01*
G01*
X329869Y183233D02*
G03*
X329377Y183424I-2894J-6731D01*
G01*
X323234Y179203D02*
G03*
X324090Y178386I7180J6667D01*
G01*
X326429Y177065D02*
G03*
X327806Y176850I1359J4191D01*
G01*
X323234Y177536D02*
G03*
X324628Y176515I6219J7033D01*
G01*
X331948Y187105D02*
G03*
X331651Y187667I-3334J-1406D01*
G01*
X331504Y176496D02*
G03*
X332379Y177684I-2334J2637D01*
G01*
X360407Y177645D02*
G03*
X362632Y176033I3987J3162D01*
G01*
X372343Y178189D02*
G03*
X373054Y179906I-6077J3522D01*
G01*
X366170Y176845D02*
G03*
X368654Y177123I108J10246D01*
G01*
X261462Y188979D02*
G03*
X260258Y189364I-2176J-4735D01*
G01*
X259146Y188087D02*
G03*
X258874Y188062I240J-4094D01*
G01*
X257180Y189040D02*
G03*
X255950Y187732I1495J-2637D01*
G01*
X260258Y189364D02*
G03*
X259081Y189475I-1191J-6301D01*
G01*
X257026Y186659D02*
G03*
X256948Y186416I3417J-1226D01*
G01*
X270449Y188385D02*
G03*
X269289Y189082I-3738J-4906D01*
G01*
X268249Y189400D02*
G03*
X267306Y189475I-969J-6190D01*
G01*
X267306Y189475D02*
G03*
X265076Y188876I-130J-3966D01*
G01*
X265594Y187259D02*
G03*
X265151Y186144I2279J-1552D01*
G01*
X287287Y220927D02*
G03*
X286201Y220477I0J-1536D01*
G01*
X287502Y219762D02*
G03*
X286919Y219176I3J-586D01*
G01*
X283286Y189063D02*
G03*
X282143Y189389I-1948J-4659D01*
G01*
X281114Y189475D02*
G03*
X279623Y189282I-68J-5308D01*
G01*
X281501Y188101D02*
G03*
X280037Y187886I-115J-4312D01*
G01*
X285815Y185541D02*
G03*
X283693Y187432I-7742J-6554D01*
G01*
X296550Y189475D02*
G03*
X294068Y188999I-81J-6276D01*
G01*
X293240Y178267D02*
G03*
X294687Y177201I2907J2434D01*
G01*
X298429D02*
G03*
X299876Y178267I-1460J3500D01*
G01*
X305777Y196985D02*
G03*
X306866Y196527I1095J1081D01*
G01*
X329918Y189027D02*
G03*
X329574Y189146I-1864J-4810D01*
G01*
X327689Y188077D02*
G03*
X326973Y188101I-698J-10448D01*
G01*
X327949Y189440D02*
G03*
X327480Y189467I-875J-11060D01*
G01*
X326973Y188101D02*
G03*
X324945Y187791I-213J-5397D01*
G01*
X326987Y189475D02*
G03*
X324605Y189132I-171J-7248D01*
G01*
X324605D02*
G03*
X323010Y188145I1237J-3782D01*
G01*
X329803Y187518D02*
G03*
X329604Y187629I-1400J-2276D01*
G01*
X323830Y186941D02*
G03*
X323345Y185661I2376J-1633D01*
G01*
X325601Y184034D02*
G03*
X324834Y184047I-758J-22560D01*
G01*
X327666Y183843D02*
G03*
X327017Y183932I-2233J-13873D01*
G01*
X329825Y181813D02*
G03*
X329514Y181976I-2101J-3632D01*
G01*
X327960Y182457D02*
G03*
X327495Y182535I-1890J-9935D01*
G01*
X326473Y182638D02*
G03*
X325327Y182672I-1116J-18102D01*
G01*
X329746Y177174D02*
G03*
X330369Y177511I-1133J2837D01*
G01*
X325171Y177622D02*
G03*
X326429Y177065I3194J5506D01*
G01*
X327243Y175562D02*
G03*
X328542Y175476I1281J9449D01*
G01*
X324628Y176515D02*
G03*
X325952Y175880I3817J6255D01*
G01*
X328542Y175476D02*
G03*
X330187Y175740I39J4999D01*
G01*
X336732Y187861D02*
G03*
X335585Y188101I-1141J-2596D01*
G01*
X337183Y189082D02*
G03*
X336135Y189400I-1772J-3957D01*
G01*
X338722Y186358D02*
G03*
X337788Y187234I-4942J-4336D01*
G01*
X347158Y220641D02*
G03*
X346744Y220813I-414J-414D01*
G01*
X345793Y196527D02*
G03*
X347330Y198066I-3J1539D01*
G01*
X344469Y177006D02*
G03*
X345275Y177084I46J3725D01*
G01*
X346454Y175880D02*
G03*
X347291Y176627I-687J1611D01*
G01*
X361823Y178163D02*
G03*
X363661Y177123I2696J2619D01*
G01*
X368654Y177123D02*
G03*
X370492Y178155I-921J3793D01*
G01*
X366178Y175476D02*
G03*
X369078Y175827I206J10440D01*
G01*
X369078Y175827D02*
G03*
X371080Y176780I-1604J5947D01*
G01*
X290973Y185430D02*
G03*
X290973Y179530I10089J-2950D01*
G01*
X292298Y184950D02*
G03*
X292298Y180037I8699J-2457D01*
G01*
X300810D02*
G03*
X300810Y184950I-9006J2457D01*
G01*
X302068Y179521D02*
G03*
X302068Y185455I-10067J2967D01*
G01*
X265076Y188876D02*
G03*
X263740Y187036I1920J-2798D01*
G01*
X331306Y179357D02*
G03*
X329825Y181813I-2699J48D01*
G01*
X360708Y180269D02*
G03*
X361823Y178163I4764J1176D01*
G01*
X370492Y178155D02*
G03*
X371635Y180260I-3520J3274D01*
G01*
X373054Y179906D02*
G03*
X373358Y181797I-9437J2487D01*
G01*
X256787Y185561D02*
G03*
X256757Y185232I7801J-875D01*
G01*
X255393Y185552D02*
G03*
X255356Y184632I10776J-891D01*
G01*
X255950Y187732D02*
G03*
X255690Y187102I3910J-1987D01*
G01*
X257773Y187685D02*
G03*
X257330Y187259I935J-1416D01*
G01*
X265151Y186143D02*
G03*
X265023Y184512I8807J-1513D01*
G01*
X266431Y187894D02*
G03*
X265594Y187259I642J-1713D01*
G01*
X271756Y187156D02*
G03*
X270449Y188385I-6735J-5852D01*
G01*
X277015Y185552D02*
G03*
X276973Y184632I9702J-898D01*
G01*
X280037Y187886D02*
G03*
X279067Y187234I727J-2129D01*
G01*
X286201Y220477D02*
G03*
X285751Y219391I1086J-1086D01*
G01*
X293240Y186701D02*
G03*
X292298Y184950I3723J-3133D01*
G01*
X292298Y180037D02*
G03*
X293240Y178267I4812J1425D01*
G01*
X300810Y184950D02*
G03*
X299876Y186701I-4584J-1321D01*
G01*
X299876Y178267D02*
G03*
X300810Y180037I-3802J3138D01*
G01*
X310864Y220518D02*
G03*
X310960Y219700I667J-337D01*
G01*
X323345Y185661D02*
G03*
X323242Y184047I11429J-1541D01*
G01*
X322118Y186581D02*
G03*
X321839Y184512I6909J-1984D01*
G01*
X323010Y188145D02*
G03*
X322118Y186581I2774J-2619D01*
G01*
X324945Y187791D02*
G03*
X323830Y186941I882J-2314D01*
G01*
X328226Y219599D02*
G03*
X327812Y219770I-414J-414D01*
G01*
X329566Y219391D02*
G03*
X329116Y220477I-1536J0D01*
G01*
X329604Y187629D02*
G03*
X329387Y187728I-1393J-2767D01*
G01*
X328720Y176910D02*
G03*
X328998Y176956I-710J5108D01*
G01*
X330369Y177511D02*
G03*
X331306Y179357I-1195J1767D01*
G01*
X332379Y177684D02*
G03*
X332700Y179220I-3287J1488D01*
G01*
X337788Y187234D02*
G03*
X336732Y187861I-3038J-3914D01*
G01*
X339467Y185354D02*
G03*
X338722Y186358I-5778J-3507D01*
G01*
X346234Y178183D02*
G03*
X346357Y179499I-5547J1181D01*
G01*
X347291Y176627D02*
G03*
X347664Y177871I-2834J1529D01*
G01*
X347664D02*
G03*
X347751Y179616I-15101J1623D01*
G01*
X358934Y183701D02*
G03*
X359263Y180232I16489J-186D01*
G01*
X360329Y183757D02*
G03*
X360708Y180269I13101J-341D01*
G01*
X371635Y180260D02*
G03*
X372025Y183757I-12529J3169D01*
G01*
X371080Y176780D02*
G03*
X372343Y178189I-2811J3792D01*
G01*
X373409Y182953D02*
G03*
X373419Y183518I-28627J773D01*
G01*
X256829Y185867D02*
G03*
X256787Y185561I6431J-1032D01*
G01*
X256948Y186416D02*
G03*
X256882Y186153I4255J-1198D01*
G01*
X255690Y187102D02*
G03*
X255504Y186376I5555J-1809D01*
G01*
X256882Y186153D02*
G03*
X256829Y185867I5254J-1137D01*
G01*
X255504Y186376D02*
G03*
X255393Y185552I7803J-1475D01*
G01*
X256757Y185232D02*
G03*
X256733Y184512I10244J-700D01*
G01*
X258161Y187886D02*
G03*
X257958Y187794I804J-2040D01*
G01*
X258381Y187961D02*
G03*
X258161Y187886I704J-2422D01*
G01*
X258619Y188020D02*
G03*
X258381Y187961I584J-2887D01*
G01*
X258874Y188062D02*
G03*
X258619Y188020I433J-3442D01*
G01*
X257739Y189282D02*
G03*
X257180Y189040I962J-2987D01*
G01*
X257958Y187794D02*
G03*
X257773Y187685I894J-1729D01*
G01*
X259081Y189475D02*
G03*
X257739Y189282I-60J-4332D01*
G01*
X257115Y186880D02*
G03*
X257026Y186659I2722J-1230D01*
G01*
X257217Y187080D02*
G03*
X257115Y186880I2154J-1219D01*
G01*
X257330Y187259D02*
G03*
X257217Y187080I1696J-1202D01*
G01*
X259435Y188095D02*
G03*
X259146Y188087I-4J-4850D01*
G01*
X262642Y188232D02*
G03*
X261462Y188979I-3617J-4404D01*
G01*
X267686Y188101D02*
G03*
X266431Y187894I-99J-3319D01*
G01*
X269289Y189082D02*
G03*
X268249Y189400I-1771J-3936D01*
G01*
X277139Y186376D02*
G03*
X277015Y185552I7044J-1484D01*
G01*
X277346Y187102D02*
G03*
X277139Y186376I5055J-1833D01*
G01*
X278710Y196703D02*
G03*
X279126Y196527I419J409D01*
G01*
X279126Y197709D02*
G03*
X278543Y197124I3J-586D01*
G01*
X278543Y197124D02*
G03*
X278710Y196703I585J-11D01*
G01*
X279623Y189282D02*
G03*
X279002Y189040I1028J-3554D01*
G01*
X279067Y187234D02*
G03*
X278532Y186118I2090J-1690D01*
G01*
X282143Y189389D02*
G03*
X281114Y189475I-1053J-6368D01*
G01*
X284518Y188360D02*
G03*
X283286Y189063I-3404J-4539D01*
G01*
X285579Y197879D02*
G03*
X285751Y198292I-411J413D01*
G01*
X285165Y197709D02*
G03*
X285579Y197879I3J583D01*
G01*
X285383Y196527D02*
G03*
X286919Y198066I-3J1539D01*
G01*
X306051Y220477D02*
G03*
X304965Y220927I-1086J-1086D01*
G01*
X305333Y219176D02*
G03*
X304750Y219762I-586J0D01*
G01*
X305333Y198080D02*
G03*
X305777Y196985I1539J-14D01*
G01*
X306673Y197868D02*
G03*
X307087Y197698I411J413D01*
G01*
X306501Y198281D02*
G03*
X306673Y197868I583J0D01*
G01*
X311578Y220927D02*
G03*
X310864Y220518I-47J-746D01*
G01*
X312541Y219687D02*
G03*
X312554Y219525I137J-70D01*
G01*
X321747Y196527D02*
G03*
X322161Y196698I0J586D01*
G01*
X322333Y197113D02*
G03*
X322161Y197527I-586J0D01*
G01*
D02*
G03*
X321747Y197698I-414J-414D01*
G01*
X322161Y196698D02*
G03*
X322333Y197113I-414J414D01*
G01*
X324090Y178386D02*
G03*
X325171Y177622I4820J5677D01*
G01*
X327480Y189467D02*
G03*
X326987Y189475I-473J-12901D01*
G01*
X326329Y183996D02*
G03*
X325601Y184034I-1376J-19296D01*
G01*
X327017Y183932D02*
G03*
X326329Y183996I-1862J-16409D01*
G01*
X326999Y182595D02*
G03*
X326473Y182638I-1419J-14156D01*
G01*
X327495Y182535D02*
G03*
X326999Y182595I-1695J-11902D01*
G01*
X325952Y175880D02*
G03*
X327243Y175562I2103J5762D01*
G01*
X329116Y220477D02*
G03*
X328029Y220927I-1086J-1086D01*
G01*
X328397Y219184D02*
G03*
X328226Y219599I-586J0D01*
G01*
X328980Y203576D02*
G03*
X329394Y203747I0J586D01*
G01*
D02*
G03*
X329566Y204161I-414J414D01*
G01*
X328397D02*
G03*
X328567Y203747I583J-3D01*
G01*
D02*
G03*
X328980Y203576I413J411D01*
G01*
X328604Y197776D02*
G03*
X328726Y197712I200J233D01*
G01*
X327670Y197085D02*
G03*
X328726Y196527I1116J835D01*
G01*
X328896Y187891D02*
G03*
X328623Y187955I-1289J-4884D01*
G01*
X329151Y187815D02*
G03*
X328896Y187891I-1345J-4059D01*
G01*
X329387Y187728D02*
G03*
X329151Y187815I-1378J-3358D01*
G01*
X329574Y189146D02*
G03*
X329205Y189248I-1764J-5718D01*
G01*
X329205D02*
G03*
X328812Y189330I-1627J-6781D01*
G01*
X328019Y188048D02*
G03*
X327689Y188077I-893J-8226D01*
G01*
X328330Y188008D02*
G03*
X328019Y188048I-1070J-6955D01*
G01*
X328393Y189394D02*
G03*
X327949Y189440I-1194J-9437D01*
G01*
X328623Y187955D02*
G03*
X328330Y188008I-1199J-5845D01*
G01*
X328812Y189330D02*
G03*
X328393Y189394I-1440J-8015D01*
G01*
X329377Y183424D02*
G03*
X328846Y183589I-2819J-8119D01*
G01*
X328276Y183729D02*
G03*
X327666Y183843I-2505J-11664D01*
G01*
X328846Y183589D02*
G03*
X328276Y183729I-2694J-9754D01*
G01*
X329171Y182122D02*
G03*
X328798Y182251I-2121J-5535D01*
G01*
X329514Y181976D02*
G03*
X329171Y182122I-2120J-4495D01*
G01*
X328395Y182363D02*
G03*
X327960Y182457I-2018J-8232D01*
G01*
X328798Y182251D02*
G03*
X328395Y182363I-2091J-6773D01*
G01*
X329261Y177015D02*
G03*
X329746Y177174I-954J3737D01*
G01*
X328998Y176956D02*
G03*
X329261Y177015I-875J4486D01*
G01*
X328125Y176857D02*
G03*
X328430Y176877I-277J6618D01*
G01*
X327806Y176850D02*
G03*
X328125Y176857I3J7520D01*
G01*
X328430Y176877D02*
G03*
X328720Y176910I-513J5816D01*
G01*
X330236Y188889D02*
G03*
X329918Y189027I-1939J-4042D01*
G01*
X331651Y187667D02*
G03*
X330798Y188558I-2784J-1809D01*
G01*
X330798Y188558D02*
G03*
X330236Y188889I-2164J-3030D01*
G01*
X330918Y185748D02*
G03*
X329803Y187518I-2354J-246D01*
G01*
X330734Y182775D02*
G03*
X329869Y183233I-3165J-4935D01*
G01*
X330187Y175740D02*
G03*
X331504Y176496I-1257J3713D01*
G01*
X332160Y186465D02*
G03*
X332065Y186794I-4401J-1095D01*
G01*
X332065D02*
G03*
X331948Y187105I-3881J-1284D01*
G01*
X332287Y185748D02*
G03*
X332160Y186465I-5396J-581D01*
G01*
X336135Y189400D02*
G03*
X335217Y189475I-967J-6159D01*
G01*
X335081Y188101D02*
G03*
X334665Y188067I-15J-2412D01*
G01*
X338299Y188410D02*
G03*
X337183Y189082I-3661J-4814D01*
G01*
X343928Y177012D02*
G03*
X343960Y177010I129J1715D01*
G01*
X343862Y177018D02*
G03*
X343928Y177012I178J1486D01*
G01*
X343828Y177023D02*
G03*
X343862Y177018I195J1331D01*
G01*
X344419Y175646D02*
G03*
X344595Y175636I408J5762D01*
G01*
X346744Y220813D02*
G03*
X346162Y220227I3J-586D01*
G01*
X345990Y197882D02*
G03*
X346161Y198295I-411J413D01*
G01*
X345576Y197712D02*
G03*
X345990Y197882I3J583D01*
G01*
X345871Y177427D02*
G03*
X346234Y178183I-1300J1088D01*
G01*
X345275Y177084D02*
G03*
X345871Y177427I-217J1068D01*
G01*
X345007Y175629D02*
G03*
X346454Y175880I140J3491D01*
G01*
X347330Y220227D02*
G03*
X347158Y220641I-586J0D01*
G01*
X373389Y182379D02*
G03*
X373409Y182953I-32723J1458D01*
G01*
X306448Y193254D02*
X319252Y177639D01*
X312554Y219525D02*
X328604Y197776D01*
X310960Y219700D02*
X327670Y197085D01*
X312680Y219770D02*
X327812D01*
X311578Y220927D02*
X328029D01*
X279126Y196527D02*
X285383D01*
X279126Y197709D02*
X285165D01*
X306866Y196527D02*
X321747D01*
X307087Y197698D02*
X321747D01*
X305020Y194631D02*
X318125D01*
X306448Y193254D02*
X318125D01*
X304664Y175819D02*
X319252D01*
X305020Y192791D02*
X317846Y177193D01*
X287287Y220927D02*
X304965D01*
X287502Y219762D02*
X304750D01*
X304664Y177193D02*
X317846D01*
X328726Y196527D02*
X345793D01*
X328726Y197712D02*
X345576D01*
X347751Y187758D02*
X349465D01*
X347751Y189132D02*
X349465D01*
X271756D02*
X273150D01*
X271756Y175819D02*
X273150D01*
X285815Y194631D02*
X287209D01*
X285815Y175819D02*
X287209D01*
X323242Y184047D02*
X324834D01*
X323234Y182672D02*
X325327D01*
X330918Y185748D02*
X332287D01*
X346357Y192623D02*
X347751D01*
X339467Y189132D02*
X340861D01*
X344157Y187761D02*
X346357D01*
X344157Y189135D02*
X346357D01*
X344772Y175631D02*
X344831Y175630D01*
X339467Y175819D02*
X340861D01*
X352700Y194631D02*
X354094D01*
X352700Y175819D02*
X354094D01*
X358934Y194631D02*
X360329D01*
X372025D02*
X373420D01*
X256733Y175819D02*
Y184512D01*
X255339Y175819D02*
X255356Y184632D01*
X265023Y175813D02*
Y184512D01*
X263629Y175813D02*
Y185502D01*
X271756Y175819D02*
Y185508D01*
X273150Y175819D02*
Y189132D01*
X278367Y175819D02*
Y184512D01*
X276973Y175819D02*
Y184632D01*
X285815Y175819D02*
Y185541D01*
X286919Y198066D02*
Y219176D01*
X285751Y198292D02*
Y219391D01*
X287209Y175819D02*
Y194631D01*
X305333Y198080D02*
Y219176D01*
X306501Y198281D02*
Y219391D01*
X321839Y175819D02*
Y184512D01*
X329566Y204161D02*
Y219391D01*
X328397Y204161D02*
Y219184D01*
X339467Y175819D02*
Y185354D01*
X340861Y175819D02*
Y189132D01*
X346357Y179499D02*
Y187761D01*
X346162Y198295D02*
Y220227D01*
X347751Y179616D02*
Y187758D01*
X347330Y198066D02*
Y220227D01*
X352700Y175819D02*
Y194631D01*
X354094Y175819D02*
Y194631D01*
X358934Y183701D02*
Y194631D01*
X360329Y183757D02*
Y194631D01*
X372025Y183757D02*
Y194631D01*
X373420Y183704D02*
Y194631D01*
X271756Y187156D02*
Y189132D01*
X285806Y187156D02*
X285815Y194631D01*
X323234Y179203D02*
Y182672D01*
X339467Y187295D02*
Y189132D01*
X305020Y192791D02*
Y194631D01*
X304664Y175819D02*
Y177193D01*
X318125Y193254D02*
Y194631D01*
X319252Y175819D02*
Y177639D01*
X323234Y175819D02*
Y177536D01*
X343828Y177023D02*
X343830Y175699D01*
X346357Y189135D02*
Y192623D01*
X347751Y189132D02*
Y192623D01*
X255339Y175819D02*
X256733D01*
X263629Y175813D02*
X265023D01*
X276973Y175819D02*
X278367D01*
X321839D02*
X323234D01*
X335081Y188101D02*
X335585D01*
X334679Y189450D02*
X334958Y189475D01*
X334665Y188067D02*
X334679Y189450D01*
X334958Y189475D02*
X335217D01*
X344157Y187761D02*
Y189135D01*
X344140Y177006D02*
X344469D01*
X344083Y177006D02*
X344140Y177006D01*
X344054Y177007D02*
X344083Y177006D01*
X344023Y177007D02*
X344054Y177007D01*
X343992Y177008D02*
X344023Y177007D01*
X343960Y177010D02*
X343992Y177008D01*
X343830Y175699D02*
X344007Y175680D01*
X344125Y175669D01*
X344243Y175659D01*
X344360Y175650D01*
X344419Y175646D01*
X344595Y175636D02*
X344654Y175634D01*
X344713Y175632D01*
X344772Y175631D01*
X344831Y175630D02*
X344890Y175629D01*
X344949Y175629D01*
X345007Y175629D01*
X349465Y187758D02*
Y189132D01*
X373419Y183518D02*
X373420Y183704D01*
X373358Y181797D02*
X373389Y182379D01*
D14*
X247614Y97244D02*
G03*
X247614Y97244I-394J0D01*
G01*
X520472Y183071D02*
X546457D01*
Y209055D01*
X520472D02*
X546457D01*
X520472Y183071D02*
Y209055D01*
X235039Y236220D02*
X232940Y233071D01*
Y236220D02*
X235039Y233071D01*
X231891D02*
X230841D01*
X231366D01*
Y236220D01*
X231891Y235695D01*
X229267D02*
X228742Y236220D01*
X227693D01*
X227168Y235695D01*
Y235170D01*
X227693Y234645D01*
X227168Y234120D01*
Y233596D01*
X227693Y233071D01*
X228742D01*
X229267Y233596D01*
Y234120D01*
X228742Y234645D01*
X229267Y235170D01*
Y235695D01*
X228742Y234645D02*
X227693D01*
M02*
