G04*
G04 #@! TF.GenerationSoftware,Altium Limited,Altium Designer,21.1.1 (26)*
G04*
G04 Layer_Color=16711935*
%FSLAX25Y25*%
%MOIN*%
G70*
G04*
G04 #@! TF.SameCoordinates,022FA635-1C18-43D6-9117-3F95ACA47FE2*
G04*
G04*
G04 #@! TF.FilePolarity,Negative*
G04*
G01*
G75*
%ADD17C,0.11811*%
%ADD18C,0.06102*%
%ADD19O,0.18110X0.05512*%
%ADD20O,0.18110X0.03606*%
D17*
X255906Y118110D02*
D03*
X535433Y236221D02*
D03*
X204724D02*
D03*
D18*
X236221Y97244D02*
D03*
Y107244D02*
D03*
Y117244D02*
D03*
Y127244D02*
D03*
Y137244D02*
D03*
Y147244D02*
D03*
Y157244D02*
D03*
Y167244D02*
D03*
Y177244D02*
D03*
Y187244D02*
D03*
Y197244D02*
D03*
Y207244D02*
D03*
Y217244D02*
D03*
X226220Y97244D02*
D03*
Y107244D02*
D03*
Y117244D02*
D03*
Y127244D02*
D03*
Y137244D02*
D03*
Y147244D02*
D03*
Y157244D02*
D03*
Y167244D02*
D03*
Y177244D02*
D03*
Y187244D02*
D03*
Y197244D02*
D03*
Y207244D02*
D03*
Y217244D02*
D03*
D19*
X228346Y18701D02*
D03*
Y67913D02*
D03*
D20*
X209449Y54134D02*
D03*
X228346D02*
D03*
X247244D02*
D03*
X156693D02*
D03*
X137795D02*
D03*
X118898D02*
D03*
X66142D02*
D03*
X47244D02*
D03*
X28346D02*
D03*
M02*
