M48
;Layer_Color=9474304
;FILE_FORMAT=2:5
INCH,TZ
;TYPE=PLATED
T1F00S00C0.00787
T4F00S00C0.04016
;TYPE=NON_PLATED
T5F00S00C0.11417
%
T01
X499213Y193701
Y196850
X467717
Y193701
X436439
X436419Y196850
X404724
Y193701
T04
X226220Y97244
X236221
Y107244
Y117244
Y127244
Y137244
Y147244
X226220
Y137244
Y127244
Y117244
Y107244
Y157244
X236221
Y167244
Y177244
Y187244
Y197244
Y207244
Y217244
X226220
Y207244
Y197244
Y187244
Y177244
Y167244
T05
X255906Y118110
X535433Y236221
X204724
M30
